<?xml version="1.0" encoding="UTF-8" standalone="no"?>
<svg width="21" height="21" viewBox="0 0 21 21" xmlns="http://www.w3.org/2000/svg">
  <path
     id="address-book"
     class="st2"
     d="M 4.7727145,0.39302539 A 1.5161065,1.5161065 0 0 0 3.2562435,1.909284 V 2.6393027 H 5.7836232 A 1.5161065,1.5161065 0 0 1 7.2998821,4.1557728 V 4.7162814 A 1.5161065,1.5161065 0 0 1 5.7836232,6.23254 H 3.2562435 v 2.583813 h 2.5273797 a 1.5161065,1.5161065 0 0 1 1.5162589,1.514986 v 0.561782 a 1.5161065,1.5161065 0 0 1 -1.5162589,1.51647 H 3.2562435 v 2.582328 h 2.5273797 a 1.5161065,1.5161065 0 0 1 1.5162589,1.516258 v 0.561994 A 1.5161065,1.5161065 0 0 1 5.7836232,18.586429 H 3.2562435 v 0.50556 a 1.5161065,1.5161065 0 0 0 1.516471,1.514986 H 18.92248 a 1.5161065,1.5161065 0 0 0 1.51647,-1.514986 V 1.909284 A 1.5161065,1.5161065 0 0 0 18.92248,0.39302539 Z M 13.432168,3.4200261 a 2.8792151,2.8792151 0 0 1 2.87913,2.8791297 2.8792362,2.8792362 0 1 1 -5.758472,0 2.8792151,2.8792151 0 0 1 2.879342,-2.8791297 z M 1.5023736,3.4953404 A 0.94098049,0.94097761 0 0 0 0.56105009,4.4368757 0.94098049,0.94097761 0 0 0 1.5023736,5.3767135 H 5.0101138 A 0.94098049,0.94097761 0 0 0 5.951649,4.4368757 0.94098049,0.94097761 0 0 0 5.0101138,3.4953404 Z m 0,6.176838 A 0.94098049,0.94097761 0 0 0 0.56105009,10.613502 0.94098049,0.94097761 0 0 0 1.5023736,11.553552 H 5.0101138 A 0.94098049,0.94097761 0 0 0 5.951649,10.613502 0.94098049,0.94097761 0 0 0 5.0101138,9.6721784 Z M 11.248052,10.15016 a 4.4283429,4.4283429 0 0 0 4.369506,0 21.705633,21.705633 0 0 0 0.892102,1.241309 5.5925711,5.5925711 0 0 1 0.596788,1.24555 13.2085,13.2085 0 0 1 0.399697,2.489617 12.694022,12.694022 0 0 1 0,1.734989 l -0.02313,0.0087 a 11.926309,11.969815 0 0 1 -8.1004302,0 l -0.023125,-0.0087 a 12.694022,12.694022 0 0 1 0,-1.734989 13.2085,13.2085 0 0 1 0.3982109,-2.489617 5.5925711,5.5925711 0 0 1 0.5982723,-1.24555 21.705633,21.705633 0 0 0 0.892103,-1.241309 z M 1.5023736,15.848806 A 0.94098049,0.94097761 0 0 0 0.56105009,16.790341 0.94098049,0.94097761 0 0 0 1.5023736,17.730178 H 5.0101138 A 0.94098049,0.94097761 0 0 0 5.951649,16.790341 0.94098049,0.94097761 0 0 0 5.0101138,15.848806 Z"
     style="fill:#000000;fill-opacity:1;stroke:none;stroke-width:0.0347591;stroke-linecap:round;stroke-linejoin:round" />
</svg>