<?xml version="1.0" encoding="UTF-8" standalone="no"?>
<svg width="21" height="21" viewBox="0 0 21 21" xmlns="http://www.w3.org/2000/svg">
  <path
     d="m 5.7292301,17.363162 h 9.5415389 v -1.003328 h -0.653296 a 0.26783765,0.26783765 0 0 1 -0.267838,-0.267838 v -0.469069 a 0.26783765,0.26783765 0 0 1 0.267838,-0.267838 h 2.142701 a 0.26783765,0.26783765 0 0 1 0.267836,0.267838 v 0.469069 a 0.26783765,0.26783765 0 0 1 -0.267836,0.267838 h -0.651881 v 1.003328 h 3.09643 a 1.3391882,1.3391882 0 0 0 1.339189,-1.339187 V 4.9760261 A 1.3391882,1.3391882 0 0 0 19.204723,3.6368382 H 1.7952763 A 1.3391882,1.3391882 0 0 0 0.45608818,4.9760261 V 16.023975 a 1.3391882,1.3391882 0 0 0 1.33918812,1.339187 h 3.09643 v -1.003328 h -0.65188 A 0.26783765,0.26783765 0 0 1 3.9719884,16.091996 v -0.469069 a 0.26783765,0.26783765 0 0 1 0.2678379,-0.267838 h 2.1427009 a 0.26783765,0.26783765 0 0 1 0.2678377,0.267838 v 0.469069 A 0.26783765,0.26783765 0 0 1 6.3825272,16.359834 H 5.7292301 Z M 12.065221,7.9888455 A 0.26783765,0.26783765 0 0 1 11.797383,7.7210079 V 6.2486094 a 0.26783765,0.26783765 0 0 1 0.267838,-0.2678377 h 6.494708 a 0.26783765,0.26783765 0 0 1 0.267838,0.2678377 v 1.4723985 a 0.26783765,0.26783765 0 0 1 -0.267838,0.2678376 z m 0,3.0142365 A 0.26783765,0.26783765 0 0 1 11.797383,10.735245 V 9.2614288 a 0.26783765,0.26783765 0 0 1 0.267838,-0.267838 h 6.494708 a 0.26783765,0.26783765 0 0 1 0.267838,0.267838 v 1.4738162 a 0.26783765,0.26783765 0 0 1 -0.267838,0.267837 z m 0,3.01282 a 0.26783765,0.26783765 0 0 1 -0.267838,-0.267838 v -1.473816 a 0.26783765,0.26783765 0 0 1 0.267838,-0.267838 h 6.494708 a 0.26783765,0.26783765 0 0 1 0.267838,0.267838 v 1.473816 a 0.26783765,0.26783765 0 0 1 -0.267838,0.267838 z M 4.3461109,9.7701778 a 2.8873606,2.8873606 0 0 0 2.8498491,0 14.152456,14.152456 0 0 0 0.5810234,0.8091822 3.6464465,3.6464465 0 0 1 0.389711,0.812016 8.6121988,8.6121988 0 0 1 0.259335,1.624031 8.2767499,8.2767499 0 0 1 0.00144,1.13087 l -0.015592,0.0057 a 7.7761911,7.8045478 0 0 1 -5.2816451,0 l -0.015589,-0.0057 a 8.2767499,8.2767499 0 0 1 0.0014,-1.13087 A 8.6121988,8.6121988 0 0 1 3.3739611,11.391376 3.6464465,3.6464465 0 0 1 3.765089,10.57936 14.152456,14.152456 0 0 0 4.3461124,9.7701778 Z M 7.6480248,7.2590232 a 1.8772725,1.8772725 0 1 1 -3.7539785,0 1.8772725,1.8772725 0 1 1 3.7539785,0 z"
     class="st2"
     id="address-card"
     style="fill:#000000;fill-opacity:1;stroke:none;stroke-width:0.106285;stroke-linecap:round;stroke-linejoin:round" />
</svg>