<?xml version="1.0" encoding="UTF-8" standalone="no"?>
<svg width="21" height="21" viewBox="0 0 21 21" xmlns="http://www.w3.org/2000/svg">
  <path
     id="application-concept"
     class="st2"
     d="M 4.9514645,0.7084659 A 1.4687886,1.4687886 0 0 0 3.4825275,2.177608 v 0.7070283 h 2.448295 a 1.4687886,1.4687886 0 0 1 1.469142,1.4691422 v 0.5430149 a 1.4687886,1.4687886 0 0 1 -1.469142,1.4689345 h -2.448295 v 2.5031717 h 2.448295 a 1.4687886,1.4687886 0 0 1 1.469142,1.4677024 v 0.544454 a 1.4687886,1.4687886 0 0 1 -1.469142,1.468936 h -2.448295 v 2.501733 h 2.448295 a 1.4687886,1.4687886 0 0 1 1.469142,1.46914 v 0.544248 a 1.4687886,1.4687886 0 0 1 -1.469142,1.469142 h -2.448295 v 0.489578 a 1.4687886,1.4687886 0 0 0 1.468937,1.467701 H 18.659612 a 1.4687886,1.4687886 0 0 0 1.469141,-1.467701 V 2.177608 A 1.4687886,1.4687886 0 0 0 18.659612,0.7084659 Z M 1.7831916,3.7141633 a 0.9116137,0.91161091 0 0 0 -0.91194457,0.911945 0.9116137,0.91161091 0 0 0 0.91194457,0.91071 h 3.3982629 a 0.9116137,0.91161091 0 0 0 0.912149,-0.91071 0.9116137,0.91161091 0 0 0 -0.912149,-0.911945 z M 16.33443,4.1225541 a 1.6823116,1.6823116 0 0 1 1.974545,1.6567922 1.6823805,1.6823805 0 0 1 -3.364761,0 1.6823116,1.6823116 0 0 1 1.390216,-1.6567922 z m -6.254948,1.7285225 a 1.6823116,1.6823116 0 0 1 1.974543,1.6567922 1.6823805,1.6823805 0 1 1 -3.3647605,0 1.6823116,1.6823116 0 0 1 1.3902175,-1.6567922 z m 5.270245,2.1788435 a 2.5871962,2.5871962 0 0 0 2.553733,0 12.681206,12.681206 0 0 0 0.520613,0.7253203 3.2673749,3.2673749 0 0 1 0.349198,0.7267617 7.7168859,7.7168859 0 0 1 0.233072,1.4551639 7.4163147,7.4163147 0 0 1 0,1.014299 l -0.01274,0.0043 a 6.9677871,6.9932111 0 0 1 -4.534853,0.06865 1.9996779,1.9996779 0 0 0 0.318573,-3.1863594 3.2673749,3.2673749 0 0 1 0.052,-0.082829 12.681206,12.681206 0 0 0 0.520407,-0.7253206 z m -2.219331,0.5849435 a 1.6821012,1.6821012 0 0 1 1.978037,1.6964584 1.6821012,1.6821012 0 1 1 -3.363116,0 1.6821012,1.6821012 0 0 1 1.385079,-1.6964584 z M 1.7831916,9.6980157 A 0.9116137,0.91161091 0 0 0 0.87124703,10.610165 0.9116137,0.91161091 0 0 0 1.7831916,11.520671 h 3.3982629 a 0.9116137,0.91161091 0 0 0 0.912149,-0.910506 0.9116137,0.91161091 0 0 0 -0.912149,-0.9121493 z m 7.3115879,0.058987 a 2.5871962,2.5871962 0 0 0 2.3866345,0.087144 1.9996779,1.9996779 0 0 0 1.223531,2.3319643 7.7168859,7.7168859 0 0 1 0.03083,0.281989 2.5871962,2.5871962 0 0 1 -0.845968,-0.300281 12.681206,12.681206 0 0 1 -0.52205,0.725321 3.2673749,3.2673749 0 0 0 -0.349405,0.726761 7.7168859,7.7168859 0 0 0 -0.105231,0.468818 6.9677871,6.9932111 0 0 1 -2.9084805,-0.394416 l -0.01274,-0.0056 a 7.4163147,7.4163147 0 0 1 0,-1.013066 7.7168859,7.7168859 0 0 1 0.233074,-1.454958 3.2673749,3.2673749 0 0 1 0.349198,-0.728201 12.681206,12.681206 0 0 0 0.520613,-0.725527 z m 3.0560525,2.8048923 a 2.5871962,2.5871962 0 0 0 2.552087,0 12.681206,12.681206 0 0 0 0.522051,0.725321 3.2673749,3.2673749 0 0 1 0.349404,0.726967 7.7168859,7.7168859 0 0 1 0.232868,1.456398 7.4163147,7.4163147 0 0 1 0,1.012861 l -0.01397,0.0058 a 6.9677871,6.9932111 0 0 1 -4.732779,0 l -0.01397,-0.0058 a 7.4163147,7.4163147 0 0 1 0.0015,-1.012861 7.7168859,7.7168859 0 0 1 0.23143,-1.456398 3.2673749,3.2673749 0 0 1 0.350843,-0.726967 12.681206,12.681206 0 0 0 0.520611,-0.725321 z M 1.7831916,15.682074 a 0.9116137,0.91161091 0 0 0 -0.91194457,0.911943 0.9116137,0.91161091 0 0 0 0.91194457,0.910712 h 3.3982629 a 0.9116137,0.91161091 0 0 0 0.912149,-0.910712 0.9116137,0.91161091 0 0 0 -0.912149,-0.911943 z"
     style="fill:#000000;fill-opacity:1;stroke:none;stroke-width:0.0336743;stroke-linecap:round;stroke-linejoin:round" />
</svg>