<?xml version="1.0" encoding="UTF-8" standalone="no"?>
<svg width="21" height="21" viewBox="0 0 21 21" xmlns="http://www.w3.org/2000/svg">
  <path
     id="application"
     style="fill:#000000;fill-opacity:1;stroke:none;stroke-width:0.0358988;stroke-linecap:round;stroke-linejoin:round"
     class="st2"
     d="M 2.0068361,1.7255858 A 1.6028121,1.6028121 0 0 0 0.4033205,3.3291014 V 4.1298826 19.274414 H 20.59668 V 3.3291014 A 1.6028121,1.6028121 0 0 0 18.993165,1.7255858 Z m 13.8632819,0.46875 a 0.64049512,0.64049512 0 0 1 0.640625,0.6601562 0.640625,0.640625 0 1 1 -1.28125,0 0.64049512,0.64049512 0 0 1 0.640625,-0.6601562 z m 3.205078,0 a 0.64049512,0.64049512 0 0 1 0.640625,0.6601562 0.64049512,0.64049512 0 0 1 -1.279297,0 0.64049512,0.64049512 0 0 1 0.638672,-0.6601562 z m -1.601562,0.041016 a 0.64049512,0.64049512 0 0 1 0.640624,0.6191406 0.640625,0.640625 0 1 1 -1.28125,0 0.64049512,0.64049512 0 0 1 0.640626,-0.6191406 z M 1.004883,3.9306639 H 19.995118 V 18.71582 H 1.004883 Z m 2.0722656,2.265625 A 0.2692394,0.2692394 0 0 0 2.8076174,6.4658202 v 4.3046868 a 0.2692394,0.2692394 0 0 0 0.2695312,0.269531 H 7.348633 A 0.2692394,0.2692394 0 0 0 7.6181643,10.770507 V 6.4658202 A 0.2692394,0.2692394 0 0 0 7.348633,6.1962889 Z m 5.609375,0 A 0.2692394,0.2692394 0 0 0 8.4189455,6.4658202 v 4.3046868 a 0.2692394,0.2692394 0 0 0 0.2675781,0.269531 H 12.958008 A 0.2692394,0.2692394 0 0 0 13.22754,10.770507 V 6.4658202 A 0.2692394,0.2692394 0 0 0 12.958008,6.1962889 Z m 5.6113284,0 a 0.2692394,0.2692394 0 0 0 -0.269531,0.2695313 v 4.3046868 a 0.2692394,0.2692394 0 0 0 0.269531,0.269531 h 4.269532 a 0.2692394,0.2692394 0 0 0 0.269531,-0.269531 V 6.4658202 A 0.2692394,0.2692394 0 0 0 18.567384,6.1962889 Z M 3.0771486,11.805664 a 0.2692394,0.2692394 0 0 0 -0.2695312,0.269531 v 4.30664 a 0.2692394,0.2692394 0 0 0 0.2695312,0.267579 H 7.348633 a 0.2692394,0.2692394 0 0 0 0.2695313,-0.267579 v -4.30664 A 0.2692394,0.2692394 0 0 0 7.348633,11.805664 Z m 5.609375,0 a 0.2692394,0.2692394 0 0 0 -0.2675781,0.269531 v 4.30664 a 0.2692394,0.2692394 0 0 0 0.2675781,0.267579 h 4.2714844 a 0.2692394,0.2692394 0 0 0 0.269532,-0.267579 v -4.30664 a 0.2692394,0.2692394 0 0 0 -0.269532,-0.269531 z" />
</svg>