<?xml version="1.0" encoding="UTF-8" standalone="no"?>
<svg width="21" height="21" viewBox="0 0 21 21" xmlns="http://www.w3.org/2000/svg">
  <path
     id="archive-box"
     class="st2"
     d="m 1.302287,1.7734194 c -0.35447155,0 -0.63984079,0.2853705 -0.63984079,0.639842 v 3.1631707 c 0,0.3544776 0.28536924,0.6398433 0.63984079,0.6398433 h 18.395425 c 0.354477,0 0.639842,-0.2853657 0.639842,-0.6398433 V 2.4132614 c 0,-0.3544715 -0.285365,-0.639842 -0.639842,-0.639842 z m 0.6294271,5.077074 V 17.958144 A 1.2693608,1.2693608 0 0 0 3.201607,19.22658 h 14.596792 a 1.2693608,1.2693608 0 0 0 1.269686,-1.268436 V 6.8504934 Z m 5.2055812,2.8892825 h 6.7254077 a 0.63468036,0.63468036 0 0 1 0.635468,0.6342181 v 0.91998 a 0.63468036,0.63468036 0 0 1 -0.635468,0.634002 H 7.1372953 A 0.63468036,0.63468036 0 0 1 6.5016192,11.293974 v -0.91998 A 0.63468036,0.63468036 0 0 1 7.1372953,9.7397759 Z"
     style="fill:#000000;fill-opacity:1;stroke:none;stroke-width:0.0341249;stroke-linecap:round;stroke-linejoin:round" />
</svg>