<?xml version="1.0" encoding="UTF-8" standalone="no"?>
<svg width="21" height="21" viewBox="0 0 21 21" xmlns="http://www.w3.org/2000/svg">
  <path
     d="M 9.5311612,2.3800844 0.73219366,10.195647 a 0.40695046,0.40695046 0 0 0 0,0.608707 l 8.79896754,7.815562 a 0.40695046,0.40695046 0 0 0 0.6776168,-0.304353 v -4.387282 a 0.40695046,0.40695046 0 0 1 0.406284,-0.407718 h 9.383269 A 0.40695046,0.40695046 0 0 0 20.404613,13.11428 V 7.8857203 A 0.40695046,0.40695046 0 0 0 19.998331,7.4794373 H 10.615062 A 0.40695046,0.40695046 0 0 1 10.208778,7.0717188 V 2.6844376 A 0.40695046,0.40695046 0 0 0 9.5311612,2.3800844 Z"
     class="st2"
     id="arrow-left"
     style="fill:#000000;fill-opacity:1;stroke:none;stroke-width:0.107672;stroke-linecap:round;stroke-linejoin:round" />
</svg>