<?xml version="1.0" encoding="UTF-8" standalone="no"?>
<svg width="21" height="21" viewBox="0 0 21 21" xmlns="http://www.w3.org/2000/svg">
  <path
     d="m 11.444783,18.418306 8.580499,-7.621509 a 0.39684631,0.39684631 0 0 0 0,-0.593593 L 11.444783,2.5816936 A 0.39684631,0.39684631 0 0 0 10.78399,2.8784903 V 7.1568398 A 0.39684631,0.39684631 0 0 1 10.387795,7.554435 H 1.2375035 A 0.39684631,0.39684631 0 0 0 0.84130821,7.9506303 V 13.04937 a 0.39684631,0.39684631 0 0 0 0.39619529,0.396195 h 9.1502915 a 0.39684631,0.39684631 0 0 1 0.396195,0.397595 v 4.27835 a 0.39684631,0.39684631 0 0 0 0.660793,0.296796 z"
     class="st2"
     id="arrow-right"
     style="fill:#000000;fill-opacity:1;stroke:none;stroke-width:0.104998;stroke-linecap:round;stroke-linejoin:round" />
</svg>