<?xml version="1.0" encoding="UTF-8" standalone="no"?>
<svg width="21" height="21" viewBox="0 0 21 21" xmlns="http://www.w3.org/2000/svg">
  <path
     d="M 18.795964,9.5101563 10.810952,0.52041692 a 0.41577362,0.41577362 0 0 0 -0.621905,0 L 2.2040356,9.5101563 A 0.41577362,0.41577362 0 0 0 2.5149878,10.202465 H 6.99739 a 0.41577362,0.41577362 0 0 1 0.4165584,0.415091 v 9.586709 A 0.41577362,0.41577362 0 0 0 7.82904,20.619356 h 5.34192 a 0.41577362,0.41577362 0 0 0 0.415091,-0.415091 v -9.586709 a 0.41577362,0.41577362 0 0 1 0.416559,-0.415091 h 4.482403 a 0.41577362,0.41577362 0 0 0 0.310951,-0.6923087 z"
     class="st2"
     id="arrow-up"
     style="fill:#000000;fill-opacity:1;stroke:none;stroke-width:0.110007;stroke-linecap:round;stroke-linejoin:round" />
</svg>