<?xml version="1.0" encoding="UTF-8" standalone="no"?>
<svg width="21" height="21" viewBox="0 0 21 21" xmlns="http://www.w3.org/2000/svg">
  <path
     d="m 2.3755423,11.469382 7.8199347,8.803888 a 0.4071781,0.4071781 0 0 0 0.609047,0 l 7.819934,-8.803888 a 0.4071781,0.4071781 0 0 0 -0.304523,-0.677996 h -4.389736 a 0.4071781,0.4071781 0 0 1 -0.407946,-0.40651 V 0.99635756 A 0.4071781,0.4071781 0 0 0 13.115743,0.58984737 H 7.8842578 a 0.4071781,0.4071781 0 0 0 -0.40651,0.40651019 V 10.384876 A 0.4071781,0.4071781 0 0 1 7.069801,10.791386 H 2.6800655 a 0.4071781,0.4071781 0 0 0 -0.3045232,0.677996 z"
     class="st2"
     id="arrow-down"
     style="fill:#000000;fill-opacity:1;stroke:none;stroke-width:0.107733;stroke-linecap:round;stroke-linejoin:round" />
</svg>