<?xml version="1.0" encoding="UTF-8" standalone="no"?>
<svg width="21" height="21" viewBox="0 0 21 21" xmlns="http://www.w3.org/2000/svg">
  <path
     d="m 7.9330385,10.499999 a 2.567634,2.567634 0 1 0 5.1339225,0 2.567634,2.567634 0 0 0 -5.1339225,0 z m 3.5084675,4.288285 a 4.2329109,10.068298 60.6 0 0 2.319422,-1.312098 3.4611341,9.2207427 0.4 0 1 -0.374885,1.988894 9.2207427,3.4611341 29.4 0 1 -1.944537,-0.676796 z M 7.1131557,12.467431 a 3.4611341,9.2207427 0.4 0 1 0.022891,-3.9577577 3.4611341,9.2207427 60.6 0 1 3.3639513,-1.9044738 9.2207427,3.4611341 29.4 0 1 3.399721,1.9287986 3.4611341,9.2207427 0.4 0 1 -0.02719,3.9434479 3.4611341,9.2207427 60.6 0 1 -3.372535,1.901613 9.2207427,3.4611341 29.4 0 1 -3.3868451,-1.911628 z M 4.6320468,10.50143 A 3.4611341,9.2207427 60.6 0 1 6.3161677,9.090603 4.2329109,10.068298 0.4 0 0 6.2990013,11.890794 9.2207427,3.4611341 29.4 0 1 4.632051,10.50143 Z M 6.898527,5.3260115 A 4.2329109,10.068298 0.4 0 0 6.404881,8.08757 4.2329109,10.068298 60.6 0 0 4.1040595,9.9777351 9.2207427,3.4611341 29.4 0 1 2.4485549,5.9584513 9.2207427,3.4611341 29.4 0 1 6.898527,5.3260115 Z M 9.5785267,6.2016973 A 4.2329109,10.068298 60.6 0 0 7.2447952,7.5209497 3.4611341,9.2207427 0.4 0 1 7.6182491,5.5148848 9.2207427,3.4611341 29.4 0 1 9.5785267,6.2016973 Z M 16.367954,10.50143 a 3.4611341,9.2207427 60.6 0 1 -1.684122,1.402242 4.2329109,10.068298 0.4 0 0 0.01574,-2.8001916 9.2207427,3.4611341 29.4 0 1 1.668382,1.3979496 z m 2.147719,4.510068 a 9.2207427,3.4611341 29.4 0 1 -4.408477,0.639594 4.2329109,10.068298 0.4 0 0 0.487923,-2.738664 4.2329109,10.068298 60.6 0 0 2.29796,-1.887304 9.2207427,3.4611341 29.4 0 1 1.622594,3.986374 z M 14.625167,8.1090331 A 4.2329109,10.068298 0.4 0 0 14.157276,5.3131338 3.4611341,9.2207427 60.6 0 1 18.551445,5.9584513 3.4611341,9.2207427 60.6 0 1 16.89594,9.9777351 10.068298,4.2329109 29.4 0 0 14.625167,8.1090331 Z M 11.421473,6.2016973 A 3.4611341,9.2207427 60.6 0 1 13.44757,5.4962839 3.4611341,9.2207427 0.4 0 1 13.805285,7.5538594 10.068298,4.2329109 29.4 0 0 11.421473,6.2016973 Z M 7.8099847,4.8066096 A 3.4611341,9.2207427 0.4 0 1 10.570112,1.2566479 3.4611341,9.2207427 0.4 0 1 13.262989,4.7865775 4.2329109,10.068298 60.6 0 0 10.5,5.7724397 10.068298,4.2329109 29.4 0 0 7.8099847,4.8066096 Z M 3.5889495,10.499999 a 4.2329109,10.068298 60.6 0 0 -1.8601168,4.942187 4.2329109,10.068298 60.6 0 0 5.3027646,0.944368 4.2329109,10.068298 0.4 0 0 3.3982907,4.18097 4.2329109,10.068298 0.4 0 0 3.474126,-4.193848 10.068298,4.2329109 29.4 0 0 5.367153,-0.93149 A 10.068298,4.2329109 29.4 0 0 17.41105,10.499999 4.2329109,10.068298 60.6 0 0 19.271167,5.5578108 4.2329109,10.068298 60.6 0 0 13.968402,4.6134436 4.2329109,10.068298 0.4 0 0 10.570112,0.43247303 4.2329109,10.068298 0.4 0 0 7.0959859,4.6277522 10.068298,4.2329109 29.4 0 0 1.7288327,5.5578108 10.068298,4.2329109 29.4 0 0 3.5889495,10.499999 Z M 6.374833,12.890965 A 4.2329109,10.068298 0.4 0 0 6.8370001,15.66397 3.4611341,9.2207427 60.6 0 1 2.4843262,15.011498 3.4611341,9.2207427 60.6 0 1 4.1069211,11.025124 10.068298,4.2329109 29.4 0 0 6.374833,12.890965 Z m 3.1836623,1.897319 a 3.4611341,9.2207427 60.6 0 1 -1.9903257,0.689674 3.4611341,9.2207427 0.4 0 1 -0.356284,-2.020373 10.068298,4.2329109 29.4 0 0 2.3466097,1.330699 z m 3.6286577,1.405104 A 3.4611341,9.2207427 0.4 0 1 10.441335,19.697562 3.4611341,9.2207427 0.4 0 1 7.7599043,16.207696 4.2329109,10.068298 60.6 0 0 10.5,15.227558 a 10.068298,4.2329109 29.4 0 0 2.687153,0.96583 z"
     class="st2"
     id="atom"
     style="fill:#000000;fill-opacity:1;stroke:none;stroke-width:0.0343407;stroke-linecap:round;stroke-linejoin:round" />
</svg>