<?xml version="1.0" encoding="UTF-8" standalone="no"?>
<svg width="21" height="21" viewBox="0 0 21 21" xmlns="http://www.w3.org/2000/svg">
  <path
     d="M 9.4110164,13.068207 9.2228669,8.278959 a 1.2828346,1.4904684 0 0 1 -0.00567,-0.1368357 1.2828347,1.4904685 0 0 1 2.5656691,0 1.2828346,1.4904684 0 0 1 -0.0057,0.1368357 l -0.189576,4.789248 a 1.0884195,1.2645884 0 1 1 -2.1765419,0 z m -0.06557,3.013234 a 1.1545513,1.1545513 0 0 1 2.3091026,0 1.1545513,1.1545513 0 0 1 -2.3091026,0 z M 20.369274,18.399101 10.971798,2.0586367 a 0.54413137,0.54413137 0 0 0 -0.943595,0 L 0.63072619,18.399101 a 0.54413137,0.54413137 0 0 0 0.47179821,0.81531 H 19.897476 a 0.54413137,0.54413137 0 0 0 0.471798,-0.81531 z"
     class="st2"
     id="path3"
     style="fill:#000000;fill-opacity:1;stroke:none;stroke-width:0.106903;stroke-linecap:butt" />
</svg>