<?xml version="1.0" encoding="UTF-8" standalone="no"?>
<svg width="21" height="21" viewBox="0 0 21 21" xmlns="http://www.w3.org/2000/svg">
  <path
     d="M 10.935665,16.729722 9.3305908,10.742519 9.0234125,10.825541 10.418166,16.02681 8.1572265,12.110984 8.7688148,11.758144 8.1807491,11.370713 A 3.3643868,2.7436384 60 0 0 4.5707167,5.7072929 3.3643868,2.7436384 60 0 0 7.6701695,11.665437 l 0.015221,0.264284 v 0 l 0.00138,0.0014 0.024907,0.43586 0.1701931,-0.09686 2.8531574,4.94252 0.07057,0.261517 -1.286827,2.227732 0.2753531,0.159123 0.8675699,-1.502681 -0.434477,1.623063 0.307179,0.08164 0.401268,-1.497148 v 1.695015 h 0.316864 v -1.116633 l 0.255982,0.954741 0.307178,-0.08164 -0.466302,-1.740675 0.969963,1.679793 0.275353,-0.159123 -1.342174,-2.324591 v -0.09271 l 0.02352,-0.08579 3.063476,-5.306429 0.469069,0.08302 -0.200633,-0.673855 a 2.7436384,3.3643868 10 0 0 0.874491,-6.658298 2.7436384,3.3643868 10 0 0 -1.455636,6.555896 l -0.417873,0.564543 0.397118,0.07057 -2.411761,4.178727 1.349091,-5.036611 -0.307177,-0.08164 -1.383685,5.161143 v -4.78893 h 0.380515 l -0.31548,-0.628193 a 2.7436384,3.3643868 0 0 0 0.838513,-0.282272 3.2829433,4.0257188 10 0 1 0.761026,-5.4973772 2.7436384,3.3643868 0 0 0 -1.894264,-0.9298362 2.7436384,3.3643868 0 0 0 -2.5321417,2.0699917 4.0257188,3.2829433 60 0 1 1.1110988,4.1718087 2.7436384,3.3643868 0 0 0 1.1263189,0.467685 l -0.315481,0.628193 h 0.523033 z M 10.87893,1.668318 A 3.3643868,2.7436384 80 0 0 9.0026533,1.1964823 3.3643868,2.7436384 80 0 0 6.880082,4.9587199 4.0257188,3.2829433 60 0 1 8.0368421,5.6560965 3.2829433,4.0257188 0 0 1 10.182936,3.4366667 3.2829433,4.0257188 10 0 1 10.87893,1.668318 Z m 2.406226,2.9652359 a 3.2829433,4.0257188 10 0 1 2.312137,-0.6129724 3.2829433,4.0257188 10 0 1 0.56731,0.1660424 2.7436384,3.3643868 10 0 0 -2.16685,-3.41354934 2.7436384,3.3643868 10 0 0 -3.262727,2.71755614 3.2829433,4.0257188 0 0 1 0.249063,-0.012452 3.2829433,4.0257188 0 0 1 2.301067,1.1553752 z"
     id="ballons"
     style="fill:#000000;fill-opacity:1;stroke:none;stroke-width:0.830208;stroke-linecap:round;stroke-linejoin:round" />
</svg>