<?xml version="1.0" encoding="UTF-8" standalone="no"?>
<svg width="21" height="21" viewBox="0 0 21 21" xmlns="http://www.w3.org/2000/svg">
  <path
     d="m 16.577916,12.527663 a 14.699459,14.699459 0 0 1 -0.745839,-0.16436 l 0.01105,-0.01243 v 0 a 14.243392,14.243392 0 0 0 1.987515,-2.6946773 0.34367425,0.34367425 0 1 1 0.621529,0.2886659 15.533966,15.533966 0 0 1 -1.744425,2.4391604 z M 10.125053,7.6990664 A 14.699459,14.699459 0 0 1 9.9344502,8.0498856 14.699459,14.699459 0 0 1 9.4883298,8.7874343 15.087431,15.087431 0 0 0 5.8088733,3.5969699 a 14.699459,14.699459 0 0 0 0.5966686,1.317643 15.845696,15.845696 0 0 1 1.9543665,2.8935665 14.699459,14.699459 0 0 0 0.8825723,0.9350574 14.699459,14.699459 0 0 0 0.1698848,0.1588351 4.4035807,4.4035807 0 0 0 0.038673,-0.056628 14.70001,14.70001 0 0 1 -0.037292,0.058009 l -0.00277,0.00277 A 14.699459,14.699459 0 0 1 9.2410995,8.7473812 14.699459,14.699459 0 0 1 5.6942356,3.3055419 0.75426242,0.75426242 0 0 0 4.2481427,3.700559 0.78277542,0.78277542 0 0 0 3.2025913,4.668764 16.095828,16.095828 0 0 0 3.2467891,4.7903078 0.79828468,0.79828468 0 0 0 2.1377037,5.7667999 16.414743,16.414743 0 0 0 2.3407366,6.2805979 0.77564855,0.77564855 0 0 0 1.3380017,7.269521 15.949285,15.949285 0 0 0 1.5645149,7.8233732 0.73942302,0.73942302 0 0 0 0.76066966,8.8040096 15.204416,15.204416 0 0 0 1.349051,10.132703 a 0.91667367,0.91667367 0 0 0 -0.36324956,0.306621 0.68577393,0.68577393 0 0 0 0.099445,0.863235 0.75426242,0.75426242 0 0 0 0.1671229,1.377034 0.78277542,0.78277542 0 0 0 0.4350709,1.354935 16.095828,16.095828 0 0 0 0.1284491,0.01243 0.79828468,0.79828468 0 0 0 0.4157349,1.418469 16.414743,16.414743 0 0 0 0.5524706,0.03315 0.77564855,0.77564855 0 0 0 0.4709816,1.325931 15.949285,15.949285 0 0 0 0.59805,0.029 0.73942302,0.73942302 0 0 0 0.4626944,1.129805 0.74987579,0.74987579 0 0 0 1.0483136,0.109111 15.419327,15.419327 0 0 0 0.073202,-0.06215 15.204416,15.204416 0 0 0 0.1339743,0 0.74987579,0.74987579 0 0 0 1.1988624,0.755503 15.419327,15.419327 0 0 0 0.2886657,-0.249994 0.74987579,0.74987579 0 0 0 1.2043869,0.73755 15.419327,15.419327 0 0 0 0.2720919,-0.234798 0.75426242,0.75426242 0 0 0 1.4198496,0.207177 0.78277542,0.78277542 0 0 0 1.4101828,-0.191984 16.095828,16.095828 0 0 0 0.03453,-0.125691 0.79828468,0.79828468 0 0 0 1.468194,-0.162978 16.414743,16.414743 0 0 0 0.08701,-0.356343 15.204416,15.204416 0 0 0 0.263804,0.03316 0.77564855,0.77564855 0 0 0 0.140883,0.07182 3.7774927,14.204305 15 0 0 1.244437,0.802467 3.7774927,14.204305 15 0 0 1.632555,-1.028981 0.18370766,0.69078211 15 0 0 0.05524,-0.07734 3.5802054,13.462392 15 0 1 2.555177,-1.175383 3.5802054,13.462392 15 0 1 0.947489,2.247175 0.18370766,0.69078211 15 0 0 0.4917,-1.077319 3.7774927,14.204305 15 0 0 -2.223697,-2.629762 3.7774927,14.204305 15 0 0 -1.709895,1.522058 3.5802054,13.462392 15 0 1 -1.544157,0.827326 0.73942302,0.73942302 0 0 0 -0.08149,-0.509656 15.949285,15.949285 0 0 0 0.557994,0.0442 0.77564855,0.77564855 0 0 0 0.740313,-1.085602 16.414743,16.414743 0 0 0 0.356343,0.03038 0.79828468,0.79828468 0 0 0 0.778986,-1.092511 0.78277542,0.78277542 0 0 0 0.584237,-1.144996 0.75426242,0.75426242 0 0 0 0.01382,-1.446093 15.204416,15.204416 0 0 0 0.385346,-0.146405 A 0.73942302,0.73942302 0 0 0 18.130349,11.2045 15.204416,15.204416 0 0 0 18.825083,10.051217 0.73942302,0.73942302 0 0 0 18.108257,8.9780401 15.949285,15.949285 0 0 0 18.384496,8.4904846 0.77564855,0.77564855 0 0 0 17.714622,7.3606814 16.414743,16.414743 0 0 0 17.891414,7.0512975 0.79828468,0.79828468 0 0 0 17.537834,5.9629296 0.73942302,0.73942302 0 0 0 16.449462,5.4712305 15.949285,15.949285 0 0 0 16.493662,4.9132348 0.77564855,0.77564855 0 0 0 15.409439,4.1729241 16.414743,16.414743 0 0 0 15.438451,3.8179613 0.79828468,0.79828468 0 0 0 14.34594,3.0375962 0.78277542,0.78277542 0 0 0 13.202325,2.4547391 0.75426242,0.75426242 0 0 0 11.729989,2.5514217 14.699459,14.699459 0 0 1 11.71756,2.6467227 15.204416,15.204416 0 0 0 10.419254,1.4837716 0.73942302,0.73942302 0 0 0 9.2369655,2.0030942 15.949285,15.949285 0 0 0 8.8046568,1.6467502 0.77564855,0.77564855 0 0 0 7.5754089,2.1108261 16.414743,16.414743 0 0 0 7.3019357,1.8815504 0.79828468,0.79828468 0 0 0 6.0367772,2.3304332 0.78277542,0.78277542 0 0 0 4.9207859,2.8331818 0.75426242,0.75426242 0 0 1 5.3986733,2.9464384 0.36382424,0.36382424 0 0 1 5.9787678,2.779316 16.444714,16.444714 0 0 1 6.1155042,2.9022405 0.79828468,0.79828468 0 0 0 6.2798644,3.1080361 15.557445,15.557445 0 0 1 6.9110627,3.6743191 16.444714,16.444714 0 0 1 9.9330792,8.0498889 14.063426,14.063426 0 0 0 10.125063,7.6990698 14.699459,14.699459 0 0 0 10.307378,7.3427259 15.381759,15.381759 0 0 0 6.6831683,2.8594241 0.37103261,0.37103261 0 1 1 7.1140956,2.2572308 16.770534,16.770534 0 0 1 10.677534,6.5347371 14.65015,14.65015 0 0 1 10.307378,7.3427259 14.063426,14.063426 0 0 1 10.125063,7.6990698 Z m 3.660121,10.8505316 a 0.77564855,0.77564855 0 0 0 0.1395,-0.04006 15.204416,15.204416 0 0 0 0.131212,0.0083 0.73942302,0.73942302 0 0 0 0.546946,-0.212699 3.5387149,13.306388 15 0 0 1.39913,-0.571809 3.5387149,13.306388 15 0 0 0.03592,-0.03178 2.1400931,8.0472236 15 0 0 0.517943,-0.570428 3.8422977,14.447946 15 0 1 3.617304,1.23339 0.10781569,0.4054115 15 1 1 -0.291829,0.604584 3.5387149,13.306388 15 0 0 -3.303375,-1.393235 2.1571782,8.1114759 15 0 1 -0.531755,0.617385 v 0.0013 a 3.8593828,14.512171 15 0 1 -0.09391,0.08425 2.1571782,8.1114759 15 0 1 -0.02625,0.0221 3.8593828,14.512171 15 0 1 -2.140824,0.24861 z M 8.1306326,17.787187 a 15.204416,15.204416 0 0 0 0.6436286,-0.131212 14.699459,14.699459 0 0 0 0.069059,-0.411591 l 0.00966,0.0041 A 14.699459,14.699459 0 0 1 8.5974684,18.528923 15.753573,15.753573 0 0 1 8.1513482,18.951561 0.44009287,0.44009287 0 1 1 7.6168325,18.252685 14.444769,14.444769 0 0 0 8.1306304,17.787229 Z m -2.1725921,0.233421 a 15.204416,15.204416 0 0 0 1.2665396,-0.09668 15.753573,15.753573 0 0 1 -0.5649016,0.540038 0.44009287,0.44009287 0 0 1 -0.701638,-0.443355 z M 1.6556728,11.522165 a 14.529159,14.529159 0 0 0 0.5096543,0.03868 15.204416,15.204416 0 0 0 0.6049558,0.868761 15.845696,15.845696 0 0 1 -1.2458223,-0.03177 0.44272151,0.44272151 0 1 1 0.1312122,-0.875667 z m 0.3190517,1.284496 a 15.078452,15.078452 0 0 0 1.128422,0.0511 15.204416,15.204416 0 0 0 0.7375488,0.849425 16.444714,16.444714 0 0 1 -1.9958014,0.0097 0.45970459,0.45970459 0 1 1 0.1298306,-0.910195 z m 0.530372,1.401896 a 15.377202,15.377202 0 0 0 1.8411099,0.01243 15.204416,15.204416 0 0 0 0.8784287,0.790033 16.770534,16.770534 0 0 1 -2.8355573,0.127068 0.46850368,0.46850368 0 1 1 0.1160187,-0.929532 z m 1.0041162,1.392226 a 14.941164,14.941164 0 0 0 2.3949617,-0.05663 15.204416,15.204416 0 0 0 1.0096408,0.685064 16.294994,16.294994 0 0 1 -3.509572,0.274855 0.45521953,0.45521953 0 1 1 0.1049695,-0.903291 z m 0.9129585,1.258252 a 15.949285,15.949285 0 0 0 0.5759511,-0.01382 14.243392,14.243392 0 0 0 2.6863899,-0.168504 15.204416,15.204416 0 0 0 1.0483136,0.517943 15.204416,15.204416 0 0 0 0.071821,0.03315 15.533966,15.533966 0 0 1 -4.2595516,0.464083 0.43395907,0.43395907 0 0 1 -0.1229246,-0.832849 z M 17.993619,8.3786057 a 16.294994,16.294994 0 0 1 -1.28311,1.8963573 15.204416,15.204416 0 0 0 0.580094,-2.1132018 14.941164,14.941164 0 0 0 0.05111,-0.087014 0.3605108,0.3605108 0 1 1 0.651915,0.3038588 z M 17.482586,6.9463248 a 15.204416,15.204416 0 0 0 0.03316,-0.3190522 0.37103261,0.37103261 0 0 1 -0.02625,0.3052403 z M 12.136049,2.7392584 a 0.35057047,0.35057047 0 1 1 0.700255,0.023481 15.845696,15.845696 0 0 1 -0.02625,0.1975083 0.78277542,0.78277542 0 0 0 -0.0152,0.078726 15.255243,15.255243 0 0 1 -0.01243,0.1187814 15.845696,15.845696 0 0 1 -2.510981,6.4818662 14.699459,14.699459 0 0 1 -0.5331348,-0.4405956 14.529159,14.529159 0 0 0 2.3977268,-6.459767 z m 1.082841,0.4903182 a 0.36382424,0.36382424 0 1 1 0.726498,0.019337 16.444714,16.444714 0 0 1 -0.0221,0.1823158 0.79828468,0.79828468 0 0 0 -0.07458,0.2527551 15.557445,15.557445 0 0 1 -0.102209,0.8425185 16.444714,16.444714 0 0 1 -2.401867,5.883816 14.699459,14.699459 0 0 1 -0.589763,-0.404685 15.078452,15.078452 0 0 0 2.46402,-6.7760565 z m 1.064886,0.6422471 a 0.37103261,0.37103261 0 1 1 0.740313,0.00691 16.770534,16.770534 0 0 1 -2.469546,7.2401323 14.699459,14.699459 0 0 1 -0.638104,-0.354964 15.377202,15.377202 0 0 0 2.367337,-6.8920745 z m 1.088372,1.1063234 a 0.3605108,0.3605108 0 1 1 0.719589,0 16.294994,16.294994 0 0 1 -2.156015,6.7746759 17.148699,17.148699 0 0 1 -0.767934,-0.317671 14.939092,14.939092 0 0 0 2.20436,-6.4570049 z m 1.111848,1.2251044 a 0.34367425,0.34367425 0 1 1 0.686443,0 15.533966,15.533966 0 0 1 -1.816247,6.0329835 18.256955,18.256955 0 0 1 -0.81904,-0.225132 14.311762,14.311762 0 0 0 1.948844,-5.8078515 z M 5.4677223,3.5776331 a 14.529159,14.529159 0 0 0 11.9913837,9.5232189 0.35057047,0.35057047 0 1 1 -0.02348,0.698876 15.845696,15.845696 0 0 1 -0.197506,-0.02486 0.78277542,0.78277542 0 0 0 -0.07873,-0.01519 15.255243,15.255243 0 0 1 -0.118782,-0.01381 A 15.845696,15.845696 0 0 1 4.618294,3.8290081 0.44291943,0.44291943 0 1 1 5.4677181,3.577634 Z M 16.32654,15.248584 a 0.37103261,0.37103261 0 1 1 -0.0068,0.74031 A 16.053287,16.053287 0 0 1 2.5009528,5.7695616 0.46850368,0.46850368 0 1 1 3.3918125,5.483658 15.377202,15.377202 0 0 0 16.32654,15.248584 Z M 4.4373639,4.4104833 a 15.078452,15.078452 0 0 0 12.5314241,9.7732117 0.36382424,0.36382424 0 1 1 -0.01796,0.725118 16.444714,16.444714 0 0 1 -0.183695,-0.0221 0.79828468,0.79828468 0 0 0 -0.252758,-0.0732 A 15.557445,15.557445 0 0 1 15.671857,14.711307 16.444714,16.444714 0 0 1 3.5589311,4.67705 0.45940175,0.45940175 0 1 1 4.4373597,4.4104829 Z M 15.221599,16.33695 a 0.3605108,0.3605108 0 1 1 0,0.719594 A 16.294994,16.294994 0 0 1 1.6902019,7.2681391 0.45554787,0.45554787 0 1 1 2.5548191,6.9808544 15.975665,15.975665 0 0 0 15.221599,16.33695 Z M 2.054833,8.8564934 a 15.267535,15.267535 0 0 0 11.940281,8.5923056 0.34367425,0.34367425 0 1 1 0,0.686447 A 15.533966,15.533966 0 0 1 1.0962959,8.8040087 0.43395907,0.43395907 0 0 1 1.7993149,8.3413139 15.949285,15.949285 0 0 0 2.054833,8.8564934 Z M 9.7245119,18.92942 A 0.44266737,0.44266737 0 1 1 8.8861367,18.647659 14.529159,14.529159 0 0 0 9.1706594,17.385263 15.204416,15.204416 0 0 0 9.9745042,17.693267 15.845696,15.845696 0 0 1 9.7245119,18.92942 Z m 1.3549341,-0.08701 a 0.45940175,0.45940175 0 1 1 -0.872903,-0.285903 15.078452,15.078452 0 0 0 0.172647,-0.729261 15.204416,15.204416 0 0 0 0.861854,0.247231 16.444714,16.444714 0 0 1 -0.161598,0.767933 z m 1.494434,-0.288669 a 0.46899114,0.46899114 0 1 1 -0.896383,-0.276234 15.377202,15.377202 0 0 0 0.02348,-0.09254 15.204416,15.204416 0 0 0 0.914338,0.174029 16.770534,16.770534 0 0 1 -0.04144,0.194744 z M 9.8557242,2.3953454 A 0.34367425,0.34367425 0 1 1 10.24936,1.8332059 15.533966,15.533966 0 0 1 11.644349,3.1618985 14.699459,14.699459 0 0 1 11.488275,3.9836992 14.182207,14.182207 0 0 0 9.8557242,2.3953454 Z M 8.2135032,2.602522 A 0.3605108,0.3605108 0 1 1 8.6264754,2.0127592 16.294994,16.294994 0 0 1 11.272812,4.8386481 15.208284,15.208284 0 0 1 11.010387,5.6687355 14.935087,14.935087 0 0 0 8.2135032,2.602522 Z m -6.7318589,7.78846 a 15.204416,15.204416 0 0 0 0.4765062,0.841137 14.699459,14.699459 0 0 1 -0.089776,-0.0056 14.699459,14.699459 0 0 1 -0.3632497,-0.02486 0.75426242,0.75426242 0 0 0 -0.087014,0 0.46207292,0.46207292 0 0 1 -0.05801,-0.736168 9.9375451,9.9375451 0 0 1 0.1215439,-0.07458 z m 15.6763647,2.118726 a 15.204416,15.204416 0 0 0 0.704399,-0.91572 0.34367425,0.34367425 0 0 1 0.06492,0.658821 15.533966,15.533966 0 0 1 -0.769317,0.256899 z"
     class="st2"
     id="ball_of_wool"
     style="fill:#000000;fill-opacity:1;stroke:none;stroke-width:0.103588;stroke-linecap:round;stroke-linejoin:round;stroke-opacity:1" />
</svg>