<?xml version="1.0" encoding="UTF-8" standalone="no"?>
<svg width="21" height="21" viewBox="0 0 21 21" xmlns="http://www.w3.org/2000/svg">
  <path
     d="M 13.747882,19.034888 H 7.4413153 6.6649065 a 0.04973065,0.04973065 0 0 1 -0.049731,-0.04973 L 6.6144567,3.2334332 a 0.04973065,0.04973065 0 0 1 0.049731,-0.049731 l 7.6709103,6.927e-4 a 0.0497305,0.0497305 0 0 1 0.04973,0.049731 l 7.2e-4,15.7517241 a 0.0497305,0.0497305 0 0 1 -0.04973,0.04973 z M 7.2773445,9.3241766 h 6.4453115 a 0.09946102,0.09946102 0 0 0 0.09946,-0.099462 l 4.3e-5,-2.287224 a 0.09946144,0.09946144 0 0 0 -0.09946,-0.099462 l -6.4453535,-4.23e-5 a 0.09946144,0.09946144 0 0 0 -0.099462,0.099462 l -4.24e-5,2.2872227 a 0.09946102,0.09946102 0 0 0 0.099462,0.099462 z m 0,3.0397644 h 6.4453115 a 0.09946102,0.09946102 0 0 0 0.09946,-0.09946 l 4.3e-5,-2.2872247 a 0.09946144,0.09946144 0 0 0 -0.09946,-0.09946 l -6.4453536,-4.2e-5 a 0.09946144,0.09946144 0 0 0 -0.099462,0.09946 l -4.24e-5,2.2872237 a 0.09946102,0.09946102 0 0 0 0.099462,0.09946 z m 0,3.038364 h 6.4453115 a 0.09946102,0.09946102 0 0 0 0.09946,-0.09946 l 4.3e-5,-2.287223 a 0.09946144,0.09946144 0 0 0 -0.09946,-0.09946 l -6.4453536,-4.2e-5 a 0.09946144,0.09946144 0 0 0 -0.099462,0.09946 l -4.24e-5,2.287224 a 0.09946102,0.09946102 0 0 0 0.099462,0.09946 z m 0,3.039766 h 6.4453115 a 0.09946102,0.09946102 0 0 0 0.09946,-0.09946 l 4.3e-5,-2.287224 a 0.09946144,0.09946144 0 0 0 -0.09946,-0.09946 l -6.4453536,-4.1e-5 a 0.09946088,0.09946088 0 0 0 -0.099462,0.09946 l -4.24e-5,2.287226 a 0.09946102,0.09946102 0 0 0 0.099462,0.09946 z M 8.5568771,1.9693173 H 6.614454 A 1.2432628,1.2432628 0 0 0 5.3713591,3.2124122 V 19.032086 a 1.2432628,1.2432628 0 0 0 1.2430949,1.243093 h 7.771093 a 1.2432628,1.2432628 0 0 0 1.243094,-1.243093 V 3.2124122 A 1.2432628,1.2432628 0 0 0 14.385547,1.9693173 H 12.443123 V 0.7248207 H 8.5568771 Z"
     class="st2"
     id="path3"
     style="fill:#000000;fill-opacity:1;stroke:none;stroke-width:0.105109;stroke-linecap:round;stroke-linejoin:round" />
</svg>