<?xml version="1.0" encoding="UTF-8" standalone="no"?>
<svg width="21" height="21" viewBox="0 0 21 21" xmlns="http://www.w3.org/2000/svg">
  <path
     id="bell"
     class="st2"
     d="m 10.498539,0.61714944 a 4.5924489,6.5536783 0 0 0 -4.5258911,6.52126596 1.199032,1.199032 0 0 1 -0.00143,0.068984 3.149709,4.4937791 0.84 0 1 -0.61053,2.2969207 1.199032,1.199032 0 0 1 -0.064855,0.1098788 4.7985728,5.2300526 82.86 0 1 -0.9812677,1.0956911 1.199032,1.199032 0 0 1 -0.043788,0.03367 3.73974,7.8651075 87.9 0 0 -0.1664703,0.131151 3.73974,7.8651075 87.9 0 0 -0.097276,3.750545 1.199032,1.199032 0 0 0 0.7600633,0.270772 H 16.234352 a 1.199032,1.199032 0 0 0 0.758619,-0.270772 7.8651075,3.73974 2.1 0 0 -0.09728,-3.750545 7.8651075,3.73974 2.1 0 0 -0.165025,-0.131151 1.199032,1.199032 0 0 1 -0.04379,-0.03367 5.2300526,4.7985728 7.14 0 1 -0.981266,-1.0956911 1.199032,1.199032 0 0 1 -0.06486,-0.1098788 4.4937791,3.149709 89.16 0 1 -0.61053,-2.2969207 1.199032,1.199032 0 0 1 -0.0014,-0.068984 4.5923221,6.553509 0 0 0 -4.517423,-6.52126596 1.199032,1.199032 0 0 1 -0.0099,0 0.02253883,0.03216415 0 0 0 -0.0014,0 z M 10.345081,16.219321 a 2.0839391,2.0839391 0 0 0 -1.9282483,2.078196 2.0839796,2.0839796 0 1 0 4.1679583,0 2.0839391,2.0839391 0 0 0 -2.23971,-2.078196 z"
     style="fill:#000000;fill-opacity:1;stroke:none;stroke-width:0.0338394;stroke-linecap:round;stroke-linejoin:round" />
</svg>