<?xml version="1.0" encoding="UTF-8" standalone="no"?>
<svg width="21" height="21" viewBox="0 0 21 21" xmlns="http://www.w3.org/2000/svg">
  <path
     d="m 7.0984185,10.891559 0.7183881,-0.887637 2.2729174,1.838921 3.152262,-3.8926081 0.887639,0.7183882 -3.857653,4.7643439 -0.0066,-0.0056 -0.01323,0.01736 z M 12.868052,1.0397396 A 1.0975154,1.0975154 0 0 0 11.17123,0.77098992 1.6298415,1.6298415 0 0 1 9.0669506,0.85384067 1.0975154,1.0975154 0 0 0 7.3974027,1.2540299 1.6298415,1.6298415 0 0 1 5.4840509,2.1350258 1.0975154,1.0975154 0 0 0 4.0950639,3.1454769 1.6298415,1.6298415 0 0 1 2.6661603,4.6914795 1.0975154,1.0975154 0 0 0 1.7679475,6.156877 1.6298415,1.6298415 0 0 1 1.038894,8.1325636 1.0975154,1.0975154 0 0 0 0.77037501,9.8279248 a 1.6298415,1.6298415 0 0 1 0.0828508,2.1042792 1.0975154,1.0975154 0 0 0 0.40141819,1.671239 1.6298415,1.6298415 0 0 1 0.8812269,1.911891 1.0975154,1.0975154 0 0 0 1.008759,1.390217 1.6298415,1.6298415 0 0 1 1.547463,1.429134 1.0975154,1.0975154 0 0 0 1.4641689,0.896522 1.6298415,1.6298415 0 0 1 1.9756861,0.729053 1.0975154,1.0975154 0 0 0 1.6968215,0.26875 1.6298415,1.6298415 0 0 1 2.1042796,-0.08285 1.0975154,1.0975154 0 0 0 1.669547,-0.40019 1.6298415,1.6298415 0 0 1 1.913353,-0.880997 1.0975154,1.0975154 0 0 0 1.388987,-1.010449 1.6298415,1.6298415 0 0 1 1.428903,-1.546003 1.0975154,1.0975154 0 0 0 0.898213,-1.465398 1.6298415,1.6298415 0 0 1 0.729053,-1.975685 1.0975154,1.0975154 0 0 0 0.268519,-1.695363 A 1.6298415,1.6298415 0 0 1 20.146773,9.0677965 1.0975154,1.0975154 0 0 0 19.745356,7.3965566 1.6298415,1.6298415 0 0 1 18.864129,5.4846655 1.0975154,1.0975154 0 0 0 17.855369,4.0944486 1.6298415,1.6298415 0 0 1 16.307906,2.6653144 1.0975154,1.0975154 0 0 0 14.843737,1.7687934 1.6298415,1.6298415 0 0 1 12.868052,1.0397396 Z M 18.087624,11.701012 A 7.6820878,7.6820878 0 0 1 2.9126069,9.2975257 7.6820878,7.6820878 0 0 1 18.087624,11.701012 Z M 4.5480975,9.5565625 A 6.0267277,6.0267277 0 1 0 16.452133,11.441976 6.0267277,6.0267277 0 1 0 4.5480975,9.5565625 Z"
     class="st2"
     id="best_practises"
     style="fill:#000000;fill-opacity:1;stroke:none;stroke-width:0.035483;stroke-linecap:round;stroke-linejoin:round" />
</svg>