<?xml version="1.0" encoding="UTF-8" standalone="no"?>
<svg width="21" height="21" viewBox="0 0 21 21" xmlns="http://www.w3.org/2000/svg">
  <path
     id="book"
     class="st2"
     d="M 4.9246585,0.66126522 A 1.4758845,1.4758845 0 0 0 3.4486265,2.1372983 v 0.710651 h 2.460122 a 1.4758845,1.4758845 0 0 1 1.476242,1.476032 v 0.5456389 a 1.4758845,1.4758845 0 0 1 -1.476242,1.4762381 h -2.460122 v 2.5152648 h 2.460122 a 1.4758845,1.4758845 0 0 1 1.476242,1.4745929 v 0.54708 a 1.4758845,1.4758845 0 0 1 -1.476242,1.47603 h -2.460122 v 2.513819 h 2.460122 a 1.4758845,1.4758845 0 0 1 1.476242,1.476241 v 0.54708 a 1.4758845,1.4758845 0 0 1 -1.476242,1.476039 h -2.460122 v 0.49214 a 1.4758845,1.4758845 0 0 0 1.476032,1.47459 H 18.69924 a 1.4758845,1.4758845 0 0 0 1.47603,-1.47459 V 2.1372983 A 1.4758845,1.4758845 0 0 0 18.69924,0.66126522 Z M 1.7406665,3.6806572 c -0.507463,0 -0.915937,0.4086821 -0.915937,0.916144 0,0.5074611 0.408474,0.915937 0.915937,0.915937 h 3.415713 c 0.507463,0 0.915937,-0.4084759 0.915937,-0.915937 0,-0.5074619 -0.408474,-0.916144 -0.915937,-0.916144 z m 0,6.0129664 c -0.507463,0 -0.915937,0.4084774 -0.915937,0.9159414 0,0.50746 0.408474,0.91593 0.915937,0.91593 h 3.415713 c 0.507463,0 0.915937,-0.40847 0.915937,-0.91593 0,-0.507464 -0.408474,-0.9159414 -0.915937,-0.9159414 z m 0,6.0127624 c -0.507463,0 -0.915937,0.408679 -0.915937,0.91614 0,0.507469 0.408474,0.91594 0.915937,0.91594 h 3.415713 c 0.507463,0 0.915937,-0.408471 0.915937,-0.91594 0,-0.507461 -0.408474,-0.91614 -0.915937,-0.91614 z"
     style="fill:#000000;fill-opacity:1;stroke:none;stroke-width:0.033837;stroke-linecap:round;stroke-linejoin:round" />
</svg>