<?xml version="1.0" encoding="UTF-8" standalone="no"?>
<svg width="21" height="21" viewBox="0 0 21 21" xmlns="http://www.w3.org/2000/svg">
  <path
     d="m 10.916842,19.957099 a 2.5372999,2.5372999 0 0 0 3.242795,0.01868 0.64683398,0.64683398 0 0 1 0.459971,-0.145178 2.9401623,2.9401623 0 0 0 2.593086,-1.188738 0.64683398,0.64683398 0 0 1 0.357914,-0.242923 3.0968831,3.0968831 0 0 0 2.143179,-4.021868 0.64683398,0.64683398 0 0 1 0.123615,-0.638209 2.8024009,2.8024009 0 0 0 0.04025,-3.632333 A 0.64683398,0.64683398 0 0 1 19.74254,9.5603185 2.6020118,2.6020118 0 0 0 18.504931,6.777504 0.64683398,0.64683398 0 0 1 18.185826,6.1666046 2.4842449,2.4842449 0 0 0 16.685172,3.6813252 0.64683398,0.64683398 0 0 1 16.367504,3.3924061 5.6452222,5.6452222 0 0 0 12.946471,0.62539352 a 0.64683398,0.64683398 0 0 1 -0.07043,-0.0244365 1.9718374,1.9718374 0 0 0 -1.977874,0.267358 0.64683398,0.64683398 0 0 1 -0.796325,0 1.9718374,1.9718374 0 0 0 -1.9778753,-0.267358 0.64683398,0.64683398 0 0 1 -0.070433,0.0244365 A 5.6452222,5.6452222 0 0 0 4.632502,3.3924061 0.64683398,0.64683398 0 0 1 4.3148346,3.6813252 2.4842449,2.4842449 0 0 0 2.8141798,6.1666046 0.64683398,0.64683398 0 0 1 2.495075,6.777504 2.6020118,2.6020118 0 0 0 1.2574659,9.5603272 a 0.64683398,0.64683398 0 0 1 -0.135116,0.5462138 2.8024009,2.8024009 0 0 0 0.040247,3.632333 0.64683398,0.64683398 0 0 1 0.1236172,0.638209 3.0968831,3.0968831 0 0 0 2.1431766,4.02187 0.64683398,0.64683398 0 0 1 0.3579149,0.242923 2.9401623,2.9401623 0 0 0 2.5930856,1.188738 0.64683398,0.64683398 0 0 1 0.459971,0.145178 2.5372999,2.5372999 0 0 0 3.2427948,-0.01868 0.64683398,0.64683398 0 0 1 0.833697,0 z M 8.496245,7.6126334 a 3.2778385,3.2778385 0 0 0 -0.4614082,-0.018684 0.64683398,0.64683398 0 0 1 -0.040247,0 0.39811625,0.39811625 0 1 0 0.012936,0.7948869 0.64683398,0.64683398 0 0 1 0.034497,-0.00144 2.5540455,2.5540455 0 0 1 1.901692,0.8193234 0.64683398,0.64683398 0 0 1 0.1724892,0.4398469 v 4.4760904 a 0.64683398,0.64683398 0 0 1 -0.106368,0.355039 2.5540455,3.3706662 75 0 1 -2.2941044,1.54809 0.64683398,0.64683398 0 0 1 -0.028748,0.0058 0.39811625,0.52540599 75 1 0 0.1911753,0.771888 0.64683398,0.64683398 0 0 1 0.034497,-0.01008 3.2778385,4.3258675 75 0 0 0.597962,-0.179676 0.64683398,0.64683398 0 0 1 0.018686,-0.0058 2.5240468,3.3310656 75 0 0 0.6410844,-0.270232 0.64683398,0.64683398 0 0 1 0.9458157,0.573525 v 1.388534 a 0.64683398,0.64683398 0 0 1 -0.0115,0.119308 1.698816,1.698816 0 0 1 -3.3649747,-0.426911 0.32341699,0.32341699 0 0 0 -0.00575,-0.08769 A 0.39406996,0.39406996 0 0 0 5.9994632,17.79808 0.32341699,0.32341699 0 0 0 5.9649652,17.908759 1.1965293,1.1965293 0 0 0 5.9549102,18.045311 0.64683398,0.64683398 0 0 1 5.0637167,18.63465 1.909612,1.909612 0 0 1 4.1998339,15.800079 0.32341699,0.32341699 0 0 0 4.2501429,15.560032 0.36786456,0.36786456 0 0 0 3.5630614,15.4551 0.32341699,0.32341699 0 0 0 3.5587514,15.4623 3.0208728,3.0208728 0 0 0 3.2540207,16.576292 0.32341699,0.32341699 0 0 1 2.7034931,16.780404 2.3156658,2.3156658 0 0 1 2.0394103,14.864339 0.32341699,0.32341699 0 0 1 2.4490717,14.592667 l 0.2903565,0.08337 a 0.64683398,0.64683398 0 0 1 0.079057,0.02731 A 0.41508057,0.41508057 0 0 0 3.1577244,13.945839 0.32341699,0.32341699 0 0 0 3.0412941,13.915659 1.9867864,1.9867864 0 0 1 2.3369637,10.128087 0.64683398,0.64683398 0 0 1 2.5841981,10.069153 0.34505719,0.34505719 0 0 0 2.8918035,9.5948074 0.64683398,0.64683398 0 0 1 2.8803077,9.5646273 0.42613136,0.42613136 0 0 0 2.5755771,9.2915185 0.64683398,0.64683398 0 0 1 2.0983574,8.4951939 1.8134925,1.8134925 0 0 1 5.1269778,7.6729965 0.32341699,0.32341699 0 0 0 5.454707,7.7506147 0.40262398,0.40262398 0 0 0 5.7177528,7.256147 0.32341699,0.32341699 0 0 0 5.6530695,7.1354123 2.1796581,2.1796581 0 0 0 4.2745943,6.3908331 0.64683398,0.64683398 0 0 1 3.7427531,5.5470746 1.9917599,1.9917599 0 0 1 6.2309078,4.2692186 0.32341699,0.32341699 0 0 0 6.3444627,4.2836244 0.3769849,0.3769849 0 0 0 6.6606928,3.7345343 0.32341699,0.32341699 0 0 0 6.4838913,3.5792949 2.7478082,2.7478082 0 0 0 6.1288515,3.4743634 0.32341699,0.32341699 0 0 1 5.9577999,2.9439605 5.4607594,5.4607594 0 0 1 8.6328177,1.2995641 0.64683398,0.64683398 0 0 1 8.7204997,1.2823141 1.2577543,1.2577543 0 0 1 10.10185,2.272689 0.64683398,0.64683398 0 0 1 10.11623,2.404931 V 7.6902863 A 0.32341699,0.32341699 0 0 1 9.6260703,7.9677067 2.5240468,2.5240468 0 0 0 8.5192654,7.6141028 0.64683398,0.64683398 0 0 1 8.4962666,7.6126651 Z M 9.2494473,3.710069 a 0.41659558,0.41659558 0 1 0 -0.8322597,-0.00288 0.64683398,0.64683398 0 0 1 0,0.066122 1.5883655,1.5883655 0 0 1 -1.5164664,1.5078404 0.32341699,0.32341699 0 0 0 -0.1193042,0.028754 0.39639567,0.39639567 0 0 0 -0.00288,0.7201426 0.32341699,0.32341699 0 0 0 0.1293667,0.03018 2.298618,2.298618 0 0 0 2.3401016,-2.3070412 0.64683398,0.64683398 0 0 1 0.00144,-0.043116 z M 6.587366,12.225278 a 1.5883655,1.5883655 0 0 1 0.7388283,1.273544 0.32341699,0.32341699 0 0 0 0.028748,0.120749 0.39639567,0.39639567 0 0 0 0.7201418,0.0029 0.32341699,0.32341699 0 0 0 0.030186,-0.130804 2.298618,2.298618 0 0 0 -0.9530021,-1.906003 0.64683398,0.64683398 0 0 1 -0.2314229,-0.741704 2.9520641,2.9520641 0 0 0 0.172489,-1.0090602 0.64683398,0.64683398 0 0 1 0.00144,-0.047438 0.53502514,0.53502514 0 1 0 -1.0679947,-0.00288 0.64683398,0.64683398 0 0 1 0,0.066123 2.0399132,2.0399132 0 0 1 -1.9606256,1.9520012 0.32341699,0.32341699 0 0 0 -0.087682,0.01441 0.50908279,0.50908279 0 0 0 0,0.968815 0.32341699,0.32341699 0 0 0 0.091994,0.01582 2.9520641,2.9520641 0 0 0 1.7938862,-0.55484 0.64683398,0.64683398 0 0 1 0.7230166,-0.02156 z M 12.480743,7.6140711 A 2.5240468,2.5240468 0 0 0 11.373938,7.9676735 0.32341699,0.32341699 0 0 1 10.883782,7.6902531 V 2.4049014 a 0.64683398,0.64683398 0 0 1 0.01441,-0.132242 1.2577543,1.2577543 0 0 1 1.38135,-0.9903749 0.64683398,0.64683398 0 0 1 0.08769,0.01725 5.4607594,5.4607594 0 0 1 2.866194,1.8700697 0.16170849,0.16170849 0 0 1 -0.106372,0.2616086 2.7478082,2.7478082 0 0 0 -0.610898,0.1480524 0.32341699,0.32341699 0 0 0 -0.176802,0.1552408 0.3769849,0.3769849 0 0 0 0.316231,0.5490901 0.32341699,0.32341699 0 0 0 0.11356,-0.014406 1.9917599,1.9917599 0 0 1 2.488155,1.2778575 0.64683398,0.64683398 0 0 1 -0.531842,0.8437585 2.1796581,2.1796581 0 0 0 -1.378474,0.7445777 0.32341699,0.32341699 0 0 0 -0.06468,0.1207347 0.40262398,0.40262398 0 0 0 0.263046,0.4944691 0.32341699,0.32341699 0 0 0 0.327728,-0.077618 1.8134925,1.8134925 0 0 1 3.088992,1.2936678 0.32341699,0.32341699 0 0 1 -0.373726,0.3176672 0.42613136,0.42613136 0 0 0 -0.468595,0.2802944 0.64683398,0.64683398 0 0 1 -0.01152,0.03018 0.34505719,0.34505719 0 0 0 0.307605,0.474343 0.64683398,0.64683398 0 0 1 0.247234,0.05893 1.9867864,1.9867864 0 0 1 -0.704329,3.787573 0.32341699,0.32341699 0 0 0 -0.116428,0.03018 0.41508057,0.41508057 0 0 0 0.339229,0.757513 0.64683398,0.64683398 0 0 1 0.07906,-0.02731 l 0.290357,-0.08337 a 0.32341699,0.32341699 0 0 1 0.409661,0.271671 2.3156658,2.3156658 0 0 1 -0.664082,1.916066 0.32341699,0.32341699 0 0 1 -0.550528,-0.204113 3.0208728,3.0208728 0 0 0 -0.304731,-1.113992 0.32341699,0.32341699 0 0 0 -0.0043,-0.0072 0.36786456,0.36786456 0 0 0 -0.687081,0.104932 0.32341699,0.32341699 0 0 0 0.05031,0.240048 1.909612,1.909612 0 0 1 -1.460407,2.972563 0.32341699,0.32341699 0 0 1 -0.333479,-0.405351 1.1965293,1.1965293 0 0 0 0.02875,-0.458534 0.32341699,0.32341699 0 0 0 -0.0345,-0.11068 0.39406996,0.39406996 0 0 0 -0.734516,0.106372 0.32341699,0.32341699 0 0 0 -0.0058,0.08769 1.698816,1.698816 0 0 1 -3.364973,0.426911 0.64683398,0.64683398 0 0 1 -0.01152,-0.119309 v -1.960624 a 0.32341699,0.32341699 0 0 1 0.508842,-0.26592 3.3310656,2.5240468 15 0 0 1.078056,0.534716 0.64683398,0.64683398 0 0 1 0.01868,0.0058 4.3258675,3.2778385 15 0 0 0.597961,0.179676 0.64683398,0.64683398 0 0 1 0.0345,0.01008 0.52540599,0.39811625 15 1 0 0.191176,-0.77189 0.64683398,0.64683398 0 0 1 -0.02875,-0.0058 3.3706662,2.5540455 15 0 1 -2.294105,-1.548088 0.64683398,0.64683398 0 0 1 -0.106372,-0.355039 V 9.6465356 a 0.64683398,0.64683398 0 0 1 0.172489,-0.4398469 2.5540455,2.5540455 0 0 1 1.901692,-0.8193234 0.64683398,0.64683398 0 0 1 0.0345,0.00144 0.39811625,0.39811625 0 1 0 0.01296,-0.7948884 0.64683398,0.64683398 0 0 1 -0.04025,0 3.2778385,3.2778385 0 0 0 -0.461409,0.018684 0.64683398,0.64683398 0 0 1 -0.02299,0.00144 z M 11.751977,3.7531912 a 2.298618,2.298618 0 0 0 2.340101,2.3070412 0.32341699,0.32341699 0 0 0 0.129364,-0.03018 0.39639567,0.39639567 0 0 0 -0.0029,-0.7201412 0.32341699,0.32341699 0 0 0 -0.119309,-0.028754 1.5883655,1.5883655 0 0 1 -1.516466,-1.5078411 0.64683398,0.64683398 0 0 1 0,-0.066123 0.41659558,0.41659558 0 1 0 -0.832259,0.00288 0.64683398,0.64683398 0 0 1 0.0014,0.043116 z m 3.383661,8.4936478 a 2.9520641,2.9520641 0 0 0 1.793886,0.554841 0.32341699,0.32341699 0 0 0 0.092,-0.01582 0.50908279,0.50908279 0 0 0 0,-0.968813 0.32341699,0.32341699 0 0 0 -0.08769,-0.01441 2.0399132,2.0399132 0 0 1 -1.960626,-1.9520008 0.64683398,0.64683398 0 0 1 0,-0.066123 0.53502514,0.53502514 0 1 0 -1.067995,0.00288 0.64683398,0.64683398 0 0 1 0.0014,0.047438 2.9520641,2.9520641 0 0 0 0.17249,1.0090598 0.64683398,0.64683398 0 0 1 -0.231423,0.741702 2.298618,2.298618 0 0 0 -0.953003,1.906005 0.32341699,0.32341699 0 0 0 0.03018,0.130805 0.39639567,0.39639567 0 0 0 0.720143,-0.0029 0.32341699,0.32341699 0 0 0 0.02875,-0.120734 1.5883655,1.5883655 0 0 1 0.738827,-1.273545 0.64683398,0.64683398 0 0 1 0.723017,0.02157 z"
     class="st2"
     id="path3"
     style="fill:#000000;fill-opacity:1;stroke:#000000;stroke-width:0.215613;stroke-linecap:round;stroke-linejoin:round;stroke-opacity:1" />
</svg>