<?xml version="1.0" encoding="UTF-8" standalone="no"?>
<svg width="21" height="21" viewBox="0 0 21 21" xmlns="http://www.w3.org/2000/svg">
  <path
     id="path3"
     class="st2"
     d="M 10.49561,0.46726578 A 2.0579744,2.0579744 0 0 0 8.4378075,2.5250728 2.0577723,2.0577723 0 0 0 9.8721812,4.4864651 v 9.2248129 0.08944 A 4.3406808,4.3406808 0 0 0 8.2847524,12.780486 l -0.00301,-0.0011 h -0.00279 L 7.8301363,12.623561 v -0.0011 l -0.5325255,-0.183289 -0.00302,-0.0011 a 3.5242019,3.5242019 0 0 1 -2.073863,-2.072421 2.0577723,2.0577723 0 0 0 1.2772992,-1.9036837 2.0580131,2.0580131 0 0 0 -4.1160262,0 2.0577723,2.0577723 0 0 0 1.0447569,1.7908007 2.0577723,2.0577723 0 0 0 0.5022941,0.202305 h -0.017331 a 4.3406808,4.3406808 0 0 0 2.6757348,2.883553 h 0.00424 l 0.00145,0.0011 0.450289,0.154322 v 0.0033 l 0.5325255,0.183289 h 0.00301 a 3.5242019,3.5242019 0 0 1 2.2730097,2.907852 2.0577723,2.0577723 0 0 0 -1.2354419,1.886352 2.0579744,2.0579744 0 0 0 2.6939151,1.957172 2.0579744,2.0579744 0 0 0 1.321272,-1.321267 2.0579744,2.0579744 0 0 0 0.100835,-0.635905 2.0577723,2.0577723 0 0 0 -0.0071,-0.173562 2.0577723,2.0577723 0 0 0 -1.599056,-1.8354 v -2.613589 -0.0067 a 3.5242019,3.5242019 0 0 1 2.294574,-3.30191 l 0.003,-0.0011 h 0.0028 l 0.529777,-0.183288 v -0.0011 l 0.450289,-0.154535 0.0015,-0.0011 0.0042,-0.0011 A 4.3406808,4.3406808 0 0 0 17.088278,7.3194 h -0.01733 a 2.0577723,2.0577723 0 0 0 1.547051,-1.9931167 2.0580131,2.0580131 0 0 0 -4.116026,0 2.0577723,2.0577723 0 0 0 1.2773,1.9036945 3.5242019,3.5242019 0 0 1 -1.398857,1.7351903 3.5242019,3.5242019 0 0 1 -0.675011,0.337198 h -0.003 l -0.0012,0.00112 -0.531257,0.1832887 v 0.00112 l -0.44881,0.1545347 -0.0028,0.00112 -0.003,0.00112 a 4.3406808,4.3406808 0 0 0 -1.115576,0.6077875 4.3406808,4.3406808 0 0 0 -0.479251,0.41963 V 4.4880954 A 2.0577723,2.0577723 0 0 0 12.553529,2.5267031 2.0579744,2.0579744 0 0 0 10.495516,0.4688961 Z M 10.261586,1.4902487 a 1.0442864,1.0442864 0 0 1 1.278991,1.0348241 1.0442864,1.0442864 0 1 1 -2.0882439,0 1.0442864,1.0442864 0 0 1 0.097875,-0.4591732 1.0442864,1.0442864 0 0 1 0.7113729,-0.5756509 z m 6.064321,2.7983441 a 1.0442864,1.0442864 0 0 1 1.278991,1.0348207 1.0442864,1.0442864 0 0 1 -2.088455,0 1.0442864,1.0442864 0 0 1 0.09809,-0.4591597 1.0442864,1.0442864 0 0 1 0.711374,-0.575661 z M 4.2046649,7.4260299 a 1.0442864,1.0442864 0 0 1 1.2789909,1.0348207 1.0442864,1.0442864 0 0 1 -2.088455,0 1.0442864,1.0442864 0 0 1 0.098088,-0.4591597 1.0442864,1.0442864 0 0 1 0.7113731,-0.575661 z M 10.445507,17.47256 a 1.0442864,1.0442864 0 0 1 1.274129,1.001209 1.0442864,1.0442864 0 1 1 -2.0884552,0 1.0442864,1.0442864 0 0 1 0.1088744,-0.446909 1.0442864,1.0442864 0 0 1 0.7054518,-0.5543 z"
     style="fill:#000000;fill-opacity:1;stroke:none;stroke-width:0.144317" />
</svg>