<?xml version="1.0" encoding="UTF-8" standalone="no"?>
<svg width="21" height="21" viewBox="0 0 21 21" xmlns="http://www.w3.org/2000/svg">
  <path
     id="path4"
     class="st2"
     d="M 4.8165472,0.47037532 A 1.5045037,1.5045037 0 0 0 3.3116756,1.9750338 V 2.6994546 H 5.8197195 A 1.5045037,1.5045037 0 0 1 7.324378,4.2043262 V 4.7605503 A 1.5045037,1.5045037 0 0 1 5.8197195,6.2651954 H 3.3116756 V 8.8292427 H 5.8197195 A 1.5045037,1.5045037 0 0 1 7.324378,10.332623 v 0.557489 A 1.5045037,1.5045037 0 0 1 5.8197195,12.394971 H 3.3116756 v 2.562569 h 2.5080439 a 1.5045037,1.5045037 0 0 1 1.5046585,1.504658 v 0.55769 A 1.5045037,1.5045037 0 0 1 5.8197195,18.524546 H 3.3116756 v 0.501686 a 1.5045037,1.5045037 0 0 0 1.5048716,1.503393 H 18.858015 a 1.5045037,1.5045037 0 0 0 1.504872,-1.503393 V 1.9750338 A 1.5045037,1.5045037 0 0 0 18.858015,0.47037532 Z M 1.5712274,3.5489505 A 0.9337791,0.93377622 0 0 0 0.63711353,4.4832775 0.9337791,0.93377622 0 0 0 1.5712274,5.4159259 H 5.0521239 A 0.9337791,0.93377622 0 0 0 5.9864642,4.4832775 0.9337791,0.93377622 0 0 0 5.0521239,3.5489505 Z M 13.410366,6.7321524 a 2.5814221,2.5814221 0 0 1 1.86487,4.3663876 l -0.01332,0.01332 -0.0013,0.0013 -0.004,0.0027 a 2.0412024,2.0412024 0 0 0 -0.153902,0.153676 l -0.0067,0.008 a 2.0412024,2.0412024 0 0 0 -0.484222,1.040432 l 0.0013,0.0013 a 5.8129264e-4,5.8129264e-4 0 0 1 8.66e-4,5.73e-4 l -8.66e-4,1.177911 a 0.64670723,0.64670723 0 0 1 -0.18674,0.454115 l -0.23579,0.238534 a 0.64670723,0.64670723 0 0 1 -0.45979,0.191163 H 13.091183 A 0.64670723,0.64670723 0 0 1 12.631166,14.190401 L 12.39559,13.951867 a 0.64670723,0.64670723 0 0 1 -0.186953,-0.454115 v -1.178537 a 0.00188858,0.00188858 0 0 1 0.0013,-0.0013 2.0412024,2.0412024 0 0 0 -0.486114,-1.040006 l -0.004,-0.0053 a 1.9237244,1.9237244 0 0 0 -0.156634,-0.155155 l -0.01732,-0.01732 A 2.5814221,2.5814221 0 0 1 13.41074,6.7337471 Z m -4.4577597,0.00932 a 0.30731791,0.30731791 0 0 1 0.2330589,0.030773 L 10.25073,7.3874036 A 0.30731791,0.30731791 0 0 1 10.362763,7.8069895 0.30731791,0.30731791 0 0 1 9.9431766,7.9191562 L 8.8781127,7.3054679 A 0.30731791,0.30731791 0 0 1 8.7660792,6.8841902 0.30731791,0.30731791 0 0 1 8.9526063,6.7414508 Z m 8.9155047,0 a 0.30731791,0.30731791 0 0 1 0.186527,0.1427444 0.30731791,0.30731791 0 0 1 -0.112033,0.4212778 l -1.065077,0.6136928 a 0.30731791,0.30731791 0 0 1 -0.419586,-0.1121666 0.30731791,0.30731791 0 0 1 0.112033,-0.419586 l 1.065064,-0.6151582 a 0.30731791,0.30731791 0 0 1 0.233059,-0.030773 z m -4.185322,0.6718011 a 0.15435097,0.15435097 0 0 0 -0.168223,0.1536896 v 0.078996 a 0.15435097,0.15435097 0 0 0 0.139383,0.1539028 1.4645779,1.4645779 0 0 1 1.319383,1.3179183 0.15435097,0.15435097 0 0 0 0.152424,0.1393691 h 0.08046 A 0.15435097,0.15435097 0 0 0 15.359908,9.0889312 1.8522087,1.8522087 0 0 0 13.682829,7.4133318 Z M 8.8664964,8.9137274 H 10.09684 A 0.30731791,0.30731791 0 0 1 10.402941,9.2213065 0.30731791,0.30731791 0 0 1 10.09684,9.5286857 H 8.8664964 A 0.30731791,0.30731791 0 0 1 8.5591304,9.2213065 0.30731791,0.30731791 0 0 1 8.8664964,8.9137274 Z m 7.8573816,0 h 1.228864 a 0.30731791,0.30731791 0 0 1 0.307593,0.3075791 0.30731791,0.30731791 0 0 1 -0.307593,0.3073792 h -1.228864 a 0.30731791,0.30731791 0 0 1 -0.3061,-0.3073792 0.30731791,0.30731791 0 0 1 0.3061,-0.3075791 z M 1.5712274,9.6781525 A 0.9337791,0.93377622 0 0 0 0.63711353,10.61228 0.9337791,0.93377622 0 0 0 1.5712274,11.545128 H 5.0521239 A 0.9337791,0.93377622 0 0 0 5.9864642,10.61228 0.9337791,0.93377622 0 0 0 5.0521239,9.6781525 Z m 8.6051956,0.8134885 a 0.30731791,0.30731791 0 0 1 0.186314,0.143792 0.30731791,0.30731791 0 0 1 -0.112034,0.418107 L 9.1856385,11.668712 A 0.30731791,0.30731791 0 0 1 8.7660526,11.556678 0.30731791,0.30731791 0 0 1 8.8780861,11.136879 l 1.0650645,-0.614958 a 0.30731791,0.30731791 0 0 1 0.2332724,-0.03037 z m 6.467886,0 a 0.30731791,0.30731791 0 0 1 0.233259,0.03037 l 1.065077,0.614958 a 0.30731791,0.30731791 0 0 1 0.112033,0.419799 0.30731791,0.30731791 0 0 1 -0.419586,0.112034 L 16.570029,11.05363 a 0.30731791,0.30731791 0 0 1 -0.112034,-0.418107 0.30731791,0.30731791 0 0 1 0.186327,-0.143792 z m -2.56426,2.192459 -5.6e-4,8.65e-4 h -1.132657 a 0.30405255,0.30405255 0 0 0 -0.304634,0.303157 0.2333086,0.2333086 0 0 0 0.294736,0.225692 l 1.146751,-0.307593 a 0.12811479,0.12811479 0 0 0 0.09498,-0.123623 0.09830583,0.09830583 0 0 0 -0.09858,-0.09858 z m -0.01066,0.705691 -1.112448,0.296855 a 0.1016975,0.1016975 0 0 0 -0.04596,0.169476 0.4187853,0.4187853 0 0 0 0.297482,0.125088 h 0.309057 a 0.64670723,0.64670723 0 0 0 0.459791,-0.192428 l 0.122157,-0.123623 a 0.27461124,0.27461124 0 0 0 0.07913,-0.19115 0.08654439,0.08654439 0 0 0 -0.109236,-0.08419 z M 1.5713073,15.807515 A 0.9337791,0.93377622 0 0 0 0.63718014,16.741842 0.9337791,0.93377622 0 0 0 1.5713073,17.674491 H 5.0521905 A 0.9337791,0.93377622 0 0 0 5.9865308,16.741842 0.9337791,0.93377622 0 0 0 5.0521905,15.807515 Z"
     style="fill:#000000;fill-opacity:1;stroke:none;stroke-width:0.0344931;stroke-linecap:round;stroke-linejoin:round" />
</svg>