<?xml version="1.0" encoding="UTF-8" standalone="no"?>
<svg width="21" height="21" viewBox="0 0 21 21" xmlns="http://www.w3.org/2000/svg">
  <path
     d="m 11.785654,10.992953 a 0.50814183,0.50814183 0 0 0 0.50858,0.508579 h 1.508691 a 0.50814183,0.50814183 0 0 1 0.508579,0.507159 v 1.556992 a 0.50814183,0.50814183 0 0 1 -0.508579,0.507159 h -1.508691 a 0.50814183,0.50814183 0 0 0 -0.50858,0.508579 v 1.508693 a 0.50814183,0.50814183 0 0 1 -0.507159,0.508574 H 9.721504 A 0.50814183,0.50814183 0 0 1 9.2143451,16.090114 V 14.581421 A 0.50814183,0.50814183 0 0 0 8.7057662,14.072842 H 7.1970748 A 0.50814183,0.50814183 0 0 1 6.6884959,13.565683 V 12.008691 A 0.50814183,0.50814183 0 0 1 7.1970748,11.501532 H 8.7057662 A 0.50814183,0.50814183 0 0 0 9.2143451,10.992953 V 9.4842617 A 0.50814183,0.50814183 0 0 1 9.721504,8.9756828 h 1.556991 a 0.50814183,0.50814183 0 0 1 0.507159,0.5085789 z M 2.1155434,20.154485 H 18.884459 A 1.5244312,1.5244312 0 0 0 20.408774,18.63017 V 6.4356264 A 1.5244312,1.5244312 0 0 0 18.884459,4.9113089 H 15.612786 V 2.8784125 A 2.0325702,2.0325702 0 0 0 13.581309,0.84551531 H 7.4826183 A 2.0325702,2.0325702 0 0 0 5.4497211,2.8784125 V 4.9113089 H 2.1155434 A 1.5244312,1.5244312 0 0 0 0.59122588,6.4356264 V 18.63017 A 1.5244312,1.5244312 0 0 0 2.1155434,20.154485 Z M 7.2453759,4.9113089 V 3.132702 h 6.5731761 v 1.7786069 z"
     class="st2"
     id="path3"
     style="fill:#000000;fill-opacity:1;stroke:none;stroke-width:0.106546;stroke-linecap:round;stroke-linejoin:round" />
</svg>