<?xml version="1.0" encoding="UTF-8" standalone="no"?>
<svg width="21" height="21" viewBox="0 0 21 21" xmlns="http://www.w3.org/2000/svg">
  <path
     d="M 11.158831,7.0491872 V 19.245785 a 5.5322201,5.5322201 0 0 0 3.334929,-1.665318 l 3.224767,2.706858 a 0.87823956,0.87823956 0 0 0 1.237543,-0.108732 0.87823956,0.87823956 0 0 0 -0.108732,-1.237544 l -3.352097,-2.811298 a 5.5322201,5.5322201 0 0 0 0.535076,-2.267638 0.00106519,0.00106519 0 0 0 9.77e-4,-9.76e-4 l 4.29e-4,-0.943251 h 3.689743 a 0.87823956,0.87823956 0 0 0 0.878462,-0.878466 0.87823956,0.87823956 0 0 0 -0.878441,-0.878442 h -3.68974 V 7.4998527 L 18.847338,5.13779 A 0.87823956,0.87823956 0 0 0 18.95607,3.9002461 0.87823956,0.87823956 0 0 0 17.718527,3.7915137 l -2.330589,1.957179 A 1.3173586,1.3173586 0 0 0 14.714085,5.5627038 h -1.477899 v -0.00289 H 7.6021456 v 0.00289 H 6.2844824 A 1.3173586,1.3173586 0 0 0 5.6120606,5.7486927 L 3.2814725,3.7915137 A 0.87823956,0.87823956 0 0 0 2.0439299,3.9002461 0.87823956,0.87823956 0 0 0 2.1526622,5.13779 L 4.9682533,7.4998527 V 11.160978 H 1.278513 A 0.87823956,0.87823956 0 0 0 0.40007225,12.03942 0.87823956,0.87823956 0 0 0 1.278513,12.917861 h 3.6897403 v 0.94282 a 0.00106544,0.00106544 0 0 0 0.00106,9.77e-4 5.5322201,5.5322201 0 0 0 0.5340178,2.268068 l -3.3506693,2.811319 a 0.87823956,0.87823956 0 0 0 -0.1087324,1.237544 0.87823956,0.87823956 0 0 0 1.2375439,0.108732 l 3.2247661,-2.706858 a 5.5322201,5.5322201 0 0 0 3.3349299,1.665319 V 7.0491872 Z m 3.008732,-3.8943279 a 3.8640399,3.8640399 0 0 0 -7.3351272,0 0.87823956,0.87823956 0 0 0 0.832659,1.1545633 h 5.6683792 a 0.87823956,0.87823956 0 0 0 0.834089,-1.1545633 z"
     class="st2"
     id="path3"
     style="fill:#000000;fill-opacity:1;stroke:none;stroke-width:0.107301;stroke-linecap:round;stroke-linejoin:round" />
</svg>