<?xml version="1.0" encoding="UTF-8" standalone="no"?>
<svg width="21" height="21" viewBox="0 0 21 21" xmlns="http://www.w3.org/2000/svg">
  <path
     d="M 16.05696,5.0756166 A 0.65934854,0.65934854 0 0 0 16.71631,4.4162684 V 2.1546319 A 0.65934854,0.65934854 0 0 0 16.05696,1.4952836 0.65934854,0.65934854 0 0 0 15.397611,2.1546319 v 2.2616365 a 0.65934854,0.65934854 0 0 0 0.659349,0.6593482 z m -0.564346,5.2265784 h 1.98939 A 0.37677019,0.37677019 0 0 0 17.85918,9.9264374 V 8.5595293 A 0.37677019,0.37677019 0 0 0 17.482004,8.183772 h -1.98939 a 0.37677019,0.37677019 0 0 0 -0.377177,0.3757573 v 1.3669081 a 0.37677019,0.37677019 0 0 0 0.377177,0.3757576 z m 0,3.367641 h 1.98939 a 0.37677019,0.37677019 0 0 0 0.377176,-0.375758 v -1.366907 a 0.37677019,0.37677019 0 0 0 -0.377176,-0.375759 h -1.98939 a 0.37677019,0.37677019 0 0 0 -0.377177,0.375759 v 1.366907 a 0.37677019,0.37677019 0 0 0 0.377177,0.375758 z m -3.978777,-3.367641 h 1.990808 A 0.37677019,0.37677019 0 0 0 13.880402,9.9264374 V 8.5595293 A 0.37677019,0.37677019 0 0 0 13.504645,8.183772 h -1.990808 a 0.37677019,0.37677019 0 0 0 -0.375758,0.3757573 v 1.3669081 a 0.37677019,0.37677019 0 0 0 0.375758,0.3757576 z m 0,3.380402 h 1.990808 a 0.37677019,0.37677019 0 0 0 0.375757,-0.377176 v -1.365489 a 0.37677019,0.37677019 0 0 0 -0.375757,-0.377176 h -1.990808 a 0.37677019,0.37677019 0 0 0 -0.375758,0.377176 v 1.365489 a 0.37677019,0.37677019 0 0 0 0.375758,0.377176 z m 0,3.378984 h 1.990808 a 0.37677019,0.37677019 0 0 0 0.375757,-0.377176 v -1.365489 a 0.37677019,0.37677019 0 0 0 -0.375757,-0.377177 h -1.990808 a 0.37677019,0.37677019 0 0 0 -0.375758,0.377177 v 1.365489 a 0.37677019,0.37677019 0 0 0 0.375758,0.377176 z M 7.5364765,13.682597 H 9.5258652 A 0.37677019,0.37677019 0 0 0 9.9030418,13.305421 V 11.939932 A 0.37677019,0.37677019 0 0 0 9.5258652,11.562756 H 7.5364765 a 0.37677019,0.37677019 0 0 0 -0.3771759,0.377176 v 1.365489 a 0.37677019,0.37677019 0 0 0 0.3771759,0.377176 z m 0,-3.380402 H 9.5258652 A 0.37677019,0.37677019 0 0 0 9.9030418,9.9264374 V 8.5595293 A 0.37677019,0.37677019 0 0 0 9.5258652,8.183772 H 7.5364765 A 0.37677019,0.37677019 0 0 0 7.1593006,8.5595293 v 1.3669081 a 0.37677019,0.37677019 0 0 0 0.3771759,0.3757576 z m 0,6.759386 H 9.5258652 A 0.37677019,0.37677019 0 0 0 9.9030418,16.684405 V 15.318916 A 0.37677019,0.37677019 0 0 0 9.5258652,14.941739 H 7.5364765 a 0.37677019,0.37677019 0 0 0 -0.3771759,0.377177 v 1.365489 a 0.37677019,0.37677019 0 0 0 0.3771759,0.377176 z M 4.9997565,5.0756166 A 0.65934854,0.65934854 0 0 0 5.6591047,4.4162684 V 2.1546319 A 0.65934854,0.65934854 0 0 0 4.9997565,1.4952836 0.65934854,0.65934854 0 0 0 4.3404083,2.1546319 V 4.4162684 A 0.65934854,0.65934854 0 0 0 4.9997565,5.0756166 Z M 3.5576978,13.682597 H 5.5485043 A 0.37677019,0.37677019 0 0 0 5.9256801,13.305421 V 11.939932 A 0.37677019,0.37677019 0 0 0 5.5485043,11.562756 H 3.5576978 a 0.37677019,0.37677019 0 0 0 -0.3757581,0.377176 v 1.365489 a 0.37677019,0.37677019 0 0 0 0.3757581,0.377176 z m 0,3.378984 H 5.5485043 A 0.37677019,0.37677019 0 0 0 5.9256801,16.684405 V 15.318916 A 0.37677019,0.37677019 0 0 0 5.5485043,14.941739 H 3.5576978 a 0.37677019,0.37677019 0 0 0 -0.3757581,0.377177 v 1.365489 a 0.37677019,0.37677019 0 0 0 0.3757581,0.377176 z M 2.210641,18.262588 A 0.37677019,0.37677019 0 0 1 1.8348836,17.885412 V 7.1472479 A 0.37677019,0.37677019 0 0 1 2.210641,6.770072 h 16.578715 a 0.37677019,0.37677019 0 0 1 0.375762,0.3771759 V 17.885412 a 0.37677019,0.37677019 0 0 1 -0.375762,0.377176 z M 14.738261,3.3045926 H 6.1667329 V 4.4162684 A 1.2245024,1.2245024 0 0 1 4.9430381,5.6399623 1.2245024,1.2245024 0 0 1 3.7179266,4.4162684 V 3.3045926 H 2.4942318 A 1.8838509,1.8838509 0 0 0 0.60977119,5.1876356 V 17.621672 A 1.8838509,1.8838509 0 0 0 2.4942318,19.504716 H 18.505768 a 1.8838509,1.8838509 0 0 0 1.884461,-1.883044 V 5.1876356 a 1.8838509,1.8838509 0 0 0 -1.884461,-1.883043 h -1.3187 V 4.4162684 A 1.2245024,1.2245024 0 0 1 15.96338,5.6399623 1.2245024,1.2245024 0 0 1 14.738261,4.4162684 Z"
     class="st2"
     id="path3"
     style="fill:#000000;fill-opacity:1;stroke:none;stroke-width:0.106347;stroke-linecap:round;stroke-linejoin:round" />
</svg>