<?xml version="1.0" encoding="UTF-8" standalone="no"?>
<svg width="21" height="21" viewBox="0 0 21 21" xmlns="http://www.w3.org/2000/svg">
  <path
     id="path4"
     class="st2"
     d="M 15.217771,2.9376137 A 6.7240037,2.6296635 89.98 0 0 14.709809,3.0400048 L 2.4062678,7.1606679 A 2.5872647,2.5872647 0 0 0 0.48879981,9.6596837 2.5872647,2.5872647 0 0 0 2.4062678,12.15849 l 12.3035412,4.120663 a 6.7240037,2.6296635 89.98 0 0 2.644717,-2.87494 l 2.082933,1.202411 c 0.182433,0.105328 0.414198,0.04325 0.519525,-0.139184 0.105328,-0.18243 0.04323,-0.413987 -0.139187,-0.519314 l -2.297171,-1.326459 a 6.7240037,2.6296635 89.98 0 0 0.266171,-2.580802 h 2.344064 c 0.210647,0 0.380339,-0.1696882 0.380339,-0.3803404 0,-0.2106513 -0.169692,-0.3801297 -0.380339,-0.3801297 H 17.786375 A 6.7240037,2.6296635 89.98 0 0 17.518945,6.7004343 L 19.817797,5.373134 C 20.00023,5.2678076 20.062312,5.03625 19.956984,4.8538197 19.851657,4.6713887 19.619892,4.6093096 19.437459,4.7146361 l -2.085037,1.203672 A 6.7240037,2.6296635 89.98 0 0 15.217771,2.9376137 Z m -0.05193,1.187274 A 5.4457001,1.4175473 89.96 0 1 16.33293,6.5070049 L 15.284421,7.112311 c -0.18243,0.1053259 -0.24451,0.3370936 -0.139184,0.5195239 0.105328,0.1824303 0.337094,0.2445118 0.519524,0.1391853 l 0.787798,-0.4547681 a 5.4457001,1.4175473 89.96 0 1 0.127203,1.9641428 h -1.244461 c -0.210651,0 -0.38013,0.1694784 -0.38013,0.3801297 0,0.2106522 0.169479,0.3803404 0.38013,0.3803404 h 1.244883 a 5.4457001,1.4175473 89.96 0 1 -0.124885,1.965825 l -0.790537,-0.45645 c -0.18243,-0.105326 -0.414198,-0.04325 -0.519524,0.139185 -0.105328,0.182431 -0.04325,0.414197 0.139184,0.519524 l 1.052085,0.607408 A 5.4457001,1.4175473 89.96 0 1 13.752335,9.661156 5.4457001,1.4175473 89.96 0 1 15.165837,4.1248877 Z M 4.6624464,13.581032 v 2.66385 a 0.51361067,0.51361067 0 0 0 0.3473297,0.486516 l 3.8265274,1.304803 A 0.51361067,0.51361067 0 0 0 9.5151954,17.550948 V 15.237371 L 8.7156192,14.96468 v 0.02713 h 0.00146 v 1.577495 A 0.33962551,0.35032565 0 0 1 8.2677799,16.900862 L 5.7374373,16.01088 a 0.33962551,0.35032565 0 0 1 -0.229591,-0.331563 v -1.809821 z"
     style="fill:#000000;fill-opacity:1;stroke:none;stroke-width:0.0344471;stroke-linecap:round;stroke-linejoin:round" />
</svg>