<?xml version="1.0" encoding="UTF-8" standalone="no"?>
<svg width="21" height="21" viewBox="0 0 21 21" xmlns="http://www.w3.org/2000/svg">
  <path
     id="path4"
     class="st2"
     d="M 1.9194227,1.3658854 A 1.384019,1.384019 0 0 0 0.53505374,2.7502512 V 19.634115 H 20.464946 V 2.7502512 A 1.384019,1.384019 0 0 0 19.080573,1.3658854 Z m 0.060063,2.9759221 H 19.020517 V 18.251206 H 1.9794854 Z m 1.678613,1.3393733 A 0.22937071,0.22937071 0 0 0 3.4281035,5.9111749 V 10.78001 a 0.22937071,0.22937071 0 0 0 0.2299956,0.22853 h 6.5219119 a 0.22937071,0.22937071 0 0 0 0.230002,-0.22853 V 5.9111749 A 0.22937071,0.22937071 0 0 0 10.180011,5.6811808 Z m 8.0634519,0.024283 c -0.142467,0 -0.257199,0.1147314 -0.257199,0.2571991 v 1.0928513 c 0,0.14246 0.114732,0.257199 0.257199,0.257199 h 5.914592 c 0.142468,0 0.257207,-0.114739 0.257207,-0.257199 V 5.9626633 c 0,-0.1424677 -0.114739,-0.2571991 -0.257207,-0.2571991 z M 4.2352858,6.3098551 H 9.6013611 A 0.22937071,0.22937071 0 0 1 9.8313628,6.5383845 V 10.151351 A 0.22937071,0.22937071 0 0 1 9.6013611,10.381345 H 4.2352858 A 0.22937071,0.22937071 0 0 1 4.0067555,10.151351 V 6.5383845 A 0.22937071,0.22937071 0 0 1 4.2352858,6.3098551 Z M 5.0227962,6.520597 a 0.83363307,0.83363307 0 0 0 -0.7716056,0.8276918 0.83365645,0.83365645 0 1 0 1.6673126,0 A 0.83363307,0.83363307 0 0 0 5.0227962,6.520597 Z M 8.5859511,7.1157829 7.2572474,8.463109 6.585675,7.7829615 4.2185439,10.181698 H 8.9515603 L 8.2944289,9.515984 H 9.5030058 V 8.0458141 Z m 3.1355999,1.7506052 c -0.142467,0 -0.257199,0.1147314 -0.257199,0.257199 v 1.0928509 c 0,0.14246 0.114732,0.257199 0.257199,0.257199 h 5.914592 c 0.142468,0 0.257207,-0.114739 0.257207,-0.257199 V 9.1235871 c 0,-0.1424676 -0.114739,-0.257199 -0.257207,-0.257199 z M 3.6451242,12.027312 c -0.1424669,0 -0.2572021,0.114731 -0.2572021,0.257199 v 1.092851 c 0,0.142468 0.1147352,0.257199 0.2572021,0.257199 H 17.636143 c 0.142468,0 0.257207,-0.114731 0.257207,-0.257199 v -1.092851 c 0,-0.142468 -0.114739,-0.257199 -0.257207,-0.257199 z m 0,3.160924 c -0.1424669,0 -0.2572021,0.114739 -0.2572021,0.257206 v 1.092844 c 0,0.142468 0.1147352,0.257199 0.2572021,0.257199 H 17.636143 c 0.142468,0 0.257207,-0.114731 0.257207,-0.257199 v -1.092844 c 0,-0.142467 -0.114739,-0.257206 -0.257207,-0.257206 z"
     style="fill:#000000;fill-opacity:1;stroke:none;stroke-width:0.10715;stroke-linecap:round;stroke-linejoin:round" />
</svg>