<?xml version="1.0" encoding="UTF-8" standalone="no"?>
<svg width="21" height="21" viewBox="0 0 21 21" xmlns="http://www.w3.org/2000/svg">
  <path
     id="rect8"
     style="fill:#000000;stroke:none;stroke-width:0"
     d="M 1.7524043,0.73207657 A 1.0204157,1.0204157 0 0 0 0.73207532,1.7524038 V 18.219514 19.167756 A 1.1000766,1.1000766 0 0 0 1.832035,20.267923 H 2.7804843 19.247381 a 1.0204157,1.0204157 0 0 0 1.020544,-1.020536 v -0.02641 A 1.0014489,1.0014489 0 0 0 19.266461,18.219508 H 2.7804843 V 1.7335438 A 1.0014489,1.0014489 0 0 0 1.779017,0.73207657 Z M 19.106151,3.8159001 a 1.069373,1.069373 0 0 0 -0.601422,0.2738893 l -5.494353,5.0310187 -1.293797,-1.413035 a 1.069373,1.069373 0 0 0 -1.5109,-0.066435 0.99031037,0.99031037 0 0 0 -0.04547,0.050923 l -0.0046,-0.00508 -5.6915395,5.2118619 a 1.069373,1.069373 0 0 0 -0.066435,1.510897 0.99031037,0.99031037 0 0 0 1.3998331,0.04568 l 5.0695764,-4.6425008 1.21794,1.3300508 0.0082,-0.0073 a 0.99031037,0.99031037 0 0 0 0.0679,0.09032 1.069373,1.069373 0 0 0 1.510688,0.06664 l 2.052181,-1.8792982 4.214164,-3.8589706 a 0.99031037,0.99031037 0 0 0 0.07733,-1.398367 1.069373,1.069373 0 0 0 -0.909262,-0.3403181 z" />
</svg>