<?xml version="1.0" encoding="UTF-8" standalone="no"?>
<svg width="21" height="21" viewBox="0 0 21 21" xmlns="http://www.w3.org/2000/svg">
  <path
     id="rect8"
     style="fill:#000000;stroke:none;stroke-width:0"
     d="M 1.6230469 0.58789062 A 1.0354678 1.0354678 0 0 0 0.58789062 1.6230469 L 0.58789062 18.333984 L 0.58789062 19.294922 A 1.1163037 1.1163037 0 0 0 1.7050781 20.412109 L 2.6660156 20.412109 L 19.376953 20.412109 A 1.0354678 1.0354678 0 0 0 20.412109 19.376953 L 20.412109 19.349609 A 1.0162212 1.0162212 0 0 0 19.396484 18.333984 L 2.6660156 18.333984 L 2.6660156 1.6035156 A 1.0162212 1.0162212 0 0 0 1.6503906 0.58789062 L 1.6230469 0.58789062 z M 18.771484 1.71875 A 1.2980617 1.2980617 0 0 0 17.474609 3.015625 L 17.474609 15.347656 A 1.2980617 1.2980617 0 0 0 18.771484 16.644531 A 1.2980617 1.2980617 0 0 0 20.070312 15.347656 L 20.070312 3.015625 A 1.2980617 1.2980617 0 0 0 18.771484 1.71875 z M 14.445312 5.2871094 A 1.2980617 1.2980617 0 0 0 13.146484 6.5859375 L 13.146484 15.347656 A 1.2980617 1.2980617 0 0 0 14.445312 16.644531 A 1.2980617 1.2980617 0 0 0 15.744141 15.347656 L 15.744141 6.5859375 A 1.2980617 1.2980617 0 0 0 14.445312 5.2871094 z M 10.119141 8.2089844 A 1.2980617 1.2980617 0 0 0 8.8203125 9.5058594 L 8.8203125 15.347656 A 1.2980617 1.2980617 0 0 0 10.119141 16.644531 A 1.2980617 1.2980617 0 0 0 11.416016 15.347656 L 11.416016 9.5058594 A 1.2980617 1.2980617 0 0 0 10.119141 8.2089844 z M 5.7910156 9.5058594 A 1.2980617 1.2980617 0 0 0 4.4941406 10.804688 L 4.4941406 15.347656 A 1.2980617 1.2980617 0 0 0 5.7910156 16.644531 A 1.2980617 1.2980617 0 0 0 7.0898438 15.347656 L 7.0898438 10.804688 A 1.2980617 1.2980617 0 0 0 5.7910156 9.5058594 z " />
</svg>