<?xml version="1.0" encoding="UTF-8" standalone="no"?>
<svg width="21" height="21" viewBox="0 0 21 21" xmlns="http://www.w3.org/2000/svg">
  <path
     id="rect8"
     style="fill:#000000;stroke:none;stroke-width:0"
     d="M 1.623368,0.58798975 A 1.0354678,1.0354678 0 0 0 0.58798996,1.6233678 V 18.333388 19.295614 A 1.1163037,1.1163037 0 0 0 1.7041747,20.41201 H 2.6666144 19.37642 a 1.0354678,1.0354678 0 0 0 1.03559,-1.03559 V 19.34958 A 1.0162212,1.0162212 0 0 0 19.395771,18.333348 H 2.6666144 V 1.60423 A 1.0162212,1.0162212 0 0 0 1.650374,0.58798975 Z M 18.985787,2.8726696 c -0.234503,7.078e-4 -0.461819,0.081012 -0.644745,0.2277452 -1.801223,1.7711471 -3.569922,3.5807575 -5.34935,5.3755044 L 11.514433,7.041189 C 11.439023,6.967963 11.060204,6.6718993 10.634713,6.6762876 10.360192,6.6811076 10.098828,6.7947819 9.9080966,6.992281 l -2.1926038,2.2704332 0.00403,0.004 C 5.1117864,11.862701 6.3203373,10.685933 4.2912255,12.733074 c -0.047314,0.05004 -0.089427,0.104756 -0.1256734,0.163313 -0.099548,0.159185 -0.1412517,0.335662 -0.1550191,0.520559 v 0.027 c 4.91e-5,0.571804 0.4635738,1.035329 1.0353781,1.035379 H 19.01278 19.07636 v -0.0028 c 0.535222,-0.03354 0.952262,-0.477207 0.952659,-1.013477 -0.0033,-1.546462 0.0069,1.867495 -0.0077,-6.3987619 h 0.0077 V 3.888907 C 20.02903,3.3276477 19.574037,2.8726558 19.012778,2.8726666 Z" />
</svg>