<?xml version="1.0" encoding="UTF-8" standalone="no"?>
<svg width="21" height="21" viewBox="0 0 21 21" xmlns="http://www.w3.org/2000/svg">
  <path
     id="path4"
     class="st2"
     d="M 3.7383329,0.63202151 A 1.4619727,1.4619727 0 0 0 2.2766293,2.0937251 V 18.906275 a 1.4619727,1.4619727 0 0 0 1.4617036,1.461704 H 17.261666 A 1.4619727,1.4619727 0 0 0 18.72337,18.906275 V 6.4171016 A 0.73099007,0.73099007 0 0 0 18.509707,5.9000226 L 13.455368,0.8456833 A 0.73099007,0.73099007 0 0 0 12.938289,0.63202151 Z m 1.09699,2.01008889 h 7.6754241 a 0.73099007,0.73099007 0 0 1 0.730959,0.7307426 v 2.0100897 a 0.73099007,0.73099007 0 0 0 0.730743,0.7307417 h 2.192446 a 0.73099007,0.73099007 0 0 1 0.732276,0.7322755 V 17.627147 a 0.73099007,0.73099007 0 0 1 -0.732276,0.730742 H 4.8353229 A 0.73099007,0.73099007 0 0 1 4.1045804,17.627147 V 3.372853 A 0.73099007,0.73099007 0 0 1 4.8353229,2.6421104 Z m 4.4210138,4.8084959 v 2.12283 h 6.0525963 v -2.12283 z M 6.0312625,7.4777535 A 0.21558581,0.21558581 0 0 0 5.8160678,7.6929474 V 9.5265913 A 0.21558581,0.21558581 0 0 0 6.0312625,9.7404716 H 7.8649039 A 0.21558581,0.21558581 0 0 0 8.0800987,9.5265913 V 7.6929474 A 0.21558581,0.21558581 0 0 0 7.8649039,7.4777535 Z M 6.2374809,7.6839717 H 7.6571527 A 0.21558581,0.21558581 0 0 1 7.8738804,7.9006994 V 9.3188393 A 0.21558581,0.21558581 0 0 1 7.6571527,9.5355652 H 6.2374809 A 0.21558581,0.21558581 0 0 1 6.022286,9.3188393 V 7.9006994 A 0.21558581,0.21558581 0 0 1 6.2374809,7.6839717 Z m 1.4860035,0.3509232 a 0.00541955,0.00541955 0 0 0 -0.00397,0.00177 l -0.8752271,0.874133 a 0.00983085,0.00983085 0 0 1 -0.014004,0 L 6.310579,8.3897787 a 0.00983085,0.00983085 0 0 0 -0.016857,0.00701 l 1.453e-4,0.2394939 a 0.00983085,0.00983085 0 0 0 0.00287,0.00701 l 0.5409412,0.5424672 h 0.00151 l 0.889238,-0.8905513 1.493e-4,9.286e-4 a 0.00983085,0.00983085 0 0 0 0.00287,-0.00701 L 7.7313062,8.043505 a 0.00983085,0.00983085 0 0 0 -0.00287,-0.00675 h -0.00135 a 0.00541955,0.00541955 0 0 0 -0.00372,-0.00177 z M 6.0312625,10.717495 a 0.21558581,0.21558581 0 0 0 -0.2151947,0.215196 v 1.833642 a 0.21558581,0.21558581 0 0 0 0.2151947,0.213661 H 7.8649039 A 0.21558581,0.21558581 0 0 0 8.0800987,12.766333 V 10.932691 A 0.21558581,0.21558581 0 0 0 7.8649039,10.717495 Z m 3.2097497,0.05648 v 2.12305 h 6.0832458 v -2.12305 z m -3.0035313,0.14974 h 1.4196718 a 0.21558581,0.21558581 0 0 1 0.2167277,0.216726 v 1.41814 A 0.21558581,0.21558581 0 0 1 7.6571527,12.775309 H 6.2374809 A 0.21558581,0.21558581 0 0 1 6.022286,12.558582 v -1.41814 a 0.21558581,0.21558581 0 0 1 0.2151949,-0.216727 z m -0.2062184,3.033304 a 0.21558581,0.21558581 0 0 0 -0.2151947,0.215194 v 1.833644 a 0.21558581,0.21558581 0 0 0 0.2151947,0.21388 h 1.8336414 a 0.21558581,0.21558581 0 0 0 0.2151948,-0.21388 V 14.172213 A 0.21558581,0.21558581 0 0 0 7.8649039,13.957019 Z m 3.2097497,0.140544 v 2.122832 h 6.0832458 v -2.122834 z m -3.0035313,0.06567 h 1.4196718 a 0.21558581,0.21558581 0 0 1 0.2167277,0.216726 v 1.41814 a 0.21558581,0.21558581 0 0 1 -0.2167277,0.21673 H 6.2374809 A 0.21558581,0.21558581 0 0 1 6.022286,15.798102 v -1.418139 a 0.21558581,0.21558581 0 0 1 0.2151949,-0.216726 z m 1.4860035,0.350922 a 0.00541955,0.00541955 0 0 0 -0.00397,0.0015 l -0.8752271,0.874132 a 0.00983085,0.00983085 0 0 1 -0.014004,0 L 6.3106018,14.868808 a 0.00983085,0.00983085 0 0 0 -0.016857,0.007 l 1.452e-4,0.239713 a 0.00983085,0.00983085 0 0 0 0.00287,0.0068 l 0.5409416,0.542693 h 0.00151 l 0.8892379,-0.89077 1.494e-4,9.28e-4 a 0.00983085,0.00983085 0 0 0 0.00287,-0.0068 l -1.494e-4,-0.245625 a 0.00983085,0.00983085 0 0 0 -0.00287,-0.007 h -0.00135 a 0.00541955,0.00541955 0 0 0 -0.00372,-0.0015 z"
     style="fill:#000000;fill-opacity:1;stroke:none;stroke-width:0.112084;stroke-linecap:round;stroke-linejoin:round" />
</svg>