<?xml version="1.0" encoding="UTF-8" standalone="no"?>
<svg width="21" height="21" viewBox="0 0 21 21" xmlns="http://www.w3.org/2000/svg">
  <path
     id="path3"
     class="st2"
     d="M 2.399837,0.49390627 A 1.9059207,1.9059207 0 0 0 0.4939043,2.3998294 V 18.600175 a 1.9059207,1.9059207 0 0 0 1.9059327,1.905919 h 16.20034 a 1.9059207,1.9059207 0 0 0 1.905919,-1.905919 V 2.3998294 A 1.9059207,1.9059207 0 0 0 18.600177,0.49390627 Z M 4.2267582,2.3206215 H 16.773256 a 1.9059207,1.9059207 0 0 1 1.905919,1.9059232 V 16.77469 a 1.9059207,1.9059207 0 0 1 -1.905919,1.905933 H 4.2267582 A 1.9059207,1.9059207 0 0 1 2.3208256,16.77469 V 4.2265447 A 1.9059207,1.9059207 0 0 1 4.2267582,2.3206215 Z M 17.357062,5.4134034 a 0.04791245,0.04791245 0 0 0 -0.03387,0.013859 L 9.5923784,13.158293 a 0.08691112,0.08691112 0 0 1 -0.1228795,0 L 4.8670322,8.5551935 a 0.08691112,0.08691112 0 0 0 -0.1482683,0.061426 v 2.1239015 a 0.08691112,0.08691112 0 0 0 0.02547,0.06164 l 4.784659,4.784456 a 9.7147202e-4,9.7147202e-4 0 0 0 0.00125,0 9.7147202e-4,9.7147202e-4 0 0 1 0.00135,0 h 0.00135 a 9.7147202e-4,9.7147202e-4 0 0 0 0.00135,0 L 17.399239,7.7201396 v 8.481e-4 a 0.08691112,0.08691112 0 0 0 0.02547,-0.06163 V 5.497414 a 0.08691112,0.08691112 0 0 0 -0.02547,-0.06163 l -0.0081,-0.00854 a 0.04791245,0.04791245 0 0 0 -0.03387,-0.013859 z"
     style="fill:#000000;fill-opacity:1;stroke:none;stroke-width:0.105884;stroke-linecap:round;stroke-linejoin:round" />
</svg>