<?xml version="1.0" encoding="UTF-8" standalone="no"?>
<svg width="21" height="21" viewBox="0 0 21 21" xmlns="http://www.w3.org/2000/svg">
  <path
     id="rect5"
     class="st2"
     d="m 4.8492301,0.78778888 c -0.1956565,0 -0.3530721,0.15741553 -0.3530721,0.35307122 V 3.4430638 C 3.9400146,3.5006672 3.5006675,3.9400134 3.4430641,4.4961586 H 1.1410644 c -0.19565655,0 -0.35327518,0.1574147 -0.35327518,0.3530712 0,0.1956566 0.15761863,0.3532752 0.35327518,0.3532752 h 2.295473 v 1.5538387 h -2.295473 c -0.19565655,0 -0.35327518,0.1576196 -0.35327518,0.3532752 0,0.1956574 0.15761863,0.3530721 0.35327518,0.3530721 h 2.295473 v 1.5540394 h -2.295473 c -0.19565655,0 -0.35327518,0.1574205 -0.35327518,0.3530752 0,0.1956547 0.15761863,0.3532743 0.35327518,0.3532743 h 2.295473 v 1.5538381 h -2.295473 c -0.19565655,0 -0.35327518,0.157619 -0.35327518,0.353274 0,0.195655 0.15761863,0.353076 0.35327518,0.353076 h 2.295473 v 1.554046 h -2.295473 c -0.19565655,0 -0.35327518,0.157411 -0.35327518,0.353066 0,0.195655 0.15761863,0.353274 0.35327518,0.353274 h 2.295473 v 1.553839 h -2.295473 c -0.19565655,0 -0.35327518,0.157619 -0.35327518,0.353274 0,0.195664 0.15761863,0.353076 0.35327518,0.353076 h 2.3019997 c 0.057685,0.55605 0.4970173,0.995495 1.0530939,1.053089 v 2.302005 c 0,0.195655 0.1574156,0.353274 0.3530721,0.353274 0.1956566,0 0.3532752,-0.157619 0.3532752,-0.353274 v -2.29547 h 1.5538399 v 2.29547 c 0,0.195655 0.1576186,0.353274 0.3532743,0.353274 0.1956565,0 0.353072,-0.157619 0.353072,-0.353274 v -2.29547 h 1.554042 v 2.29547 c 0,0.195655 0.1574146,0.353274 0.3530719,0.353274 0.1956556,0 0.3532751,-0.157619 0.3532751,-0.353274 v -2.29547 H 11.27692 v 2.29547 c 0,0.195655 0.157618,0.353274 0.353275,0.353274 0.195657,0 0.353071,-0.157619 0.353071,-0.353274 v -2.29547 h 1.554048 v 2.29547 c 0,0.195655 0.157412,0.353274 0.353066,0.353274 0.195655,0 0.353275,-0.157619 0.353275,-0.353274 v -2.29547 h 1.553838 v 2.29547 c 0,0.195655 0.157619,0.353274 0.353283,0.353274 0.195655,0 0.353067,-0.157619 0.353067,-0.353274 v -2.302005 c 0.556077,-0.05758 0.995404,-0.497039 1.053098,-1.053089 h 2.301996 c 0.195655,0 0.353274,-0.157412 0.353274,-0.353076 0,-0.195655 -0.157619,-0.353274 -0.353274,-0.353274 h -2.29547 v -1.553839 h 2.29547 c 0.195655,0 0.353274,-0.157619 0.353274,-0.353274 0,-0.195655 -0.157619,-0.353066 -0.353274,-0.353066 h -2.29547 v -1.554046 h 2.29547 c 0.195655,0 0.353274,-0.157421 0.353274,-0.353076 0,-0.195655 -0.157619,-0.353274 -0.353274,-0.353274 h -2.29547 V 9.7230799 h 2.29547 c 0.195655,0 0.353274,-0.1576196 0.353274,-0.3532743 0,-0.1956547 -0.157619,-0.3530752 -0.353274,-0.3530752 h -2.29547 V 7.462691 h 2.29547 c 0.195655,0 0.353274,-0.1574147 0.353274,-0.3530721 0,-0.1956556 -0.157619,-0.3532752 -0.353274,-0.3532752 h -2.29547 V 5.202505 h 2.29547 c 0.195655,0 0.353274,-0.1576186 0.353274,-0.3532752 0,-0.1956565 -0.157619,-0.3530712 -0.353274,-0.3530712 H 17.556941 C 17.499356,3.9400125 17.059992,3.500669 16.503843,3.4430638 V 1.1408601 c 0,-0.19565569 -0.157412,-0.35307122 -0.353067,-0.35307122 -0.195664,0 -0.353283,0.15741553 -0.353283,0.35307122 v 2.295677 h -1.553838 v -2.295677 c 0,-0.19565569 -0.15762,-0.35307122 -0.353275,-0.35307122 -0.195654,0 -0.353066,0.15741553 -0.353066,0.35307122 v 2.295677 h -1.554048 v -2.295677 c 0,-0.19565569 -0.157414,-0.35307122 -0.353071,-0.35307122 -0.195657,0 -0.353275,0.15741553 -0.353275,0.35307122 v 2.295677 H 9.7230805 v -2.295677 c 0,-0.19565569 -0.1576195,-0.35307122 -0.3532751,-0.35307122 -0.1956573,0 -0.3530719,0.15741553 -0.3530719,0.35307122 v 2.295677 h -1.554042 v -2.295677 c 0,-0.19565569 -0.1574155,-0.35307122 -0.353072,-0.35307122 -0.1956557,0 -0.3532743,0.15741553 -0.3532743,0.35307122 v 2.295677 H 5.2025053 v -2.295677 c 0,-0.19565569 -0.1576186,-0.35307122 -0.3532752,-0.35307122 z"
     style="fill:#000000;fill-opacity:1;stroke:none;stroke-width:0.0334184;stroke-linecap:round;stroke-linejoin:round" />
</svg>