<?xml version="1.0" encoding="UTF-8" standalone="no"?>
<svg width="21" height="21" viewBox="0 0 21 21" xmlns="http://www.w3.org/2000/svg">
  <path
     id="path4"
     class="st2"
     d="m 12.771507,1.3835453 a 0.12612855,0.12612855 0 0 0 -0.08581,0.033462 l -2.069301,1.9159512 a 4.6535918e-4,4.6535918e-4 0 0 0 4.2e-4,8.265e-4 l -4.2e-4,6.177e-4 a 9.9746812e-4,9.9746812e-4 0 0 1 9.57e-4,8.701e-4 l -9.57e-4,4.7877096 a 0.12612855,0.12612855 0 0 0 0.126252,0.1260517 h 1.479917 a 0.12612855,0.12612855 0 0 1 0.126047,0.1262518 v 1.5920021 a 0.12612855,0.12612855 0 0 0 0.126047,0.1260432 h 0.515888 a 0.12612855,0.12612855 0 0 1 0.126046,0.126252 v 9.270373 a 0.12612855,0.12612855 0 0 0 0.126046,0.126052 h 1.54869 a 0.12612855,0.12612855 0 0 0 0.126047,-0.126052 V 3.3356728 a 9.9746812e-4,9.9746812e-4 0 0 0 -9.58e-4,-8.7e-4 l 9.58e-4,-4.09e-4 a 0.00253534,0.00253534 0 0 1 -0.0017,-6.264e-4 L 12.857304,1.4172107 a 0.12612855,0.12612855 0 0 0 -0.08581,-0.033671 z M 3.8363663,2.6043905 A 0.46083027,0.46083027 0 0 0 3.3767276,3.0654639 V 4.5523653 A 0.12612855,0.12612855 0 0 1 3.2504758,4.6784083 H 2.5806228 A 0.12612855,0.12612855 0 0 0 2.4545755,4.80446 V 5.6664626 A 0.12612855,0.12612855 0 0 1 2.3283237,5.7925055 H 1.7356591 A 0.12612855,0.12612855 0 0 0 1.6094073,5.9187573 V 9.0452875 A 0.12612855,0.12612855 0 0 1 1.4833609,9.1713304 H 0.91019737 A 0.12612855,0.12612855 0 0 0 0.7839456,9.2975818 V 19.490113 a 0.12612855,0.12612855 0 0 0 0.12625177,0.126043 H 6.7639725 A 0.12612855,0.12612855 0 0 0 6.8900181,19.490113 V 9.2975818 A 0.12612855,0.12612855 0 0 0 6.7639725,9.1713304 H 6.1906037 A 0.12612855,0.12612855 0 0 1 6.0645573,9.0452875 V 5.9187573 A 0.12612855,0.12612855 0 0 0 5.93851,5.7925055 H 5.34564 A 0.12612855,0.12612855 0 0 1 5.2195944,5.6664626 V 4.80446 A 0.12612855,0.12612855 0 0 0 5.0933427,4.6784083 H 4.4234888 A 0.12612855,0.12612855 0 0 1 4.2974423,4.5523653 V 3.0654639 A 0.46083027,0.46083027 0 0 0 3.8363663,2.6043905 Z M 17.987863,3.9481996 a 0.46083027,0.46083027 0 0 0 -0.459844,0.4610787 v 2.0251615 a 0.12612855,0.12612855 0 0 1 -0.126047,0.1260429 h -0.632081 a 0.12612855,0.12612855 0 0 0 -0.126045,0.1262605 v 1.513377 a 0.12612855,0.12612855 0 0 1 -0.126252,0.1262517 h -0.169568 a 0.12612855,0.12612855 0 0 0 -0.126047,0.126043 V 9.0452875 A 0.12612855,0.12612855 0 0 1 16.095933,9.1713304 H 15.886951 A 0.12612855,0.12612855 0 0 0 15.760904,9.2975818 V 19.490113 a 0.12612855,0.12612855 0 0 0 0.126047,0.126043 h 4.203056 a 0.12612855,0.12612855 0 0 0 0.126047,-0.126043 V 9.2975818 A 0.12612855,0.12612855 0 0 0 20.090007,9.1713304 H 19.881024 A 0.12612855,0.12612855 0 0 1 19.754978,9.0452875 V 8.4524149 A 0.12612855,0.12612855 0 0 0 19.628931,8.3263719 H 19.457928 A 0.12612855,0.12612855 0 0 1 19.331675,8.2001202 V 6.6867432 A 0.12612855,0.12612855 0 0 0 19.205629,6.5604827 H 18.574986 A 0.12612855,0.12612855 0 0 1 18.448939,6.4344398 V 4.4092783 A 0.46083027,0.46083027 0 0 0 17.987863,3.9481996 Z m -6.354061,0.7386307 h 0.606832 a 0.12612855,0.12612855 0 0 1 0.126251,0.126043 v 0.606828 A 0.12612855,0.12612855 0 0 1 12.240634,5.5459531 H 11.633802 A 0.12612855,0.12612855 0 0 1 11.507757,5.4197013 v -0.606828 a 0.12612855,0.12612855 0 0 1 0.126045,-0.126043 z m 1.657903,0 h 0.608267 a 0.12612855,0.12612855 0 0 1 0.126046,0.126043 v 0.606828 A 0.12612855,0.12612855 0 0 1 13.899972,5.5459531 H 13.291705 A 0.12612855,0.12612855 0 0 1 13.165659,5.4197013 v -0.606828 a 0.12612855,0.12612855 0 0 1 0.126046,-0.126043 z m -1.657903,1.8120709 h 0.606832 a 0.12612855,0.12612855 0 0 1 0.126251,0.1260429 v 0.6082723 a 0.12612855,0.12612855 0 0 1 -0.126251,0.126043 H 11.633802 A 0.12612855,0.12612855 0 0 1 11.507757,7.2332164 V 6.6249441 a 0.12612855,0.12612855 0 0 1 0.126045,-0.1260429 z m 1.657903,0 h 0.608267 a 0.12612855,0.12612855 0 0 1 0.126046,0.1260429 v 0.6082723 a 0.12612855,0.12612855 0 0 1 -0.126046,0.126043 H 13.291705 A 0.12612855,0.12612855 0 0 1 13.165659,7.2332164 V 6.6249441 a 0.12612855,0.12612855 0 0 1 0.126046,-0.1260429 z m -10.5877051,0.00174 h 0.6068307 a 0.12612855,0.12612855 0 0 1 0.1260464,0.126043 v 0.606828 A 0.12612855,0.12612855 0 0 1 3.3108306,7.3595639 H 2.7039999 A 0.12612855,0.12612855 0 0 1 2.5777482,7.2335122 v -0.606828 a 0.12612855,0.12612855 0 0 1 0.1262517,-0.126043 z m 1.6593394,0 h 0.6066262 a 0.12612855,0.12612855 0 0 1 0.12625,0.126043 v 0.606828 a 0.12612855,0.12612855 0 0 1 -0.12625,0.1260517 H 4.3633393 A 0.12612855,0.12612855 0 0 1 4.2370875,7.2335122 V 6.6266842 A 0.12612855,0.12612855 0 0 1 4.3633393,6.5006412 Z M 2.7039999,8.3127123 H 3.3108306 A 0.12612855,0.12612855 0 0 1 3.436877,8.4387552 V 9.045592 A 0.12612855,0.12612855 0 0 1 3.3108306,9.1716349 H 2.7039999 A 0.12612855,0.12612855 0 0 1 2.5777482,9.045592 V 8.4387552 A 0.12612855,0.12612855 0 0 1 2.7039999,8.3127123 Z m 1.6593394,0 h 0.6066262 a 0.12612855,0.12612855 0 0 1 0.12625,0.1260429 V 9.045592 a 0.12612855,0.12612855 0 0 1 -0.12625,0.1260429 H 4.3633393 A 0.12612855,0.12612855 0 0 1 4.2370875,9.045592 V 8.4387552 A 0.12612855,0.12612855 0 0 1 4.3633393,8.3127123 Z m 8.9283657,0 h 0.608267 a 0.12612855,0.12612855 0 0 1 0.126046,0.1260429 V 9.045592 A 0.12612855,0.12612855 0 0 1 13.899972,9.1716349 H 13.291705 A 0.12612855,0.12612855 0 0 1 13.165659,9.0452962 V 8.4384594 a 0.12612855,0.12612855 0 0 1 0.126046,-0.126043 z M 8.8014503,9.1716349 A 0.12612855,0.12612855 0 0 0 8.6754048,9.2978863 V 10.773495 A 0.12612855,0.12612855 0 0 1 8.549153,10.899747 H 7.9185102 A 0.12612855,0.12612855 0 0 0 7.7924629,11.02579 v 8.464627 a 0.12612855,0.12612855 0 0 0 0.1260473,0.126043 h 4.1636408 a 0.12612855,0.12612855 0 0 0 0.126252,-0.126043 V 11.025494 A 0.12612855,0.12612855 0 0 0 12.082151,10.899451 H 11.413735 A 0.12612855,0.12612855 0 0 1 11.287687,10.773199 V 9.2975905 A 0.12612855,0.12612855 0 0 0 11.161436,9.1713391 Z M 1.874228,9.9704112 h 0.6082671 a 0.12612855,0.12612855 0 0 1 0.1262518,0.1262518 v 0.606828 A 0.12612855,0.12612855 0 0 1 2.4824951,10.829534 H 1.874228 A 0.12612855,0.12612855 0 0 1 1.7481816,10.703491 V 10.096663 A 0.12612855,0.12612855 0 0 1 1.874228,9.9704112 Z m 1.6593394,0 h 0.6068298 a 0.12612855,0.12612855 0 0 1 0.1260464,0.1262518 v 0.606828 A 0.12612855,0.12612855 0 0 1 4.1403972,10.829534 H 3.5335674 A 0.12612855,0.12612855 0 0 1 3.407521,10.703491 V 10.096663 A 0.12612855,0.12612855 0 0 1 3.5335674,9.9704112 Z m 1.657902,0 h 0.6068307 a 0.12612855,0.12612855 0 0 1 0.1260464,0.1262518 v 0.606828 A 0.12612855,0.12612855 0 0 1 5.7983001,10.829534 H 5.1914694 A 0.12612855,0.12612855 0 0 1 5.065423,10.703491 V 10.096663 A 0.12612855,0.12612855 0 0 1 5.1914694,9.9704112 Z m 11.6640266,0 h 0.606831 a 0.12612855,0.12612855 0 0 1 0.126046,0.1262518 v 0.606828 a 0.12612855,0.12612855 0 0 1 -0.126046,0.126043 h -0.606831 a 0.12612855,0.12612855 0 0 1 -0.126251,-0.126043 v -0.606828 a 0.12612855,0.12612855 0 0 1 0.126251,-0.1262518 z m 1.657902,0 h 0.608064 a 0.12612855,0.12612855 0 0 1 0.126252,0.1262518 v 0.606828 a 0.12612855,0.12612855 0 0 1 -0.126252,0.126043 H 18.513398 A 0.12612855,0.12612855 0 0 1 18.387147,10.703491 V 10.096663 A 0.12612855,0.12612855 0 0 1 18.513398,9.9704112 Z M 1.874228,11.783909 h 0.6082671 a 0.12612855,0.12612855 0 0 1 0.1262518,0.126252 v 0.606837 A 0.12612855,0.12612855 0 0 1 2.4824951,12.643041 H 1.874228 A 0.12612855,0.12612855 0 0 1 1.7481816,12.516998 V 11.910161 A 0.12612855,0.12612855 0 0 1 1.874228,11.783909 Z m 1.6593394,0 h 0.6068298 a 0.12612855,0.12612855 0 0 1 0.1260464,0.126252 v 0.606837 A 0.12612855,0.12612855 0 0 1 4.1403972,12.643041 H 3.5335674 A 0.12612855,0.12612855 0 0 1 3.407521,12.516998 v -0.606837 a 0.12612855,0.12612855 0 0 1 0.1260464,-0.126252 z m 1.657902,0 h 0.6068307 a 0.12612855,0.12612855 0 0 1 0.1260464,0.126252 v 0.606837 A 0.12612855,0.12612855 0 0 1 5.7983001,12.643041 H 5.1914694 A 0.12612855,0.12612855 0 0 1 5.065423,12.516998 v -0.606837 a 0.12612855,0.12612855 0 0 1 0.1260464,-0.126252 z m 3.6758786,0 h 0.6068298 a 0.12612855,0.12612855 0 0 1 0.1260473,0.126252 v 0.606837 A 0.12612855,0.12612855 0 0 1 9.4741778,12.643041 H 8.867348 A 0.12612855,0.12612855 0 0 1 8.7413026,12.516998 V 11.910161 A 0.12612855,0.12612855 0 0 1 8.867348,11.783909 Z m 1.659339,0 h 0.606831 a 0.12612855,0.12612855 0 0 1 0.126045,0.126252 v 0.606837 a 0.12612855,0.12612855 0 0 1 -0.126045,0.126043 h -0.606831 a 0.12612855,0.12612855 0 0 1 -0.126253,-0.126043 v -0.606837 a 0.12612855,0.12612855 0 0 1 0.126253,-0.126252 z m 6.328809,0 h 0.606831 a 0.12612855,0.12612855 0 0 1 0.126046,0.126252 v 0.606837 a 0.12612855,0.12612855 0 0 1 -0.126046,0.126043 h -0.606831 a 0.12612855,0.12612855 0 0 1 -0.126251,-0.126043 v -0.606837 a 0.12612855,0.12612855 0 0 1 0.126251,-0.126252 z m 1.657902,0 h 0.608064 a 0.12612855,0.12612855 0 0 1 0.126252,0.126252 v 0.606837 a 0.12612855,0.12612855 0 0 1 -0.126252,0.126043 h -0.608064 a 0.12612855,0.12612855 0 0 1 -0.126251,-0.126043 v -0.606837 a 0.12612855,0.12612855 0 0 1 0.126251,-0.126252 z m -16.63917,1.81208 h 0.6082671 a 0.12612855,0.12612855 0 0 1 0.1262518,0.126043 V 14.32886 A 0.12612855,0.12612855 0 0 1 2.4824951,14.455111 H 1.874228 A 0.12612855,0.12612855 0 0 1 1.7481816,14.32886 V 13.722032 A 0.12612855,0.12612855 0 0 1 1.874228,13.595989 Z m 1.6593394,0 h 0.6068298 a 0.12612855,0.12612855 0 0 1 0.1260464,0.126043 V 14.32886 A 0.12612855,0.12612855 0 0 1 4.1403972,14.455111 H 3.5335674 A 0.12612855,0.12612855 0 0 1 3.407521,14.32886 v -0.606828 a 0.12612855,0.12612855 0 0 1 0.1260464,-0.126043 z m 1.657902,0 h 0.6068307 a 0.12612855,0.12612855 0 0 1 0.1260464,0.126043 V 14.32886 A 0.12612855,0.12612855 0 0 1 5.7983001,14.455111 H 5.1914694 A 0.12612855,0.12612855 0 0 1 5.065423,14.32886 v -0.606828 a 0.12612855,0.12612855 0 0 1 0.1260464,-0.126043 z m 3.6758786,0 h 0.6068298 a 0.12612855,0.12612855 0 0 1 0.1260473,0.126043 V 14.32886 A 0.12612855,0.12612855 0 0 1 9.4741778,14.455111 H 8.867348 A 0.12612855,0.12612855 0 0 1 8.7413026,14.32886 V 13.722032 A 0.12612855,0.12612855 0 0 1 8.867348,13.595989 Z m 1.659339,0 h 0.606831 a 0.12612855,0.12612855 0 0 1 0.126045,0.126043 v 0.606828 a 0.12612855,0.12612855 0 0 1 -0.126045,0.126251 H 10.526687 A 0.12612855,0.12612855 0 0 1 10.400434,14.32886 v -0.606828 a 0.12612855,0.12612855 0 0 1 0.126253,-0.126043 z m 6.328809,0 h 0.606831 a 0.12612855,0.12612855 0 0 1 0.126046,0.126043 v 0.606828 a 0.12612855,0.12612855 0 0 1 -0.126046,0.126251 H 16.855496 A 0.12612855,0.12612855 0 0 1 16.729245,14.32886 v -0.606828 a 0.12612855,0.12612855 0 0 1 0.126251,-0.126043 z m 1.657902,0 h 0.608064 a 0.12612855,0.12612855 0 0 1 0.126252,0.126043 v 0.606828 a 0.12612855,0.12612855 0 0 1 -0.126252,0.126251 H 18.513398 A 0.12612855,0.12612855 0 0 1 18.387147,14.32886 v -0.606828 a 0.12612855,0.12612855 0 0 1 0.126251,-0.126043 z m -16.63917,1.813506 h 0.6082671 a 0.12612855,0.12612855 0 0 1 0.1262518,0.126052 v 0.606828 A 0.12612855,0.12612855 0 0 1 2.4824951,16.268418 H 1.874228 A 0.12612855,0.12612855 0 0 1 1.7481816,16.142375 V 15.535547 A 0.12612855,0.12612855 0 0 1 1.874228,15.409495 Z m 1.6593394,0 h 0.6068298 a 0.12612855,0.12612855 0 0 1 0.1260464,0.126052 v 0.606828 A 0.12612855,0.12612855 0 0 1 4.1403972,16.268418 H 3.5335674 A 0.12612855,0.12612855 0 0 1 3.407521,16.142375 v -0.606828 a 0.12612855,0.12612855 0 0 1 0.1260464,-0.126052 z m 1.657902,0 h 0.6068307 a 0.12612855,0.12612855 0 0 1 0.1260464,0.126052 v 0.606828 A 0.12612855,0.12612855 0 0 1 5.7983001,16.268418 H 5.1914694 A 0.12612855,0.12612855 0 0 1 5.065423,16.142375 v -0.606828 a 0.12612855,0.12612855 0 0 1 0.1260464,-0.126052 z m 3.6758786,0 h 0.6068298 a 0.12612855,0.12612855 0 0 1 0.1260473,0.126052 v 0.606828 A 0.12612855,0.12612855 0 0 1 9.4741778,16.268418 H 8.867348 A 0.12612855,0.12612855 0 0 1 8.7413026,16.142375 V 15.535547 A 0.12612855,0.12612855 0 0 1 8.867348,15.409495 Z m 1.659339,0 h 0.606831 a 0.12612855,0.12612855 0 0 1 0.126045,0.126052 v 0.606828 a 0.12612855,0.12612855 0 0 1 -0.126045,0.126043 h -0.606831 a 0.12612855,0.12612855 0 0 1 -0.126253,-0.126043 v -0.606828 a 0.12612855,0.12612855 0 0 1 0.126253,-0.126052 z m 6.328809,0 h 0.606831 a 0.12612855,0.12612855 0 0 1 0.126046,0.126052 v 0.606828 a 0.12612855,0.12612855 0 0 1 -0.126046,0.126043 h -0.606831 a 0.12612855,0.12612855 0 0 1 -0.126251,-0.126043 v -0.606828 a 0.12612855,0.12612855 0 0 1 0.126251,-0.126052 z m 1.657902,0 h 0.608064 a 0.12612855,0.12612855 0 0 1 0.126252,0.126052 v 0.606828 a 0.12612855,0.12612855 0 0 1 -0.126252,0.126043 h -0.608064 a 0.12612855,0.12612855 0 0 1 -0.126251,-0.126043 v -0.606828 a 0.12612855,0.12612855 0 0 1 0.126251,-0.126052 z m -16.63917,1.812071 h 0.6082671 a 0.12612855,0.12612855 0 0 1 0.1262518,0.126052 v 0.606828 A 0.12612855,0.12612855 0 0 1 2.4824951,18.080489 H 1.874228 A 0.12612855,0.12612855 0 0 1 1.7481816,17.954446 V 17.347618 A 0.12612855,0.12612855 0 0 1 1.874228,17.221566 Z m 1.6593394,0 h 0.6068298 a 0.12612855,0.12612855 0 0 1 0.1260464,0.126052 v 0.606828 A 0.12612855,0.12612855 0 0 1 4.1403972,18.080489 H 3.5335674 A 0.12612855,0.12612855 0 0 1 3.407521,17.954446 v -0.606828 a 0.12612855,0.12612855 0 0 1 0.1260464,-0.126052 z m 1.657902,0 h 0.6068307 a 0.12612855,0.12612855 0 0 1 0.1260464,0.126052 v 0.606828 A 0.12612855,0.12612855 0 0 1 5.7983001,18.080489 H 5.1914694 A 0.12612855,0.12612855 0 0 1 5.065423,17.954446 v -0.606828 a 0.12612855,0.12612855 0 0 1 0.1260464,-0.126052 z m 3.6758786,0 h 0.6068298 a 0.12612855,0.12612855 0 0 1 0.1260473,0.126052 v 0.606828 A 0.12612855,0.12612855 0 0 1 9.4741778,18.080489 H 8.867348 A 0.12612855,0.12612855 0 0 1 8.7413026,17.954446 V 17.347618 A 0.12612855,0.12612855 0 0 1 8.867348,17.221566 Z m 1.659339,0 h 0.606831 a 0.12612855,0.12612855 0 0 1 0.126045,0.126052 v 0.606828 a 0.12612855,0.12612855 0 0 1 -0.126045,0.126043 h -0.606831 a 0.12612855,0.12612855 0 0 1 -0.126253,-0.126043 v -0.606828 a 0.12612855,0.12612855 0 0 1 0.126253,-0.126052 z m 6.328809,0 h 0.606831 a 0.12612855,0.12612855 0 0 1 0.126046,0.126052 v 0.606828 a 0.12612855,0.12612855 0 0 1 -0.126046,0.126043 h -0.606831 a 0.12612855,0.12612855 0 0 1 -0.126251,-0.126043 v -0.606828 a 0.12612855,0.12612855 0 0 1 0.126251,-0.126052 z m 1.657902,0 h 0.608064 a 0.12612855,0.12612855 0 0 1 0.126252,0.126052 v 0.606828 a 0.12612855,0.12612855 0 0 1 -0.126252,0.126043 h -0.608064 a 0.12612855,0.12612855 0 0 1 -0.126251,-0.126043 v -0.606828 a 0.12612855,0.12612855 0 0 1 0.126251,-0.126052 z"
     style="fill:#000000;fill-opacity:1;stroke:none;stroke-width:0.0336343;stroke-linecap:round;stroke-linejoin:round" />
</svg>