<?xml version="1.0" encoding="UTF-8" standalone="no"?>
<svg width="21" height="21" viewBox="0 0 21 21" xmlns="http://www.w3.org/2000/svg">
  <path
     d="m 15.400295,9.1892851 a 1.7429215,1.7429215 0 0 0 -3.485843,0 1.7429215,1.7429215 0 0 0 3.485843,0 z m 0.445186,-1.2031685 a 0.10561724,0.10561724 0 0 0 0.01221,0.047415 2.4859178,2.4859178 0 0 1 0.176927,0.4297833 0.10561724,0.10561724 0 0 0 0.02864,0.045999 0.21123536,0.21123536 0 0 0 0.07757,0.045653 l 0.643048,0.2167742 a 0.21123536,0.21123536 0 0 1 0.144031,0.1993153 l 0.0029,0.4466418 A 0.21123536,0.21123536 0 0 1 16.786776,9.6199238 L 16.140818,9.836698 a 0.21123536,0.21123536 0 0 0 -0.0902,0.059646 0.10561724,0.10561724 0 0 0 -0.02206,0.038958 2.4859178,2.4859178 0 0 1 -0.168524,0.40768 0.10561724,0.10561724 0 0 0 -0.01174,0.04976 0.21123536,0.21123536 0 0 0 0.02192,0.09282 l 0.304066,0.606676 a 0.21123536,0.21123536 0 0 1 -0.03783,0.242962 l -0.314277,0.320068 a 0.21123536,0.21123536 0 0 1 -0.244417,0.04074 l -0.611041,-0.301156 a 0.21123536,0.21123536 0 0 0 -0.09748,-0.02037 0.10561724,0.10561724 0 0 0 -0.04741,0.01221 2.4859178,2.4859178 0 0 1 -0.437053,0.179834 0.10561724,0.10561724 0 0 0 -0.046,0.02864 0.21123536,0.21123536 0 0 0 -0.04711,0.07757 l -0.215319,0.644502 a 0.21123536,0.21123536 0 0 1 -0.199316,0.144032 l -0.448096,0.0015 a 0.21123536,0.21123536 0 0 1 -0.202226,-0.14403 l -0.216767,-0.645982 a 0.21123536,0.21123536 0 0 0 -0.05819,-0.08875 0.10561724,0.10561724 0 0 0 -0.03943,-0.02207 2.4859178,2.4859178 0 0 1 -0.415939,-0.174343 0.10561724,0.10561724 0 0 0 -0.04976,-0.0122 0.21123536,0.21123536 0 0 0 -0.09282,0.02239 l -0.608134,0.302611 a 0.21123536,0.21123536 0 0 1 -0.242961,-0.03928 L 11.18409,11.346857 A 0.21123536,0.21123536 0 0 1 11.14335,11.102441 L 11.447416,10.4914 a 0.21123536,0.21123536 0 0 0 0.02182,-0.09748 0.10561724,0.10561724 0 0 0 -0.0122,-0.04694 2.4859178,2.4859178 0 0 1 -0.172562,-0.4171588 0.10561724,0.10561724 0 0 0 -0.02394,-0.040838 0.21123536,0.21123536 0 0 0 -0.08663,-0.055178 L 10.530863,9.6184874 A 0.21123536,0.21123536 0 0 1 10.386832,9.4191719 l -0.0029,-0.4480972 a 0.21123536,0.21123536 0 0 1 0.144031,-0.20077 L 11.17392,8.5520759 a 0.21123536,0.21123536 0 0 0 0.08002,-0.048012 0.10561724,0.10561724 0 0 0 0.02723,-0.044591 2.4859178,2.4859178 0 0 1 0.173544,-0.4224155 0.10561724,0.10561724 0 0 0 0.0122,-0.049287 0.21123536,0.21123536 0 0 0 -0.02239,-0.094743 L 11.140466,7.2863298 a 0.21123536,0.21123536 0 0 1 0.03782,-0.2429617 l 0.31425,-0.3186142 a 0.21123536,0.21123536 0 0 1 0.244416,-0.042195 l 0.611044,0.3011565 a 0.21123536,0.21123536 0 0 0 0.09748,0.021823 0.10561724,0.10561724 0 0 0 0.04694,-0.012674 2.4859178,2.4859178 0 0 1 0.424433,-0.1764603 0.10561724,0.10561724 0 0 0 0.04131,-0.02394 0.21123536,0.21123536 0 0 0 0.05471,-0.086629 l 0.216776,-0.6430469 a 0.21123536,0.21123536 0 0 1 0.197861,-0.1440317 l 0.448096,-0.00288 a 0.21123536,0.21123536 0 0 1 0.202226,0.1440317 l 0.216774,0.6459571 a 0.21123536,0.21123536 0 0 0 0.04946,0.081472 0.10561724,0.10561724 0 0 0 0.04413,0.026756 2.4859178,2.4859178 0 0 1 0.43016,0.176924 0.10561724,0.10561724 0 0 0 0.04929,0.012202 0.21123536,0.21123536 0 0 0 0.09329,-0.020931 l 0.608132,-0.3026107 a 0.21123536,0.21123536 0 0 1 0.242961,0.039282 l 0.318614,0.3142495 a 0.21123536,0.21123536 0 0 1 0.04074,0.2444164 l -0.304066,0.6110409 a 0.21123536,0.21123536 0 0 0 -0.02182,0.097476 z M 14.30624,9.1892851 a 0.64886716,0.64568683 0 1 1 -1.297734,0 0.64886716,0.64568683 0 1 1 1.297734,0 z m -4.143438,3.2734329 a 1.7429213,1.7429213 0 0 0 -3.4858423,0 1.7429213,1.7429213 0 0 0 3.4858423,0 z m 0.445187,-1.204623 a 0.10561724,0.10561724 0 0 0 0.0122,0.04741 2.4859178,2.4859178 0 0 1 0.176927,0.429783 0.10561724,0.10561724 0 0 0 0.02864,0.04601 0.21123536,0.21123536 0 0 0 0.07757,0.04711 l 0.643048,0.216773 a 0.21123536,0.21123536 0 0 1 0.144031,0.197861 l 0.0029,0.448097 a 0.21123536,0.21123536 0 0 1 -0.144031,0.202225 l -0.645958,0.216775 a 0.21123536,0.21123536 0 0 0 -0.0902,0.05819 0.10561724,0.10561724 0 0 0 -0.02206,0.03896 2.4859178,2.4859178 0 0 1 -0.168524,0.407681 0.10561724,0.10561724 0 0 0 -0.01174,0.04976 0.21123536,0.21123536 0 0 0 0.02192,0.09427 l 0.304065,0.606676 a 0.21123536,0.21123536 0 0 1 -0.03782,0.242961 l -0.31425,0.320069 a 0.21123536,0.21123536 0 0 1 -0.244416,0.04073 L 9.7292229,14.668286 a 0.21123536,0.21123536 0 0 0 -0.097475,-0.02182 0.10561724,0.10561724 0 0 0 -0.047407,0.01221 2.4859178,2.4859178 0 0 1 -0.4370578,0.18129 0.10561724,0.10561724 0 0 0 -0.045999,0.02864 0.21123536,0.21123536 0 0 0 -0.047112,0.07757 l -0.2153188,0.643048 a 0.21123536,0.21123536 0 0 1 -0.1993161,0.144031 l -0.4480964,0.0029 A 0.21123536,0.21123536 0 0 1 7.9892417,15.592121 L 7.7724683,14.946163 a 0.21123536,0.21123536 0 0 0 -0.058194,-0.08875 0.10561724,0.10561724 0 0 0 -0.03943,-0.02206 2.4859178,2.4859178 0 0 1 -0.4159403,-0.174342 0.10561724,0.10561724 0 0 0 -0.049759,-0.0122 0.21123536,0.21123536 0 0 0 -0.092819,0.02239 l -0.6081309,0.30261 a 0.21123536,0.21123536 0 0 1 -0.242961,-0.03928 L 5.9466199,14.618827 a 0.21123536,0.21123536 0 0 1 -0.040735,-0.244416 l 0.3040654,-0.609586 a 0.21123536,0.21123536 0 0 0 0.021823,-0.09748 0.10561724,0.10561724 0 0 0 -0.012202,-0.04694 A 2.4859178,2.4859178 0 0 1 6.047009,13.203246 0.10561724,0.10561724 0 0 0 6.023069,13.162406 0.21123536,0.21123536 0 0 0 5.93644,13.107226 L 5.293387,12.891896 A 0.21123536,0.21123536 0 0 1 5.149356,12.69258 L 5.146476,12.244483 A 0.21123536,0.21123536 0 0 1 5.290507,12.042258 L 5.9364705,11.82549 a 0.21123536,0.21123536 0 0 0 0.080017,-0.04946 0.10561724,0.10561724 0 0 0 0.027228,-0.04459 2.4859178,2.4859178 0 0 1 0.1735451,-0.42096 0.10561724,0.10561724 0 0 0 0.012202,-0.04929 0.21123536,0.21123536 0 0 0 -0.022391,-0.09474 L 5.903006,10.559767 a 0.21123536,0.21123536 0 0 1 0.037822,-0.242961 L 6.255078,9.9967367 a 0.21123536,0.21123536 0 0 1 0.2444164,-0.040735 l 0.6110409,0.3011553 a 0.21123536,0.21123536 0 0 0 0.097475,0.02182 0.10561724,0.10561724 0 0 0 0.046943,-0.01267 2.4859178,2.4859178 0 0 1 0.4244323,-0.17646 0.10561724,0.10561724 0 0 0 0.04131,-0.02394 0.21123536,0.21123536 0 0 0 0.054714,-0.08663 L 7.9921828,9.3362298 a 0.21123536,0.21123536 0 0 1 0.1978614,-0.144031 l 0.4480964,-0.00288 A 0.21123536,0.21123536 0 0 1 8.840366,9.3333506 l 0.2167742,0.6459573 a 0.21123536,0.21123536 0 0 0 0.049464,0.080017 0.10561724,0.10561724 0 0 0 0.044126,0.02676 2.4859178,2.4859178 0 0 1 0.4301591,0.178379 0.10561724,0.10561724 0 0 0 0.049287,0.0122 0.21123536,0.21123536 0 0 0 0.093288,-0.02239 L 10.331597,9.9516607 a 0.21123536,0.21123536 0 0 1 0.242961,0.039282 l 0.318614,0.3157053 a 0.21123536,0.21123536 0 0 1 0.04073,0.244416 l -0.304066,0.609585 a 0.21123536,0.21123536 0 0 0 -0.02182,0.09748 z m -1.5392418,1.204623 a 0.64886718,0.64568684 0 1 1 -1.2977343,0 0.64886718,0.64568684 0 1 1 1.2977343,0 z M 17.797902,8.6335293 A 4.8896941,4.8573089 0 0 0 8.8694319,4.9701938 3.2734329,3.2734329 0 0 0 3.5053663,8.5549667 a 3.2961724,3.2734329 0 1 0 0.8656414,6.4872173 4.5828061,4.5828061 0 0 0 7.5550833,2.058625 2.4550747,2.4550747 0 0 0 4.063421,-1.831667 3.4780298,3.4371046 0 1 0 1.80839,-6.6356127 z"
     class="st2"
     id="path4"
     style="fill:#000000;fill-opacity:1;stroke:none;stroke-width:0.109114;stroke-linecap:round;stroke-linejoin:round" />
</svg>