<?xml version="1.0" encoding="UTF-8" standalone="no"?>
<svg width="21" height="21" viewBox="0 0 21 21" xmlns="http://www.w3.org/2000/svg">
  <path
     id="path4"
     class="st2"
     d="M 6.4463413,0.42984118 A 3.084359,2.3725817 0 0 0 6.1721192,0.47547282 2.7236402,2.0951046 0 0 0 4.4072329,1.3287123 3.5985855,2.7681406 0 0 0 3.8254964,2.6420647 21.390905,16.454564 0 0 0 3.6682968,4.8398475 50.735001,39.026858 0 0 1 3.6883648,5.7973338 L 3.6682968,7.0106269 A 5.7099383,4.3922613 0 0 1 3.4654449,7.999513 2.2658179,1.7429456 0 0 1 1.4248751,9.521361 0.45624174,0.35095562 0 0 0 1.0003486,9.8472969 2.3975185,1.8442361 0 0 0 0.9802497,10.500199 a 2.3975185,1.8442361 0 0 0 0.0200989,0.654588 0.45624174,0.35095562 0 0 0 0.4245265,0.32572 2.2658179,1.7429456 0 0 1 2.0405698,1.520591 5.7099383,4.3922613 0 0 1 0.2028519,0.990353 l 0.020068,1.211832 a 50.735001,39.026858 0 0 1 -0.020068,0.958954 21.390905,16.454564 0 0 0 0.1571996,2.196308 3.5985855,2.7681406 0 0 0 0.5817365,1.313355 2.7236402,2.0951046 0 0 0 1.7648863,0.854497 3.084359,2.3725817 0 0 0 0.2742221,0.04436 H 7.083764 7.5453392 a 1.6043428,1.2341067 0 0 0 0.3615232,-0.03581 0.56807143,0.43697825 0 0 0 0.1772985,-0.02573 l 0.011321,-0.001 a 0.67242439,0.51724898 0 0 0 0.015951,-0.0072 0.56807143,0.43697825 0 0 0 0.3458186,-0.442948 v -0.0051 -0.0041 a 2.4928499,1.9175746 0 0 0 -0.020068,-0.562894 5.3245827,4.0958351 0 0 0 -0.012761,-0.08727 0.45446973,0.34959231 0 0 0 -0.3445631,-0.290132 l -0.025728,-0.0031 a 0.50496208,0.38843226 0 0 0 -0.037049,-0.0062 l -0.061542,-0.0031 a 4.2880557,3.2985153 0 0 0 -0.252878,-0.01302 H 7.4711492 A 61.642308,47.417193 0 0 0 7.1854009,19.07801 3.6969466,2.8438083 0 0 1 6.8609367,19.042196 0.99102935,0.76232973 0 0 1 6.5337556,18.89504 0.88368399,0.67975681 0 0 1 6.4008229,18.773624 2.8753903,2.211843 0 0 1 6.1950586,18.406245 6.1538846,4.7337595 0 0 1 6.0635975,17.927709 a 2.8753903,2.211843 0 0 1 -0.00823,-0.09591 6.5581034,5.0446905 0 0 1 -0.031389,-0.278617 135.61896,104.32222 0 0 1 -0.031388,-0.494446 l -0.00309,-0.05568 a 92.41559,71.088991 0 0 1 -0.012762,-1.806329 35.756494,27.505062 0 0 0 -0.04734,-2.08934 5.8369372,4.4899506 0 0 0 -0.5643648,-1.653319 5.7849773,4.4499803 0 0 0 -0.487324,-0.555987 3.7903773,2.9156748 0 0 0 -1.1904773,-0.397306 3.7903773,2.9156748 0 0 0 1.1904773,-0.395856 5.7849773,4.4499803 0 0 0 0.487324,-0.5557714 5.8369372,4.4899506 0 0 0 0.5643648,-1.6535222 35.756494,27.505062 0 0 0 0.04734,-2.0891395 92.41559,71.088991 0 0 1 0.012761,-1.8063305 l 0.00309,-0.055686 a 135.61896,104.32222 0 0 1 0.031386,-0.4959093 6.5581034,5.0446905 0 0 1 0.031389,-0.277365 2.8753903,2.211843 0 0 1 0.00823,-0.097129 A 6.1538846,4.7337595 0 0 1 6.1950586,2.5953216 2.8753903,2.211843 0 0 1 6.4008229,2.2296181 0.88368399,0.67975681 0 0 1 6.5337556,2.1079955 0.99102935,0.76232973 0 0 1 6.8609367,1.960835 3.6969466,2.8438083 0 0 1 7.1854009,1.9252477 61.642308,47.417193 0 0 0 7.4711492,1.9193816 h 0.2315132 a 4.2880557,3.2985153 0 0 0 0.2528778,-0.014233 l 0.061542,-0.00144 a 0.50496208,0.38843226 0 0 0 0.037049,-0.0071 l 0.025728,-0.00144 a 0.45446973,0.34959231 0 0 0 0.3445631,-0.2901379 5.3245827,4.0958351 0 0 0 0.012761,-0.088546 2.4928499,1.9175746 0 0 0 0.020068,-0.56163955 v -0.00566 -0.00443 a 0.56807143,0.43697825 0 0 0 -0.3458186,-0.44440888 0.67242439,0.51724898 0 0 0 -0.015951,-0.00566 l -0.011321,-0.001441 A 0.56807143,0.43697825 0 0 0 7.9068624,0.46749603 1.6043428,1.2341067 0 0 0 7.5453392,0.43044734 H 7.083764 Z m 7.0084587,0 a 1.6043428,1.2341067 0 0 0 -0.361523,0.0370487 0.56807143,0.43697825 0 0 0 -0.177299,0.0257488 l -0.01132,0.001441 a 0.67242439,0.51724898 0 0 0 -0.01595,0.00566 0.56807143,0.43697825 0 0 0 -0.345808,0.44441247 v 0.00443 0.00566 a 2.4928499,1.9175746 0 0 0 0.02007,0.56163955 5.3245827,4.0958351 0 0 0 0.01276,0.088546 0.45446973,0.34959231 0 0 0 0.344553,0.2901345 l 0.02552,0.00144 a 0.50496208,0.38843226 0 0 0 0.03726,0.0071 l 0.06154,0.00144 a 4.2880557,3.2985153 0 0 0 0.252878,0.014233 h 0.231513 a 61.642308,47.417193 0 0 0 0.285738,0.00587 3.6969466,2.8438083 0 0 1 0.324474,0.035587 0.99102935,0.76232973 0 0 1 0.327182,0.1471605 0.88368399,0.67975681 0 0 1 0.132922,0.1216215 2.8753903,2.211843 0 0 1 0.205775,0.3657046 6.1538846,4.7337595 0 0 1 0.131461,0.4787431 2.8753903,2.211843 0 0 1 0.0082,0.097129 6.5581034,5.0446905 0 0 1 0.03139,0.2773661 135.61896,104.32222 0 0 1 0.03139,0.495909 l 0.0031,0.055686 a 92.41559,71.088991 0 0 1 0.01276,1.8063294 35.756494,27.505062 0 0 0 0.04734,2.0891396 5.8369372,4.4899506 0 0 0 0.564365,1.6535139 5.7849773,4.4499803 0 0 0 0.487324,0.5557821 3.7903773,2.9156748 0 0 0 1.190477,0.395845 3.7903773,2.9156748 0 0 0 -1.190477,0.397317 5.7849773,4.4499803 0 0 0 -0.487324,0.555987 5.8369372,4.4899506 0 0 0 -0.564365,1.653308 35.756494,27.505062 0 0 0 -0.04734,2.089351 92.41559,71.088991 0 0 1 -0.01276,1.806329 l -0.0031,0.05568 a 135.61896,104.32222 0 0 1 -0.03139,0.494446 6.5581034,5.0446905 0 0 1 -0.03139,0.278627 2.8753903,2.211843 0 0 1 -0.0082,0.09592 6.1538846,4.7337595 0 0 1 -0.131461,0.478535 2.8753903,2.211843 0 0 1 -0.205775,0.367379 0.88368399,0.67975681 0 0 1 -0.132922,0.121406 0.99102935,0.76232973 0 0 1 -0.327182,0.147166 3.6969466,2.8438083 0 0 1 -0.324474,0.03581 61.642308,47.417193 0 0 0 -0.285738,0.0051 h -0.231517 a 4.2880557,3.2985153 0 0 0 -0.252878,0.01297 l -0.06154,0.0031 a 0.50496208,0.38843226 0 0 0 -0.03726,0.0062 l -0.02552,0.0031 a 0.45446973,0.34959231 0 0 0 -0.344553,0.290132 5.3245827,4.0958351 0 0 0 -0.01276,0.08727 2.4928499,1.9175746 0 0 0 -0.02007,0.562893 v 0.0041 0.0051 a 0.56807143,0.43697825 0 0 0 0.345808,0.442948 0.67242439,0.51724898 0 0 0 0.01595,0.0072 l 0.01132,10e-4 a 0.56807143,0.43697825 0 0 0 0.177299,0.02573 1.6043428,1.2341067 0 0 0 0.361523,0.03581 h 0.461575 0.637207 a 3.084359,2.3725817 0 0 0 0.274438,-0.04436 2.7236402,2.0951046 0 0 0 1.764886,-0.854497 3.5985855,2.7681406 0 0 0 0.581726,-1.313345 21.390905,16.454564 0 0 0 0.15721,-2.196318 50.735001,39.026858 0 0 1 -0.02007,-0.958954 l 0.02007,-1.211832 a 5.7099383,4.3922613 0 0 1 0.202852,-0.990353 2.2658179,1.7429456 0 0 1 2.04057,-1.520591 0.45624174,0.35095562 0 0 0 0.424527,-0.32572 2.3975185,1.8442361 0 0 0 0.01986,-0.654588 A 2.3975185,1.8442361 0 0 0 19.999787,9.8466055 0.45624174,0.35095562 0 0 0 19.57526,9.5206799 2.2658179,1.7429456 0 0 1 17.53469,7.9988309 5.7099383,4.3922613 0 0 1 17.331838,7.0099448 L 17.311774,5.7967369 A 50.735001,39.026858 0 0 1 17.331842,4.8392496 21.390905,16.454564 0 0 0 17.174632,2.6414668 3.5985855,2.7681406 0 0 0 16.592906,1.3281144 2.7236402,2.0951046 0 0 0 14.82802,0.4748749 3.084359,2.3725817 0 0 0 14.553582,0.42924326 h -0.637207 z"
     style="fill:#000000;fill-opacity:1;stroke:none;stroke-width:0.034297;stroke-linecap:round;stroke-linejoin:round" />
</svg>