<?xml version="1.0" encoding="UTF-8" standalone="no"?>
<svg width="21" height="21" viewBox="0 0 21 21" xmlns="http://www.w3.org/2000/svg">
  <path
     id="circle1"
     d="M 10.422045,1.5 C 9.943784,1.5 9.460265,1.6580741 9.086107,1.9906589 8.711949,2.3232439 8.4655231,2.8369567 8.4655231,3.4565217 V 3.6796875 C 8.4550898,4.0377113 8.2404581,4.3543424 7.9152513,4.5035666 7.580855,4.6426782 7.1979563,4.5817484 6.9278193,4.3400135 h -0.00153 l -0.06267,-0.064198 C 6.5166597,3.8474541 5.9971139,3.6841473 5.5337976,3.753057 5.0548309,3.8242944 4.6207519,4.0883174 4.2758152,4.4332541 3.9308786,4.7781908 3.6683841,5.2107412 3.5971467,5.6897079 c -0.068861,0.4629902 0.093547,0.982863 0.5212296,1.3298234 l 0.064198,0.064198 c 0.2429968,0.27061 0.3052246,0.653704 0.165082,0.9889609 C 4.1984312,8.3978944 3.8817994,8.611 3.5237772,8.621433 h -0.067255 c -0.619565,0 -1.1332778,0.246427 -1.4658628,0.620585 C 1.6580741,9.616176 1.5,10.099694 1.5,10.577955 c 0,0.478261 0.1580741,0.96178 0.4906589,1.335938 0.332585,0.374158 0.8462978,0.620584 1.4658628,0.620584 h 0.2231658 c 0.3580238,0.01043 0.6746549,0.225065 0.8238791,0.550271 0.1391116,0.334397 0.078182,0.717296 -0.1635531,0.987433 v 0.0015 l -0.064198,0.06267 c -0.4283612,0.346959 -0.5916679,0.866507 -0.5227582,1.329823 0.071237,0.478967 0.3352604,0.913046 0.6801971,1.257983 0.3449367,0.344936 0.7774871,0.607431 1.2564538,0.678668 0.4629902,0.06886 0.982863,-0.09355 1.3298234,-0.521229 l 0.064198,-0.0642 C 7.3543392,16.574399 7.7374333,16.512171 8.0726902,16.652314 8.3978944,16.801539 8.611,17.118172 8.621433,17.476192 v 0.06726 c 0,0.619565 0.246427,1.133278 0.620585,1.465863 C 9.616176,19.341926 10.099694,19.5 10.577955,19.5 c 0.478261,0 0.96178,-0.158074 1.335938,-0.490659 0.374158,-0.332585 0.620584,-0.846298 0.620584,-1.465863 v -0.14521 c 0.01043,-0.358024 0.225065,-0.674655 0.550271,-0.823879 0.334901,-0.139322 0.718756,-0.07755 0.988961,0.165081 l 0.06267,0.06267 c 0.346959,0.428361 0.866507,0.591668 1.329823,0.522758 0.478967,-0.07124 0.913046,-0.335259 1.257983,-0.680197 0.344936,-0.344936 0.607431,-0.777487 0.678668,-1.256454 0.06886,-0.46299 -0.09355,-0.982863 -0.521229,-1.329823 l -0.0642,-0.06267 C 16.573269,13.723856 16.50804,13.337065 16.650813,13.000679 l 0.0321,-0.07337 v -0.01987 c 0.155597,-0.305035 0.448472,-0.518823 0.793307,-0.528872 h 0.06726 c 0.619565,0 1.133278,-0.246426 1.465863,-0.620585 C 19.341926,11.383829 19.5,10.900306 19.5,10.422045 19.5,9.943784 19.341926,9.460265 19.009341,9.086107 18.676756,8.711949 18.163043,8.4655231 17.543478,8.4655231 h -0.223165 c -0.358024,-0.010433 -0.674655,-0.225065 -0.82388,-0.5502718 -0.139111,-0.3343963 -0.07818,-0.717295 0.163554,-0.987432 v -0.00153 l 0.0642,-0.06267 C 17.152543,6.5166597 17.315852,5.9971139 17.246943,5.5337976 17.175705,5.0548309 16.911683,4.6207519 16.566746,4.2758152 16.221809,3.9308786 15.789259,3.6683841 15.310292,3.5971467 c -0.46299,-0.068861 -0.982864,0.093547 -1.329823,0.5212296 l -0.0642,0.064198 C 13.645664,4.4255711 13.262566,4.4877989 12.927309,4.3476563 12.602105,4.1984312 12.389,3.8817994 12.378567,3.5237772 v -0.067255 c 0,-0.619565 -0.246426,-1.1332778 -0.620585,-1.4658628 C 11.383824,1.6580741 10.900306,1.5 10.422045,1.5 Z m 0,0.7826087 c 0.304348,0 0.603438,0.1027957 0.816236,0.2919497 0.212798,0.1891541 0.357677,0.4580506 0.357677,0.8819633 v 0.084069 0.00611 c 0.01916,0.6575746 0.412267,1.2487595 1.011888,1.5193614 l 0.0046,0.00153 0.0046,0.00153 c 0.61429,0.2607246 1.325484,0.1416829 1.82201,-0.304178 l 0.0092,-0.00764 0.10394,-0.1039402 0.01681,-0.022928 c 0.189946,-0.2532615 0.369344,-0.2978998 0.62517,-0.2598505 0.255825,0.038049 0.571724,0.2109914 0.819293,0.4585597 0.247568,0.2475685 0.420511,0.5634682 0.45856,0.8192935 0.03805,0.2558254 -0.0051,0.4352237 -0.258322,0.6251699 l -0.02293,0.016814 -0.105469,0.1054688 -0.0061,0.00764 c -0.445925,0.4965278 -0.564967,1.20925 -0.304242,1.8235407 l 0.0015,0.00306 0.0015,0.00459 c 0.270602,0.599621 0.861787,0.994254 1.519362,1.013417 h 0.0061 0.23998 c 0.423913,0 0.692809,0.144878 0.881963,0.357677 0.189155,0.212791 0.29195,0.511888 0.29195,0.816236 0,0.304348 -0.102795,0.603438 -0.29195,0.816236 -0.189154,0.212798 -0.45805,0.357677 -0.881963,0.357677 h -0.08407 -0.0061 c -0.657575,0.01916 -1.24876,0.412267 -1.519362,1.011888 l -0.03363,0.07796 v 0.09935 c -0.21344,0.593023 -0.08963,1.260757 0.334748,1.733357 l 0.0076,0.0076 0.10394,0.105469 0.02293,0.01681 c 0.253262,0.189946 0.2979,0.369345 0.259851,0.62517 -0.03805,0.255825 -0.210992,0.570197 -0.45856,0.817765 -0.247569,0.247569 -0.563468,0.420511 -0.819293,0.45856 -0.255826,0.03805 -0.435224,-0.0051 -0.62517,-0.258322 l -0.01681,-0.02293 -0.105469,-0.105469 -0.0076,-0.0061 c -0.496526,-0.445861 -1.209248,-0.564902 -1.823539,-0.304178 l -0.0031,0.0015 -0.0046,0.0015 c -0.599621,0.270602 -0.994254,0.861787 -1.013417,1.519361 v 0.0061 0.162024 c 0,0.423913 -0.144878,0.692809 -0.357677,0.881963 -0.212784,0.189155 -0.511888,0.29195 -0.816236,0.29195 -0.304348,0 -0.603438,-0.102795 -0.816236,-0.29195 C 9.54881,18.236189 9.403931,17.967293 9.403931,17.54338 v -0.08407 -0.0061 C 9.384771,16.795635 8.991664,16.20445 8.3920425,15.933848 l -0.00459,-0.0015 -0.00459,-0.0015 C 7.7686926,15.670216 7.0574979,15.789194 6.5609715,16.235054 l -0.00917,0.0076 -0.1039403,0.10394 -0.016814,0.02293 c -0.1899461,0.253262 -0.3693445,0.2979 -0.6251699,0.259851 -0.2558253,-0.03805 -0.571725,-0.210992 -0.8192934,-0.45856 -0.2475684,-0.247569 -0.4205106,-0.563468 -0.4585598,-0.819293 -0.038049,-0.255826 0.00506,-0.435224 0.258322,-0.62517 l 0.022928,-0.01681 0.1054687,-0.105469 0.00611,-0.0076 c 0.445861,-0.496526 0.5649027,-1.209248 0.3041779,-1.823539 l -0.00153,-0.0031 -0.00153,-0.0046 C 4.9513721,12.165713 4.3601901,11.771031 3.7026155,11.751868 h -0.00611 -0.2399796 c -0.4239127,0 -0.6928092,-0.144878 -0.8819633,-0.357677 -0.189154,-0.212798 -0.2919497,-0.511888 -0.2919497,-0.816236 0,-0.304348 0.1027957,-0.603438 0.2919497,-0.816236 C 2.7637167,9.548921 3.0326132,9.404042 3.4565259,9.404042 h 0.084069 0.00611 C 4.2042795,9.384882 4.7954644,8.991775 5.0660663,8.3921535 l 0.00153,-0.00459 0.00153,-0.00459 C 5.3298552,7.7686926 5.2108066,7.0574979 4.7649457,6.5609715 L 4.757303,6.5518003 4.6533628,6.44786 4.6304348,6.4310462 C 4.3771733,6.2411001 4.332535,6.0617017 4.3705843,5.8058763 4.4086335,5.550051 4.5815757,5.2341513 4.829144,4.9865829 5.0767125,4.7390145 5.3926122,4.5660723 5.6484375,4.5280231 c 0.2558254,-0.038049 0.4352237,0.00506 0.6251699,0.258322 l 0.016814,0.022928 0.1054688,0.1054687 0.00764,0.00611 C 6.9000591,5.3667169 7.6127813,5.4857587 8.227072,5.2250339 l 0.00306,-0.00153 0.00459,-0.00153 C 8.83433,4.9513721 9.228969,4.3601901 9.248132,3.7026155 v -0.00611 -0.2399796 c 0,-0.4239127 0.144878,-0.6928092 0.357677,-0.8819633 0.212798,-0.189154 0.511888,-0.2919497 0.816236,-0.2919497 z M 10.5,7.7608696 c -1.508145,0 -2.7391304,1.2309854 -2.7391304,2.7391304 0,1.508145 1.2309854,2.73913 2.7391304,2.73913 1.508145,0 2.73913,-1.230985 2.73913,-2.73913 0,-1.508145 -1.230985,-2.7391304 -2.73913,-2.7391304 z m 0,0.7826084 c 1.085192,0 1.956522,0.87133 1.956522,1.956522 0,1.085192 -0.87133,1.956522 -1.956522,1.956522 -1.085192,0 -1.956522,-0.87133 -1.956522,-1.956522 0,-1.085192 0.87133,-1.956522 1.956522,-1.956522 z"
     style="stroke-width:0.782609" />
</svg>