<?xml version="1.0" encoding="UTF-8" standalone="no"?>
<svg width="21" height="21" viewBox="0 0 21 21" xmlns="http://www.w3.org/2000/svg">
  <path
     d="m 17.187545,3.918456 a 1.7518434,1.7518434 0 0 1 -3.503197,0 1.7518434,1.7518434 0 0 1 3.503197,0 z M 17.63556,2.7073666 a 0.21234364,0.21234364 0 0 1 0.02165,-0.096829 L 17.962159,1.9963229 A 0.21234364,0.21234364 0 0 0 17.92175,1.750636 L 17.602363,1.4341356 A 0.21234364,0.21234364 0 0 0 17.358116,1.3951076 L 16.746794,1.698602 a 0.21234364,0.21234364 0 0 1 -0.09395,0.021671 0.10617197,0.10617197 0 0 1 -0.04962,-0.012276 2.4989605,2.4989605 0 0 0 -0.433147,-0.1784984 0.10617197,0.10617197 0 0 1 -0.04433,-0.026888 0.21234364,0.21234364 0 0 1 -0.04962,-0.080051 L 15.857908,0.77221217 A 0.21234364,0.21234364 0 0 0 15.655589,0.62769345 l -0.449464,0.002899 A 0.21234364,0.21234364 0 0 0 15.005238,0.77511073 L 14.78846,1.4225669 a 0.21234364,0.21234364 0 0 1 -0.05644,0.086718 0.10617197,0.10617197 0 0 1 -0.04143,0.024058 2.4989605,2.4989605 0 0 0 -0.425287,0.1768189 0.10617197,0.10617197 0 0 1 -0.04723,0.012788 0.21234364,0.21234364 0 0 1 -0.09872,-0.021415 L 13.505149,1.3980383 a 0.21234364,0.21234364 0 0 0 -0.245696,0.04191 l -0.315056,0.3222822 a 0.21234364,0.21234364 0 0 0 -0.03905,0.2427969 l 0.306378,0.6098789 a 0.21234364,0.21234364 0 0 1 0.02165,0.09538 0.10617197,0.10617197 0 0 1 -0.01193,0.049548 2.4989605,2.4989605 0 0 0 -0.174169,0.424482 0.10617197,0.10617197 0 0 1 -0.02728,0.044825 0.21234364,0.21234364 0 0 1 -0.07963,0.049105 l -0.650345,0.2182273 a 0.21234364,0.21234364 0 0 0 -0.144586,0.2023296 l 0.0034,0.4509066 a 0.21234364,0.21234364 0 0 0 0.144587,0.1994396 l 0.647452,0.2167815 a 0.21234364,0.21234364 0 0 1 0.08679,0.056368 0.10617197,0.10617197 0 0 1 0.02404,0.041057 2.4989605,2.4989605 0 0 0 0.17393,0.4185245 0.10617197,0.10617197 0 0 1 0.01193,0.047195 0.21234364,0.21234364 0 0 1 -0.02233,0.098773 l -0.304946,0.6127707 a 0.21234364,0.21234364 0 0 0 0.04041,0.2456852 l 0.320837,0.3165021 a 0.21234364,0.21234364 0 0 0 0.242797,0.039028 l 0.611323,-0.3034962 a 0.21234364,0.21234364 0 0 1 0.09395,-0.021671 0.10617197,0.10617197 0 0 1 0.04996,0.012276 2.4989605,2.4989605 0 0 0 0.418228,0.1741641 0.10617197,0.10617197 0 0 1 0.03956,0.022182 0.21234364,0.21234364 0 0 1 0.05865,0.090554 l 0.218228,0.648902 a 0.21234364,0.21234364 0 0 0 0.202336,0.1445188 l 0.450914,-0.0029 A 0.21234364,0.21234364 0 0 0 15.85692,7.061849 l 0.216778,-0.6474545 a 0.21234364,0.21234364 0 0 1 0.04774,-0.078039 0.10617197,0.10617197 0 0 1 0.04621,-0.028781 2.4989605,2.4989605 0 0 0 0.439353,-0.1807711 0.10617197,0.10617197 0 0 1 0.04774,-0.012276 0.21234364,0.21234364 0 0 1 0.09838,0.020938 l 0.614204,0.3034945 a 0.21234364,0.21234364 0 0 0 0.245695,-0.04191 l 0.315056,-0.3222822 a 0.21234364,0.21234364 0 0 0 0.03905,-0.2427952 l -0.306992,-0.611381 a 0.21234364,0.21234364 0 0 1 -0.02165,-0.093947 0.10617197,0.10617197 0 0 1 0.01194,-0.050026 2.4989605,2.4989605 0 0 0 0.170332,-0.4095595 0.10617197,0.10617197 0 0 1 0.02217,-0.039165 0.21234364,0.21234364 0 0 1 0.09054,-0.059114 L 18.582368,4.3505543 A 0.21234364,0.21234364 0 0 0 18.726955,4.148223 l -0.0034,-0.4509049 A 0.21234364,0.21234364 0 0 0 18.578938,3.4978786 L 17.931485,3.2810971 a 0.21234364,0.21234364 0 0 1 -0.07656,-0.04769 0.10617197,0.10617197 0 0 1 -0.02882,-0.046241 2.4989605,2.4989605 0 0 0 -0.177869,-0.4321205 0.10617197,0.10617197 0 0 1 -0.01194,-0.047656 z M 16.08773,3.918456 a 0.65187184,0.64867793 0 1 0 -1.303567,0 0.65187184,0.64867793 0 1 0 1.303567,0 z m -5.368949,5.7013641 a 3.6209842,3.6209842 0 0 1 -7.2419679,0 3.6209842,3.6209842 0 0 1 7.2419679,0 z m 0.92493,-2.5002182 a 0.43884749,0.43884749 0 0 1 0.04621,-0.2037755 L 12.32003,5.6469295 A 0.43884749,0.43884749 0 0 0 12.234778,5.1396596 L 11.574316,4.4864234 A 0.43884749,0.43884749 0 0 0 11.06995,4.4054854 L 9.8053775,5.0327079 A 0.43884749,0.43884749 0 0 1 9.6117197,5.0789485 0.21942375,0.21942375 0 0 1 9.5090767,5.0529296 5.1645543,5.1645543 0 0 0 8.6159455,4.6844018 0.21942375,0.21942375 0 0 1 8.5248967,4.6280334 0.43884749,0.43884749 0 0 1 8.4222536,4.4618266 L 7.9698909,3.1192245 A 0.43884749,0.43884749 0 0 0 7.5522257,2.8200643 l -0.9307101,0.0058 A 0.43884749,0.43884749 0 0 0 6.2081811,3.1250199 L 5.758717,4.4618419 A 0.43884749,0.43884749 0 0 1 5.6444797,4.6410479 0.21942375,0.21942375 0 0 1 5.559228,4.690187 5.1645543,5.1645543 0 0 0 4.6776484,5.0572707 0.21942375,0.21942375 0 0 1 4.5808195,5.0832895 0.43884749,0.43884749 0 0 1 4.377044,5.0384812 L 3.106703,4.4127046 A 0.43884749,0.43884749 0 0 0 2.5994331,4.4979733 L 1.947641,5.1627714 A 0.43884749,0.43884749 0 0 0 1.8681523,5.6671496 L 2.499709,6.9273763 A 0.43884749,0.43884749 0 0 1 2.547399,7.12248 0.21942375,0.21942375 0 0 1 2.52138,7.225089 5.1645543,5.1645543 0 0 0 2.1615206,8.1023343 0.21942375,0.21942375 0 0 1 2.1051516,8.1948323 0.43884749,0.43884749 0 0 1 1.9389449,8.295992 L 0.59634158,8.7483446 A 0.43884749,0.43884749 0 0 0 0.29718306,9.1660098 l 0.004263,0.9307172 a 0.43884749,0.43884749 0 0 0 0.30060439,0.414777 l 1.33682205,0.448015 a 0.43884749,0.43884749 0 0 1 0.1792059,0.115618 0.21942375,0.21942375 0 0 1 0.049139,0.08382 5.1645543,5.1645543 0 0 0 0.3598577,0.865683 0.21942375,0.21942375 0 0 1 0.02457,0.09683 0.43884749,0.43884749 0 0 1 -0.046241,0.203776 L 1.8752915,13.59414 a 0.43884749,0.43884749 0 0 0 0.085269,0.505826 l 0.661908,0.65468 a 0.43884749,0.43884749 0 0 0 0.5043782,0.08094 l 1.2616705,-0.627225 a 0.43884749,0.43884749 0 0 1 0.1951037,-0.04624 0.21942375,0.21942375 0 0 1 0.102609,0.02602 5.1645543,5.1645543 0 0 0 0.862802,0.359858 0.21942375,0.21942375 0 0 1 0.082353,0.04624 0.43884749,0.43884749 0 0 1 0.1213985,0.186431 l 0.4509134,1.341158 a 0.43884749,0.43884749 0 0 0 0.4190975,0.299159 l 0.9307271,-0.0058 a 0.43884749,0.43884749 0 0 0 0.4133345,-0.297715 l 0.449447,-1.338266 a 0.43884749,0.43884749 0 0 1 0.095311,-0.160427 0.21942375,0.21942375 0 0 1 0.096846,-0.05925 5.1645543,5.1645543 0 0 0 0.9075899,-0.375756 0.21942375,0.21942375 0 0 1 0.099744,-0.02602 0.43884749,0.43884749 0 0 1 0.2023194,0.04481 l 1.2703358,0.625776 a 0.43884749,0.43884749 0 0 0 0.507281,-0.08672 l 0.651784,-0.663352 a 0.43884749,0.43884749 0 0 0 0.07945,-0.50438 L 11.69397,12.313662 a 0.43884749,0.43884749 0 0 1 -0.04484,-0.195103 0.21942375,0.21942375 0 0 1 0.02319,-0.102609 5.1645543,5.1645543 0 0 0 0.352635,-0.84834 0.21942375,0.21942375 0 0 1 0.04621,-0.08094 0.43884749,0.43884749 0 0 1 0.186446,-0.121398 l 1.341146,-0.450907 A 0.43884749,0.43884749 0 0 0 13.89792,10.09526 L 13.89282,9.1645435 A 0.43884749,0.43884749 0 0 0 13.59364,8.7512124 L 12.255375,8.3017517 a 0.43884749,0.43884749 0 0 1 -0.160444,-0.096829 0.21942375,0.21942375 0 0 1 -0.05934,-0.09538 5.1645543,5.1645543 0 0 0 -0.367077,-0.8916955 0.21942375,0.21942375 0 0 1 -0.02609,-0.098278 z M 8.4454591,9.6212642 a 1.3476608,1.3410569 0 1 0 -2.6953184,0 1.3476608,1.3410569 0 1 0 2.6953184,0 z M 18.650106,15.984536 a 2.336187,2.336187 0 0 1 -4.672373,0 2.336187,2.336187 0 0 1 4.672373,0 z m 0.596865,-1.612858 a 0.28316486,0.28316486 0 0 1 0.03035,-0.13151 l 0.406105,-0.817992 a 0.28316486,0.28316486 0 0 0 -0.0549,-0.328062 l -0.426327,-0.422002 a 0.28316486,0.28316486 0 0 0 -0.325184,-0.05202 l -0.816541,0.404659 a 0.28316486,0.28316486 0 0 1 -0.124297,0.03035 0.14158243,0.14158243 0 0 1 -0.06598,-0.01637 3.3324148,3.3324148 0 0 0 -0.577034,-0.239441 0.14158243,0.14158243 0 0 1 -0.05917,-0.03587 0.28316486,0.28316486 0 0 1 -0.06513,-0.107212 l -0.291936,-0.865684 a 0.28316486,0.28316486 0 0 0 -0.270248,-0.193658 l -0.599763,0.0029 a 0.28316486,0.28316486 0 0 0 -0.267366,0.19366 l -0.290487,0.862791 a 0.28316486,0.28316486 0 0 1 -0.07366,0.115619 0.14158243,0.14158243 0 0 1 -0.05541,0.03209 3.3324148,3.3324148 0 0 0 -0.567503,0.236717 0.14158243,0.14158243 0 0 1 -0.06292,0.01705 0.28316486,0.28316486 0 0 1 -0.13214,-0.02999 l -0.817991,-0.403214 a 0.28316486,0.28316486 0 0 0 -0.328065,0.05637 l -0.420547,0.427783 a 0.28316486,0.28316486 0 0 0 -0.05064,0.325172 l 0.407555,0.813656 a 0.28316486,0.28316486 0 0 1 0.03035,0.125729 0.14158243,0.14158243 0 0 1 -0.01705,0.06607 3.3324148,3.3324148 0 0 0 -0.232209,0.565487 0.14158243,0.14158243 0 0 1 -0.03649,0.05978 0.28316486,0.28316486 0 0 1 -0.107929,0.06595 l -0.865697,0.291935 a 0.28316486,0.28316486 0 0 0 -0.193658,0.268808 l 0.0034,0.601209 a 0.28316486,0.28316486 0 0 0 0.193658,0.267365 l 0.862798,0.289041 a 0.28316486,0.28316486 0 0 1 0.115602,0.07516 0.14158243,0.14158243 0 0 1 0.03205,0.05475 3.3324148,3.3324148 0 0 0 0.23093,0.558025 0.14158243,0.14158243 0 0 1 0.01705,0.06293 0.28316486,0.28316486 0 0 1 -0.02933,0.130742 l -0.406105,0.81799 a 0.28316486,0.28316486 0 0 0 0.05354,0.328063 l 0.427793,0.422002 a 0.28316486,0.28316486 0 0 0 0.325167,0.05202 l 0.815109,-0.404659 a 0.28316486,0.28316486 0 0 1 0.125661,-0.03035 0.14158243,0.14158243 0 0 1 0.06667,0.01637 3.3324148,3.3324148 0 0 0 0.556182,0.232216 0.14158243,0.14158243 0 0 1 0.05286,0.02957 0.28316486,0.28316486 0 0 1 0.0786,0.120734 l 0.290487,0.865681 a 0.28316486,0.28316486 0 0 0 0.270265,0.192214 l 0.601212,-0.0029 a 0.28316486,0.28316486 0 0 0 0.267366,-0.192212 l 0.289037,-0.862794 a 0.28316486,0.28316486 0 0 1 0.06223,-0.104058 0.14158243,0.14158243 0 0 1 0.06172,-0.03838 3.3324148,3.3324148 0 0 0 0.585799,-0.241986 0.14158243,0.14158243 0 0 1 0.0636,-0.01637 0.28316486,0.28316486 0 0 1 0.131629,0.02793 l 0.819422,0.403214 a 0.28316486,0.28316486 0 0 0 0.328066,-0.05492 l 0.420564,-0.427783 a 0.28316486,0.28316486 0 0 0 0.05064,-0.325173 l -0.407537,-0.813654 a 0.28316486,0.28316486 0 0 1 -0.03035,-0.125729 0.14158243,0.14158243 0 0 1 0.01534,-0.0667 3.3324148,3.3324148 0 0 0 0.227077,-0.547513 0.14158243,0.14158243 0 0 1 0.0295,-0.05222 0.28316486,0.28316486 0 0 1 0.120716,-0.07784 l 0.865681,-0.291933 a 0.28316486,0.28316486 0 0 0 0.193657,-0.270255 l -0.0034,-0.599763 a 0.28316486,0.28316486 0 0 0 -0.193657,-0.267364 l -0.862782,-0.289043 a 0.28316486,0.28316486 0 0 1 -0.104007,-0.06215 0.14158243,0.14158243 0 0 1 -0.03836,-0.06167 3.3324148,3.3324148 0 0 0 -0.237648,-0.575671 0.14158243,0.14158243 0 0 1 -0.01705,-0.06355 z m -2.063757,1.614302 a 0.86929543,0.86503632 0 1 0 -1.738589,0 0.86929543,0.86503632 0 1 0 1.738589,0 z"
     class="st2"
     id="path3"
     style="fill:#000000;fill-opacity:1;stroke:none;stroke-width:0.108391;stroke-linecap:butt" />
</svg>