<?xml version="1.0" encoding="UTF-8" standalone="no"?>
<svg width="21" height="21" viewBox="0 0 21 21" xmlns="http://www.w3.org/2000/svg">
  <path
     id="path4"
     class="st2"
     d="M 6.9804775,3.9499665 A 5.6141956,3.7427971 0 0 0 1.3662758,7.6928336 5.614072,3.7427146 0 0 0 2.1929941,9.6472618 3.7427146,4.8655262 0 0 1 1.0666931,11.785985 0.5614072,0.5614072 0 0 0 1.56546,12.719942 9.1696467,4.1169805 0 0 0 5.8616209,11.360051 5.614072,3.7427146 0 0 0 12.594677,7.6928336 5.6141956,3.7427971 0 0 0 6.9804775,3.9499665 Z m 7.0151335,4.3239242 a 7.0189875,4.8593043 0 0 1 -5.5160152,4.3498783 5.614072,3.7427146 0 0 0 6.6588162,3.060206 9.1696467,4.1169805 0 0 0 4.296361,1.35969 0.5614072,0.5614072 0 0 0 0.498566,-0.933957 3.7427146,4.8655262 0 0 1 -1.126301,-2.138522 5.614072,3.7427146 0 0 0 0.82692,-1.954629 5.614072,3.7427146 0 0 0 -5.638347,-3.7426663 z"
     style="fill:#000000;fill-opacity:1;stroke:none;stroke-width:0.0329641;stroke-linecap:round;stroke-linejoin:round" />
</svg>