<?xml version="1.0" encoding="UTF-8" standalone="no"?>
<svg width="21" height="21" viewBox="0 0 21 21" xmlns="http://www.w3.org/2000/svg">
  <path
     id="ellipse4"
     style="fill:#000000;fill-opacity:1;stroke:none;stroke-width:0.108444;stroke-linecap:round;stroke-linejoin:round"
     class="st2"
     d="M 6.5253905,1.1987546 A 0.36464319,0.36464319 0 0 0 6.3652343,1.2905514 L 3.6874999,3.8862546 a 0.36464319,0.36464319 0 0 0 0.2539062,0.6269531 h 1.3710938 v 4.25 A 7.7020009,7.7020009 0 0 0 7.3378905,14.288598 L 9.5449218,13.032739 A 5.0605109,5.0605109 0 0 0 9.7285155,12.929224 5.0605109,5.0605109 0 0 1 7.9472655,9.0073483 V 4.5132077 H 9.2968749 A 0.36464319,0.36464319 0 0 0 9.548828,3.8862546 L 6.8710937,1.2905514 A 0.36464319,0.36464319 0 0 0 6.5253905,1.1987546 Z m 7.5058595,0.058594 a 0.36464319,0.36464319 0 0 0 -0.160156,0.089844 l -2.697266,2.578125 a 0.36464319,0.36464319 0 0 0 0.25,0.6269532 l 1.273438,0.00977 -0.0078,1.0566406 a 7.7020009,7.7020009 0 0 1 1.904297,0.8691406 l 0.722656,0.4179688 0.01563,-2.3242188 1.445313,0.00977 a 0.36464319,0.36464319 0 0 0 0.259765,-0.625 L 14.376953,1.3510983 A 0.36464319,0.36464319 0 0 0 14.03125,1.2573486 Z M 10.703125,5.9214108 A 7.7020009,7.7020009 0 0 0 8.6464843,6.1460202 V 8.9135983 A 5.0653981,5.0653981 0 0 1 9.533203,8.6538327 5.0653981,5.0653981 0 0 1 13.097656,9.2710202 l 3.894532,2.2480468 -0.673829,1.167969 a 0.36464319,0.36464319 0 0 0 0.414063,0.533203 l 3.58789,-1.021484 a 0.36464319,0.36464319 0 0 0 0.253907,-0.439453 L 19.664062,8.1421139 a 0.36464319,0.36464319 0 0 0 -0.669921,-0.091797 l -0.685547,1.1875 -3.679688,-2.125 A 7.7020009,7.7020009 0 0 0 10.703125,5.9214108 Z M 1.6386718,7.7944577 A 0.36464319,0.36464319 0 0 0 1.3359374,8.0678952 L 0.42578115,11.685083 A 0.36464319,0.36464319 0 0 0 0.6796874,12.124536 L 4.267578,13.14602 A 0.36464319,0.36464319 0 0 0 4.6816405,12.610864 L 4.0449218,11.509302 4.8867187,11.022974 A 7.7020009,7.7020009 0 0 1 4.642578,8.7632077 V 8.1206296 L 2.7285155,9.2260983 2.0058593,7.9741452 A 0.36464319,0.36464319 0 0 0 1.6386718,7.7944577 Z m 8.6601562,1.4296875 a 1.367412,1.3803126 0 0 0 -1.3671875,1.3789068 1.367412,1.3803126 0 0 0 1.3671875,1.380859 1.367412,1.3803126 0 0 0 1.367188,-1.380859 1.367412,1.3803126 0 0 0 -1.367188,-1.3789068 z m 2.324219,0.4921875 A 5.0605109,5.0605109 0 0 1 10.044922,13.503442 L 6.1367187,15.724145 5.470703,14.55227 a 0.36464319,0.36464319 0 0 0 -0.6699219,0.08789 l -0.9355468,3.609376 a 0.36464319,0.36464319 0 0 0 0.25,0.441406 l 3.5800781,1.044922 A 0.36464319,0.36464319 0 0 0 8.1152343,19.206567 L 7.439453,18.015161 11.132812,15.917505 A 7.7020009,7.7020009 0 0 0 15.037109,11.08938 L 13.0625,9.9487546 A 5.0653981,5.0653981 0 0 0 12.623047,9.7163327 Z m 2.791015,4.7324223 a 0.36464319,0.36464319 0 0 0 -0.365234,0.177734 l -0.636719,1.103516 -1.130859,-0.652344 a 7.7020009,7.7020009 0 0 1 -1.265625,0.939453 7.7020009,7.7020009 0 0 1 -0.617187,0.355469 l -0.578126,0.326172 2.275391,1.3125 -0.724609,1.251953 a 0.36464319,0.36464319 0 0 0 0.416015,0.535156 L 16.375,18.77688 a 0.36464319,0.36464319 0 0 0 0.251953,-0.439453 L 15.71875,14.720239 a 0.36464319,0.36464319 0 0 0 -0.304688,-0.271484 z" />
</svg>