<?xml version="1.0" encoding="UTF-8" standalone="no"?>
<svg width="21" height="21" viewBox="0 0 21 21" xmlns="http://www.w3.org/2000/svg">
  <path
     d="m 4.6630356,12.027617 1.1613457,1.16272 a 0.14843236,0.14843236 0 0 1 0,0.208904 l -4.8061848,4.806185 a 0.14843236,0.14843236 0 0 0 0,0.210279 l 1.5654117,1.565411 a 0.14843236,0.14843236 0 0 0 0.2102791,0 l 4.8061848,-4.806184 a 0.14843236,0.14843236 0 0 1 0.2102792,0 l 1.1943289,1.195705 A 0.14843236,0.14843236 0 0 0 9.2589396,16.26481 L 9.2438473,11.908046 A 0.14843236,0.14843236 0 0 0 9.0940432,11.759613 l -4.3265297,0.01512 a 0.14843236,0.14843236 0 0 0 -0.1044523,0.252885 z m 7.0903924,-0.129192 0.01509,4.338898 a 0.14843236,0.14843236 0 0 0 0.25426,0.104453 l 1.166842,-1.166844 a 0.14843236,0.14843236 0 0 1 0.210281,0 l 4.806186,4.806184 a 0.14843236,0.14843236 0 0 0 0.210276,0 l 1.565413,-1.565411 a 0.14843236,0.14843236 0 0 0 0,-0.210279 l -4.806184,-4.806185 a 0.14843236,0.14843236 0 0 1 0,-0.208904 l 1.201205,-1.202577 a 0.14843236,0.14843236 0 0 0 -0.105826,-0.252885 l -4.369135,0.01512 a 0.14843236,0.14843236 0 0 0 -0.148434,0.148432 z M 16.335591,8.9710096 15.175617,7.8096641 a 0.14843236,0.14843236 0 0 1 0,-0.2089049 l 4.806186,-4.8061844 a 0.14843236,0.14843236 0 0 0 0,-0.2102791 L 18.416391,1.018884 a 0.14843236,0.14843236 0 0 0 -0.210276,0 l -4.806186,4.8061844 a 0.14843236,0.14843236 0 0 1 -0.210282,0 L 11.982949,4.6169944 A 0.14843236,0.14843236 0 0 0 11.72869,4.7228208 l 0.01509,4.3691338 a 0.14843236,0.14843236 0 0 0 0.14981,0.1470575 l 4.337523,-0.01512 a 0.14843236,0.14843236 0 0 0 0.10445,-0.2528845 z M 9.2342016,9.100201 9.2191092,4.7750474 A 0.14843236,0.14843236 0 0 0 8.9648498,4.6705947 L 7.8103769,5.8250684 a 0.14843236,0.14843236 0 0 1 -0.2102791,0 L 2.793913,1.018884 a 0.14843236,0.14843236 0 0 0 -0.2102792,0 L 1.0182222,2.5842957 a 0.14843236,0.14843236 0 0 0 0,0.2102791 l 4.8061847,4.8061844 a 0.14843236,0.14843236 0 0 1 0,0.2089049 l -1.199828,1.2012026 a 0.14843236,0.14843236 0 0 0 0.1044522,0.2528844 l 4.3567626,-0.01512 A 0.14843236,0.14843236 0 0 0 9.2342272,9.1002015 Z"
     class="st2"
     id="path3"
     style="fill:#000000;fill-opacity:1;stroke:none;stroke-width:0.032985;stroke-linecap:round;stroke-linejoin:round" />
</svg>