<?xml version="1.0" encoding="UTF-8" standalone="no"?>
<svg width="21" height="21" viewBox="0 0 21 21" xmlns="http://www.w3.org/2000/svg">
  <path
     d="m 18.214887,10.110968 a 0.41184314,0.41184314 0 0 1 -0.411425,0.429614 H 17.032398 A 0.41184314,0.41184314 0 0 1 16.620973,10.15015 6.1293818,6.1293818 0 0 0 10.886233,4.3398452 0.41184314,0.41184314 0 0 1 10.499997,3.9298213 V 3.1587524 a 0.41184314,0.41184314 0 0 1 0.435215,-0.4114235 7.722066,7.722066 0 0 1 7.279675,7.3636391 z M 20.228622,10.5 a 9.7286227,9.7286227 0 1 0 -19.45724449,0 9.7286227,9.7286227 0 1 0 19.45724449,0 z m -12.8170961,0 a 3.0888237,3.0888237 0 1 1 6.1769491,0 3.0888237,3.0888237 0 1 1 -6.1769491,0 z m 1.6470967,0 a 1.441381,1.441381 0 1 0 2.8827574,0 1.441381,1.441381 0 0 0 -2.8827574,0 z"
     class="st2"
     id="path3"
     style="fill:#000000;fill-opacity:1;stroke:none;stroke-width:0.0335856;stroke-linecap:round;stroke-linejoin:round" />
</svg>