<?xml version="1.0" encoding="UTF-8" standalone="no"?>
<svg width="21" height="21" viewBox="0 0 21 21" xmlns="http://www.w3.org/2000/svg">
  <path
     id="path4"
     class="st2"
     d="m 9.8047458,1.2216709 a 9.3044189,9.3044189 0 0 0 -8.6091736,9.2782431 9.3044279,9.3044279 0 0 0 18.6088558,0 9.3044189,9.3044189 0 0 0 -9.9996822,-9.2782431 z m 0.07191,1.7551323 a 7.5489186,7.5489186 0 0 1 8.1722452,7.5231108 7.5489186,7.5489186 0 1 1 -15.0978089,0 7.5489186,7.5489186 0 0 1 6.9255637,-7.5231108 z m 4.5519702,2.4726605 a 0.40339691,0.52666478 40 0 0 -0.190521,0.052371 L 8.3792639,8.3780086 A 0.40339691,0.52666478 40 0 0 8.0404311,8.7807387 L 6.2262866,15.050519 a 0.40339691,0.52666478 40 0 0 0.5348249,0.449434 l 5.8588405,-2.875981 a 0.40339691,0.52666478 40 0 0 0.338833,-0.404294 l 1.814144,-6.2682173 a 0.40339691,0.52666478 40 0 0 -0.3443,-0.501997 z M 10.671759,9.1955831 A 1.3166626,1.3166626 0 0 1 11.346106,9.491817 1.3166626,1.3166626 0 0 1 11.81684,10.500305 1.3166626,1.3166626 0 0 1 9.653309,11.508793 1.3166626,1.3166626 0 0 1 9.1837498,10.500305 1.3166626,1.3166626 0 0 1 10.671759,9.1955831 Z"
     style="fill:#000000;fill-opacity:1;stroke:none;stroke-width:0.0320152;stroke-linecap:round;stroke-linejoin:round" />
</svg>