<?xml version="1.0" encoding="UTF-8" standalone="no"?>
<svg width="21" height="21" viewBox="0 0 21 21" xmlns="http://www.w3.org/2000/svg">
  <path
     id="path4"
     class="st2"
     d="m 10.500335,0.44018911 a 0.33131981,0.33131981 0 0 0 -0.233448,0.0973844 L 9.5597892,1.2431901 a 0.00103889,0.00103889 0 0 0 0,0.0015 0.00103889,0.00103889 0 0 1 0,0.0015 l -1.5925164,1.592507 a 0.33131981,0.33131981 0 0 0 0,0.4689123 l 0.4719199,0.4719081 a 0.33131981,0.33131981 0 0 0 0.46891,0 L 9.2704325,3.417181 a 0.33131981,0.33131981 0 0 1 0.5654413,0.2339217 v 4.3873622 a 0.33131981,0.33131981 0 0 0 0.087454,0.2234462 7.0737621,7.0737621 0 0 1 1.1456482,1.6714787 7.0737621,7.0737621 0 0 1 0.05546,-0.062711 0.16565989,0.16565989 0 0 0 0.04242,-0.10959 V 3.6511004 a 0.33131981,0.33131981 0 0 1 0.565441,-0.2339218 l 0.362329,0.3623322 a 0.33131981,0.33131981 0 0 0 0.46891,0 l 0.47192,-0.4719104 a 0.33131981,0.33131981 0 0 0 0,-0.4689124 L 11.442942,1.2461811 a 0.00103889,0.00103889 0 0 1 0,-0.0015 0.00103727,0.00103727 0 0 0 0,-0.0015 L 10.734328,0.53607095 A 0.33131981,0.33131981 0 0 0 10.500406,0.44017963 Z M 5.049105,4.491972 a 0.33131981,0.33131981 0 0 0 -0.1244264,0.0351 L 2.9171939,5.549649 a 0.00103889,0.00103889 0 0 1 -0.00128,-4.384e-4 l -2.133e-4,4.384e-4 a 0.00103727,0.00103727 0 0 0 -6.636e-4,-4.384e-4 0.00103727,0.00103727 0 0 0 -6.399e-4,0 L 2.024523,6.0039999 A 0.33131981,0.33131981 0 0 0 1.8799513,6.4497974 l 0.4528649,0.8896705 a 0.00103889,0.00103889 0 0 0 0.00149,4.384e-4 v 0.00102 a 0.00103889,0.00103889 0 0 1 0.00152,4.384e-4 L 3.3586116,9.346924 a 0.33131981,0.33131981 0 0 0 0.445589,0.1446665 L 4.398722,9.1891845 A 0.33131981,0.33131981 0 0 0 4.5432937,8.7433846 L 4.3257252,8.3168507 A 0.33131981,0.33131981 0 0 1 4.728938,7.8522186 l 1.3545182,0.46613 a 0.33131981,0.33131981 0 0 1 0.00711,0.00308 5.7431911,5.7431911 0 0 1 3.3106444,3.2025614 0.33131981,0.33131981 0 0 0 0.6063004,0.0173 7.0737621,7.0737621 0 0 1 0.382878,-0.695344 0.33131981,0.33131981 0 0 0 0.01422,-0.325735 7.0737621,7.0737621 0 0 0 -3.8760615,-3.4553132 l -0.00474,-0.00151 -0.00474,-0.00149 L 5.0842999,6.5681637 A 0.33131981,0.33131981 0 0 1 5.0418765,5.9603535 L 5.5268552,5.7133776 A 0.33131981,0.33131981 0 0 0 5.6714269,5.2677935 L 5.3690114,4.6717528 A 0.33131981,0.33131981 0 0 0 5.0477778,4.4919862 Z m 10.8584,1.3564451 a 0.33131981,0.33131981 0 0 0 -0.277577,0.181473 l -0.303909,0.5947561 a 0.33131981,0.33131981 0 0 0 0.144572,0.4455842 l 0.484979,0.2467625 a 0.33131981,0.33131981 0 0 1 -0.04242,0.6078102 l -1.433274,0.4939541 -0.0024,0.00149 -0.0071,0.00284 A 7.0737621,7.0737621 0 0 0 9.8375565,15.053361 v 5.17623 a 0.33131981,0.33131981 0 0 0 0.3317325,0.33023 h 0.667519 a 0.33131981,0.33131981 0 0 0 0.331732,-0.33023 v -5.170452 a 5.7431911,5.7431911 0 0 1 3.740165,-5.3795484 l 0.0047,-0.0015 0.0024,-0.0015 1.358808,-0.4689124 a 0.32943215,0.32943215 0 0 1 0.401909,0.4616364 l -0.22065,0.4310324 a 0.33131981,0.33131981 0 0 0 0.144572,0.445584 l 0.596062,0.303904 a 0.33131981,0.33131981 0 0 0 0.445565,-0.144667 l 1.021293,-2.0072733 0.457368,-0.891384 A 0.33131981,0.33131981 0 0 0 18.97617,7.3624145 L 18.085016,6.9065586 16.076038,5.8837684 a 0.33131981,0.33131981 0 0 0 -0.168035,-0.035313 z m 2.755466,2.8494298 0.0015,-4.384e-4 a 0.00103889,0.00103889 0 0 0 -0.0015,4.384e-4 z M 18.082788,6.9065183 v 1.422e-4 a 0.00103889,0.00103889 0 0 1 -0.0013,1.446e-4 z m 0.583193,1.7908996 -0.0015,4.385e-4 a 0.00103889,0.00103889 0 0 0 0.0015,-4.385e-4 z"
     style="fill:#000000;fill-opacity:1;stroke:none;stroke-width:0.0350646;stroke-linecap:round;stroke-linejoin:round" />
</svg>