<?xml version="1.0" encoding="UTF-8" standalone="no"?>
<svg width="21" height="21" viewBox="0 0 21 21" xmlns="http://www.w3.org/2000/svg">
  <path
     d="m 11.315204,16.839003 a 0.50950161,0.50950161 0 0 1 -0.509869,-0.509867 v -1.018273 a 0.50950161,0.50950161 0 0 1 0.509869,-0.509867 h 6.62388 a 0.50950161,0.50950161 0 0 1 0.508425,0.509867 v 1.018273 a 0.50950161,0.50950161 0 0 1 -0.508425,0.509867 z M 2.8987611,15.113638 a 1.5285048,1.5285048 0 0 1 0.4222105,-1.053336 l 2.3856916,-2.505507 a 1.5285048,1.5285048 0 0 0 0,-2.1081311 L 3.3209716,6.9411576 A 1.5285048,1.5285048 0 0 1 2.8987611,5.8878238 V 4.8315665 A 0.66710889,0.66710889 0 0 1 4.0499655,4.3713712 l 4.8342512,5.0752927 a 1.5285048,1.5285048 0 0 1 0,2.1081311 L 4.0499655,16.630088 A 0.66710889,0.66710889 0 0 1 2.8987611,16.169895 Z M 1.8381028,20.690032 H 19.161886 a 1.5285048,1.5285048 0 0 0 1.528142,-1.52814 V 1.8395672 A 1.5285048,1.5285048 0 0 0 19.161886,0.30996803 H 1.8381028 A 1.5285048,1.5285048 0 0 0 0.30997205,1.8395672 V 19.161892 a 1.5285048,1.5285048 0 0 0 1.52813075,1.52814 z"
     class="st2"
     id="path3"
     style="fill:#000000;fill-opacity:1;stroke:none;stroke-width:0.0350624;stroke-linecap:round;stroke-linejoin:round" />
</svg>