<?xml version="1.0" encoding="UTF-8" standalone="no"?>
<svg width="21" height="21" viewBox="0 0 21 21" xmlns="http://www.w3.org/2000/svg">
  <path
     id="path4"
     class="st2"
     d="m 10.500001,1.9957187 a 0.53101345,0.53101345 0 0 0 -0.4605,0.2665199 L 0.86861465,18.208594 A 0.53101345,0.53101345 0 0 0 1.3291151,19.004281 H 19.670884 a 0.53101345,0.53101345 0 0 0 0.460501,-0.795687 L 10.960502,2.2622386 A 0.53101345,0.53101345 0 0 0 10.500001,1.9957187 Z m 0,3.1666537 6.911989,12.0170236 H 3.5880125 Z m 0.933431,3.567249 a 0.67950781,0.67950781 0 0 0 -0.679544,0.679542 0.67950781,0.67950781 0 0 0 1.358883,0 0.67950781,0.67950781 0 0 0 -0.679339,-0.679542 z M 8.5769026,9.8166863 v 0.00285 a 0.50510035,0.27267946 0 0 0 -0.4743562,0.2155777 0.23807255,0.23807255 0 0 0 -0.025062,0.0432 l -0.5799046,1.090529 0.00123,0.0015 a 0.6029759,0.6029759 0 0 0 0.1962216,0.776127 l 0.333762,-0.493918 0.00285,0.0015 0.016711,-0.02914 0.4882104,-0.919573 a 0.20374524,0.03395759 0 0 1 0.1279631,-0.0075 v -0.002 h 0.7164243 l -1.05854,1.991768 1.1740729,0.624733 0.6579449,-1.236628 -0.07743,1.108869 -0.2149676,-0.1679 -0.130815,0.243292 0.3227586,0.252052 -0.0082,0.117366 h 0.0043 a 0.69778289,0.69778289 0 0 0 0.636959,0.664873 l 0.0025,-0.286081 1.623365,1.267396 0.166881,-0.212727 -1.78719,-1.396988 v -1.35e-4 h -1.36e-4 l -0.0022,-0.0018 0.216803,-3.101653 a 0.69630981,0.72218675 0 0 0 0.0069,-0.105752 0.70631811,0.44025291 0 0 0 -0.706643,-0.4395143 z m -0.4690582,1.6294787 -0.1668802,0.214358 0.4005953,0.312976 0.1293871,-0.243494 z m 0.08232,1.24437 -0.2294355,0.431159 h 0.00146 l -0.1947965,0.367382 -0.070907,0.123683 0.00408,0.0028 -0.090267,0.170955 -0.346395,0.652444 -0.4549992,0.847239 0.00285,0.0012 -0.3101238,0.582961 a 0.92608502,0.7679412 10.29 0 0 0.3144027,1.008414 l 0.3476177,-0.614748 v 0.0015 l 1.2881783,-2.421906 0.2029471,-0.353322 0.00285,0.0014 0.1377432,0.211505 h -0.00146 l 0.6524443,1.004339 0.073762,1.617661 A 0.68982353,0.68982353 0 0 0 10.24469,16.87882 l -0.03057,-0.596816 -0.08212,-1.804102 -0.0041,0.0015 -0.7498397,-1.154512 -0.00408,0.0028 -0.00836,-0.01263 z m 5.7358786,1.086862 a 0.94935239,0.94935239 0 0 0 -0.371049,0.113292 l -0.763696,0.746989 a 0.7055016,0.7055016 0 0 1 -0.815045,0.612099 3.0708745,3.0708745 0 0 0 -1.171221,1.628868 h 5.925578 a 93.541728,93.541728 0 0 0 -1.953048,-2.71675 0.94935239,0.94935239 0 0 0 -0.851519,-0.384498 z"
     style="fill:#000000;fill-opacity:1;stroke:none;stroke-width:0.0333843;stroke-linecap:round;stroke-linejoin:round" />
</svg>