<?xml version="1.0" encoding="UTF-8" standalone="no"?>
<svg width="21" height="21" viewBox="0 0 21 21" xmlns="http://www.w3.org/2000/svg">
  <path
     id="path4"
     class="st2"
     d="m 7.2963351,1.2483469 a 2.2427547,2.2427547 0 0 0 -2.0733455,2.2686265 2.2427547,2.2427547 0 0 0 4.4850602,0 2.2427547,2.2427547 0 0 0 -2.4117147,-2.2686265 z m 3.3177969,0.6493265 a 3.5411881,3.5411881 0 0 1 0.393386,1.6193 3.5411881,3.5411881 0 0 1 -0.0014,0.043942 7.3426183,7.3426183 0 0 1 5.851233,5.0574068 3.5411881,3.5411881 0 0 1 1.645498,-0.082634 8.9468464,8.9468464 0 0 0 -7.888704,-6.6380084 z M 3.9676573,4.0713855 A 8.9468464,8.9468464 0 0 0 1.4086241,13.77326 3.5411881,3.5411881 0 0 1 2.812082,12.903859 7.3426183,7.3426183 0 0 1 4.6349253,5.6439236 3.5411881,3.5411881 0 0 1 3.9676573,4.0713855 Z M 17.683818,9.747086 a 2.2427547,2.2427547 0 0 0 -2.073345,2.26883 2.2427547,2.2427547 0 0 0 4.48506,0 2.2427547,2.2427547 0 0 0 -2.411715,-2.26883 z M 3.7550429,13.996554 a 2.2427547,2.2427547 0 0 0 -2.0733454,2.26883 2.2427547,2.2427547 0 0 0 4.4850594,0 2.2427547,2.2427547 0 0 0 -2.411714,-2.26883 z M 15.901079,14.971557 A 7.3426183,7.3426183 0 0 1 7.1828733,17.652919 3.5411881,3.5411881 0 0 1 6.1992032,18.979195 8.9468464,8.9468464 0 0 0 17.448834,15.534231 3.5411881,3.5411881 0 0 1 15.901079,14.971557 Z"
     style="fill:#000000;fill-opacity:1;stroke:none;stroke-width:0.0330187;stroke-linecap:round;stroke-linejoin:round" />
</svg>