<?xml version="1.0" encoding="UTF-8" standalone="no"?>
<svg width="21" height="21" viewBox="0 0 21 21" xmlns="http://www.w3.org/2000/svg">
  <path
     id="path4"
     class="st2"
     d="M 10.351343,1.0362216 A 9.1642719,9.1441627 35 0 0 5.4532042,2.6741224 L 8.3960473,2.2443926 7.4525433,4.7962981 a 6.29685,6.2602455 35 0 1 8.4767857,1.9249847 l -1.216857,0.2590118 3.38146,3.6661274 1.599309,-4.7245915 -0.802886,0.1703209 A 9.1642719,9.1441627 35 0 0 10.351343,1.0362216 Z M 7.2416188,3.0305064 2.3390358,3.948149 2.8802876,4.5649613 A 9.1441627,9.1642719 5.7 0 0 6.475502,17.955648 L 4.6606207,15.599711 7.3476873,15.173425 A 6.2602455,6.29685 5.7 0 1 4.8780106,6.8392691 L 5.6994849,7.773684 Z m 12.1352362,6.4061351 -1.147358,2.7438275 -1.701539,-2.12298 a 6.2602455,6.29685 66 0 1 -6.015796,6.274606 l 0.404677,-1.176655 -4.8839964,1.010583 3.2258943,3.803913 0.2676963,-0.775813 A 9.1441627,9.1642719 66 0 0 19.376855,9.4366415 Z"
     style="fill:#000000;fill-opacity:1;stroke:none;stroke-width:0.103442;stroke-linecap:round;stroke-linejoin:round" />
</svg>