<?xml version="1.0" encoding="UTF-8" standalone="no"?>
<svg
   width="21"
   height="21"
   viewBox="0 0 21 21"
   version="1.1"
   id="svg1"
   sodipodi:docname="copy.svg"
   inkscape:version="1.4.3 (0d15f75, 2025-12-25)"
   xmlns:inkscape="http://www.inkscape.org/namespaces/inkscape"
   xmlns:sodipodi="http://sodipodi.sourceforge.net/DTD/sodipodi-0.dtd"
   xmlns="http://www.w3.org/2000/svg"
   xmlns:svg="http://www.w3.org/2000/svg">
  <defs
     id="defs1" />
  <sodipodi:namedview
     id="namedview1"
     pagecolor="#ffffff"
     bordercolor="#000000"
     borderopacity="0.25"
     inkscape:showpageshadow="2"
     inkscape:pageopacity="0.0"
     inkscape:pagecheckerboard="0"
     inkscape:deskcolor="#d1d1d1"
     inkscape:zoom="27.173103"
     inkscape:cx="11.113931"
     inkscape:cy="2.7416817"
     inkscape:window-width="1920"
     inkscape:window-height="1009"
     inkscape:window-x="-8"
     inkscape:window-y="-8"
     inkscape:window-maximized="1"
     inkscape:current-layer="svg1" />
  <g
     id="g8"
     transform="translate(0.20255755,0.6256185)"
     style="stroke-width:1.25;stroke-dasharray:none">
    <path
       d="M 14.419141,6.9042898 H 9.5313523 A 1.2219473,1.2219473 0 0 0 8.3094051,8.1262371 v 9.7755779 a 1.2219473,1.2219473 0 0 0 1.2219472,1.221948 h 7.3316837 a 1.2219473,1.2219473 0 0 0 1.221947,-1.221948 v -7.331683 z"
       id="path1"
       style="fill:none;stroke:#000000;stroke-width:1.25;stroke-linecap:round;stroke-linejoin:round;stroke-dasharray:none" />
    <path
       d="m 14.419141,6.9042898 v 3.6658422 h 3.665842"
       id="path2"
       style="fill:none;stroke:#000000;stroke-width:1.25;stroke-linecap:round;stroke-linejoin:round;stroke-dasharray:none" />
    <path
       d="m 10.7533,13.625 h 4.887789"
       id="path3"
       style="fill:none;stroke:#000000;stroke-width:1.25;stroke-linecap:round;stroke-linejoin:round;stroke-dasharray:none" />
    <path
       d="m 10.7533,16.068894 h 4.887789"
       id="path4"
       style="fill:none;stroke:#000000;stroke-width:1.25;stroke-linecap:round;stroke-linejoin:round;stroke-dasharray:none" />
    <path
       id="path1-7"
       style="baseline-shift:baseline;display:inline;overflow:visible;fill:#000000;stroke:none;stroke-width:1.25;stroke-linecap:butt;stroke-linejoin:miter;stroke-dasharray:none;enable-background:accumulate;stop-color:#000000"
       d="m 3.7325579,0 c -1.012637,0 -1.847656,0.83306593 -1.847656,1.8457031 v 9.7753909 c 0,1.012637 0.835019,1.847656 1.847656,1.847656 h 2.376953 v -1.25 h -2.376953 c -0.337089,0 -0.595703,-0.260567 -0.595703,-0.597656 V 1.8457031 C 3.1368549,1.5086146 3.3954689,1.25 3.7325579,1.25 h 4.630859 l 2.9921881,2.9921875 h 1.554688 A 0.62506098,0.62506098 0 0 0 12.728652,3.8496094 L 9.0626359,0.18359375 A 0.62506098,0.62506098 0 0 0 8.6212299,0 Z" />
    <path
       style="baseline-shift:baseline;display:inline;overflow:visible;fill:#000000;stroke:none;stroke-width:1.25;stroke-linecap:butt;stroke-linejoin:miter;stroke-dasharray:none;enable-background:accumulate;stop-color:#000000"
       d="m 8.5931359,0.0030969 a 0.62499848,0.62499848 0 0 0 -0.625293,0.6252934 v 3.6658418 a 0.62506098,0.62506098 0 0 0 0.625293,0.6252934 H 12.258978 A 0.62499848,0.62499848 0 0 0 12.884271,4.2942321 0.62499848,0.62499848 0 0 0 12.258978,3.6689388 H 9.2184299 V 0.6283903 A 0.62499848,0.62499848 0 0 0 8.5931359,0.0030969 Z"
       id="path2-6" />
    <path
       style="fill:none;stroke:#000000;stroke-width:1.25;stroke-linecap:round;stroke-linejoin:round;stroke-dasharray:none"
       d="M 5.204461,7.7026022 H 8.3851898"
       id="path5" />
    <path
       style="fill:none;stroke:#000000;stroke-width:1.25;stroke-linecap:round;stroke-linejoin:round;stroke-dasharray:none"
       d="M 4.9962825,9.8884758 H 8.3094051"
       id="path6" />
  </g>
</svg>
