<?xml version="1.0" encoding="UTF-8" standalone="no"?>
<svg width="21" height="21" viewBox="0 0 21 21" xmlns="http://www.w3.org/2000/svg">
  <path
     id="council"
     class="st2"
     d="m 10.360942,0.69209915 a 1.4218906,1.4218906 0 0 0 -1.2505723,1.41158875 1.4218906,1.4218906 0 1 0 2.8436833,3e-7 1.4218906,1.4218906 0 0 0 -1.593111,-1.41158905 z M 9.075403,3.479233 A 0.66305783,0.66305783 0 0 0 8.8951779,3.493045 7.716711,7.716711 0 0 0 7.9478588,3.7628445 7.716711,7.716711 0 0 0 6.73959,4.3138828 0.33152891,0.33152891 0 0 0 6.6379295,4.8029745 L 6.804342,5.0224827 A 0.66305783,0.66305783 0 0 0 7.6294957,5.2156591 6.5028439,6.5028439 0 0 1 7.8535366,5.1079554 0.33152891,0.33152891 0 0 1 8.3132743,5.3350188 l 0.5260008,2.264586 a 0.01322267,0.01322267 0 0 0 0.012988,0.01031 l 0.010582,-0.00153 a 3.9358375,3.9358375 0 0 1 3.3387759,5.78e-5 0.0264454,0.0264454 0 0 0 0.0259,-0.020504 l 0.523841,-2.2529327 a 0.33152891,0.33152891 0 0 1 0.459737,-0.2270627 6.5028439,6.5028439 0 0 1 0.209148,0.1003657 0.66305783,0.66305783 0 0 0 0.822133,-0.193177 L 14.410303,4.7941131 A 0.33152891,0.33152891 0 0 0 14.308643,4.305021 7.716711,7.716711 0 0 0 13.116778,3.7628326 7.716711,7.716711 0 0 0 12.169243,3.4930341 0.66305783,0.66305783 0 0 0 11.650581,3.5962051 1.9616934,1.9616934 0 0 1 9.4138381,3.5962047 0.66305783,0.66305783 0 0 0 9.075402,3.47922 Z M 15.834628,5.4792 A 0.33152889,0.33152889 0 0 0 15.598715,5.6192801 L 15.44029,5.8474224 a 0.66305779,0.66305779 0 0 0 0.07058,0.8415569 6.5028435,6.5028435 0 0 1 0.159937,0.167923 0.33152889,0.33152889 0 0 1 -0.07382,0.5074391 L 13.61623,8.5587955 a 0.0264454,0.0264454 0 0 0 -0.01165,0.03065 3.9358375,3.9358375 0 0 1 1.031928,3.1756445 l 0.0019,0.01059 a 0.01322267,0.01322267 0 0 0 0.01358,0.0091 l 2.316388,-0.199651 a 0.33152889,0.33152889 0 0 1 0.357862,0.367144 6.5028435,6.5028435 0 0 1 -0.03302,0.246271 0.66305779,0.66305779 0 0 0 0.438586,0.725004 l 0.260302,0.09065 a 0.33152889,0.33152889 0 0 0 0.433837,-0.248 7.7167107,7.7167107 0 0 0 0.150656,-1.319209 7.7167107,7.7167107 0 0 0 -0.03623,-0.984457 A 0.66305779,0.66305779 0 0 0 18.282011,10.001067 1.9616934,1.9616934 0 0 1 17.590677,7.8737549 0.66305779,0.66305779 0 0 0 17.528516,7.3486175 7.7167107,7.7167107 0 0 0 16.979421,6.5310178 7.7167107,7.7167107 0 0 0 16.095342,5.5649218 0.33152889,0.33152889 0 0 0 15.834609,5.479233 Z M 5.1020165,5.6559724 A 0.33152891,0.33152891 0 0 0 4.8432258,5.7470557 7.716711,7.716711 0 0 0 3.9796527,6.7314991 7.716711,7.716711 0 0 0 3.4476078,7.5605387 0.66305783,0.66305783 0 0 0 3.3964544,8.0869701 1.9616934,1.9616934 0 0 1 2.7500156,10.228313 a 0.66305783,0.66305783 0 0 0 -0.2486469,0.466644 7.716711,7.716711 0 0 0 -0.015755,0.984875 7.716711,7.716711 0 0 0 0.1782833,1.315972 0.33152891,0.33152891 0 0 0 0.4390169,0.238718 l 0.2583599,-0.09605 a 0.66305783,0.66305783 0 0 0 0.4232606,-0.734068 6.5028439,6.5028439 0 0 1 -0.038203,-0.24541 0.33152891,0.33152891 0 0 1 0.3500912,-0.374482 l 2.3200573,0.15087 a 0.01322267,0.01322267 0 0 0 0.013383,-0.0093 l 0.00194,-0.01059 A 3.9358375,3.9358375 0 0 1 7.3968201,8.719144 0.0264454,0.0264454 0 0 0 7.3845159,8.6884941 L 5.3791526,7.5356966 A 0.33152891,0.33152891 0 0 1 5.2947596,7.0299849 6.5028439,6.5028439 0 0 1 5.4510274,6.8588243 0.66305783,0.66305783 0 0 0 5.5039082,6.0157558 L 5.3409494,5.7910669 A 0.33152891,0.33152891 0 0 0 5.1020148,5.655952 Z M 19.252876,7.0580643 A 1.4218906,1.4218906 0 0 0 18.916598,7.1238959 1.4219169,1.4219169 0 0 0 19.79528,9.8285781 1.4218906,1.4218906 0 0 0 19.252876,7.0580643 Z M 1.7176557,7.3060641 A 1.4218906,1.4218906 0 0 0 1.2333127,10.087369 1.4218906,1.4218906 0 1 0 2.055229,7.3649877 1.4218906,1.4218906 0 0 0 1.7176557,7.3060641 Z m 12.4234973,6.1384699 -0.0078,0.0076 a 3.9358375,3.9358375 0 0 1 -2.68051,1.990687 0.0264454,0.0264454 0 0 0 -0.0086,0.03172 l 0.922929,2.121054 a 0.33152891,0.33152891 0 0 1 -0.233753,0.456282 6.5028439,6.5028439 0 0 1 -0.227711,0.04447 0.66305783,0.66305783 0 0 0 -0.544995,0.645144 l -0.0032,0.277567 a 0.33152891,0.33152891 0 0 0 0.373403,0.332179 7.716711,7.716711 0 0 0 1.280359,-0.275413 7.716711,7.716711 0 0 0 0.921202,-0.348581 0.66305783,0.66305783 0 0 0 0.355056,-0.391964 1.9616934,1.9616934 0 0 1 1.795567,-1.333671 0.66305783,0.66305783 0 0 0 0.477869,-0.226417 7.716711,7.716711 0 0 0 0.599817,-0.781338 7.716711,7.716711 0 0 0 0.641475,-1.162726 0.33152891,0.33152891 0 0 0 -0.210012,-0.45326 l -0.264619,-0.07706 a 0.66305783,0.66305783 0 0 0 -0.777453,0.336924 6.5028439,6.5028439 0 0 1 -0.11569,0.21994 0.33152891,0.33152891 0 0 1 -0.504417,0.09195 l -1.772473,-1.504616 a 0.01322267,0.01322267 0 0 0 -0.0164,-3.4e-4 z m -7.1839969,0.02396 a 0.0264454,0.0264454 0 0 0 -0.032808,10e-4 L 5.1656899,14.972189 A 0.33152891,0.33152891 0 0 1 4.660841,14.881969 6.5028439,6.5028439 0 0 1 4.5520588,14.677352 0.66305783,0.66305783 0 0 0 3.7756841,14.344744 l -0.2663461,0.07813 a 0.33152891,0.33152891 0 0 0 -0.2085005,0.454125 7.716711,7.716711 0 0 0 0.6375899,1.143734 7.716711,7.716711 0 0 0 0.6026233,0.779394 0.66305783,0.66305783 0 0 0 0.4787317,0.224688 1.9616934,1.9616934 0 0 1 1.8003161,1.327412 0.66305783,0.66305783 0 0 0 0.3563501,0.39067 7.716711,7.716711 0 0 0 0.9224977,0.345345 7.716711,7.716711 0 0 0 1.2995683,0.273251 0.33152891,0.33152891 0 0 0 0.372107,-0.333254 l -0.00367,-0.275628 A 0.66305783,0.66305783 0 0 0 9.2172095,18.107686 6.5028439,6.5028439 0 0 1 8.9730949,18.06128 0.33152891,0.33152891 0 0 1 8.7378304,17.605859 L 9.658385,15.470776 a 0.01322267,0.01322267 0 0 0 -0.00432,-0.01576 l -0.0095,-0.0052 A 3.9358375,3.9358375 0 0 1 6.9571507,13.468441 Z m 9.1669129,3.977272 a 1.4218906,1.4218906 0 0 0 -1.190355,2.268687 1.4218906,1.4218906 0 0 0 2.282933,-1.695417 1.4218906,1.4218906 0 0 0 -1.092578,-0.57327 z m -11.1437856,0.02332 a 1.4218906,1.4218906 0 0 0 -1.0906361,0.577157 1.4218906,1.4218906 0 1 0 2.2889762,1.687432 1.4218906,1.4218906 0 0 0 -1.1983401,-2.264589 z"
     style="fill:#000000;fill-opacity:1;stroke:none;stroke-width:0.0353632;stroke-linecap:round;stroke-linejoin:round" />
</svg>