<?xml version="1.0" encoding="UTF-8" standalone="no"?>
<svg width="21" height="21" viewBox="0 0 21 21" xmlns="http://www.w3.org/2000/svg">
  <path
     d="m 18.869255,6.7393052 a 0.10634869,0.10634869 0 0 0 -0.05061,-0.1928704 0.88876963,0.88876963 0 0 1 -0.771207,-0.6543482 0.10634869,0.10634869 0 0 0 -0.1882,-0.035712 31.480981,31.480981 0 0 0 -0.973378,1.3932367 0.10634869,0.10634869 0 0 0 -0.01205,0.024755 0.48389816,0.48389816 0 0 0 0.289764,0.6067841 0.10634869,0.10634869 0 0 0 0.09839,-0.012562 z m -2.283686,0.3256355 a 0.10634869,0.10634869 0 0 0 -0.143843,-0.093114 13.659916,13.659916 0 0 0 -1.718339,0.7909056 0.10634869,0.10634869 0 0 0 -0.02621,0.020236 0.44447927,0.44447927 0 0 0 0.115029,0.6987037 0.10634869,0.10634869 0 0 0 0.04873,0.012298 12.666119,12.666119 0 0 0 2.019309,-0.1433997 0.10634869,0.10634869 0 0 0 0.07328,-0.1629624 2.3184167,2.3184167 0 0 1 -0.367883,-1.1226669 z m -2.127206,0.5624632 a 0.10634869,0.10634869 0 0 0 -0.122236,-0.1266375 21.658893,21.658893 0 0 1 -1.66383,0.2224954 0.10634869,0.10634869 0 0 0 -0.07864,0.047114 0.61563984,0.61563984 0 0 0 0.0038,0.6859206 0.10634869,0.10634869 0 0 0 0.06944,0.045073 l 1.699707,0.3017079 A 0.10634869,0.10634869 0 0 0 14.487839,8.6705752 2.2343152,2.2343152 0 0 1 14.458167,7.6274047 Z M 2.1307098,6.7393052 3.7377456,7.8684593 A 0.10634869,0.10634869 0 0 0 3.8361332,7.881021 0.48389816,0.48389816 0 0 0 4.1254074,7.273575 0.10634869,0.10634869 0 0 0 4.1133503,7.2488205 31.480981,31.480981 0 0 0 3.140042,5.8568444 0.10634869,0.10634869 0 0 0 2.9518402,5.8925565 0.88876963,0.88876963 0 0 1 2.1814599,6.5461765 0.10634869,0.10634869 0 0 0 2.1308213,6.7390461 Z M 4.4143917,7.0649407 A 2.3184167,2.3184167 0 0 1 4.046465,8.1870465 0.10634869,0.10634869 0 0 0 4.1197268,8.3500089 12.666119,12.666119 0 0 0 6.138434,8.4943568 0.10634869,0.10634869 0 0 0 6.1871297,8.4820586 0.44447927,0.44447927 0 0 0 6.303368,7.7824693 0.10634869,0.10634869 0 0 0 6.277145,7.7622334 13.659916,13.659916 0 0 0 4.5581831,6.9719001 0.10634869,0.10634869 0 0 0 4.414339,7.0650137 Z M 6.5415992,7.6274039 A 2.2343152,2.2343152 0 0 1 6.5119948,8.670567 0.10634869,0.10634869 0 0 0 6.6332616,8.8030701 L 8.333302,8.5014058 a 0.10634869,0.10634869 0 0 0 0.069444,-0.045073 0.61563984,0.61563984 0 0 0 0.00384,-0.6851418 0.10634869,0.10634869 0 0 0 -0.078644,-0.047114 21.658893,21.658893 0 0 1 -1.6637213,-0.223546 0.10634869,0.10634869 0 0 0 -0.1222421,0.1266375 z m 8.6413388,7.8476931 a 0.41225821,0.41225821 0 0 0 0.04089,0.0183 2.6814658,2.6814658 0 0 1 -0.04089,-0.0183 z m 0,0 a 0.41225821,0.41225821 0 0 1 -0.226955,-0.3933 0.10634869,0.10634869 0 0 1 0.0935,-0.09923 1.0423332,1.0423332 0 0 1 0.27443,0.003 0.05317441,0.05317441 0 0 0 0.03811,-0.09624 l -1.23069,-0.858115 a 0.10634869,0.10634869 0 0 0 -0.05279,-0.01883 0.18452716,0.18452716 0 0 0 -0.188253,0.242935 0.10634869,0.10634869 0 0 0 0.0068,0.01567 2.6814658,2.6814658 0 0 0 1.285998,1.203752 z m -1.144656,-1.61832 a 0.10634869,0.10634869 0 0 0 0.04602,-0.165373 5.9609181,5.9609181 0 0 0 -0.728318,-0.772058 0.10634869,0.10634869 0 0 0 -0.09628,-0.02357 0.49292435,0.49292435 0 0 0 -0.250497,0.154673 0.10634869,0.10634869 0 0 0 -0.01228,0.122627 l 0.515529,0.906435 a 0.10634869,0.10634869 0 0 0 0.171293,0.0186 0.91004455,0.91004455 0 0 1 0.354523,-0.241354 z m -1.271531,-2.13143 a 0.10634869,0.10634869 0 0 0 -0.170525,-0.02048 l -0.145243,0.15581 a 0.10634869,0.10634869 0 0 0 -0.02282,0.107106 21.613501,21.613501 0 0 0 0.332924,0.902224 0.10634869,0.10634869 0 0 0 0.178787,0.03118 0.65971632,0.65971632 0 0 1 0.220154,-0.163725 0.10634869,0.10634869 0 0 0 0.05204,-0.141304 12.61069,12.61069 0 0 0 -0.445333,-0.870843 z m 3.426933,2.120157 a 0.41225821,0.41225821 0 0 0 0.04368,0.0084 2.6814658,2.6814658 0 0 1 -0.04368,-0.0084 z m 0,0 a 0.41225821,0.41225821 0 0 1 -0.310135,-0.332684 0.10634869,0.10634869 0 0 1 0.06876,-0.117717 1.0423332,1.0423332 0 0 1 0.268134,-0.05852 0.05317441,0.05317441 0 0 0 0.01551,-0.102339 l -1.391324,-0.558798 a 0.10634869,0.10634869 0 0 0 -0.05565,-0.0068 0.18452716,0.18452716 0 0 0 -0.128991,0.279921 0.10634869,0.10634869 0 0 0 0.01002,0.01371 2.6814658,2.6814658 0 0 0 1.523715,0.88284 z M 14.71493,12.526045 a 0.10634869,0.10634869 0 0 0 0.0076,-0.171496 5.9609181,5.9609181 0 0 0 -0.883058,-0.588324 0.10634869,0.10634869 0 0 0 -0.09912,-0.0015 0.49292435,0.49292435 0 0 0 -0.211004,0.207118 0.10634869,0.10634869 0 0 0 0.01559,0.122251 l 0.707547,0.767254 a 0.10634869,0.10634869 0 0 0 0.171083,-0.02041 0.91004455,0.91004455 0 0 1 0.291292,-0.315113 z m -1.719815,-1.790298 a 0.10634869,0.10634869 0 0 0 -0.170759,0.01838 l -0.10554,0.183185 a 0.10634869,0.10634869 0 0 0 0.0023,0.109493 21.613501,21.613501 0 0 0 0.528151,0.805391 0.10634869,0.10634869 0 0 0 0.181234,-0.0098 0.65971632,0.65971632 0 0 1 0.176828,-0.208692 0.10634869,0.10634869 0 0 0 0.0189,-0.149385 12.61069,12.61069 0 0 0 -0.630716,-0.748584 z m 4.513795,1.270123 a 0.47230072,0.47230072 0 0 0 0.05076,-0.0084 3.0720037,3.0720037 0 0 1 -0.05076,0.0084 z m 0,0 a 0.47230072,0.47230072 0 0 1 -0.47224,-0.250919 0.10634869,0.10634869 0 0 1 0.02523,-0.130046 1.1941402,1.1941402 0 0 1 0.306061,-0.189955 0.05317441,0.05317441 0 0 0 -0.01913,-0.102045 l -1.754232,-0.05867 a 0.10634869,0.10634869 0 0 0 -0.05061,0.01092 0.21140131,0.21140131 0 0 0 -0.03539,0.356986 0.10634869,0.10634869 0 0 0 0.01303,0.0087 3.0720037,3.0720037 0 0 0 1.98728,0.355057 z m -2.097601,-0.857084 a 0.10634869,0.10634869 0 0 0 -0.04993,-0.16523 6.8290838,6.8290838 0 0 0 -1.208873,-0.294328 0.10634869,0.10634869 0 0 0 -0.09216,0.03133 0.56471514,0.56471514 0 0 0 -0.154544,0.325333 0.10634869,0.10634869 0 0 0 0.05686,0.106993 l 1.090658,0.564021 a 0.10634869,0.10634869 0 0 0 0.154085,-0.07964 1.0425855,1.0425855 0 0 1 0.203971,-0.488463 z M 12.942955,9.8702062 a 0.10634869,0.10634869 0 0 0 -0.160042,0.06206 l -0.07117,0.2635858 a 0.10634869,0.10634869 0 0 0 0.03012,0.105246 24.761317,24.761317 0 0 0 0.849515,0.758886 0.10634869,0.10634869 0 0 0 0.173108,-0.0595 0.75579875,0.75579875 0 0 1 0.146885,-0.31686 0.10634869,0.10634869 0 0 0 -0.01913,-0.150628 14.447392,14.447392 0 0 0 -0.949323,-0.6627528 z m 5.671148,-0.114185 a 0.54180784,0.54180784 0 0 0 0.05219,-0.028166 3.5240882,3.5240882 0 0 1 -0.05219,0.028166 z m 0,0 a 0.54180784,0.54180784 0 0 1 -0.617438,-0.095855 0.10634869,0.10634869 0 0 1 -0.01905,-0.1278467 1.3698766,1.3698766 0 0 1 0.288333,-0.3599077 0.05317441,0.05317441 0 0 0 -0.05189,-0.090252 l -1.952674,0.6386159 a 0.10634869,0.10634869 0 0 0 -0.04157,0.025303 0.24251295,0.24251295 0 0 0 0.09797,0.4046193 0.10634869,0.10634869 0 0 0 0.01431,0.003 3.5240882,3.5240882 0 0 0 2.282074,-0.3980823 z M 16.013241,9.6559339 a 0.10634869,0.10634869 0 0 0 -0.102618,-0.1398662 7.834087,7.834087 0 0 0 -1.449436,0.1581892 0.10634869,0.10634869 0 0 0 -0.07516,0.059495 0.64782143,0.64782143 0 0 0 -0.03909,0.4339071 0.10634869,0.10634869 0 0 0 0.08948,0.07903 l 1.430157,0.18317 A 0.10634869,0.10634869 0 0 0 15.98375,10.300558 1.1960194,1.1960194 0 0 1 16.0132,9.6559479 Z M 12.848508,9.0892393 a 0.10634869,0.10634869 0 0 0 -0.138397,0.1014052 l 2.56e-4,0.3454632 a 0.10634869,0.10634869 0 0 0 0.05633,0.093844 28.405341,28.405341 0 0 0 1.198299,0.6025423 0.10634869,0.10634869 0 0 0 0.151509,-0.105254 0.86702673,0.86702673 0 0 1 0.07403,-0.4304279 0.10634869,0.10634869 0 0 0 -0.05663,-0.1421029 16.573471,16.573471 0 0 0 -1.285351,-0.4654701 z M 5.8170234,15.475097 a 2.6814658,2.6814658 0 0 1 -0.040878,0.0183 0.41225821,0.41225821 0 0 0 0.040878,-0.0183 z m 0,0 a 2.6814658,2.6814658 0 0 0 1.285629,-1.203872 0.10634869,0.10634869 0 0 0 0.0067,-0.01559 0.18452716,0.18452716 0 0 0 -0.1885295,-0.242349 0.10634869,0.10634869 0 0 0 -0.0528,0.01883 l -1.2300063,0.858025 a 0.05317441,0.05317441 0 0 0 0.0381,0.09623 1.0423332,1.0423332 0 0 1 0.27485,-0.0045 0.10634869,0.10634869 0 0 1 0.093497,0.09923 0.41225821,0.41225821 0 0 1 -0.2274167,0.394167 z m 1.144661,-1.61832 a 0.91004455,0.91004455 0 0 1 0.3538294,0.241061 0.10634869,0.10634869 0 0 0 0.1712894,-0.0186 l 0.5166354,-0.906127 a 0.10634869,0.10634869 0 0 0 -0.012276,-0.122635 0.49292435,0.49292435 0 0 0 -0.2513329,-0.153663 0.10634869,0.10634869 0 0 0 -0.096288,0.02357 5.9609181,5.9609181 0 0 0 -0.7283754,0.770077 0.10634869,0.10634869 0 0 0 0.04603,0.165374 z m 1.2715318,-2.13143 a 12.61069,12.61069 0 0 0 -0.4454587,0.871181 0.10634869,0.10634869 0 0 0 0.052032,0.141305 0.65971632,0.65971632 0 0 1 0.220034,0.163182 0.10634869,0.10634869 0 0 0 0.178791,-0.03118 21.613501,21.613501 0 0 0 0.3329226,-0.901999 0.10634869,0.10634869 0 0 0 -0.022789,-0.107106 L 8.4037879,11.70423 A 0.10634869,0.10634869 0 0 0 8.2332666,11.72471 Z M 4.806283,13.845504 a 2.6814658,2.6814658 0 0 1 -0.043703,0.0084 0.41225821,0.41225821 0 0 0 0.043703,-0.0084 z m 0,0 a 2.6814658,2.6814658 0 0 0 1.5238646,-0.883872 0.10634869,0.10634869 0 0 0 0.010024,-0.01371 0.18452716,0.18452716 0 0 0 -0.1298454,-0.278091 0.10634869,0.10634869 0 0 0 -0.055677,0.0068 l -1.3906529,0.55884 a 0.05317441,0.05317441 0 0 0 0.015476,0.102339 1.0423332,1.0423332 0 0 1 0.2678726,0.05837 0.10634869,0.10634869 0 0 1 0.068781,0.11771 0.41225821,0.41225821 0 0 1 -0.3098347,0.331975 z m 1.4787545,-1.319459 a 0.91004455,0.91004455 0 0 1 0.2918039,0.314353 0.10634869,0.10634869 0 0 0 0.1710876,0.02041 l 0.7071437,-0.766109 a 0.10634869,0.10634869 0 0 0 0.015627,-0.122251 0.49292435,0.49292435 0 0 0 -0.2115691,-0.207615 0.10634869,0.10634869 0 0 0 -0.099122,0.0015 5.9609181,5.9609181 0 0 0 -0.8820156,0.58794 0.10634869,0.10634869 0 0 0 0.00765,0.171496 z m 1.7198101,-1.790298 a 12.61069,12.61069 0 0 0 -0.6301272,0.748539 0.10634869,0.10634869 0 0 0 0.01891,0.149393 0.65971632,0.65971632 0 0 1 0.177032,0.20867 0.10634869,0.10634869 0 0 0 0.1812296,0.0098 21.613501,21.613501 0 0 0 0.5278391,-0.804871 0.10634869,0.10634869 0 0 0 0.00188,-0.109486 L 8.1754118,10.754055 A 0.10634869,0.10634869 0 0 0 8.0046526,10.735675 Z M 3.4910511,12.00587 a 3.0720037,3.0720037 0 0 1 -0.050752,-0.0084 0.47230072,0.47230072 0 0 0 0.050752,0.0084 z m 0,0 a 3.0720037,3.0720037 0 0 0 1.9876493,-0.355239 0.10634869,0.10634869 0 0 0 0.013044,-0.0087 0.21140131,0.21140131 0 0 0 -0.035599,-0.356466 0.10634869,0.10634869 0 0 0 -0.050586,-0.01092 l -1.7552163,0.05746 a 0.05317441,0.05317441 0 0 0 -0.019151,0.102038 1.1941402,1.1941402 0 0 1 0.3067229,0.191175 0.10634869,0.10634869 0 0 1 0.025214,0.130046 0.47230072,0.47230072 0 0 1 -0.4720815,0.250565 z m 2.0976045,-0.857084 a 1.0425855,1.0425855 0 0 1 0.2044033,0.487747 0.10634869,0.10634869 0 0 0 0.1540924,0.07964 L 7.0378072,11.15301 A 0.10634869,0.10634869 0 0 0 7.0946362,11.046024 0.56471514,0.56471514 0 0 0 6.9405417,10.72024 0.10634869,0.10634869 0 0 0 6.8483877,10.68891 6.8290838,6.8290838 0 0 0 5.6379975,10.983832 0.10634869,0.10634869 0 0 0 5.5880295,11.149063 Z M 8.057006,9.8702062 a 14.447392,14.447392 0 0 0 -0.9487152,0.6625498 0.10634869,0.10634869 0 0 0 -0.019129,0.150636 0.75579875,0.75579875 0 0 1 0.1474101,0.315964 0.10634869,0.10634869 0 0 0 0.1731111,0.0595 24.761317,24.761317 0 0 0 0.8489073,-0.75732 0.10634869,0.10634869 0 0 0 0.030132,-0.105246 L 8.2177123,9.9321992 A 0.10634869,0.10634869 0 0 0 8.057665,9.8701392 Z M 2.3858618,9.7560212 a 3.5240882,3.5240882 0 0 1 -0.05216,-0.028166 0.54180784,0.54180784 0 0 0 0.05216,0.028166 z m 0,0 a 3.5240882,3.5240882 0 0 0 2.2822728,0.3975328 0.10634869,0.10634869 0 0 0 0.014294,-0.003 0.24251295,0.24251295 0 0 0 0.098479,-0.4040238 0.10634869,0.10634869 0 0 0 -0.041579,-0.025304 L 2.7862096,9.0825818 a 0.05317441,0.05317441 0 0 0 -0.051896,0.090259 1.3698766,1.3698766 0 0 1 0.2887199,0.3594333 0.10634869,0.10634869 0 0 1 -0.019076,0.1278391 0.54180784,0.54180784 0 0 1 -0.6180969,0.0963 z m 2.60086,-0.1000873 a 1.1960194,1.1960194 0 0 1 0.029605,0.6442261 0.10634869,0.10634869 0 0 0 0.1171707,0.1293 L 6.5641554,10.246592 A 0.10634869,0.10634869 0 0 0 6.653636,10.167561 0.64782143,0.64782143 0 0 0 6.6134957,9.7334658 0.10634869,0.10634869 0 0 0 6.5383737,9.6739707 7.834087,7.834087 0 0 0 5.088222,9.5149456 0.10634869,0.10634869 0 0 0 4.9856042,9.6548118 Z m 3.164733,-0.5666946 a 16.573471,16.573471 0 0 0 -1.2842193,0.465199 0.10634869,0.10634869 0 0 0 -0.056663,0.1421029 0.86702673,0.86702673 0 0 1 0.07217,0.4316328 0.10634869,0.10634869 0 0 0 0.1515039,0.105254 28.405341,28.405341 0 0 0 1.1989704,-0.6042744 0.10634869,0.10634869 0 0 0 0.05631,-0.093844 l 7.6e-5,-0.3445671 A 0.10634869,0.10634869 0 0 0 8.1512011,9.0893372 Z M 10.492934,2.1550245 9.8543489,3.1121975 9.4286249,2.8993353 9.7486229,3.5379204 A 0.80799637,0.80799637 0 0 0 8.7914497,4.8136814 3.9737903,3.9737903 0 0 0 8.5785875,7.3666125 0.83453924,0.83453924 0 0 0 9.6414871,7.1537511 1.4984056,1.4984056 0 0 0 10.492934,8.4295116 l 0.0071,-0.032421 0.0071,0.032421 a 1.4984056,1.4984056 0 0 0 0.851448,-1.2757605 0.83453924,0.83453924 0 0 0 1.062899,0.2128614 3.9737903,3.9737903 0 0 0 -0.212865,-2.5529311 0.80799637,0.80799637 0 0 0 -0.95717,-1.275761 l 0.319993,-0.6385851 -0.425721,0.2128622 -0.638585,-0.957173 -0.0071,0.025372 z M 8.9042238,4.2258449 a 0.47858655,0.47858655 0 0 1 0.9571731,0 0.47858655,0.47858655 0 1 1 -0.9571731,0 z m 2.2343422,0 a 0.47858649,0.47858649 0 0 1 0.957171,0 0.47858649,0.47858649 0 1 1 -0.957171,0 z M 9.6865965,17.877193 a 44.591996,44.591996 0 0 0 -0.2466939,0.07471 l -0.01269,0.0045 a 44.591996,44.591996 0 0 0 -1.1813122,0.382019 0.41688759,0.41688759 0 0 0 -0.2551519,0.425729 0.9999046,0.9999046 0 0 0 0.8500374,0.510302 1.3059687,1.3059687 0 0 0 0.042287,0.510303 0.38463974,0.38463974 0 0 0 0.5103046,0.297445 0.49766087,0.49766087 0 0 0 0.4257224,-0.169162 0.78001981,0.78001981 0 0 0 0.6808761,0.424313 0.78001981,0.78001981 0 0 0 0.680877,-0.424313 0.49766087,0.49766087 0 0 0 0.425721,0.169162 0.38463974,0.38463974 0 0 0 0.510303,-0.297445 1.3059687,1.3059687 0 0 0 0.04232,-0.510303 0.9999046,0.9999046 0 0 0 0.850034,-0.510302 0.41688759,0.41688759 0 0 0 -0.255151,-0.425729 3.8615657,3.8615657 0 0 0 -0.765453,-0.212857 5.4609044,5.4609044 0 0 0 -1.222195,-0.449692 h -0.53286 a 1.5938692,1.5938692 0 0 0 -0.5469555,0.20159 z M 12.23107,12.573973 A 1.0345151,1.0345151 0 0 0 12.20147,12.492203 12.398816,12.398816 0 0 0 12.498918,9.3021037 9.2264426,9.2264426 0 0 0 12.201473,7.6852008 0.77676347,0.77676347 0 0 1 11.478306,7.4723383 1.2595171,1.2595171 0 0 1 10.49999,8.604312 1.2595171,1.2595171 0 0 1 9.5216715,7.4723383 0.77676347,0.77676347 0 0 1 8.7985055,7.6852008 9.2264426,9.2264426 0 0 0 8.5010631,9.3021037 a 12.398816,12.398816 0 0 0 0.2974424,3.1901043 1.0345151,1.0345151 0 0 0 -0.029604,0.08177 h 0.015506 a 1.0345151,1.0345151 0 0 1 0.014098,-0.03668 3.5416527,3.5416527 0 0 1 3.4029675,0 1.0345151,1.0345151 0 0 1 0.01408,0.03668 z m -2.5444735,5.104454 a 1.5938692,1.5938692 0 0 1 1.6267725,0 0.52045399,0.52045399 0 0 0 0.04225,-0.470833 1.7817655,1.7817655 0 0 0 -1.7113497,0 0.52045399,0.52045399 0 0 0 0.042294,0.470833 z M 9.4934708,17.117373 a 1.9733552,1.9733552 0 0 1 2.0130242,0 0.64437195,0.64437195 0 0 0 0.05354,-0.58361 2.2059948,2.2059948 0 0 0 -2.12016,0 0.64437195,0.64437195 0 0 0 0.053568,0.58361 z M 9.3764673,16.394206 a 2.2010468,2.2010468 0 0 1 2.2470297,0 0.71872272,0.71872272 0 0 0 0.05919,-0.651276 2.4605406,2.4605406 0 0 0 -2.3654444,0 0.71872272,0.71872272 0 0 0 0.059209,0.651276 z M 9.1833409,15.632977 a 2.5805468,2.5805468 0 0 1 2.6332811,0 0.84264067,0.84264067 0 0 0 0.06906,-0.762636 2.8847699,2.8847699 0 0 0 -2.7714307,0 0.84264067,0.84264067 0 0 0 0.069075,0.762636 z M 8.9902146,14.73924 a 2.9600328,2.9600328 0 0 1 3.0195334,0 0.96655865,0.96655865 0 0 0 0.08036,-0.873998 3.3089992,3.3089992 0 0 0 -3.180241,0 0.96655865,0.96655865 0 0 0 0.080352,0.873998 z M 8.8830789,13.718636 a 3.1681438,3.1681438 0 0 1 3.2338051,0 1.0345151,1.0345151 0 0 0 0.08458,-0.936031 3.5416527,3.5416527 0 0 0 -3.402967,0 1.0345151,1.0345151 0 0 0 0.084582,0.936031 z M 12.731506,3.7507825 a 4.694433,4.694433 0 0 0 4.254412,1.5943483 0.57850463,0.57850463 0 0 0 0.190309,-1.0389344 13.522628,13.522628 0 0 1 -4.444721,-0.5554139 z m 0,-1.0643086 a 11.074068,11.074068 0 0 1 3.084385,0.638585 4.853304,4.853304 0 0 1 1.701477,1.0840445 0.83558523,0.83558523 0 0 1 -0.04225,1.0643086 l 0.679464,0.1917166 a 0.66295858,0.66295858 0 0 0 0.638586,0.7443109 1.1462985,1.1462985 0 0 0 1.170035,-0.6385851 2.4934003,2.4934003 0 0 0 -1.3829,-2.7643835 7.1854932,7.1854932 0 0 0 -5.84876,-0.319997 z m 6.913075,-0.957173 a 7.3314375,7.3314375 0 0 0 -8.508831,0.638585 0.2380936,0.2380936 0 0 0 0.212857,0.4257236 7.2546381,7.2546381 0 0 1 8.295974,-1.0643086 z M 8.2684584,3.7507825 A 13.522628,13.522628 0 0 1 3.8237356,4.3061964 0.57850463,0.57850463 0 0 0 4.0140424,5.3451308 4.694433,4.694433 0 0 0 8.2684584,3.7507825 Z m 0,-1.0643086 A 7.1854932,7.1854932 0 0 0 2.4196941,3.0064709 2.4934003,2.4934003 0 0 0 1.0367975,5.7708544 1.1462985,1.1462985 0 0 0 2.2068327,6.4094395 0.66295858,0.66295858 0 0 0 2.8454177,5.6651286 L 3.5248835,5.473412 A 0.83558523,0.83558523 0 0 1 3.4825967,4.4091034 4.853304,4.853304 0 0 1 5.1840814,3.3250589 11.074068,11.074068 0 0 1 8.2684621,2.6864739 Z M 1.3553855,1.7293009 A 7.2546381,7.2546381 0 0 1 9.651355,2.7936095 0.2380936,0.2380936 0 0 0 9.8642169,2.3678859 7.3314375,7.3314375 0 0 0 1.3553855,1.7293009 Z"
     class="st2"
     id="path3"
     style="fill:#000000;fill-opacity:1;stroke:none;stroke-width:0.0338324;stroke-linecap:round;stroke-linejoin:round" />
</svg>