<?xml version="1.0" encoding="UTF-8" standalone="no"?>
<svg width="21" height="21" viewBox="0 0 21 21" xmlns="http://www.w3.org/2000/svg">
  <path
     id="path8"
     style="fill:#000000;stroke-width:0"
     d="m 16.000053,1.8856311 c -0.328146,-0.00244 -0.634867,0.1074631 -0.860493,0.3359494 -0.758952,0.877072 -0.04776,1.814676 0.612004,2.4662517 H 0.81043029 V 9.987164 H 3.4600961 V 7.3374974 H 15.751564 c -0.711585,0.630296 -1.315974,1.5947746 -0.612004,2.4662517 0.225626,0.2284859 0.532347,0.3383809 0.860493,0.3359489 0.421902,-0.0031 0.879194,-0.1919815 1.245352,-0.5535596 0.79096,-0.7796489 1.585258,-1.555666 2.374649,-2.336928 0.187753,-0.1854025 0.32886,-0.3955688 0.424439,-0.6130393 0.101789,-0.1861821 0.14946,-0.4001765 0.144664,-0.6236095 0.0051,-0.2233592 -0.04289,-0.4372775 -0.144664,-0.6234032 C 19.962937,5.2035961 19.846107,5.0243411 19.697566,4.8602624 18.590051,3.766689 19.293247,4.4614394 17.245405,2.4391912 16.879247,2.0776142 16.421955,1.8887572 16.000053,1.8856311 Z M 4.9999486,10.8603 C 4.578046,10.8634 4.120756,11.05228 3.7545951,11.413858 2.963634,12.193509 2.169336,12.969526 1.3799478,13.75079 c -0.1877525,0.185401 -0.3288592,0.395568 -0.4244441,0.613035 -0.1017779,0.186183 -0.14945541,0.400181 -0.14465889,0.623614 -0.004757,0.223357 0.042913,0.437275 0.14465889,0.623401 0.081463,0.185339 0.1980246,0.364352 0.3463115,0.528272 1.1075716,1.093636 0.4044485,0.398962 2.4527799,2.421694 0.3661609,0.361576 0.8234526,0.550436 1.2453535,0.553561 0.3281469,0.0025 0.6348684,-0.107465 0.8604941,-0.335949 0.7589488,-0.877074 0.047746,-1.814673 -0.6120033,-2.466251 H 20.18957 v -5.299332 h -2.649666 v 2.649664 H 5.2484394 C 5.96002,13.032202 6.5644093,12.067726 5.8604427,11.196247 5.634817,10.967762 5.3280943,10.857867 4.9999486,10.8603 Z" />
</svg>