<?xml version="1.0" encoding="UTF-8" standalone="no"?>
<svg width="21" height="21" viewBox="0 0 21 21" xmlns="http://www.w3.org/2000/svg">
  <path
     id="dashboard"
     d="M 2.5,1 C 1.6776486,1 1,1.6776486 1,2.5 v 7 C 1,10.322351 1.6776486,11 2.5,11 h 5 C 8.3223514,11 9,10.322351 9,9.5 v -7 C 9,1.6776486 8.3223514,1 7.5,1 Z m 11,0 C 12.677649,1 12,1.6776486 12,2.5 v 3 C 12,6.3223514 12.677649,7 13.5,7 h 5 C 19.322351,7 20,6.3223514 20,5.5 v -3 C 20,1.6776486 19.322351,1 18.5,1 Z m -11,1 h 5 C 7.7856486,2 8,2.2143514 8,2.5 v 7 C 8,9.7856486 7.7856486,10 7.5,10 h -5 C 2.2143514,10 2,9.7856486 2,9.5 v -7 C 2,2.2143514 2.2143514,2 2.5,2 Z m 11,0 h 5 C 18.785649,2 19,2.2143514 19,2.5 v 3 C 19,5.7856486 18.785649,6 18.5,6 h -5 C 13.214351,6 13,5.7856486 13,5.5 v -3 C 13,2.2143514 13.214351,2 13.5,2 Z m 0,8 C 12.677649,10 12,10.677649 12,11.5 v 7 c 0,0.822351 0.677649,1.5 1.5,1.5 h 5 c 0.822351,0 1.5,-0.677649 1.5,-1.5 v -7 C 20,10.677649 19.322351,10 18.5,10 Z m 0,1 h 5 c 0.285649,0 0.5,0.214351 0.5,0.5 v 7 c 0,0.285649 -0.214351,0.5 -0.5,0.5 h -5 C 13.214351,19 13,18.785649 13,18.5 v -7 C 13,11.214351 13.214351,11 13.5,11 Z m -11,3 C 1.6776486,14 1,14.677649 1,15.5 v 3 C 1,19.322351 1.6776486,20 2.5,20 h 5 C 8.3223514,20 9,19.322351 9,18.5 v -3 C 9,14.677649 8.3223514,14 7.5,14 Z m 0,1 h 5 C 7.7856486,15 8,15.214351 8,15.5 v 3 C 8,18.785649 7.7856486,19 7.5,19 h -5 C 2.2143514,19 2,18.785649 2,18.5 v -3 C 2,15.214351 2.2143514,15 2.5,15 Z"
     style="fill:#000000" />
</svg>
