<?xml version="1.0" encoding="UTF-8" standalone="no"?>
<svg width="21" height="21" viewBox="0 0 21 21" xmlns="http://www.w3.org/2000/svg">
  <path
     d="m 1.5079688,13.640941 h -0.089533 v 3.010313 1.890424 a 9.0961822,2.4078214 0 0 0 9.0808302,2.188379 9.0961822,2.4078214 0 0 0 9.082298,-2.188379 v -1.890424 -3.010313 h -0.08953 -0.0455 a 9.0961822,2.4078214 0 0 1 -8.9458,2.006387 9.0961822,2.4078214 0 0 1 -8.9472669,-2.006387 z m 0,-6.4213041 h -0.089533 v 3.0103131 1.890425 a 9.0961822,2.4078214 0 0 0 9.0822972,2.189842 9.0961822,2.4078214 0 0 0 9.080831,-2.189842 V 10.22995 7.2196369 h -0.08953 -0.0455 A 9.0961822,2.4078214 0 0 1 10.500733,9.2260245 9.0961822,2.4078214 0 0 1 1.5534666,7.2196369 Z M 19.581564,5.6873187 V 2.4715338 A 9.0961822,2.4078214 0 0 0 10.500733,0.2699399 9.0961822,2.4078214 0 0 0 1.4184363,2.4715338 v 3.2157849 a 9.0961822,2.4078214 0 0 0 9.0822967,2.201594 9.0961822,2.4078214 0 0 0 9.080831,-2.201594 z"
     class="st2"
     id="path3"
     style="fill:#000000;fill-opacity:1;stroke:none;stroke-width:0.110079;stroke-linecap:round;stroke-linejoin:round" />
</svg>