<?xml version="1.0" encoding="UTF-8" standalone="no"?>
<svg width="21" height="21" viewBox="0 0 21 21" xmlns="http://www.w3.org/2000/svg">
  <path
     id="del-column"
     style="fill:#000000;stroke-width:0"
     d="m 2.3462229,14.653777 c 0.0016,-0.257217 0.100511,-0.514574 0.298828,-0.712891 L 13.941925,2.6440112 c 0.396634,-0.3966338 1.030138,-0.3995496 1.421875,-0.00781 0.391737,0.3917371 0.388822,1.0252411 -0.0078,1.421875 L 4.0591129,15.354949 c -0.396634,0.396634 -1.030138,0.399549 -1.421875,0.0078 -0.195868,-0.195868 -0.292613,-0.451767 -0.291015,-0.708984 z M 5.0005199,0.99947999 c 0,-1.00000000477 0,-1.00000000477 1,-1.00000000477 h 5.9999991 c 0.908283,0 0.990406,0.008499355 0.998047,0.75781250477 L 11.000519,2.7553394 V 1.99948 H 7.0005199 v 4.7558594 l -2,2 z m 0.002,16.24218801 1.998047,-1.998047 v 0.755859 h 3.9999521 v -4.755859 l 2,-2.0000004 V 16.99948 c 0,0.875 -0.330078,0.98637 -1,1 -2.1099912,0.0044 -3.8899846,-10e-4 -5.9999991,0 -0.908283,0 -0.990407,-0.0085 -0.998047,-0.757812 z" />
</svg>