<?xml version="1.0" encoding="UTF-8" standalone="no"?>
<svg width="21" height="21" viewBox="0 0 21 21" xmlns="http://www.w3.org/2000/svg">
  <path
     id="del-row"
     style="fill:#000000;stroke-width:0"
     d="M 14.654297 2.3457031 C 14.39708 2.3473007 14.139723 2.4462143 13.941406 2.6445312 L 2.6445312 13.941406 C 2.2478974 14.33804 2.2449816 14.971544 2.6367188 15.363281 C 3.0284559 15.755018 3.6619599 15.752103 4.0585938 15.355469 L 15.355469 4.0585938 C 15.752103 3.6619599 15.755018 3.0284559 15.363281 2.6367188 C 15.167413 2.4408502 14.911514 2.3441055 14.654297 2.3457031 z M 1 5 C 0 5 0 5 0 6 L 0 12 C 0 12.908283 0.0084993505 12.990406 0.7578125 12.998047 L 2.7558594 11 L 2 11 L 2 7 L 6.7558594 7 L 8.7558594 5 L 1 5 z M 17.242188 5.0019531 L 15.244141 7 L 16 7 L 16 11 L 11.244141 11 L 9.2441406 13 L 17 13 C 17.875 13 17.98637 12.669922 18 12 C 18.0044 9.8900084 17.999 8.110015 18 6 C 18 5.0917171 17.991501 5.0095936 17.242188 5.0019531 z " />
</svg>