<?xml version="1.0" encoding="UTF-8" standalone="no"?>
<svg width="21" height="21" viewBox="0 0 21 21" xmlns="http://www.w3.org/2000/svg">
  <path
     id="del-table"
     style="fill:#000000;stroke-width:0;fill-opacity:1"
     d="M 0 0 L 0 5 L 5 5 L 5 0 L 0 0 z M 6 0 L 6 5 L 8.7558594 5 L 11.962891 1.7929688 L 11.962891 0 L 6 0 z M 13 0 L 13 0.75585938 L 13.755859 0 L 13 0 z M 16.070312 0.92773438 C 15.814693 0.92773437 15.55915 1.0267877 15.363281 1.2226562 L 1.2226562 15.363281 C 0.83091909 15.755018 0.83091909 16.385607 1.2226562 16.777344 C 1.6143934 17.169081 2.2449816 17.169081 2.6367188 16.777344 L 16.777344 2.6367188 C 17.169081 2.2449816 17.169081 1.6143934 16.777344 1.2226562 C 16.581475 1.0267877 16.325932 0.92773438 16.070312 0.92773438 z M 18 4.2441406 L 17.244141 5 L 18 5 L 18 4.2441406 z M 6 5.9628906 L 6 7.7558594 L 7.7929688 5.9628906 L 6 5.9628906 z M 0 6 L 0 11.962891 L 1.7929688 11.962891 L 5 8.7558594 L 5 6 L 0 6 z M 16.207031 6.0371094 L 13 9.2441406 L 13 12 L 18 12 L 18 6.0371094 L 16.207031 6.0371094 z M 12 10.244141 L 10.244141 12 L 12 12 L 12 10.244141 z M 0 13 L 0 13.755859 L 0.75585938 13 L 0 13 z M 9.2441406 13 L 6.0371094 16.207031 L 6.0371094 18 L 12 18 L 12 13 L 9.2441406 13 z M 13 13 L 13 18 L 18 18 L 18 13 L 13 13 z M 5 17.244141 L 4.2441406 18 L 5 18 L 5 17.244141 z " />
</svg>