<?xml version="1.0" encoding="UTF-8" standalone="no"?>
<svg width="21" height="21" viewBox="0 0 21 21" xmlns="http://www.w3.org/2000/svg">
  <path
     id="ellipse5"
     class="st2"
     d="M 10.499737,0.57476053 A 1.826255,1.826255 0 0 0 8.6734884,2.4010081 1.826255,1.826255 0 0 0 10.499737,4.2272547 1.826255,1.826255 0 0 0 12.325983,2.4010081 1.826255,1.826255 0 0 0 10.499737,0.57476053 Z M 9.1148429,4.8446039 a 13.767913,13.767913 0 0 1 -0.5670058,0.7862135 3.5473712,3.5473712 0 0 0 -0.3794707,0.790409 8.3781761,8.3781761 0 0 0 -0.252143,1.5795584 8.0518473,8.0518473 0 0 0 0,1.1010768 l 0.01426,0.00444 a 7.564889,7.592484 0 0 0 5.1395456,0 l 0.01426,-0.00444 a 8.0518473,8.0518473 0 0 0 -0.0013,-1.1010768 8.3781761,8.3781761 0 0 0 -0.252142,-1.5795584 3.5473712,3.5473712 0 0 0 -0.379472,-0.790409 13.767913,13.767913 0 0 1 -0.565536,-0.7862135 2.8089072,2.8089072 0 0 1 -2.7710462,0 z m 1.3846841,5.4416141 a 0.37279346,0.37279346 0 0 0 -0.372341,0.372342 v 2.445899 a 0.64440898,0.64440898 0 0 1 -0.1890006,0.455406 l -1.898827,1.900295 a 0.37279346,0.37279346 0 0 0 0,0.526942 0.37279346,0.37279346 0 0 0 0.5269388,0 l 1.4778208,-1.47782 a 0.64440898,0.64440898 0 0 1 0.912284,0 l 1.477823,1.47782 a 0.37279346,0.37279346 0 0 0 0.526938,0 0.37279346,0.37279346 0 0 0 0,-0.526942 L 11.062336,13.559865 A 0.64440898,0.64440898 0 0 1 10.873333,13.104459 V 10.65856 A 0.37279346,0.37279346 0 0 0 10.499527,10.286218 Z M 4.7250116,11.442247 A 1.826255,1.826255 0 0 0 2.8987649,13.2685 1.826255,1.826255 0 0 0 4.7250116,15.094744 1.826255,1.826255 0 0 0 6.5512591,13.2685 1.826255,1.826255 0 0 0 4.7250116,11.442247 Z m 11.5496584,0 A 1.826255,1.826255 0 0 0 14.448423,13.2685 1.826255,1.826255 0 0 0 16.27467,15.094744 1.826255,1.826255 0 0 0 18.100917,13.2685 1.826255,1.826255 0 0 0 16.27467,11.442247 Z M 3.3401186,15.712094 A 13.767913,13.767913 0 0 1 2.772904,16.498096 3.5473712,3.5473712 0 0 0 2.3934324,17.288718 8.3781761,8.3781761 0 0 0 2.1415,18.868066 a 8.0518473,8.0518473 0 0 0 0,1.101285 l 0.014269,0.0044 a 7.564889,7.592484 0 0 0 5.1395433,0 l 0.01426,-0.0044 A 8.0518473,8.0518473 0 0 0 7.3080934,18.868066 8.3781761,8.3781761 0 0 0 7.056161,17.288718 3.5473712,3.5473712 0 0 0 6.6766885,16.498096 13.767913,13.767913 0 0 1 6.1109434,15.712094 a 2.8089072,2.8089072 0 0 1 -2.7708361,0 z m 11.5494484,0 a 13.767913,13.767913 0 0 1 -0.567005,0.786002 3.5473712,3.5473712 0 0 0 -0.379471,0.790622 8.3781761,8.3781761 0 0 0 -0.252143,1.579348 8.0518473,8.0518473 0 0 0 0,1.101285 l 0.01448,0.0044 a 7.564889,7.592484 0 0 0 5.139335,0 l 0.01448,-0.0044 a 8.0518473,8.0518473 0 0 0 -0.0015,-1.101285 8.3781761,8.3781761 0 0 0 -0.252143,-1.579348 3.5473712,3.5473712 0 0 0 -0.379472,-0.790622 13.767913,13.767913 0 0 1 -0.565537,-0.786002 2.8089072,2.8089072 0 0 1 -2.771045,0 z"
     style="fill:#000000;fill-opacity:1;stroke:none;stroke-width:0.107401;stroke-linecap:round;stroke-linejoin:round" />
</svg>