<?xml version="1.0" encoding="UTF-8" standalone="no"?>
<svg width="21" height="21" viewBox="0 0 21 21" xmlns="http://www.w3.org/2000/svg">
  <path
     d="m 17.756741,8.2421311 -5.108083,7.1274069 a 0.50065701,0.50065701 0 0 1 -0.894233,-0.407481 l 1.695282,-7.1274082 a 0.50065701,0.50065701 0 0 1 0.488145,-0.3852284 h 3.412801 a 0.50065701,0.50065701 0 0 1 0.406088,0.7927107 z m -5.98702,-6.1288794 h 2.891291 a 0.50065701,0.50065701 0 0 1 0.401919,0.7996687 l -1.446336,1.9414379 a 0.50065701,0.50065701 0 0 1 -0.802442,0 l -1.44635,-1.9414379 a 0.50065701,0.50065701 0 0 1 0.401918,-0.7996687 z m -5.4349168,0 H 9.2261093 A 0.50065701,0.50065701 0 0 1 9.6280282,2.9129204 L 8.1816783,4.8543583 a 0.50065701,0.50065701 0 0 1 -0.802443,0 L 5.9329004,2.9129204 A 0.50065701,0.50065701 0 0 1 6.3348042,2.1132517 Z M 17.378471,6.4189054 H 14.48718 A 0.50065701,0.50065701 0 0 1 14.086656,5.6192517 l 1.44494,-1.9414379 a 0.50065701,0.50065701 0 0 1 0.803838,0 l 1.444955,1.9414379 a 0.50065701,0.50065701 0 0 1 -0.401918,0.7996537 z m -5.434903,0 H 9.0522624 A 0.50065701,0.50065701 0 0 1 8.6503436,5.6192517 L 10.096694,3.6778138 a 0.50065701,0.50065701 0 0 1 0.802443,0 l 1.446335,1.9414379 a 0.50065701,0.50065701 0 0 1 -0.401904,0.7996537 z m -5.4349169,0 H 3.617361 A 0.50065701,0.50065701 0 0 1 3.2154422,5.6192517 L 4.6617771,3.6778138 a 0.50065701,0.50065701 0 0 1 0.802443,0 L 6.9105699,5.6192517 A 0.50065701,0.50065701 0 0 1 6.5086511,6.4189054 Z m 2.3614267,1.044431 3.2542802,-0.010497 a 0.50065701,0.50065701 0 0 1 0.490919,0.6063422 l -1.618786,7.5001304 a 0.50065701,0.50065701 0 0 1 -0.979065,0.0013 L 8.3819479,8.0717032 A 0.50065701,0.50065701 0 0 1 8.8700778,7.4639663 Z M 3.6451633,7.4498402 H 7.0593737 A 0.50065701,0.50065701 0 0 1 7.5461241,7.8350687 L 9.2414052,14.962476 A 0.50065701,0.50065701 0 0 1 8.3471725,15.369959 L 3.2390757,8.2425509 A 0.50065701,0.50065701 0 0 1 3.6451633,7.4498402 Z M 20.351818,6.7266803 16.570463,1.3084542 A 0.50065701,0.50065701 0 0 0 16.160207,1.0942835 H 4.8383982 A 0.50065701,0.50065701 0 0 0 4.4281417,1.3084542 L 0.66904158,6.6919049 a 0.11491037,0.11491037 0 0 0 -0.0206941,0.065831 l -1.6516e-4,-4.194e-4 a 0.11058359,0.11058359 0 0 0 0.0212938,0.065382 L 10.093845,19.70076 a 0.50065701,0.50065701 0 0 0 0.808006,0 L 20.347589,6.7935468 a 0.00271564,0.00271564 0 0 1 0.0015,-0.00111 l 5.1e-4,-2.849e-4 a 0.00137773,0.00137773 0 0 0 0.0014,-0.00138 z"
     class="st2"
     id="path4"
     style="fill:#000000;fill-opacity:1;stroke:none;stroke-width:0.139071" />
</svg>