<?xml version="1.0" encoding="UTF-8" standalone="no"?>
<svg width="21" height="21" viewBox="0 0 21 21" xmlns="http://www.w3.org/2000/svg">
  <path
     d="m 6.1660031,14.203762 a 10.888192,10.888192 0 0 0 4.4643949,0.952846 h 0.0014 a 10.888192,10.888192 0 0 0 7.399334,-2.891693 0.83755321,0.83755321 0 0 0 0.157124,-1.035011 L 17.541025,10.11128 A 0.83755321,0.83755321 0 0 0 16.227801,9.9339763 7.9567558,7.9567558 0 0 1 11.962338,12.114996 v -0.0027 a 7.9567558,7.9567558 0 0 1 -1.330525,0.113885 h -0.0014 A 7.9567558,7.9567558 0 0 1 9.2998728,12.1123 V 12.115 A 7.9567558,7.9567558 0 0 1 7.6421219,11.646504 L 9.9874788,7.5828503 a 3.5595941,3.5595941 0 0 0 1.0249222,0 l 1.956145,3.3875787 a 7.9567558,7.9567558 0 0 0 1.271426,-0.658779 l -0.0013,-0.0013 A 7.9567558,7.9567558 0 0 0 15.159756,9.6270152 L 13.249737,6.3201649 a 3.5595941,3.5595941 0 0 0 0.810133,-2.2603061 3.559839,3.559839 0 1 0 -7.1196749,0 3.5595941,3.5595941 0 0 0 0.8101353,2.2603061 L 5.4453365,10.311738 A 7.9567558,7.9567558 0 0 1 5.034503,9.9340639 0.83755321,0.83755321 0 0 0 3.7212763,10.111368 l -0.6458025,1.118624 a 0.83755321,0.83755321 0 0 0 0.1556846,1.03501 10.888192,10.888192 0 0 0 0.7308519,0.616976 l -2.9161996,5.051091 -0.00142,2.570233 2.2271519,-1.285838 z M 9.0346323,4.0597711 a 1.4657109,1.4657109 0 1 1 2.9306147,0 1.4657109,1.4657109 0 1 1 -2.9306147,0 z m 6.3253987,11.0550329 2.368422,4.102573 2.227151,1.285838 v -2.571677 l -2.346798,-4.062211 a 10.888192,10.888192 0 0 1 -2.248775,1.245477 z"
     class="st2"
     id="path3"
     style="fill:#000000;fill-opacity:1;stroke:none;stroke-width:0.0345966;stroke-linecap:round;stroke-linejoin:round" />
</svg>