<?xml version="1.0" encoding="UTF-8" standalone="no"?>
<svg width="21" height="21" viewBox="0 0 21 21" xmlns="http://www.w3.org/2000/svg">
  <path
     id="division"
     d="m 8.4930769,15.267706 a 2.0069262,2.0069262 0 1 1 4.0138461,0 2.0069262,2.0069262 0 0 1 -4.0138461,0 z m 0,-9.5339719 a 2.0069262,2.0069262 0 1 1 4.0138461,0 2.0069262,2.0069262 0 1 1 -4.0138461,0 z M 5.2316423,11.504183 A 0.25086577,0.25086577 0 0 1 4.9813157,11.253853 V 9.7475869 a 0.25086577,0.25086577 0 0 1 0.2503266,-0.25033 H 15.768362 a 0.25086577,0.25086577 0 0 1 0.25033,0.25033 v 1.5062661 a 0.25086577,0.25086577 0 0 1 -0.25033,0.25033 z M 1.9702077,20.534632 H 19.029801 a 1.5051946,1.5051946 0 0 0 1.504826,-1.504843 V 1.9716514 A 1.5051946,1.5051946 0 0 0 19.029801,0.465368 H 1.9702077 A 1.5051946,1.5051946 0 0 0 0.46537297,1.9716514 V 19.029789 a 1.5051946,1.5051946 0 0 0 1.50483473,1.504843 z"
     style="fill:#000000;fill-opacity:1;stroke:none;stroke-width:0.0345277;stroke-linecap:round;stroke-linejoin:round" />
</svg>