<?xml version="1.0" encoding="UTF-8" standalone="no"?>
<svg width="21" height="21" viewBox="0 0 21 21" xmlns="http://www.w3.org/2000/svg">
  <path
     id="path4"
     class="st2"
     d="M 3.9401983,0.92677716 A 1.4183049,1.4183049 0 0 0 2.5223681,2.3448207 V 18.655391 a 1.4183049,1.4183049 0 0 0 1.4178302,1.417832 H 17.059589 a 1.4183049,1.4183049 0 0 0 1.418043,-1.417832 V 6.5390621 A 0.70915537,0.70915537 0 0 0 18.270351,6.0374245 L 13.366985,1.1342734 A 0.70915537,0.70915537 0 0 0 12.865351,0.92677716 Z M 5.004421,2.8768213 h 7.44637 a 0.70915537,0.70915537 0 0 1 0.708914,0.7091337 v 1.9498319 a 0.70915537,0.70915537 0 0 0 0.708917,0.7091338 h 2.126957 a 0.70915537,0.70915537 0 0 1 0.710402,0.7103949 V 17.414257 a 0.70915537,0.70915537 0 0 1 -0.710402,0.708921 H 5.004421 A 0.70915537,0.70915537 0 0 1 4.2955053,17.414257 V 3.585955 A 0.70915537,0.70915537 0 0 1 5.004421,2.8768213 Z m 3.9875939,3.3855086 -0.4755132,0.00354 A 0.22450573,0.22450573 0 0 0 8.3047623,6.4196375 L 8.0743337,7.1024276 a 0.22450573,0.22450573 0 0 1 -0.05798,0.092763 0.11225257,0.11225257 0 0 1 -0.043541,0.025106 A 2.6420779,2.6420779 0 0 0 7.5219359,7.4082498 0.11225257,0.11225257 0 0 1 7.4724546,7.421569 0.22450573,0.22450573 0 0 1 7.3681761,7.398231 L 6.7172401,7.0777576 A 0.22450573,0.22450573 0 0 0 6.4577155,7.1212516 L 6.1242825,7.461904 A 0.22450573,0.22450573 0 0 0 6.0837235,7.7199423 L 6.406962,8.3636589 a 0.22450573,0.22450573 0 0 1 0.024635,0.1000705 0.11225257,0.11225257 0 0 1 -0.013166,0.052452 2.6420779,2.6420779 0 0 0 -0.1839188,0.4491742 0.11225257,0.11225257 0 0 1 -0.028878,0.047383 0.22450573,0.22450573 0 0 1 -0.085585,0.051155 l -0.685765,0.2321307 a 0.22450573,0.22450573 0 0 0 -0.153761,0.2130124 l 0.00295,0.4770023 a 0.22450573,0.22450573 0 0 0 0.1535488,0.21174 l 0.6830046,0.22916 a 0.22450573,0.22450573 0 0 1 0.09281,0.05929 0.11225257,0.11225257 0 0 1 0.025059,0.0429 2.6420779,2.6420779 0 0 0 0.1837055,0.44281 0.11225257,0.11225257 0 0 1 0.012529,0.04974 0.22450573,0.22450573 0 0 1 -0.02421,0.104078 l -0.3217522,0.649457 a 0.22450573,0.22450573 0 0 0 0.043328,0.258038 l 0.3393795,0.334912 a 0.22450573,0.22450573 0 0 0 0.2565519,0.04208 l 0.6466881,-0.320273 a 0.22450573,0.22450573 0 0 1 0.1000352,-0.02463 0.11225257,0.11225257 0 0 1 0.052463,0.0132 2.6420779,2.6420779 0 0 0 0.4404708,0.183923 0.11225257,0.11225257 0 0 1 0.042056,0.02357 0.22450573,0.22450573 0 0 1 0.062223,0.09536 l 0.2306409,0.687257 a 0.22450573,0.22450573 0 0 0 0.214501,0.152063 l 0.4755132,-0.0024 a 0.22450573,0.22450573 0 0 0 0.2117394,-0.152275 l 0.2304299,-0.684287 a 0.22450573,0.22450573 0 0 1 0.049481,-0.08263 0.11225257,0.11225257 0 0 1 0.049481,-0.03041 2.6420779,2.6420779 0 0 0 0.4636178,-0.191572 0.11225257,0.11225257 0 0 1 0.050966,-0.0132 0.22450573,0.22450573 0 0 1 0.104278,0.02192 l 0.649449,0.320485 a 0.22450573,0.22450573 0 0 0 0.259524,-0.04349 l 0.333433,-0.339168 a 0.22450573,0.22450573 0 0 0 0.04056,-0.258038 l -0.324727,-0.645158 a 0.22450573,0.22450573 0 0 1 -0.02166,-0.100071 0.11225257,0.11225257 0 0 1 0.01167,-0.05269 2.6420779,2.6420779 0 0 0 0.179671,-0.433038 0.11225257,0.11225257 0 0 1 0.02357,-0.04137 0.22450573,0.22450573 0 0 1 0.09536,-0.06306 l 0.687041,-0.230422 a 0.22450573,0.22450573 0 0 0 0.152274,-0.214721 l -0.0015,-0.4755062 A 0.22450573,0.22450573 0 0 0 12.083088,9.2980865 L 11.39881,9.067441 A 0.22450573,0.22450573 0 0 1 11.31598,9.018172 0.11225257,0.11225257 0 0 1 11.28583,8.969374 2.6420779,2.6420779 0 0 0 11.098512,8.5136109 0.11225257,0.11225257 0 0 1 11.085342,8.4635169 l 1.41e-4,-5.776e-4 a 0.22450573,0.22450573 0 0 1 0.02315,-0.1043138 l 0.321964,-0.648172 A 0.22450573,0.22450573 0 0 0 11.387075,7.4509183 L 11.049182,7.1159942 A 0.22450573,0.22450573 0 0 0 10.791144,7.0754474 L 10.144666,7.3959207 A 0.22450573,0.22450573 0 0 1 10.045916,7.419023 0.11225257,0.11225257 0 0 1 9.9934525,7.4058217 2.6420779,2.6420779 0 0 0 9.535569,7.2174321 0.11225257,0.11225257 0 0 1 9.489058,7.18879 0.22450573,0.22450573 0 0 1 9.4370189,7.1029815 L 9.2051039,6.4172094 A 0.22450573,0.22450573 0 0 0 8.9918758,6.2634496 Z M 8.538377,7.932471 a 1.8524152,1.8524152 0 0 1 2.073227,1.808177 1.8524152,1.8524152 0 0 1 -3.7042841,0 1.8524152,1.8524152 0 0 1 1.6310571,-1.808177 z m 0.2210852,1.1158281 a 0.68943483,0.68605673 0 0 0 -0.6893765,0.6936219 0.68943483,0.68605673 0 1 0 1.3787519,0 0.68943483,0.68605673 0 0 0 -0.6893754,-0.6936219 z m 4.8642878,1.7036869 -0.306885,0.0024 a 0.14486122,0.14486122 0 0 0 -0.136771,0.09925 l -0.148877,0.441748 a 0.14486122,0.14486122 0 0 1 -0.03759,0.05905 0.0724306,0.0724306 0 0 1 -0.02845,0.01638 1.7047938,1.7047938 0 0 0 -0.289046,0.120202 0.0724306,0.0724306 0 0 1 -0.03228,0.0083 0.14486122,0.14486122 0 0 1 -0.06754,-0.01532 l -0.419232,-0.204938 a 0.14486122,0.14486122 0 0 0 -0.16778,0.02864 l -0.214925,0.217692 a 0.14486122,0.14486122 0 0 0 -0.02591,0.166289 l 0.208555,0.416466 a 0.14486122,0.14486122 0 0 1 0.0155,0.06436 0.0724306,0.0724306 0 0 1 -0.0083,0.03371 1.7047938,1.7047938 0 0 0 -0.118931,0.290535 0.0724306,0.0724306 0 0 1 -0.01869,0.03053 0.14486122,0.14486122 0 0 1 -0.05522,0.03371 l -0.443656,0.148881 a 0.14486122,0.14486122 0 0 0 -0.09896,0.137399 l 0.0019,0.307531 a 0.14486122,0.14486122 0 0 0 0.09896,0.136764 l 0.441744,0.147394 a 0.14486122,0.14486122 0 0 1 0.05925,0.03843 0.0724306,0.0724306 0 0 1 0.01635,0.02805 1.7047938,1.7047938 0 0 0 0.117232,0.285867 0.0724306,0.0724306 0 0 1 0.0083,0.0323 0.14486122,0.14486122 0 0 1 -0.01486,0.06683 l -0.206643,0.418387 a 0.14486122,0.14486122 0 0 0 0.02739,0.167986 l 0.217687,0.216207 a 0.14486122,0.14486122 0 0 0 0.16629,0.02676 l 0.417959,-0.20792 a 0.14486122,0.14486122 0 0 1 0.06434,-0.01544 0.0724306,0.0724306 0 0 1 0.03419,0.0083 1.7047938,1.7047938 0 0 0 0.284373,0.118929 0.0724306,0.0724306 0 0 1 0.02697,0.01509 0.14486122,0.14486122 0 0 1 0.04013,0.06176 l 0.148878,0.443446 a 0.14486122,0.14486122 0 0 0 0.138256,0.0983 l 0.306886,-0.0024 a 0.14486122,0.14486122 0 0 0 0.136771,-0.0983 l 0.148657,-0.441 a 0.14486122,0.14486122 0 0 1 0.03186,-0.05328 0.0724306,0.0724306 0 0 1 0.03165,-0.0198 1.7047938,1.7047938 0 0 0 0.299027,-0.122749 0.0724306,0.0724306 0 0 1 0.0325,-0.0083 0.14486122,0.14486122 0 0 1 0.06733,0.01426 l 0.419233,0.205799 a 0.14486122,0.14486122 0 0 0 0.167779,-0.02829 l 0.214926,-0.218317 a 0.14486122,0.14486122 0 0 0 0.02591,-0.166289 l -0.208554,-0.416477 a 0.14486122,0.14486122 0 0 1 -0.0155,-0.06436 0.0724306,0.0724306 0 0 1 0.0081,-0.03418 1.7047938,1.7047938 0 0 0 0.116171,-0.279914 0.0724306,0.0724306 0 0 1 0.01508,-0.02676 0.14486122,0.14486122 0 0 1 0.0618,-0.03972 l 0.443656,-0.149505 a 0.14486122,0.14486122 0 0 0 0.09897,-0.13826 l -0.0019,-0.306883 a 0.14486122,0.14486122 0 0 0 -0.09896,-0.136775 l -0.441745,-0.14888 a 0.14486122,0.14486122 0 0 1 -0.05331,-0.03182 0.0724306,0.0724306 0 0 1 -0.01954,-0.03147 1.7047938,1.7047938 0 0 0 -0.121481,-0.293292 0.0724306,0.0724306 0 0 1 -0.0083,-0.03253 l -4.35e-4,-8.72e-4 a 0.14486122,0.14486122 0 0 1 0.0155,-0.0673 l 0.207704,-0.418376 a 0.14486122,0.14486122 0 0 0 -0.02804,-0.167786 l -0.216837,-0.216407 a 0.14486122,0.14486122 0 0 0 -0.166503,-0.02676 l -0.417746,0.207909 a 0.14486122,0.14486122 0 0 1 -0.06371,0.01556 0.0724306,0.0724306 0 0 1 -0.03377,-0.0082 1.7047938,1.7047938 0 0 0 -0.295416,-0.123173 0.0724306,0.0724306 0 0 1 -0.03038,-0.01827 0.14486122,0.14486122 0 0 1 -0.03334,-0.05504 l -0.149516,-0.442809 a 0.14486122,0.14486122 0 0 0 -0.138256,-0.09913 z m -0.319628,1.061679 a 1.1953824,1.1953824 0 0 1 1.365585,1.183154 1.1954714,1.1954714 0 0 1 -2.390941,0 1.1953824,1.1953824 0 0 1 1.025356,-1.183154 z m 0.07348,0.770071 a 0.44471271,0.44253508 0 0 0 -0.347661,0.414568 0.44471271,0.44253508 0 0 0 0.888586,0 0.44471271,0.44253508 0 0 0 -0.540925,-0.414568 z"
     style="fill:#000000;fill-opacity:1;stroke:none;stroke-width:0.108737;stroke-linecap:round;stroke-linejoin:round" />
</svg>