<?xml version="1.0" encoding="UTF-8" standalone="no"?>
<svg width="21" height="21" viewBox="0 0 21 21" xmlns="http://www.w3.org/2000/svg">
  <path
     d="m 15.34958,11.421033 a 0.48157479,0.48157479 0 0 0 -0.360405,-0.800899 h -2.080956 a 0.48157479,0.48157479 0 0 1 -0.48192,-0.48192 V 4.5995871 a 0.48157479,0.48157479 0 0 0 -0.48192,-0.480539 H 9.055621 a 0.48157479,0.48157479 0 0 0 -0.48192,0.480539 v 5.5386269 a 0.48157479,0.48157479 0 0 1 -0.4819201,0.48192 H 6.0108255 a 0.48157479,0.48157479 0 0 0 -0.3604043,0.800899 l 4.4891748,5.053947 a 0.48157479,0.48157479 0 0 0 0.720809,0 z M 2.3128834,0.86850408 H 18.687119 A 1.4447243,1.4447243 0 0 1 20.131496,2.3128841 V 18.685736 a 1.4447243,1.4447243 0 0 1 -1.444377,1.44576 H 2.3128834 A 1.4447243,1.4447243 0 0 1 0.86850426,18.685736 V 2.3128841 A 1.4447243,1.4447243 0 0 1 2.3128834,0.86850408 Z"
     class="st2"
     id="up"
     style="fill:#000000;fill-opacity:1;stroke:none;stroke-width:0.0331406;stroke-linecap:round;stroke-linejoin:round" />
</svg>