<?xml version="1.0" encoding="UTF-8" standalone="no"?>
<svg width="21" height="21" viewBox="0 0 21 21" xmlns="http://www.w3.org/2000/svg">
  <path
     d="m 18.077673,9.6824635 v 2.8578035 a 2.1304798,1.1853901 84.77 0 0 0.881315,4.029258 1.4530116,2.645184 8.05 0 0 -0.13213,-3.958426 V 9.3732543 Z M 4.7966535,10.452082 v 4.7907 a 5.7035644,2.6836103 0 0 0 11.4066935,0 v -4.7907 l -5.605272,2.302044 a 0.32591756,0.42762837 0 0 1 -0.19615,0 z m 5.8014215,1.020254 9.17412,-3.7704469 a 0.32591756,0.42762837 0 0 0 0,-0.8159311 l -9.17412,-3.769085 a 0.32591756,0.42762837 0 0 0 -0.19615,0 L 1.2278052,6.885958 a 0.32591756,0.42762837 0 0 0 0,0.8159311 l 9.1741198,3.7704469 a 0.32591756,0.42762837 0 0 0 0.19615,0 z"
     class="st2"
     id="education"
     style="fill:#000000;fill-opacity:1;stroke:none;stroke-width:0.0326917;stroke-linecap:round;stroke-linejoin:round" />
</svg>