<?xml version="1.0" encoding="UTF-8" standalone="no"?>
<svg width="21" height="21" viewBox="0 0 21 21" xmlns="http://www.w3.org/2000/svg">
  <path
     d="M 5.2739713,9.2569984 A 0.24885004,0.24885004 0 0 1 5.025656,9.0072572 V 6.5183992 A 0.24885004,0.24885004 0 0 1 5.2739713,6.2700851 H 15.72603 a 0.24885004,0.24885004 0 0 1 0.248314,0.2483141 v 2.488858 A 0.24885004,0.24885004 0 0 1 15.72603,9.2569984 Z m 0,5.4743436 A 0.24885004,0.24885004 0 0 1 5.025656,14.481601 V 11.99417 A 0.24885004,0.24885004 0 0 1 5.2739713,11.744429 H 15.72603 a 0.24885004,0.24885004 0 0 1 0.248314,0.249741 v 2.487431 A 0.24885004,0.24885004 0 0 1 15.72603,14.731342 Z M 2.0387428,20.454001 H 18.961258 a 1.4931003,1.4931003 0 0 0 1.492743,-1.492743 V 2.0401699 A 1.4931003,1.4931003 0 0 0 18.961258,0.54599861 H 2.0387428 A 1.4931003,1.4931003 0 0 0 0.54599865,2.0401699 V 18.961258 a 1.4931003,1.4931003 0 0 0 1.49274415,1.492743 z"
     class="st2"
     id="path3"
     style="fill:#000000;fill-opacity:1;stroke:none;stroke-width:0.0342504;stroke-linecap:round;stroke-linejoin:round" />
</svg>