<?xml version="1.0" encoding="UTF-8" standalone="no"?>
<svg width="21" height="21" viewBox="0 0 21 21" xmlns="http://www.w3.org/2000/svg">
  <path
     d="M 5.0221418,11.38378 H 3.4414572 a 0.1518975,0.1518975 0 0 0 -0.1152146,0.05339 l -1.3123201,1.5568 a 0.1518975,0.1518975 0 0 0 0.1166197,0.248694 h 3.3229513 a 0.25290959,0.25290959 0 0 1 0.2416688,0.179847 9.9585254,9.9585254 0 0 0 13.0838557,6.37613 0.37974234,0.37974234 0 0 0 0.243074,-0.354072 v -2.26354 A 0.37974234,0.37974234 0 0 0 18.469907,16.843818 7.1298868,7.1298868 0 0 1 8.79752,13.606575 0.25290959,0.25290959 0 0 1 9.0251383,13.242666 h 5.9504007 a 0.1518975,0.1518975 0 0 0 0.11662,-0.05339 l 1.310914,-1.556799 A 0.1518975,0.1518975 0 0 0 16.287859,11.383779 H 8.3661684 a 0.25290959,0.25290959 0 0 1 -0.2515047,-0.230428 7.1298868,7.1298868 0 0 1 0,-1.308105 0.25290959,0.25290959 0 0 1 0.2515047,-0.2290233 h 6.6093706 a 0.1518975,0.1518975 0 0 0 0.11662,-0.053393 l 1.310914,-1.556799 A 0.1518975,0.1518975 0 0 0 16.287859,7.7559312 H 9.0251383 A 0.25290959,0.25290959 0 0 1 8.79752,7.3934274 7.1298868,7.1298868 0 0 1 18.469907,4.1561855 0.37974234,0.37974234 0 0 0 19.022092,3.8175672 V 1.5554315 A 0.37974234,0.37974234 0 0 0 18.779018,1.2013584 9.9585254,9.9585254 0 0 0 5.6951623,7.5774899 0.25290959,0.25290959 0 0 1 5.4534935,7.7559312 H 3.4414572 a 0.1518975,0.1518975 0 0 0 -0.1152146,0.054795 l -1.3123201,1.555394 a 0.1518975,0.1518975 0 0 0 0.1166197,0.2500994 h 2.8915996 a 0.25290959,0.25290959 0 0 1 0.2529097,0.2683653 9.9585254,9.9585254 0 0 0 0,1.2308261 0.25290959,0.25290959 0 0 1 -0.2529097,0.268365 z"
     class="st2"
     id="path3"
     style="fill:#000000;fill-opacity:1;stroke:none;stroke-width:0.0337213;stroke-linecap:round;stroke-linejoin:round" />
</svg>