<?xml version="1.0" encoding="UTF-8" standalone="no"?>
<svg width="21" height="21" viewBox="0 0 21 21" xmlns="http://www.w3.org/2000/svg">
  <path
     id="eye-slash"
     d="M 3,3 19,18 17.9,19.1 14.7,15.9 A 9.5,9.5 0 0 1 10.5,16.5 C 5.7,16.5 1.7,13.6 0.5,10.5 1,9.2 1.9,8 3.1,7 L 1.9,5.8 Z M 10.5,4.5 C 15.3,4.5 19.3,7.4 20.5,10.5 19.95,11.95 18.95,13.2 17.65,14.15 L 13.85,10.35 A 3.5,3.5 0 0 0 10.65,7.15 Z M 10.5,8 A 2.5,2.5 0 0 1 13,10.5 L 8,5.5 Z M 5.55,9.45 9.55,13.45 A 3.5,3.5 0 0 1 5.55,9.45 Z"
     style="fill:#000000;fill-rule:evenodd" />
</svg>