<?xml version="1.0" encoding="UTF-8" standalone="no"?>
<svg width="21" height="21" viewBox="0 0 21 21" xmlns="http://www.w3.org/2000/svg">
  <path
     id="path1"
     style="stroke:none;stroke-width:0.852974;stroke-opacity:1"
     d="m 10.5,3.24972 c -2.7484723,0 -4.9731235,1.805441 -6.5055937,3.5568355 C 2.4619361,8.5579499 1.5887527,10.31008 1.5887527,10.31008 l -0.09496,0.18992 0.09496,0.18992 c 0,0 0.8731834,1.75213 2.4056536,3.503524 1.5324702,1.751395 3.7571214,3.556836 6.5055937,3.556836 2.748472,0 4.973123,-1.805441 6.505593,-3.556836 1.53247,-1.751394 2.405654,-3.503524 2.405654,-3.503524 L 19.506207,10.5 19.411247,10.31008 c 0,0 -0.873184,-1.7521301 -2.405654,-3.5035245 C 15.473123,5.055161 13.248472,3.24972 10.5,3.24972 Z m 0,0.8529742 c 2.369372,0 4.409592,1.6064555 5.862531,3.2669574 C 17.732524,8.935359 18.429342,10.326258 18.51829,10.5 18.42934,10.673742 17.732524,12.064641 16.362531,13.630348 14.909592,15.29085 12.869372,16.897306 10.5,16.897306 8.1306273,16.897306 6.090408,15.29085 4.6374687,13.630348 3.2674749,12.064641 2.5706574,10.673742 2.48171,10.5 2.5706574,10.326258 3.2674749,8.935359 4.6374687,7.3696516 6.090408,5.7091497 8.1306273,4.1026942 10.5,4.1026942 Z m 0,3.4118964 c -1.6437447,0 -2.9854096,1.3416654 -2.9854096,2.9854094 0,1.643744 1.3416649,2.985409 2.9854096,2.985409 1.643744,0 2.985409,-1.341665 2.985409,-2.985409 0,-1.643744 -1.341665,-2.9854094 -2.985409,-2.9854094 z m 0,0.8529741 c 1.182763,0 2.132435,0.9496723 2.132435,2.1324353 0,1.182763 -0.949672,2.132435 -2.132435,2.132435 -1.1827627,0 -2.1324354,-0.949672 -2.1324354,-2.132435 0,-1.182763 0.9496727,-2.1324353 2.1324354,-2.1324353 z" />
</svg>