<?xml version="1.0" encoding="UTF-8" standalone="no"?>
<svg width="21" height="21" viewBox="0 0 21 21" xmlns="http://www.w3.org/2000/svg">
  <path
     id="rect4"
     class="st2"
     d="M 2.2351472,0.77678534 A 1.4584877,1.4584877 0 0 0 0.77678561,2.2365537 V 18.765055 A 1.4584877,1.4584877 0 0 0 2.2351472,20.223216 H 18.764853 a 1.4584739,1.4584739 0 0 0 1.458362,-1.458161 V 4.298396 A 1.4584877,1.4584877 0 0 0 19.796579,3.2668719 L 17.733329,1.2048287 A 1.4584739,1.4584739 0 0 0 16.701604,0.77678534 H 16.333848 A 0.48616025,0.48616025 0 0 0 15.84833,1.2639107 V 6.6114381 A 0.97232052,0.97232052 0 0 1 14.875688,7.5840809 H 6.6114375 A 0.97232052,0.97232052 0 0 1 5.6387947,6.6114381 V 1.2639107 A 0.48616025,0.48616025 0 0 0 5.15167,0.77678534 Z M 11.132016,1.7498303 c -0.215437,0 -0.388854,0.1734165 -0.388854,0.3888562 v 3.7191541 c 0,0.2154387 0.173417,0.3888554 0.388854,0.3888554 h 1.65289 c 0.215441,0 0.389058,-0.1734167 0.389058,-0.3888554 V 2.1386865 c 0,-0.2154397 -0.173617,-0.3888562 -0.389058,-0.3888562 z M 3.9362677,10.015085 H 17.063733 a 0.48616025,0.48616025 0 0 1 0.485718,0.485719 v 1.458362 a 0.48616025,0.48616025 0 0 1 -0.485718,0.485518 H 3.9362677 A 0.48616025,0.48616025 0 0 1 3.4505491,11.959166 v -1.458362 a 0.48616025,0.48616025 0 0 1 0.4857186,-0.485719 z m 0,3.341954 H 17.063733 a 0.48616025,0.48616025 0 0 1 0.485718,0.485718 v 1.458162 a 0.48616025,0.48616025 0 0 1 -0.485718,0.487124 H 3.9362677 A 0.48616025,0.48616025 0 0 1 3.4505491,15.300919 v -1.458162 a 0.48616025,0.48616025 0 0 1 0.4857186,-0.485718 z m 0,3.341953 H 17.063733 a 0.48616025,0.48616025 0 0 1 0.485718,0.486925 v 1.458361 a 0.48616025,0.48616025 0 0 1 -0.485718,0.485719 H 3.9362677 A 0.48616025,0.48616025 0 0 1 3.4505491,18.644278 v -1.458361 a 0.48616025,0.48616025 0 0 1 0.4857186,-0.486925 z"
     style="fill:#000000;fill-opacity:1;stroke:none;stroke-width:0.0329252;stroke-linecap:round;stroke-linejoin:round" />
</svg>