<?xml version="1.0" encoding="UTF-8" standalone="no"?>
<svg width="21" height="21" viewBox="0 0 21 21" xmlns="http://www.w3.org/2000/svg">
  <path
     d="M 3.3257257,6.7974036 A 0.46282427,0.46282427 0 0 1 2.8638971,6.3355749 V 2.6329793 A 0.46282427,0.46282427 0 0 1 3.3257257,2.1698242 H 16.980203 a 0.46282427,0.46282427 0 0 1 0.461829,0.4631551 V 6.3355749 A 0.46282427,0.46282427 0 0 1 16.980203,6.7974036 Z M 19.756486,4.2520356 V 2.6329793 A 1.3884728,1.3884728 0 0 0 18.368344,1.2435125 H 2.6316563 A 1.3884728,1.3884728 0 0 0 1.2435142,2.6329793 V 18.368348 a 1.3884728,1.3884728 0 0 0 1.3881421,1.388139 H 18.368344 a 1.3884728,1.3884728 0 0 0 1.388142,-1.388139 V 6.5664893 H 19.062415 A 0.46282427,0.46282427 0 0 1 18.599258,6.1033326 V 4.7151922 A 0.46282427,0.46282427 0 0 1 19.062415,4.2520356 Z M 7.7237188,10.500003 a 2.7769457,2.7769457 0 1 1 5.5538912,0 2.7769457,2.7769457 0 0 1 -5.5538912,0 z m 2.7762802,8.100585 A 0.6942364,0.6942364 0 0 1 9.8059301,17.90519 v -2.776293 a 0.6942364,0.6942364 0 0 1 0.6940689,-0.694061 0.6942364,0.6942364 0 0 1 0.694072,0.694061 v 2.776293 a 0.6942364,0.6942364 0 0 1 -0.694072,0.695398 z m 3.47168,-6.480207 a 0.6942364,0.6942364 0 1 1 1.388142,0 0.6942364,0.6942364 0 1 1 -1.388142,0 z"
     class="st2"
     id="fdd_2_25"
     style="fill:#000000;fill-opacity:1;stroke:none;stroke-width:0.0318503;stroke-linecap:round;stroke-linejoin:round" />
</svg>