<?xml version="1.0" encoding="UTF-8" standalone="no"?>
<svg width="21" height="21" viewBox="0 0 21 21" xmlns="http://www.w3.org/2000/svg">
  <path
     id="rect1"
     d="M 2.5,3 C 1.6776486,3 1,3.6776486 1,4.5 v 2 C 1,7.3223514 1.6776486,8 2.5,8 h 16 C 19.322351,8 20,7.3223514 20,6.5 v -2 C 20,3.6776486 19.322351,3 18.5,3 Z m 0,1 h 16 C 18.785649,4 19,4.2143514 19,4.5 v 2 C 19,6.7856486 18.785649,7 18.5,7 H 2.5 C 2.2143514,7 2,6.7856486 2,6.5 v -2 C 2,4.2143514 2.2143514,4 2.5,4 Z m 0,7 C 1.6776486,11 1,11.677649 1,12.5 v 4 C 1,17.322351 1.6776486,18 2.5,18 h 16 c 0.822351,0 1.5,-0.677649 1.5,-1.5 v -4 C 20,11.677649 19.322351,11 18.5,11 Z m 0,1 h 16 c 0.285649,0 0.5,0.214351 0.5,0.5 v 4 C 19,16.785649 18.785649,17 18.5,17 H 2.5 C 2.2143514,17 2,16.785649 2,16.5 v -4 C 2,12.214351 2.2143514,12 2.5,12 Z" />
</svg>