<?xml version="1.0" encoding="UTF-8" standalone="no"?>
<svg width="21" height="21" viewBox="0 0 21 21" xmlns="http://www.w3.org/2000/svg">
  <path
     id="path2"
     style="fill:#000000"
     d="M 4.5 1 C 3.1236486 1 2 2.1236486 2 3.5 L 2 17.5 C 2 18.876351 3.1236486 20 4.5 20 L 16.5 20 C 17.876351 20 19 18.876351 19 17.5 L 19 3.5 C 19 2.1236486 17.876351 1 16.5 1 L 4.5 1 z M 4.5 2 L 16.5 2 C 17.339649 2 18 2.6603514 18 3.5 L 18 17.5 C 18 18.339649 17.339649 19 16.5 19 L 4.5 19 C 3.6603514 19 3 18.339649 3 17.5 L 3 3.5 C 3 2.6603514 3.6603514 2 4.5 2 z M 6.5 6 L 6.5 6.5 L 6.5 7 L 14.5 7 L 14.5 6.5 L 14.5 6 L 6.5 6 z M 6.5 10 L 6.5 10.5 L 6.5 11 L 14.5 11 L 14.5 10.5 L 14.5 10 L 6.5 10 z M 6.5 14 L 6.5 14.5 L 6.5 15 L 11.5 15 L 11.5 14.5 L 11.5 14 L 6.5 14 z " />
</svg>