<?xml version="1.0" encoding="UTF-8" standalone="no"?>
<svg width="21" height="21" viewBox="0 0 21 21" xmlns="http://www.w3.org/2000/svg">
  <path
     id="gear"
     d="M 9.4,2 9.05,4.4 A 6.5,6.5 0 0 0 7.55,5.05 L 5.55,3.65 3.65,5.55 5.05,7.55 A 6.5,6.5 0 0 0 4.4,9.05 L 2,9.4 V 11.6 L 4.4,11.95 A 6.5,6.5 0 0 0 5.05,13.45 L 3.65,15.45 5.55,17.35 7.55,15.95 A 6.5,6.5 0 0 0 9.05,16.6 L 9.4,19 H 11.6 L 11.95,16.6 A 6.5,6.5 0 0 0 13.45,15.95 L 15.45,17.35 17.35,15.45 15.95,13.45 A 6.5,6.5 0 0 0 16.6,11.95 L 19,11.6 V 9.4 L 16.6,9.05 A 6.5,6.5 0 0 0 15.95,7.55 L 17.35,5.55 15.45,3.65 13.45,5.05 A 6.5,6.5 0 0 0 11.95,4.4 L 11.6,2 Z M 10.5,7 A 3.5,3.5 0 1 1 10.5,14 3.5,3.5 0 1 1 10.5,7 Z"
     style="fill:#000000;fill-rule:evenodd" />
</svg>