<?xml version="1.0" encoding="UTF-8" standalone="no"?>
<svg width="21" height="21" viewBox="0 0 21 21" xmlns="http://www.w3.org/2000/svg">
  <path
     id="path6"
     style="fill:#000000;fill-opacity:1;stroke:none;stroke-width:0.033329;stroke-linecap:round;stroke-linejoin:round"
     class="st4"
     d="M 9.8148362,0.72847965 A 9.3737696,9.3737696 0 0 0 1.1316814,9.7546044 h -0.00263 a 0.00297488,0.00297488 0 0 0 -0.00298,0.0035 l 2.088e-4,7.7722246 a 2.9761787,2.9761787 0 0 0 0.1375227,0.894441 2.9761787,2.9761787 0 0 0 1.6497688,1.833063 4.6969528,18.79531 0 0 0 0.4347177,0.03053 3.7495078,3.7495078 0 0 1 0.086044,-0.01053 4.7934401,19.18137 0 0 0 1.7053025,-1.426214 3.7495078,3.7495078 0 0 0 0.012457,-0.0193 4.6969528,18.79531 0 0 1 1.42356,-1.377596 0.93737696,0.93737696 0 0 1 0.4416342,-0.03334 4.6969528,18.79531 0 0 1 1.610914,1.429057 v -0.01228 a 4.6969528,18.79531 0 0 0 1.8218649,1.445743 3.7495078,3.7495078 0 0 1 0.10008,0 4.6969528,18.79531 0 0 0 1.821866,-1.445743 v 0.01228 a 4.6969528,18.79531 0 0 1 1.610915,-1.429057 0.93737696,0.93737696 0 0 1 0.441633,0.03334 4.6969528,18.79531 0 0 1 1.423358,1.377596 3.7495078,3.7495078 0 0 0 0.01263,0.0193 4.7934401,19.18137 0 0 0 1.705304,1.426214 3.7495078,3.7495078 0 0 1 0.08604,0.01053 4.6969528,18.79531 0 0 0 0.188981,0.007 0.93737696,0.93737696 0 0 0 0.373483,-0.0958 2.9761787,2.9761787 0 0 0 1.522014,-1.774689 2.9761787,2.9761787 0 0 0 0.137558,-0.894441 V 9.7579974 a 0.00297488,0.00297488 0 0 0 -0.0035,-0.0035 l -0.0018,1.4e-4 A 9.3737696,9.3737696 0 0 0 9.8152397,0.72860245 Z M 6.6019564,5.2996092 a 1.8446607,2.7669979 0 1 1 0,5.5339458 1.8446607,2.7669979 0 0 1 0,-5.5339458 z m 7.7960226,0 a 1.8446607,2.7669979 0 1 1 0,5.5339458 1.8446607,2.7669979 0 0 1 0,-5.5339458 z M 6.5598487,7.114758 a 0.75753945,0.75753945 0 0 0 -0.7007955,0.7553221 0.75755101,0.75755101 0 0 0 1.5151007,0 A 0.75753945,0.75753945 0 0 0 6.5598487,7.114758 Z m 7.8373163,0 a 0.75753945,0.75753945 0 0 0 -0.700999,0.7553221 0.7575515,0.7575515 0 0 0 1.515103,0 0.75753945,0.75753945 0 0 0 -0.814104,-0.7553221 z" />
</svg>