<?xml version="1.0" encoding="UTF-8" standalone="no"?>
<svg width="21" height="21" viewBox="0 0 21 21" xmlns="http://www.w3.org/2000/svg">
  <path
     d="M 16.893529,8.0276166 17.608201,7.9103441 A 0.44701508,0.44701508 0 0 0 17.982093,7.4702273 V 5.4972904 A 0.44701508,0.44701508 0 0 0 17.608201,5.0557939 L 16.893529,4.9385217 Z m 0,3.2601744 0.714672,-0.117272 a 0.44701508,0.44701508 0 0 0 0.373892,-0.441497 V 8.7574651 A 0.44701508,0.44701508 0 0 0 17.608201,8.315969 L 16.893529,8.1986964 Z m 0,3.258795 0.714672,-0.117272 a 0.44701508,0.44701508 0 0 0 0.373892,-0.440117 V 12.01626 a 0.44701508,0.44701508 0 0 0 -0.373892,-0.441496 l -0.714672,-0.117273 z m 0,3.260174 0.714672,-0.117271 a 0.44701508,0.44701508 0 0 0 0.373892,-0.441497 V 15.276435 A 0.44701508,0.44701508 0 0 0 17.608201,14.834939 L 16.893529,14.717666 Z M 5.4918848,20.188083 H 16.182996 V 4.9274841 H 5.4863662 v -0.00139 a 1.6456226,1.6456226 0 1 1 0,-3.2905278 v 0.00139 H 16.182996 V 0.8146692 H 5.4863662 V 0.8119138 A 2.4684339,2.4684339 0 0 0 3.0208847,3.4015662 V 17.719846 h 0.00276 a 2.4684339,2.4684339 0 0 0 2.4682403,2.46824 z m 3.6920133,-7.564765 a 0.13164966,0.13164966 0 0 1 -0.1316496,-0.13165 l -7.824e-4,-0.319504 a 0.13164966,0.13164966 0 0 1 0.1316496,-0.13165 l 1.9847733,-7.83e-4 a 0.13164966,0.13164966 0 0 1 0.13165,0.13165 l -5.78e-4,0.319504 a 0.13164966,0.13164966 0 0 1 -0.13165,0.13165 z m -2.8186782,-2.092969 -0.822287,2.393738 a 0.14205422,0.14205422 0 0 0 0.1338287,0.189016 h 1.630777 A 0.14205422,0.14205422 0 0 0 7.4413671,12.924087 L 6.6204598,10.530349 a 0.14205422,0.14205422 0 0 0 -0.1283099,-0.09658 0.14205422,0.14205422 0 0 0 -0.12693,0.09658 z m -0.9395596,3.225683 a 0.17046451,0.17046451 0 0 0 -0.1600422,0.113133 l -0.4787478,1.32035 A 0.17046451,0.17046451 0 0 1 4.6268278,15.301269 H 4.1025509 a 0.17046451,0.17046451 0 0 1 -0.1697,-0.176598 0.17046451,0.17046451 0 0 1 0.00966,-0.06485 L 5.9444188,9.474897 A 0.17046451,0.17046451 0 0 1 6.1058411,9.3617633 H 6.8798392 A 0.17046451,0.17046451 0 0 1 7.0398817,9.474897 l 2.0019102,5.584929 a 0.17046451,0.17046451 0 0 1 0.00966,0.06485 0.17046451,0.17046451 0 0 1 -0.1697004,0.176598 H 8.3574721 A 0.17046451,0.17046451 0 0 1 8.1974296,15.189515 L 7.7186822,13.869165 A 0.17046451,0.17046451 0 0 0 7.5586397,13.756032 Z M 14.804699,9.3355495 h 0.04415 a 0.17046451,0.17046451 0 0 1 0.171079,0.1697004 v 0.4911645 a 0.17046451,0.17046451 0 0 1 -0.02759,0.091059 l -2.735897,4.312868 a 0.17046451,0.17046451 0 0 0 0.143486,0.262138 h 2.448925 a 0.17046451,0.17046451 0 0 1 0.17108,0.1697 v 0.325604 a 0.17046451,0.17046451 0 0 1 -0.17108,0.1697 h -3.432638 a 0.17046451,0.17046451 0 0 1 -0.1697,-0.1697 v -0.491165 a 0.17046451,0.17046451 0 0 1 0.02621,-0.09106 l 2.737277,-4.312866 a 0.17046451,0.17046451 0 0 0 -0.143482,-0.262138 h -2.450305 a 0.17046451,0.17046451 0 0 1 -0.1697,-0.1697008 V 9.5052499 a 0.17046451,0.17046451 0 0 1 0.1697,-0.1697004 z"
     class="st2"
     id="path3"
     style="fill:#000000;fill-opacity:1;stroke:none;stroke-width:0.0331123;stroke-linecap:round;stroke-linejoin:round" />
</svg>