<?xml version="1.0" encoding="UTF-8" standalone="no"?>
<svg width="21" height="21" viewBox="0 0 21 21" xmlns="http://www.w3.org/2000/svg">
  <path
     d="m 10.498533,13.952605 6.393371,-6.3852229 1.127123,1.127123 a 0.23694855,0.23694855 0 0 0 0.392456,-0.092342 L 20.156489,3.3644326 A 0.23694855,0.23694855 0 0 0 19.857733,3.0643191 l -5.239089,1.7463628 a 0.23694855,0.23694855 0 0 0 -0.09234,0.3924563 l 1.108114,1.1081119 -5.431921,5.4332789 a 0.59237276,0.59237276 0 0 1 -0.7156602,0.0937 L 7.46752,10.671725 a 0.59237276,0.59237276 0 0 0 -0.7156556,0.0937 l -5.7469728,5.751046 a 0.59237276,0.59237276 0 0 0 0,0.837874 l 0.4182579,0.419617 a 0.59237276,0.59237276 0 0 0 0.8378738,0 L 7.047904,12.987082 a 0.59237276,0.59237276 0 0 1 0.7129398,-0.09642 l 2.024749,1.156998 A 0.59237276,0.59237276 0 0 0 10.498533,13.9526 Z"
     class="st2"
     id="path3"
     style="fill:#000000;fill-opacity:1;stroke:none;stroke-width:0.0325916;stroke-linecap:round;stroke-linejoin:round" />
</svg>