<?xml version="1.0" encoding="UTF-8" standalone="no"?>
<svg width="21" height="21" viewBox="0 0 21 21" xmlns="http://www.w3.org/2000/svg">
  <path
     d="m 9.1920791,8.4889648 a 1.3079213,1.3079213 0 1 0 2.6158419,0 1.3079213,1.3079213 0 0 0 -2.6158419,0 z M 3.6611983,20.556601 H 17.338802 a 1.2068662,1.2068662 0 0 0 1.206763,-1.206763 V 1.6501625 A 1.2068662,1.2068662 0 0 0 17.338802,0.44339897 H 3.6611983 A 1.2068662,1.2068662 0 0 0 2.4544346,1.6501625 V 19.349838 a 1.2068662,1.2068662 0 0 0 1.2067637,1.206763 z m 9.1867897,-3.144424 a 66.730754,55.886976 40 0 1 -3.698651,-3.537656 1.2069228,1.0107982 40 1 1 1.299372,-1.548703 66.730754,55.886976 40 0 1 4.126078,3.027595 1.6091559,1.3476672 40 0 1 0.09689,0.07551 1.6096665,1.3480949 40 0 1 -1.732497,2.065888 1.6091559,1.3476672 40 0 1 -0.09118,-0.08264 z m -4.1673935,-2.33944 a 6.6377699,6.6377699 0 0 1 -4.8185067,-6.3828825 6.6379126,6.6379126 0 1 1 13.2758242,0 6.6377699,6.6377699 0 0 1 -2.427775,5.1319505 91.381357,112.60815 40 0 0 -4.398204,-2.950658 1.65281,2.0367385 40 0 0 -2.618691,3.120204 91.381357,112.60815 40 0 0 0.9873525,1.081386 z"
     class="st2"
     id="path3"
     style="fill:#000000;fill-opacity:1;stroke:none;stroke-width:0.034194;stroke-linecap:round;stroke-linejoin:round" />
</svg>