<?xml version="1.0" encoding="UTF-8" standalone="no"?>
<svg width="21" height="21" viewBox="0 0 21 21" xmlns="http://www.w3.org/2000/svg">
  <path
     d="m 18.00202,10.317549 0.0028,0.0045 H 17.504156 L 16.384003,7.6554772 a 1.8348879,1.880867 0 0 0 -3.517819,-0.035781 l -0.0057,-0.0017 L 10.780408,16.624986 8.1695584,3.196041 A 1.6397556,1.6397556 0 0 0 4.9049542,3.1560006 L 4.89351,3.1531609 3.2383181,10.321843 H 1.2068817 v 1.849752 h 2.702383 A 1.1668228,1.1668228 0 0 0 4.9063854,11.324687 L 6.5129364,4.3677304 9.1452203,17.913981 a 1.6397556,1.6397556 0 0 0 0.025751,0.133048 l 0.015738,0.07582 h 0.00432 a 1.6397556,1.6397556 0 0 0 3.0242657,0.314729 l 1.048621,-4.33898 1.327587,-5.7523997 h 0.06151 l 0.01288,-0.052933 0.02146,0.052933 h 0.01001 l 1.266071,3.0113947 0.0887,0.208863 a 1.1668228,1.1668228 0 0 0 0.899841,0.605138 h 0.253214 a 1.1668228,1.1668228 0 0 0 0.03433,-0.0045 h 2.553599 v -1.849752 z"
     class="st2"
     id="path3"
     style="fill:#000000;fill-opacity:1;stroke:none;stroke-width:0.107294;stroke-linecap:round;stroke-linejoin:round" />
</svg>