<?xml version="1.0" encoding="UTF-8" standalone="no"?>
<svg width="21" height="21" viewBox="0 0 21 21" xmlns="http://www.w3.org/2000/svg">
  <path
     d="m 10.347899,13.767668 a 2.5707179,2.5707179 0 0 0 -0.0871,-0.0071 1.2546717,1.2546717 0 0 1 -1.1296906,-0.921174 0.64267946,0.64267946 0 0 1 -0.0143,-0.07284 2.9783623,2.9783623 0 0 1 0.14282,-1.462453 2.5707179,2.5707179 0 0 1 0.40275,-0.722657 7.147424,7.147424 0 0 1 1.1968106,-1.1882434 2.5707179,2.5707179 0 0 1 0.0157,-0.01285 5.9062243,5.9062243 0 0 0 1.03257,-1.0197184 1.2853589,1.2853589 0 0 0 0.27564,-0.844052 1.5113821,1.5113821 0 0 0 -0.47558,-1.045425 1.2853589,1.2853589 0 0 0 -0.20709,-0.158528 1.8199969,1.8199969 0 0 0 -1.8809106,-0.01428 1.2853589,1.2853589 0 0 0 -0.30991,0.255644 3.3141838,3.3141838 0 0 0 -0.7640801,1.551 0.64267946,0.64267946 0 0 1 -0.0257,0.0914 1.1257216,1.1257216 0 0 1 -1.08542,0.7469364 0.64267946,0.64267946 0 0 1 -0.0386,-0.0014 1.4113298,1.4113298 0 0 1 -0.91118,-0.4384504 1.2853589,1.2853589 0 0 1 -0.34704,-0.974016 3.5237401,3.5237401 0 0 1 1.56528,-2.682116 2.5707179,2.5707179 0 0 1 0.0571,-0.03713 5.4200016,5.4200016 0 0 1 4.4687607,-0.588408 l 0.01,0.0029 a 3.9149177,3.9149177 0 0 1 2.33507,1.93518 2.5707179,2.5707179 0 0 1 0.27278,0.874044 3.3047863,3.3047863 0 0 1 -0.29992,1.8337784 2.5707179,2.5707179 0 0 1 -0.64554,0.841196 l -1.40532,1.2053814 a 2.5707179,2.5707179 0 0 1 -0.0357,0.02999 2.750968,2.750968 0 0 0 -0.5427,0.602691 2.5707179,2.5707179 0 0 0 -0.36704,0.868331 l -0.11426,0.522713 a 2.5707179,2.5707179 0 0 0 -0.007,0.03428 1.0025328,1.0025328 0 0 1 -1.08113,0.795494 z M 8.9554284,15.59145 a 1.4259443,1.4259443 0 1 1 2.8506406,0 1.4259443,1.4259443 0 1 1 -2.8506406,0 z M 20.622202,10.5 a 10.122202,10.122202 0 1 0 -20.24440369,0 10.122202,10.122202 0 1 0 20.24440369,0 z"
     class="st2"
     id="path3"
     style="fill:#000000;fill-opacity:1;stroke:none;stroke-width:0.0342763;stroke-linecap:round;stroke-linejoin:round" />
</svg>