<?xml version="1.0" encoding="UTF-8" standalone="no"?>
<svg width="21" height="21" viewBox="0 0 21 21" xmlns="http://www.w3.org/2000/svg">
  <path
     d="m 6.8455933,16.279248 a 11.166871,11.166871 0 0 0 3.6529577,0.597439 h 0.0029 a 11.166712,11.166712 0 0 0 10.082334,-6.262212 0.26165233,0.26165233 0 0 0 0,-0.229672 11.167293,11.167293 0 0 0 -4.168988,-4.5992666 0.26165233,0.26165233 0 0 0 -0.328523,0.043611 l -0.56982,0.6090683 a 0.26165233,0.26165233 0 0 0 0.05815,0.4041075 9.9370032,9.9370032 0 0 1 3.497421,3.5250388 0.26165233,0.26165233 0 0 1 0,0.264559 9.9372212,9.9372212 0 0 1 -8.572023,4.921971 9.9370032,9.9370032 0 0 1 -2.8825357,-0.428819 0.26165233,0.26165233 0 0 0 -0.2674674,0.07123 L 6.7380232,15.853341 A 0.26165233,0.26165233 0 0 0 6.8455915,16.27925 Z M 9.1205152,13.815356 A 3.592443,3.592443 0 0 0 14.091909,10.499639 3.592443,3.592443 0 0 0 13.712513,8.8919309 0.26165233,0.26165233 0 0 0 13.286601,8.8294244 L 9.0289368,13.396711 a 0.26165233,0.26165233 0 0 0 0.091578,0.418645 z m -7.1620063,4.208239 0.6686676,0.623607 a 0.26165233,0.26165233 0 0 0 0.370674,-0.01309 L 17.254997,3.3449013 a 0.26165233,0.26165233 0 0 0 -0.01309,-0.370674 l -0.66867,-0.6221515 a 0.26165233,0.26165233 0 0 0 -0.369221,0.013084 l -2.048154,2.1949723 a 0.26165233,0.26165233 0 0 1 -0.26892,0.071227 11.166712,11.166712 0 0 0 -3.385491,-0.5087684 h -0.0029 a 11.166712,11.166712 0 0 0 -10.0823364,6.2622125 0.26165233,0.26165233 0 0 0 0,0.229672 11.166871,11.166871 0 0 0 3.6878443,4.285285 0.26165233,0.26165233 0 0 1 0.04361,0.393932 l -2.2007864,2.360682 a 0.26165233,0.26165233 0 0 0 0.011631,0.369221 z M 11.600397,7.0792616 a 3.592443,3.592443 0 0 0 -4.6922978,3.4203774 3.592443,3.592443 0 0 0 0.2572916,1.33588 0.26165233,0.26165233 0 0 1 -0.050876,0.276189 l -1.6803892,1.80104 a 0.26165233,0.26165233 0 0 1 -0.3328801,0.04216 9.9370032,9.9370032 0 0 1 -3.1732611,-3.324439 0.26165233,0.26165233 0 0 1 0,-0.263106 9.9372212,9.9372212 0 0 1 8.5720204,-4.9234243 9.9370032,9.9370032 0 0 1 2.083043,0.2224044 0.26165233,0.26165233 0 0 1 0.136641,0.4346337 l -0.847462,0.9085149 a 0.26165233,0.26165233 0 0 1 -0.271828,0.069774 z"
     class="st2"
     id="path3"
     style="fill:#000000;fill-opacity:1;stroke:none;stroke-width:0.034887;stroke-linecap:round;stroke-linejoin:round" />
</svg>