<?xml version="1.0" encoding="UTF-8" standalone="no"?>
<svg width="21" height="21" viewBox="0 0 21 21" xmlns="http://www.w3.org/2000/svg">
  <path
     id="path4"
     class="st2"
     d="m 10.499696,1.628252 a 0.26361961,0.26361961 0 0 0 -0.178707,0.069938 L 0.44983551,10.826629 a 0.26361961,0.26361961 0 0 0 0.17870722,0.456954 H 2.3495375 a 0.26361961,0.26361961 0 0 0 0.1772053,-0.06738 l 0.7352109,-0.67063 a 0.26361961,0.26361961 0 0 0 0.00155,0 L 10.321253,4.0750012 a 0.26361961,0.26361961 0 0 1 0.357413,0 l 7.765077,7.1193218 a 0.26361961,0.26361961 0 0 0 0.0016,0 l 0.0031,0.0031 0.01907,0.0176 a 0.26361961,0.26361961 0 0 0 0.178707,0.06885 h 1.725283 a 0.26361961,0.26361961 0 0 0 0.178662,-0.456953 L 16.333715,6.9269019 A 0.26361961,0.26361961 0 0 1 16.248758,6.7336054 V 3.3825719 A 0.26361961,0.26361961 0 0 0 15.985095,3.1191234 h -1.184868 a 0.26361961,0.26361961 0 0 0 -0.263664,0.2634485 v 1.280126 a 0.26361961,0.26361961 0 0 1 -0.44216,0.1932966 L 10.679015,1.6984769 a 0.26361961,0.26361961 0 0 0 -0.178707,-0.069938 z m -1.4e-4,4.6324412 A 0.659049,0.659049 0 0 0 10.054395,6.4338224 L 4.3705261,11.644648 a 0.659049,0.659049 0 0 0 -0.2138926,0.484844 v 6.583202 a 0.659049,0.659049 0 0 0 0.6590459,0.659054 H 16.183643 a 0.659049,0.659049 0 0 0 0.659046,-0.659054 v -6.583202 a 0.659049,0.659049 0 0 0 -0.213892,-0.484844 l -5.68394,-5.2108256 a 0.659049,0.659049 0 0 0 -0.44537,-0.1731292 z"
     style="fill:#000000;fill-opacity:1;stroke:none;stroke-width:0.0351493;stroke-linecap:round;stroke-linejoin:round" />
</svg>