<?xml version="1.0" encoding="UTF-8" standalone="no"?>
<svg width="21" height="21" viewBox="0 0 21 21" xmlns="http://www.w3.org/2000/svg">
  <path
     id="path4"
     class="st2"
     d="M 12.415405,4.9619352 A 1.2429362,1.2429362 0 0 0 11.247694,5.7791606 L 7.9400359,14.865857 a 0.87373008,0.87373008 0 0 0 0.821512,1.172208 H 9.1385753 A 1.2429362,1.2429362 0 0 0 10.306287,15.221051 L 13.61395,6.1341429 A 0.87373008,0.87373008 0 0 0 12.792654,4.9619352 Z m 3.106618,0.016059 A 0.5815211,0.5815211 0 0 0 14.931746,5.557353 v 0.9574645 a 1.2429362,1.2429362 0 0 0 0.342134,0.8564072 l 2.163067,2.2714056 a 1.2429362,1.2429362 0 0 1 0,1.7143137 L 15.27388,13.62835 a 1.2429362,1.2429362 0 0 0 -0.342134,0.857906 v 0.955964 a 0.5815211,0.5815211 0 0 0 1.001143,0.400371 l 4.273896,-4.485647 a 1.2429362,1.2429362 0 0 0 0,-1.7143137 L 15.932889,5.1569833 A 0.5815211,0.5815211 0 0 0 15.522023,4.9779942 Z M 5.4780798,4.9785751 a 0.5815211,0.5815211 0 0 0 -0.410862,0.178775 L 0.79331701,9.6430555 a 1.2429362,1.2429362 0 0 0 0,1.7145275 l 4.27390079,4.485646 a 0.5815211,0.5815211 0 0 0 1.0011408,-0.40037 V 14.485395 A 1.2429362,1.2429362 0 0 0 5.7262229,13.628988 L 3.5631526,11.357584 a 1.2429362,1.2429362 0 0 1 0,-1.7145277 L 5.7262229,7.3718651 A 1.2429362,1.2429362 0 0 0 6.0683586,6.5139583 V 5.5579943 A 0.5815211,0.5815211 0 0 0 5.4780798,4.9786347 Z"
     style="fill:#000000;fill-opacity:1;stroke:none;stroke-width:0.0350784;stroke-linecap:round;stroke-linejoin:round" />
</svg>