<?xml version="1.0" encoding="UTF-8" standalone="no"?>
<svg width="21" height="21" viewBox="0 0 21 21" xmlns="http://www.w3.org/2000/svg">
  <path
     id="path4"
     class="st2"
     d="M 10.340513,0.34685547 A 9.8318208,9.8102467 35 0 0 5.0855813,2.1040621 L 8.2427889,1.6430307 7.2305575,4.3808235 A 6.7555285,6.7162578 35 0 1 16.324813,6.446034 l -1.305496,0.2778758 3.627775,3.9331782 1.715806,-5.0687403 -0.86137,0.1827208 A 9.8318208,9.8102467 35 0 0 10.340513,0.34685547 Z M 7.0042681,2.486412 1.7445692,3.4708986 2.3252478,4.132642 A 9.8102467,9.8318208 5.7 0 0 6.1823457,18.498735 L 4.2352644,15.971192 7.1180637,15.513846 A 6.7162578,6.7555285 5.7 0 1 4.4684893,6.5726173 l 0.881313,1.0024769 z m 3.7948909,2.7059303 a 1.6567359,1.6567359 0 0 0 -1.6566339,1.65685 1.6567359,1.6567359 0 0 0 1.6566339,1.6566337 1.6567359,1.6567359 0 0 0 1.656634,-1.6566337 1.6567359,1.6567359 0 0 0 -1.656634,-1.65685 z M 9.5424322,9.0663458 a 12.489923,12.489923 0 0 1 -0.5134853,0.7131136 3.2180909,3.2180909 0 0 0 -0.3448521,0.7161486 7.6004912,7.6004912 0 0 0 -0.2278059,1.433813 7.3044493,7.3044493 0 0 0 -0.00153,0.998793 l 0.013211,0.0046 a 6.8626878,6.8877243 0 0 0 4.6625491,0 l 0.01344,-0.0046 a 7.3044493,7.3044493 0 0 0 -0.0015,-0.998793 7.6004912,7.6004912 0 0 0 -0.229322,-1.433813 3.2180909,3.2180909 0 0 0 -0.343336,-0.7161486 12.489923,12.489923 0 0 1 -0.513486,-0.7131136 2.5481757,2.5481757 0 0 1 -2.5138864,0 z M 20.023466,9.3591781 18.792532,12.302884 16.967048,10.025257 a 6.7162578,6.7555285 66 0 1 -6.454,6.73166 l 0.434153,-1.262362 -5.2397588,1.084193 3.4608768,4.081003 0.2871961,-0.832328 A 9.8102467,9.8318208 66 0 0 20.023466,9.3591781 Z"
     style="fill:#000000;fill-opacity:1;stroke:none;stroke-width:0.110977;stroke-linecap:round;stroke-linejoin:round" />
</svg>