<?xml version="1.0" encoding="UTF-8" standalone="no"?>
<svg width="21" height="21" viewBox="0 0 21 21" xmlns="http://www.w3.org/2000/svg">
  <path
     id="path4"
     class="st2"
     d="M 1.2649211,2.9565194 A 0.64949201,0.64949201 0 0 0 0.61542865,3.6060119 V 17.393989 A 0.64949201,0.64949201 0 0 0 1.2649211,18.043481 H 19.735079 a 0.64949201,0.64949201 0 0 0 0.649492,-0.649492 V 3.6060119 A 0.64949201,0.64949201 0 0 0 19.735079,2.9565194 Z M 2.9030295,4.7348017 H 18.09697 a 0.64949201,0.64949201 0 0 1 0.649493,0.6494924 V 15.615918 A 0.64949201,0.64949201 0 0 1 18.09697,16.26541 H 2.9030295 A 0.64949201,0.64949201 0 0 1 2.253537,15.615918 V 5.3842941 A 0.64949201,0.64949201 0 0 1 2.9030295,4.7348017 Z m 2.2275572,0.589026 a 2.3605426,2.3605426 0 0 0 -2.1842152,2.3539869 2.3605426,2.3605426 0 1 0 4.7210834,0 A 2.3605426,2.3605426 0 0 0 5.1305867,5.3238277 Z M 15.22119,7.0190191 11.457008,10.835 9.5563122,8.9068198 2.8535564,15.701967 H 16.257587 L 14.395581,13.814168 H 17.81768 V 9.6516642 Z"
     style="fill:#000000;fill-opacity:1;stroke:none;stroke-width:0.108248;stroke-linecap:round;stroke-linejoin:round" />
</svg>