<?xml version="1.0" encoding="UTF-8" standalone="no"?>
<svg width="21" height="21" viewBox="0 0 21 21" xmlns="http://www.w3.org/2000/svg">
  <path
     id="path4"
     class="st2"
     d="m 13.471879,3.2455491 a 0.2523091,0.2523091 0 0 0 -0.252345,0.2523445 v 1.3875881 a 0.2523091,0.2523091 0 0 0 0.252345,0.2523454 h 6.433663 A 0.2523091,0.2523091 0 0 0 20.157887,4.8854817 V 3.4978936 A 0.2523091,0.2523091 0 0 0 19.905542,3.2455491 Z M 1.3174415,3.2469782 A 0.47663494,0.47663494 0 0 0 0.84211345,3.7235379 V 17.27789 A 0.47663494,0.47663494 0 0 0 1.3174415,17.754451 H 11.436079 a 0.47663494,0.47663494 0 0 0 0.47656,-0.476561 V 3.7235462 a 0.47663494,0.47663494 0 0 0 -0.47656,-0.47656 z M 2.622284,4.4495683 h 7.508952 a 0.47663494,0.47663494 0 0 1 0.47656,0.4765603 V 11.3331 L 8.7902569,9.4901003 6.027399,12.290738 4.6328294,10.875019 2.145724,13.396003 V 4.9261363 A 0.47663494,0.47663494 0 0 1 2.622284,4.4495759 Z M 4.86033,5.4587427 a 1.7325261,1.7325261 0 1 0 0,3.4648656 1.7325261,1.7325261 0 1 0 0,-3.4648656 z m 8.611549,1.9918601 a 0.2523091,0.2523091 0 0 0 -0.252345,0.2523458 v 1.3875896 a 0.2523091,0.2523091 0 0 0 0.252345,0.2523448 h 6.433663 A 0.2523091,0.2523091 0 0 0 20.157887,9.0905382 V 7.7029486 A 0.2523091,0.2523091 0 0 0 19.905542,7.4506028 Z m 0,4.2050632 a 0.2523091,0.2523091 0 0 0 -0.252345,0.252345 v 1.38759 a 0.2523091,0.2523091 0 0 0 0.252345,0.252345 h 6.433663 a 0.2523091,0.2523091 0 0 0 0.252345,-0.252345 v -1.38759 a 0.2523091,0.2523091 0 0 0 -0.252345,-0.252345 z m -5.2873325,2.821583 h 2.4232495 v 1.598045 a 0.47663494,0.47663494 0 0 1 -0.47656,0.476561 H 2.622284 a 0.47663494,0.47663494 0 0 1 -0.47656,-0.476561 v -0.214565 h 7.4042354 z m 5.2873325,1.38348 a 0.2523091,0.2523091 0 0 0 -0.252345,0.252345 v 1.38759 a 0.2523091,0.2523091 0 0 0 0.252345,0.252342 h 6.433663 a 0.2523091,0.2523091 0 0 0 0.252345,-0.252342 v -1.38759 a 0.2523091,0.2523091 0 0 0 -0.252345,-0.252345 z"
     style="fill:#000000;fill-opacity:1;stroke:none;stroke-width:0.105126;stroke-linecap:round;stroke-linejoin:round" />
</svg>