<?xml version="1.0" encoding="UTF-8" standalone="no"?>
<svg width="21" height="21" viewBox="0 0 21 21" xmlns="http://www.w3.org/2000/svg">
  <path
     id="path4"
     class="st2"
     d="M 9.3350525,2.3991815 A 0.39667625,0.39667625 0 0 0 8.9377863,2.7952176 V 7.2733858 A 0.39667625,0.39667625 0 0 1 8.541749,7.669423 H 6.8749917 A 0.39667625,0.39667625 0 0 0 6.5783739,8.3298944 l 3.6243931,4.0804906 a 0.39667625,0.39667625 0 0 0 0.593236,0 L 14.42183,8.3298944 A 0.39667625,0.39667625 0 0 0 14.125214,7.669423 H 12.458661 A 0.39667625,0.39667625 0 0 1 12.06119,7.2733858 V 2.7952176 A 0.39667625,0.39667625 0 0 0 11.665153,2.3991815 Z M 1.9288366,8.8401086 A 1.1900273,1.1900273 0 0 0 0.73929048,10.030885 v 7.380387 A 1.1900273,1.1900273 0 0 0 1.9288366,18.600819 H 19.071165 A 1.1900273,1.1900273 0 0 0 20.26071,17.411272 V 10.030885 A 1.1900273,1.1900273 0 0 0 19.071165,8.8401086 H 18.522616 A 1.1900273,1.1900273 0 0 0 17.33184,10.030885 v 4.452955 a 1.1900273,1.1900273 0 0 1 -1.189544,1.189339 H 4.8577048 A 1.1900273,1.1900273 0 0 1 3.6681586,14.48384 l -0.00138,-4.452955 A 1.1900273,1.1900273 0 0 0 2.4773847,8.8401086 Z"
     style="fill:#000000;fill-opacity:1;stroke:none;stroke-width:0.0335852;stroke-linecap:round;stroke-linejoin:round" />
</svg>