<?xml version="1.0" encoding="UTF-8" standalone="no"?>
<svg width="21" height="21" viewBox="0 0 21 21" xmlns="http://www.w3.org/2000/svg">
  <path
     id="path4"
     class="st2"
     d="M 3.6544535,0.50976753 A 1.480088,1.480088 0 0 0 2.1748623,1.9893583 V 19.010418 a 1.480088,1.480088 0 0 0 1.4795912,1.479815 H 17.345547 a 1.480088,1.480088 0 0 0 1.47959,-1.479815 V 6.3665211 A 0.74004621,0.74004621 0 0 0 18.608831,5.8430322 L 13.491872,0.72607673 A 0.74004621,0.74004621 0 0 0 12.968387,0.50976753 Z M 4.7650334,2.5447603 h 7.7707336 a 0.74004621,0.74004621 0 0 1 0.739795,0.7397955 v 2.0349915 a 0.74004621,0.74004621 0 0 0 0.739797,0.7397957 h 2.219607 a 0.74004621,0.74004621 0 0 1 0.741348,0.7413448 V 17.715446 a 0.74004621,0.74004621 0 0 1 -0.741348,0.739795 H 4.7650334 A 0.74004621,0.74004621 0 0 1 4.0252374,17.715446 V 3.2845558 A 0.74004621,0.74004621 0 0 1 4.7650334,2.5447603 Z M 5.8886883,7.4112762 V 9.5604033 H 7.9312169 V 7.4112762 Z m 3.0795277,0 v 2.1491271 h 6.127581 V 7.4112762 Z M 5.8886883,10.775817 v 2.149351 h 2.0425286 v -2.149351 z m 3.063791,0 v 2.149351 h 6.1588327 v -2.149351 z m -3.063791,3.36476 v 2.149131 h 2.0425286 v -2.149131 z m 3.063791,0 v 2.149131 h 6.1588327 v -2.149131 z"
     style="fill:#000000;fill-opacity:1;stroke:none;stroke-width:0.113473;stroke-linecap:round;stroke-linejoin:round" />
</svg>