<?xml version="1.0" encoding="UTF-8" standalone="no"?>
<svg width="21" height="21" viewBox="0 0 21 21" xmlns="http://www.w3.org/2000/svg">
  <path
     d="m 20.464363,12.133583 v -0.1 -5.2228984 A 0.25714485,0.25714485 0 0 0 20.058649,6.6006848 l -6.85291,4.8800312 A 0.25714485,0.25714485 0 0 1 12.800016,11.270715 V 6.8106856 A 0.25714485,0.25714485 0 0 0 12.392876,6.6006848 L 5.5413911,11.480716 A 0.25714485,0.25714485 0 0 1 5.1342423,11.270715 V 2.3263666 A 0.25714485,0.25714485 0 0 0 4.8770966,2.0692209 H 0.79278197 A 0.25714485,0.25714485 0 0 0 0.53563722,2.3263666 V 18.673633 a 0.25714485,0.25714485 0 0 0 0.25714475,0.257146 H 3.8570915 5.1342423 20.207218 a 0.25714485,0.25714485 0 0 0 0.257145,-0.257146 z"
     class="st2"
     id="path3"
     style="fill:#000000;fill-opacity:1;stroke:none;stroke-width:0.107143;stroke-linecap:round;stroke-linejoin:round" />
</svg>