<?xml version="1.0" encoding="UTF-8" standalone="no"?>
<svg width="21" height="21" viewBox="0 0 21 21" xmlns="http://www.w3.org/2000/svg">
  <path
     d="m 11.704447,10.340811 v -0.0087 a 3.2178649,3.2033132 0 0 1 0.0013,-0.0259 l -0.0026,0.0014 A 5.6026531,5.5962912 0 0 0 10.494099,7.0302785 l -0.0026,0.00427 A 5.6217387,5.5962912 0 0 0 9.3889724,5.9809489 5.6217387,5.5962912 0 0 0 0.46074021,10.500484 5.6217387,5.5962912 0 0 0 3.749632,15.584244 5.6026531,5.5962912 0 0 0 6.0928735,16.102408 5.6217387,5.5962912 0 0 0 7.7509962,15.85052 5.6217387,5.5962912 0 0 0 9.3889724,15.032981 7.1479882,7.122555 0 0 1 8.1871256,12.930093 3.2178649,3.2033132 0 0 1 6.9305718,13.596508 3.2178649,3.2033132 0 1 1 6.0885648,7.303705 3.2178649,3.2033132 0 0 1 8.441886,8.3141225 a 3.2178649,3.2033132 0 0 1 0.8549721,2.0222765 3.2178649,3.2033132 0 0 1 0.00129,0.0259 5.6217387,5.5962912 0 0 0 0,0.26196 3.2178649,3.2033132 0 0 1 -0.00259,0.03455 l 0.00129,0.0087 a 3.2178649,3.2033132 0 0 1 -0.00129,0.02735 l 0.00129,-0.0014 a 5.6026531,5.5962912 0 0 0 1.2090409,3.27594 l 0.0026,-0.0039 a 5.6217387,5.5962912 0 0 0 1.102539,1.053589 5.6217387,5.5962912 0 0 0 8.928232,-4.518092 5.6217387,5.5962912 0 0 0 -3.288891,-5.0851968 5.6026531,5.5962912 0 0 0 -2.343255,-0.5181628 5.6217387,5.5962912 0 0 0 -1.658122,0.2518853 5.6217387,5.5962912 0 0 0 -1.637964,0.8189855 7.1479882,7.122555 0 0 1 1.201847,2.1028787 3.2178649,3.2033132 0 0 1 1.256541,-0.6678541 3.2178649,3.2033132 0 1 1 0.84202,6.2928022 3.2178649,3.2033132 0 0 1 -2.353322,-1.010417 3.2178649,3.2033132 0 0 1 -0.854972,-2.020837 3.2178649,3.2033132 0 0 1 -0.0013,-0.02735 5.6217387,5.5962912 0 0 0 0,-0.261959 3.2178649,3.2033132 0 0 1 0.0026,-0.03455 z"
     class="st2"
     id="path3"
     style="fill:#000000;fill-opacity:1;stroke:none;stroke-width:0.10795;stroke-linecap:round;stroke-linejoin:round" />
</svg>