<?xml version="1.0" encoding="UTF-8" standalone="no"?>
<svg width="21" height="21" viewBox="0 0 21 21" xmlns="http://www.w3.org/2000/svg">
  <path
     d="m 8.6926793,9.5917695 a 0.21033533,0.21033533 0 0 0 0.2662982,0.1120513 l 0.1037244,-0.037833 a 0.31535372,0.31535372 0 0 1 0.3489881,0.089605 1.2941626,1.2941626 0 0 1 0.3139608,0.8675732 0.63070744,0.63070744 0 0 0 0,0.01267 v 4.211715 a 0.63070744,0.63070744 0 0 1 -0.023895,0.168168 1.3218773,1.3218773 0 0 1 -0.9670983,0.933446 0.15767686,0.15767686 0 0 0 -0.1220074,0.154229 0.24692338,0.24692338 0 0 0 0.2466757,0.246676 H 12.22872 a 0.15767686,0.15767686 0 0 0 0.156944,-0.156944 v -0.04345 a 0.15767686,0.15767686 0 0 0 -0.106439,-0.150065 1.7855889,1.7855889 0 0 1 -0.94887,-0.747033 0.63070744,0.63070744 0 0 1 -0.09522,-0.333583 l -0.0091,-6.2622176 a 0.15767686,0.15767686 0 0 0 -0.156944,-0.1569442 4.8887816,4.8887816 0 0 0 -0.107888,0 0.63070744,0.63070744 0 0 0 -0.228465,0.046341 L 8.7986302,9.3324586 A 0.1957898,0.1957898 0 0 0 8.6934576,9.5917514 Z m 0.56623,-3.7001356 a 1.2415757,1.2415757 0 1 0 2.4821797,0 1.2415757,1.2415757 0 1 0 -2.4821797,0 z M 2.143127,10.5 a 8.3568737,8.3568737 0 1 1 16.713742,0 8.3568737,8.3568737 0 1 1 -16.713742,0 z m 18.290515,0 a 9.9336428,9.9336428 0 1 0 -19.86728445,0 9.9336428,9.9336428 0 1 0 19.86728445,0 z"
     class="st2"
     id="path3"
     style="fill:#000000;fill-opacity:1;stroke:none;stroke-width:0.0336378;stroke-linecap:round;stroke-linejoin:round" />
</svg>