<?xml version="1.0" encoding="UTF-8" standalone="no"?>
<svg width="21" height="21" viewBox="0 0 21 21" xmlns="http://www.w3.org/2000/svg">
  <path
     id="path4"
     class="st2"
     d="M 4.7664812,0.3820246 A 1.5177567,1.5177567 0 0 0 3.2485716,1.9001455 V 2.6307466 H 5.7784905 A 1.5177567,1.5177567 0 0 1 7.2966121,4.1488674 V 4.7099872 A 1.5177567,1.5177567 0 0 1 5.7784905,6.2278943 H 3.2485716 v 2.586625 h 2.5299189 a 1.5177567,1.5177567 0 0 1 1.5181216,1.5166347 v 0.562605 A 1.5177567,1.5177567 0 0 1 5.7784905,12.411667 H 3.2485716 v 2.585138 h 2.5299189 a 1.5177567,1.5177567 0 0 1 1.5181216,1.518118 V 17.07732 A 1.5177567,1.5177567 0 0 1 5.7784905,18.595439 H 3.2485716 v 0.5059 a 1.5177567,1.5177567 0 0 0 1.5179096,1.516636 H 18.93165 a 1.5177567,1.5177567 0 0 0 1.518118,-1.516636 V 1.9001455 A 1.5177567,1.5177567 0 0 0 18.93165,0.3820246 Z M 1.4925804,3.4879285 A 0.94200607,0.94200318 0 0 0 0.55023245,4.4302764 0.94200607,0.94200318 0 0 0 1.4925804,5.3713494 H 5.0041387 A 0.94200607,0.94200318 0 0 0 5.9466986,4.4302764 0.94200607,0.94200318 0 0 0 5.0041387,3.4879285 Z M 14.49367,7.4444311 h 0.207286 a 0.48216127,0.48216127 0 0 1 0.453865,0.6467091 l -1.825444,5.0150278 a 0.68590478,0.68590478 0 0 1 -0.645219,0.450885 H 12.47687 A 0.48216127,0.48216127 0 0 1 12.023007,12.910345 L 13.848443,7.8953214 A 0.68590478,0.68590478 0 0 1 14.49367,7.4444311 Z m 1.712876,0.00871 a 0.32090778,0.32090778 0 0 1 0.227044,0.098544 l 2.358946,2.4763989 a 0.68590478,0.68590478 0 0 1 0,0.94532 l -2.358946,2.474912 a 0.32090778,0.32090778 0 0 1 -0.552416,-0.22024 v -0.527778 a 0.68590478,0.68590478 0 0 1 0.188601,-0.472764 l 1.194654,-1.254129 a 0.68590478,0.68590478 0 0 0 0,-0.945321 L 16.069775,8.7739589 A 0.68590478,0.68590478 0 0 1 15.881174,8.3014051 V 7.7736308 a 0.32090778,0.32090778 0 0 1 0.325372,-0.3204876 z m -5.541735,0.00145 A 0.32090778,0.32090778 0 0 1 10.99082,7.7735924 V 8.3013668 A 0.68590478,0.68590478 0 0 1 10.802223,8.7739214 L 9.6075634,10.028049 a 0.68590478,0.68590478 0 0 0 0,0.94532 l 1.1946596,1.254125 a 0.68590478,0.68590478 0 0 1 0.188597,0.472772 v 0.52777 a 0.32090778,0.32090778 0 0 1 -0.552411,0.221729 L 8.0794597,10.973369 a 0.68590478,0.68590478 0 0 1 0,-0.94532 L 10.438409,7.5531378 a 0.32090778,0.32090778 0 0 1 0.226402,-0.098547 z M 1.4925804,9.6712438 A 0.94200607,0.94200318 0 0 0 0.55023245,10.613803 0.94200607,0.94200318 0 0 0 1.4925804,11.554665 H 5.0041387 A 0.94200607,0.94200318 0 0 0 5.9466986,10.613803 0.94200607,0.94200318 0 0 0 5.0041387,9.6712438 Z m 0,6.1835582 a 0.94200607,0.94200318 0 0 0 -0.94234795,0.94235 0.94200607,0.94200318 0 0 0 0.94234795,0.941073 h 3.5115583 a 0.94200607,0.94200318 0 0 0 0.9425599,-0.941073 0.94200607,0.94200318 0 0 0 -0.9425599,-0.94235 z"
     style="fill:#000000;fill-opacity:1;stroke:none;stroke-width:0.034797;stroke-linecap:round;stroke-linejoin:round" />
</svg>