<?xml version="1.0" encoding="UTF-8" standalone="no"?>
<svg width="21" height="21" viewBox="0 0 21 21" xmlns="http://www.w3.org/2000/svg">
  <path
     d="M 12.832444,5.1537196 V 2.3722995 a 0.4405746,0.4405746 0 0 1 0.20797,-0.3749101 0.75973027,0.75973027 0 1 0 -0.802169,0 0.4405746,0.4405746 0 0 1 0.209385,0.3749101 v 2.77435 a 3.2905333,3.268746 0 0 0 -1.134638,0.24758 v -0.49516 a 0.4405746,0.4405746 0 0 1 0.20797,-0.3734999 0.75973027,0.75973027 0 1 0 -0.802169,0 0.4405746,0.4405746 0 0 1 0.209386,0.3734999 V 5.5838096 A 3.2905333,3.268746 0 0 0 9.7680752,6.7099596 2.2028659,2.2028659 0 0 0 8.9475142,6.1652795 V 5.3008596 A 0.4405746,0.4405746 0 0 0 8.7918902,4.9655595 l -0.318321,-0.27164 a 0.4405746,0.4405746 0 0 1 -0.149964,-0.40603 0.75973027,0.75973027 0 1 0 -0.5248761,0.6055201 0.4405746,0.4405746 0 0 1 0.4145251,0.0835 l 0.1909919,0.1598599 a 0.4405746,0.4405746 0 0 1 0.1570381,0.33813 v 0.5843 A 2.2028659,2.2028659 0 0 0 6.1576081,9.1221498 2.2181735,2.2028659 0 0 0 4.196751,10.86938 H 2.981472 a 0.4405746,0.4405746 0 0 1 -0.374911,-0.207971 0.75973027,0.75973027 0 1 0 0,0.800761 0.4405746,0.4405746 0 0 1 0.374911,-0.20797 h 1.170006 a 2.2181735,2.2028659 0 0 0 0.215044,1.00731 H 4.0354681 A 0.4405746,0.4405746 0 0 0 3.70017,12.41713 l -0.271634,0.31832 a 0.4405746,0.4405746 0 0 1 -0.404621,0.14996 0.75973027,0.75973027 0 1 0 0.6041021,0.52488 0.4405746,0.4405746 0 0 1 0.08347,-0.41452 l 0.1612831,-0.191 a 0.4405746,0.4405746 0 0 1 0.336712,-0.15704 h 0.3933039 a 2.2181735,2.2028659 0 0 0 2.1377021,0.83896 3.0840208,3.0840208 0 0 0 0.5687331,1.08936 v 0.61401 a 0.42297357,0.42297357 0 0 1 -0.4230131,0.42301 h -0.138647 a 0.4405746,0.4405746 0 0 1 -0.373496,-0.20797 0.75973027,0.75973027 0 1 0 0,0.80217 0.4405746,0.4405746 0 0 1 0.373496,-0.20797 h 0.439991 a 0.4405746,0.4405746 0 0 0 0.226361,-0.0637 l 0.053761,-0.0325 a 0.4405746,0.4405746 0 0 0 0.1598679,-0.16694 l 0.01415,-0.0241 a 0.4405746,0.4405746 0 0 0 0.05235,-0.2108 v -0.529121 a 3.0840208,3.0840208 0 0 0 1.250647,0.64938 v 1.011551 a 0.4405746,0.4405746 0 0 1 -0.207969,0.37491 0.75973027,0.75973027 0 1 0 0.8021691,0 0.4405746,0.4405746 0 0 1 -0.2079707,-0.374905 v -0.9394 a 3.0840208,3.0840208 0 0 0 0.8417815,-0.0127 v 2.65975 a 0.4405746,0.4405746 0 0 1 -0.157038,0.33671 l -0.1909925,0.16128 a 0.4405746,0.4405746 0 0 1 -0.414525,0.0835 0.75973027,0.75973027 0 1 0 0.524876,0.604109 0.4405746,0.4405746 0 0 1 0.1485495,-0.404619 l 0.319736,-0.27164 a 0.4405746,0.4405746 0 0 0 0.155623,-0.335301 v -2.918641 a 3.0840208,3.0840208 0 0 0 1.26621,-0.72435 1.6521566,1.6521566 0 0 0 0.401792,0.25748 v 0.45131 a 0.4405746,0.4405746 0 0 1 -0.207969,0.3735 0.75973027,0.75973027 0 1 0 0.800753,0 0.4405746,0.4405746 0 0 1 -0.207969,-0.3735 v -0.331051 a 1.6521566,1.6521566 0 0 0 1.319971,-0.329639 v 0.54751 a 0.4405746,0.4405746 0 0 0 0.155623,0.3353 l 0.318321,0.27163 a 0.4405746,0.4405746 0 0 1 0.149965,0.40462 0.75973027,0.75973027 0 1 0 0.524876,-0.6041 0.4405746,0.4405746 0 0 1 -0.414525,-0.0835 l -0.190993,-0.161284 a 0.4405746,0.4405746 0 0 1 -0.157037,-0.33671 v -0.80925 a 1.6521566,1.6521566 0 0 0 0.241923,-0.84461 2.3405504,2.313005 0 0 0 1.94671,-0.26739 v 0.4697 a 0.4405746,0.4405746 0 0 0 0.05235,0.20939 l 0.01414,0.0241 a 0.4405746,0.4405746 0 0 0 0.159868,0.16835 l 0.05376,0.0325 a 0.4405746,0.4405746 0 0 0 0.226362,0.0623 h 0.43999 a 0.4405746,0.4405746 0 0 1 0.373496,0.207969 0.75973027,0.75973027 0 1 0 0,-0.802169 0.4405746,0.4405746 0 0 1 -0.373496,0.20939 h -0.138636 a 0.42297357,0.42297357 0 0 1 -0.423012,-0.423026 v -0.46545 a 2.3405504,2.313005 0 0 0 0.655033,-2.03726 h 0.473945 a 0.4405746,0.4405746 0 0 1 0.373496,0.20939 0.75973027,0.75973027 0 1 0 0,-0.80217 0.4405746,0.4405746 0 0 1 -0.373496,0.20797 H 17.443147 A 2.3405504,2.313005 0 0 0 15.776559,9.1745498 3.2905333,3.268746 0 0 0 15.128599,6.3506896 v -0.43575 a 0.4405746,0.4405746 0 0 1 0.158454,-0.3367101 l 0.190992,-0.16128 a 0.4405746,0.4405746 0 0 1 0.414525,-0.0835 0.75973027,0.75973027 0 1 0 -0.524876,-0.6041101 0.4405746,0.4405746 0 0 1 -0.149965,0.40463 l -0.318321,0.2716297 a 0.4405746,0.4405746 0 0 0 -0.155622,0.3353001 v 0.2122099 a 3.2905333,3.268746 0 0 0 -1.911342,-0.79934 z m 0.304175,2.1914599 a 0.14215224,0.14215224 0 0 1 0.01415,0 z m -5.2431009,-2.93421 -0.02547,0.0297 a 0.22028659,0.22028659 0 0 1 -0.01698,0.0184 0.40202381,0.40202381 0 1 1 0.05659,-0.0679 0.22028659,0.22028659 0 0 1 -0.01415,0.0198 z m 2.8252749,-0.53053 a 0.4020224,0.40202523 0 1 1 0.803584,0 0.4020224,0.40202523 0 1 1 -0.803584,0 z m 1.519452,-2.5281801 a 0.40202381,0.40202523 0 1 1 0.803584,0 0.40202381,0.40202523 0 1 1 -0.803584,0 z m 3.559536,3.4987002 a 0.22028659,0.22028659 0 0 1 -0.01415,-0.0198 0.40202381,0.40202381 0 1 1 0.05659,0.0679 0.22028659,0.22028659 0 0 1 -0.01698,-0.017 z m 3.241215,5.5826504 a 0.40202381,0.40202381 0 1 1 0,0.80358 0.40202381,0.40202381 0 1 1 0,-0.80358 z m -0.164113,3.71233 a 0.40249919,0.40249778 0 1 1 -0.804997,0 0.40249919,0.40249778 0 1 1 0.804997,0 z m -3.889174,2.21126 0.02546,-0.0311 a 0.22028659,0.22028659 0 0 1 0.01698,-0.017 0.40202381,0.40202381 0 1 1 -0.05659,0.0679 0.22028659,0.22028659 0 0 1 0.01414,-0.0198 z m -2.968166,0.24193 a 0.40202381,0.40202381 0 1 1 0.803583,0 0.40202381,0.40202381 0 1 1 -0.803583,0 z M 9.5049291,19.4046 a 0.22028659,0.22028659 0 0 1 0.01415,0.0198 0.40202381,0.40202381 0 1 1 -0.05659,-0.0679 0.22028659,0.22028659 0 0 1 0.01556,0.017 z M 8.7353002,17.65312 a 0.40249918,0.4025006 0 1 1 0.8049979,0 0.40249918,0.4025006 0 1 1 -0.8049979,0 z M 5.3257291,15.805449 a 0.40249917,0.40249917 0 1 1 0.804998,0 0.40249917,0.40249917 0 1 1 -0.804998,0 z m -2.1801451,-2.48998 0.03113,0.0255 a 0.22028659,0.22028659 0 0 1 0.01698,0.017 0.40202381,0.40202381 0 1 1 -0.067911,-0.05659 0.22028659,0.22028659 0 0 1 0.019811,0.0142 z m -1.184154,-2.6555 a 0.40202381,0.40202381 0 1 1 0,0.803581 0.40202381,0.40202381 0 1 1 0,-0.803581 z"
     class="st2"
     id="iot"
     style="fill:#000000;fill-opacity:1;stroke:none;stroke-width:0.035369;stroke-linecap:round;stroke-linejoin:round" />
</svg>