<?xml version="1.0" encoding="UTF-8" standalone="no"?>
<svg width="21" height="21" viewBox="0 0 21 21" xmlns="http://www.w3.org/2000/svg">
  <path
     d="m 16.886021,3.3437521 h -0.980645 a 2.1598296,1.9385618 0 0 1 0.0015,0.060849 2.1598296,1.9385618 0 0 1 -1.680654,1.889133 v 0.00139 H 6.9108807 A 1.064204,0.95517965 0 0 1 6.5766419,5.2456 2.1598296,1.9385618 0 0 1 5.0946393,3.4059951 2.1598296,1.9385618 0 0 1 5.0962077,3.3451463 H 4.1139872 a 2.0885732e-4,1.8746054e-4 0 0 0 -1.539e-4,1.383e-4 l 1.539e-4,0.00128 H 3.4045178 a 2.0885732e-4,1.8746054e-4 0 0 1 -2.01e-4,-1.377e-4 l 2.01e-4,-0.00128 H 3.2011362 A 1.1758824,1.0554168 0 0 0 2.0249941,4.4007975 V 19.392169 a 1.1758824,1.0554168 0 0 0 1.1761421,1.054234 H 17.798864 a 1.1758824,1.0554168 0 0 0 1.176142,-1.054234 V 4.4008178 A 1.1758824,1.0554168 0 0 0 17.811475,3.3451672 v 0 a 0.00128595,0.00115421 0 0 0 -0.0012,-0.00111 l -0.924202,0.00111 A 2.0885732e-4,1.8746054e-4 0 0 1 16.885889,3.345029 Z M 9.0187934,1.8621626 v 0 a 0.0011443,0.00102707 0 0 1 -0.00111,9.875e-4 L 7.8001301,1.8635748 A 1.4744948,1.3234374 0 0 0 6.3260105,3.1866752 1.4744948,1.3234374 0 0 0 7.8001301,4.5097761 H 13.19998 A 1.4744948,1.3234374 0 0 0 14.6741,3.1866786 1.4744948,1.3234374 0 0 0 13.19998,1.8635783 h -1.217134 a 0.0011443,0.00102707 0 0 1 -0.0011,-9.876e-4 l -4.72e-4,-0.00186 a 1.4814272,1.3296595 0 0 0 -2.9624292,0 1.064204,0.95517965 0 0 0 0,0.00139 z M 3.8522797,8.4861562 a 0.20650918,0.18535296 0 0 1 0.2822112,-0.0099 4.2568161,3.8207186 0 0 0 0.058333,0.04387 l 1.0642044,0.7867851 a 4.2568161,3.8207186 0 0 1 0.012612,0.0099 0.15289427,0.13723072 0 0 0 0.2058848,-0.00863 A 628.31868,563.94937 0 0 1 7.28138,7.2946629 0.19712527,0.1769304 0 0 1 7.5430956,7.2578681 l 0.2286069,0.1669798 a 0.1984764,0.17814312 0 0 1 0.011037,0.2377335 4.2568161,3.8207186 0 0 0 -0.042569,0.046699 L 5.7757303,9.9040679 A 0.54093884,0.48552133 0 0 1 5.0725672,9.9153979 4.2568161,3.8207186 0 0 0 4.9905832,9.8573869 35.687569,32.031489 0 0 1 3.707232,8.9121131 4.2568161,3.8207186 0 0 0 3.700932,8.9078731 0.18489401,0.16595221 0 0 1 3.667821,8.6899509 Z m 0,3.7980768 a 0.20650918,0.18535296 0 0 1 0.2822112,-0.01132 4.2568161,3.8207186 0 0 0 0.058333,0.04528 l 1.0642044,0.786788 a 4.2568161,3.8207186 0 0 1 0.012612,0.0099 0.15289427,0.13723072 0 0 0 0.2058848,-0.0086 628.31868,563.94937 0 0 1 1.8058547,-2.01352 0.19712527,0.1769304 0 0 1 0.2617156,-0.03679 l 0.2286069,0.166979 a 0.1984764,0.17814312 0 0 1 0.011037,0.237735 4.2568161,3.8207186 0 0 0 -0.042569,0.04669 l -1.9644415,2.19479 a 0.54093884,0.48552133 0 0 1 -0.7031631,0.01133 4.2568161,3.8207186 0 0 0 -0.081983,-0.05803 35.687569,32.031489 0 0 1 -1.2833512,-0.945273 4.2568161,3.8207186 0 0 0 -0.00631,-0.0041 0.18489401,0.16595221 0 0 1 -0.033112,-0.21792 z m 0,3.798078 a 0.20650918,0.18535296 0 0 1 0.2822112,-0.01133 4.2568161,3.8207186 0 0 0 0.058333,0.04531 l 1.0642044,0.786786 a 4.2568161,3.8207186 0 0 1 0.012612,0.0099 0.15289427,0.13723072 0 0 0 0.2058848,-0.0086 628.31868,563.94937 0 0 1 1.8058547,-2.013519 0.19712527,0.1769304 0 0 1 0.2617156,-0.03678 l 0.2286069,0.166982 a 0.1984764,0.17814312 0 0 1 0.011037,0.23773 4.2568161,3.8207186 0 0 0 -0.042569,0.04671 l -1.964441,2.194735 a 0.54093884,0.48552133 0 0 1 -0.7031631,0.01133 4.2568161,3.8207186 0 0 0 -0.081983,-0.05803 35.687569,32.031489 0 0 1 -1.2833512,-0.945274 4.2568161,3.8207186 0 0 0 -0.00631,-0.0041 0.18489401,0.16595221 0 0 1 -0.033112,-0.217926 z m 5.2642628,1.53961 a 0.2577171,0.23131478 0 0 1 -0.2569859,-0.23066 v -0.693388 a 0.2577171,0.23131478 0 0 1 0.2569859,-0.232077 h 7.9886245 a 0.2577171,0.23131478 0 0 1 0.258563,0.232077 v 0.693388 a 0.2577171,0.23131478 0 0 1 -0.258563,0.23066 z m 0,-3.798081 A 0.2577171,0.23131478 0 0 1 8.8595566,13.593186 v -0.693393 a 0.2577171,0.23131478 0 0 1 0.2569859,-0.232072 h 7.9886245 a 0.2577171,0.23131478 0 0 1 0.258563,0.232072 v 0.693393 a 0.2577171,0.23131478 0 0 1 -0.258563,0.230654 z m 0,-3.798075 A 0.2577171,0.23131478 0 0 1 8.8595566,9.7951066 V 9.1017169 A 0.2577171,0.23131478 0 0 1 9.1165425,8.8696432 h 7.9886245 a 0.2577171,0.23131478 0 0 1 0.258563,0.2320737 v 0.6933897 a 0.2577171,0.23131478 0 0 1 -0.258563,0.2306584 z"
     class="st2"
     id="path3"
     style="fill:#000000;fill-opacity:1;stroke:none;stroke-width:0.0358479;stroke-linecap:round;stroke-linejoin:round" />
</svg>