<?xml version="1.0" encoding="UTF-8" standalone="no"?>
<svg width="21" height="21" viewBox="0 0 21 21" xmlns="http://www.w3.org/2000/svg">
  <path
     d="m 16.22709,18.108762 0.596202,-0.0084 a 0.82131988,0.82131988 0 0 1 0.831812,0.831812 l -0.01746,1.369614 a 0.00774233,0.00774233 0 0 0 0.01325,0.0053 l 9.4e-5,-5.47e-4 a 0.04633317,0.04633317 0 0 1 0.0325,-0.01357 l 1.987612,-0.01094 a 0.82131988,0.82131988 0 0 0 0.816444,-0.816444 l 0.01125,-2.004747 a 0.00444049,0.00444049 0 0 1 0.0011,-0.0032 l -3.26e-4,1.05e-4 a 0.00182512,0.00182512 0 0 0 0,-0.0021 L 10.750409,7.7048487 A 0.82131988,0.82131988 0 0 1 10.531188,6.936549 5.083723,5.083723 0 0 0 1.9887354,2.1782256 a 5.083723,5.083723 0 0 0 4.757303,8.5434724 0.82131988,0.82131988 0 0 1 0.7693201,0.218201 l 0.4476674,0.447657 a 0.82131988,0.82131988 0 0 0 0.5910799,0.240732 l 1.9156212,-0.02461 a 0.82131988,0.82131988 0 0 1 0.831812,0.831812 l -0.01536,1.170884 a 0.82131988,0.82131988 0 0 0 0.831812,0.831812 l 0.465076,-0.0063 a 0.82131988,0.82131988 0 0 1 0.831812,0.831812 l -0.0074,0.570589 a 0.82131988,0.82131988 0 0 0 0.831812,0.831812 l 0.537813,-0.0074 a 0.71527812,0.71527812 0 0 1 0.724248,0.724258 v 0 a 0.71527812,0.71527812 0 0 0 0.725267,0.725267 z M 3.3370914,3.5264554 A 1.9065139,1.9065139 0 1 1 6.0333092,6.2226732 1.9065139,1.9065139 0 0 1 3.3370914,3.5264554 Z"
     class="st2"
     id="path3"
     style="fill:#000000;fill-opacity:1;stroke:none;stroke-width:0.0347693;stroke-linecap:round;stroke-linejoin:round" />
</svg>