<?xml version="1.0" encoding="UTF-8" standalone="no"?>
<svg width="21" height="21" viewBox="0 0 21 21" xmlns="http://www.w3.org/2000/svg">
  <path
     d="M 8.5972783,8.1975896 Q 8.5102043,6.7012043 7.9877553,5.2265059 7.2476191,3.1012046 7.2476191,2.2987945 q 0,-1.1277104 0.522449,-1.71325283 Q 8.3142857,0 9.0979589,0 q 0.6748295,0 1.1755101,0.58554167 0.50068,0.58554243 0.50068,1.66987993 0,0.9759033 -0.587755,2.7325299 Q 9.6204071,6.7228912 9.4897955,8.1975896 10.687074,7.438554 11.644898,6.3542164 13.12517,4.6409635 13.843537,4.2289151 q 0.718368,-0.4120478 1.458504,-0.4120478 0.718367,0 1.197278,0.4987951 Q 17,4.7927706 17,5.4650597 17,6.2674698 16.281632,6.896385 15.563264,7.5253006 12.689796,8.1542167 11.013604,8.5228911 9.9034009,9.0000003 q 1.1319721,0.5855412 2.7646261,0.8891571 2.634014,0.4771076 3.439456,1.1927706 0.82721,0.715662 0.82721,1.561445 0,0.650601 -0.50068,1.127711 -0.478912,0.477109 -1.131972,0.477109 -0.653062,0 -1.458504,-0.455422 -0.783674,-0.455422 -2.133334,-2.038554 -0.892517,-1.06265 -2.2204075,-1.9951816 0.043539,1.2361456 0.5006793,2.6891576 0.7836742,2.559035 0.7836742,3.491566 0,0.86747 -0.522449,1.474698 Q 9.729251,18 9.1414961,18 8.3360545,18 7.6829929,17.371085 7.2258503,16.915662 7.2258503,15.918072 q 0,-1.040964 0.5006803,-2.493977 0.5006799,-1.474698 0.6312928,-2.016867 0.130612,-0.563855 0.2394549,-1.6481926 -1.2843528,0.8457846 -2.2421764,1.8867476 -1.5891156,1.778312 -2.3945577,2.255422 -0.5659865,0.346988 -1.17551,0.346988 -0.7401362,0 -1.2625852,-0.498796 Q 1,13.250601 1,12.643373 1,12.101205 1.4353738,11.515663 1.8925171,10.908434 2.7850342,10.518073 3.3727889,10.257831 5.4625849,9.8240966 6.8122446,9.5421691 8.0965984,9.0000003 6.9210886,8.4144573 5.2884352,8.0891561 2.6108846,7.5253006 1.9795916,7.0698792 1,6.3542164 1,5.3349393 1,4.749397 1.4789114,4.2722887 1.9795916,3.7734936 2.6326527,3.7734936 q 0.7183675,0 1.5238102,0.4554215 0.8054417,0.455422 2.0027207,1.8433738 1.1972788,1.3662651 2.4380947,2.1253007 z"
     id="kleenestar"
     style="font-size:60px;font-family:'Times New Roman', Times, serif;text-anchor:middle;fill:#000000;fill-opacity:1;stroke:none;stroke-width:0.741639"
     aria-label="*" />
</svg>