<?xml version="1.0" encoding="UTF-8" standalone="no"?>
<svg width="21" height="21" viewBox="0 0 21 21" xmlns="http://www.w3.org/2000/svg">
  <path
     d="M 6.3342661,3.5269807 A 1.6231151,1.6231151 0 0 1 3.8475091,5.6136165 1.6231151,1.6231151 0 0 1 6.3342661,3.5269807 Z M 1.703957,8.9440192 a 0.00431178,0.00431178 0 0 0 -5.395e-4,0.0061 L 10.336791,19.238821 a 3.2461596,3.2461596 0 0 0 4.573393,0.400123 l 3.315314,-2.781882 a 3.2461596,3.2461596 0 0 0 0.400121,-4.573394 L 9.9922635,1.9948342 a 0.00431178,0.00431178 0 0 0 -0.0061,-5.185e-4 0.00909803,0.00909803 0 0 1 -0.00754,0.00197 L 2.6890373,0.61721845 A 0.90613315,0.90613315 0 0 0 1.938155,0.81411687 0.90613315,0.90613315 0 0 0 1.6149399,1.5184927 l 0.09261,7.4188252 a 0.00909803,0.00909803 0 0 1 -0.00328,0.00707 z"
     class="st2"
     id="path3"
     style="fill:#000000;fill-opacity:1;stroke:none;stroke-width:0.0338885;stroke-linecap:round;stroke-linejoin:round" />
</svg>