<?xml version="1.0" encoding="UTF-8" standalone="no"?>
<svg width="21" height="21" viewBox="0 0 21 21" xmlns="http://www.w3.org/2000/svg">
  <path
     id="labor"
     class="st2"
     d="m 8.9682103,0.59965037 a 0.82025046,0.82025046 0 0 0 -0.6377486,0.79959703 0.82025046,0.82025046 0 0 0 1.6403542,0 A 0.82025046,0.82025046 0 0 0 8.9682103,0.59965037 Z M 6.9164818,1.2376134 a 0.82025046,0.82025046 0 0 0 -0.6377488,0.799597 0.82025046,0.82025046 0 0 0 1.640354,0 0.82025046,0.82025046 0 0 0 -1.0026052,-0.799597 z m 1.6873007,1.3683185 a 0.82025046,0.82025046 0 0 0 -0.6377487,0.799597 0.82025046,0.82025046 0 1 0 1.640354,0 0.82025046,0.82025046 0 0 0 -1.0026053,-0.799597 z M 5.7518133,4.6816703 A 0.68370254,0.68370254 0 0 0 5.0684041,5.3650787 0.68370254,0.68370254 0 0 0 5.7518133,6.0484885 h 0.086391 v 3.790264 L 0.84640069,18.363362 A 1.3674036,1.3674036 0 0 0 2.0258607,20.420877 H 14.320154 a 1.3674036,1.3674036 0 0 0 1.180961,-2.057515 L 10.509526,9.8387525 v -3.790264 h 0.08468 A 0.68370254,0.68370254 0 0 0 11.279111,5.3650787 0.68370254,0.68370254 0 0 0 10.594202,4.6816703 Z m 1.4107644,1.3668182 h 2.02236 v 4.1371135 l 4.2865283,7.680208 a 0.91160192,0.91160192 0 0 1 -0.796167,1.355029 H 3.6722168 A 0.91160192,0.91160192 0 0 1 2.8762637,17.86581 l 4.286314,-7.680208 z M 14.505798,6.5927719 A 0.41495745,0.41495745 0 0 0 14.09035,7.0069333 0.41495745,0.41495745 0 0 0 14.505798,7.422596 h 0.02787 a 0.06483725,0.06483725 0 0 1 0.0039,0 0.06483725,0.06483725 0 0 1 0.0094,0.00131 0.03241855,0.03241855 0 0 1 0.01801,0.013507 l -6.46e-4,1.8920244 a 0.82991493,0.82991493 0 0 1 -0.24288,0.5867285 0.82991493,0.82991493 0 0 1 -0.154989,0.1097571 4.1495745,4.1495745 0 0 0 -1.650858,1.666935 l 0.52692,0.913213 a 3.3196656,3.3196656 0 0 1 1.745823,-1.953762 0.82991493,0.82991493 0 0 0 0.449318,-0.528205 0.82991493,0.82991493 0 0 0 0.03516,-0.2355924 V 7.422596 h 1.814637 v 2.4658897 a 0.82991493,0.82991493 0 0 0 0.03366,0.2355923 0.82991493,0.82991493 0 0 0 0.449103,0.528205 3.3196656,3.3196656 0 0 1 1.826427,2.236087 3.3196656,3.3196656 0 0 1 -3.216612,4.078591 3.3196656,3.3196656 0 0 1 -0.658541,-0.06881 l 0.538495,0.935294 a 4.1495745,4.1495745 0 0 0 0.120046,0 4.1495745,4.1495745 0 0 0 4.160463,-4.160697 A 4.1495745,4.1495745 0 0 0 18.192309,10.025897 0.82991493,0.82991493 0 0 1 18.037105,9.91614 0.82991493,0.82991493 0 0 1 17.794226,9.3294114 v -1.892238 a 0.03241855,0.03241855 0 0 1 0.01801,-0.013507 0.06483725,0.06483725 0 0 1 0.0092,-0.00131 0.06483725,0.06483725 0 0 1 0.0041,-1.427e-4 l 0.02873,4.374e-4 A 0.41495745,0.41495745 0 0 0 18.268407,7.0069827 0.41495745,0.41495745 0 0 0 17.854245,6.5928212 Z m 0.737216,5.2589081 a 4.2491755,10.202072 0 0 0 -1.544959,0.603665 0.82991493,0.82991493 0 0 0 -0.258959,0.415447 2.8491593,2.8491593 0 0 0 -0.06453,0.310406 l 1.769404,3.064409 a 2.8491593,2.8491593 0 0 0 3.898521,-2.64896 v -0.02037 a 0.20747873,0.20747873 0 0 0 -0.25167,-0.200429 4.2491755,10.202072 0 0 1 -2.016572,-0.743432 4.2491755,10.202072 0 0 0 -1.53124,-0.780733 z m -0.504839,1.392757 a 0.5114675,0.5114675 0 0 1 0.625315,0.498623 0.5114855,0.5114855 0 0 1 -1.022971,0 0.5114675,0.5114675 0 0 1 0.397656,-0.498623 z m 2.032648,1.382896 a 0.5114675,0.5114675 0 0 1 0.625317,0.498624 0.51148514,0.51148514 0 0 1 -1.02297,0 0.5114675,0.5114675 0 0 1 0.397653,-0.498624 z"
     style="fill:#000000;fill-opacity:1;stroke:none;stroke-width:0.0351223;stroke-linecap:round;stroke-linejoin:round" />
</svg>