<?xml version="1.0" encoding="UTF-8" standalone="no"?>
<svg width="21" height="21" viewBox="0 0 21 21" xmlns="http://www.w3.org/2000/svg">
  <path
     d="M 2.9719286,12.165918 A 264.18964,264.18964 0 0 1 2.9648731,7.5379431 10.294282,10.294282 0 0 1 2.1904764,8.6761798 L 1.632684,8.0518489 A 8.1050462,8.1050462 0 0 0 3.4844416,3.7693066 L 4.3324552,4.0807639 4.1979618,4.2591442 A 10.294282,10.294282 0 0 1 3.621766,6.2085858 0.10910443,0.10910443 0 1 1 3.6967305,6.4003759 l 6.88e-5,5.7768661 z M 5.302197,7.6271335 6.0992453,7.8055137 A 0.13714496,0.13714496 0 1 1 5.9765796,8.0508461 11.216493,11.216493 0 0 1 5.0233017,10.983798 L 4.3706562,10.661013 A 9.7763563,9.7763563 0 0 0 5.302197,7.6271335 Z m 0.65123,-2.3854823 h 3.2844619 l 0.1783803,-0.2675696 0.8041268,0.53514 -0.17838,0.1783802 -0.714937,1.6946126 A 18.476937,18.476937 0 0 0 8.5696698,7.1585318 L 9.0595086,5.9551722 H 7.6324664 v 5.6203958 a 0.45636463,0.45636463 0 0 1 -0.4459507,0.535141 12.370118,12.370118 0 0 1 -1.1594718,0 L 5.8033613,11.351883 H 6.7065876 A 0.12816989,0.12816989 0 0 0 6.8515575,11.184615 L 6.8410801,5.9551722 H 5.668867 A 6.7264926,6.7264926 0 0 1 4.6552136,7.5167078 L 4.0648601,7.0254539 A 5.9421291,5.9421291 0 0 0 5.5810924,3.9023836 l 0.8027112,0.08919 A 0.12323682,0.12323682 0 0 1 6.2165322,4.1699964 6.7264926,6.7264926 0 0 1 5.9534252,5.2416512 Z M 8.3459871,7.8281654 9.0156209,7.6058982 A 11.355375,11.355375 0 0 1 10.141116,10.416095 L 9.3667185,10.7049 A 22.373838,22.373838 0 0 0 8.3459871,7.8281654 Z M 13.16367,6.4011229 12.717719,8.6308766 13.520433,9.0768273 a 8.8998147,8.8998147 0 0 0 0.535141,-2.6757044 z m -0.356761,-2.4987393 0.87491,0.1231676 a 0.13981556,0.13981556 0 0 1 -0.13939,0.1895747 l -0.249932,1.4498252 h 0.874915 A 0.16803561,0.16803561 0 0 0 14.290583,5.475245 l 0.713521,0.4572765 -0.155732,0.1557286 a 12.147695,12.147695 0 0 1 -0.62008,3.3906402 19.110328,19.110328 0 0 0 1.060369,0.9032267 l -0.496918,0.768738 -0.94711,-0.891905 A 7.5874746,7.5874746 0 0 1 11.93766,12.044167 L 11.418092,11.351883 A 42.03205,42.03205 0 0 0 13.241539,9.7577865 20.536662,20.536662 0 0 0 12.539339,9.2552076 7.4283339,7.4283339 0 0 0 12.372285,9.691248 L 11.647439,9.4335879 12.416172,6.4011229 H 11.469058 V 5.6876018 h 1.070281 z m 5.014468,4.5501127 v 3.0041517 a 0.45636463,0.45636463 0 0 1 -0.445951,0.535141 12.370118,12.370118 0 0 1 -1.159472,0 l -0.223685,-0.758826 h 0.903225 a 0.12816989,0.12816989 0 0 0 0.144973,-0.167268 l -0.0044,-2.6131987 H 15.037071 V 7.7389752 h 2.035798 V 6.1661145 l 0.284557,0.056629 0.802711,-1.0702816 H 15.393832 V 4.3738187 h 3.260392 l 0.121751,-0.1217521 0.811204,0.8112052 a 0.64875905,0.64875905 0 0 1 -0.26757,0.08919 L 17.823202,6.6488744 V 7.738976 h 1.942357 v 0.7135212 z m -0.911719,7.2640417 h 1.737078 a 1.7907677,1.7907677 0 0 0 1.790885,-1.790885 V 2.6013409 A 1.7907677,1.7907677 0 0 0 18.646736,0.8104598 H 2.3532605 A 1.7907677,1.7907677 0 0 0 0.56237946,2.6013409 V 13.925653 a 1.7907677,1.7907677 0 0 0 1.79088104,1.790885 h 5.4604172 a 13.283666,5.964087 15.4 0 0 2.2127643,1.537469 13.283666,5.964087 9.1 0 0 3.876231,1.990493 13.283666,5.964087 0 0 0 1.663471,0.491256 13.283666,5.964087 0 0 0 2.241078,0.44453 0.81328651,0.81328651 0 0 0 0.722014,-1.353418 5.4219101,7.0484831 0 0 1 -1.632322,-3.097586 z"
     class="st2"
     id="path3"
     style="fill:#000000;fill-opacity:1;stroke:none;stroke-width:0.0339772;stroke-linecap:round;stroke-linejoin:round" />
</svg>