<?xml version="1.0" encoding="UTF-8" standalone="no"?>
<svg width="21" height="21" viewBox="0 0 21 21" xmlns="http://www.w3.org/2000/svg">
  <path
     d="M 4.5852726,12.006577 V 4.5554142 H 16.413371 v 7.4511628 z m -1.3652181,-0.04404 v 0.178998 a 0.50514484,0.50514484 0 0 1 -0.112229,0.316799 l -2.55143695,3.158044 a 0.27296546,0.27296546 0 0 0 -0.0596664,0.156269 10.008723,5.8232582 0 0 0 -0.005717,0.187521 10.008723,5.8232582 0 0 0 0.16621297,1.058358 1.0918618,1.0918618 0 0 0 1.04131648,0.760031 H 19.301469 a 1.0918618,1.0918618 0 0 0 1.03989,-0.760031 10.008723,5.8232582 0 0 0 0.167636,-1.058358 10.008723,5.8232582 0 0 0 -0.0016,-0.08524 0.5459309,0.5459309 0 0 0 -0.12075,-0.329584 l -2.496009,-3.08701 A 0.50514484,0.50514484 0 0 1 17.778407,12.141532 V 4.3124838 A 1.0918618,1.0918618 0 0 0 16.687371,3.2214461 H 4.3125137 A 1.0918618,1.0918618 0 0 0 3.2200545,4.3124838 Z m 4.2320339,1.267195 a 0.72790692,0.23208705 0 1 1 1.4547153,0 0.72790692,0.23208705 0 1 1 -1.4547153,0 z m -2.3212965,0 a 0.72806887,0.23213869 0 0 1 1.4561373,0 0.72806887,0.23213869 0 1 1 -1.4561373,0 z m 4.6411703,0 a 0.72806887,0.23213869 0 1 1 1.4561358,0 0.72806887,0.23213869 0 1 1 -1.4561358,0 z m 2.3198768,0 a 0.72806887,0.23213869 0 1 1 1.456137,0 0.72806887,0.23213869 0 1 1 -1.456137,0 z m 2.319878,0 a 0.72806887,0.23213869 0 1 1 1.456136,0 0.72806887,0.23213869 0 1 1 -1.456136,0 z m -8.1344835,1.11661 a 0.72806908,0.23213875 0 1 1 1.4561378,0 0.72806908,0.23213875 0 1 1 -1.4561378,0 z m -2.3283996,0 a 0.7280691,0.23213877 0 1 1 1.4561382,0 0.7280691,0.23213877 0 1 1 -1.4561382,0 z m 4.6582205,0 a 0.72806889,0.2321387 0 1 1 1.4561356,0 0.72806889,0.2321387 0 0 1 -1.4561356,0 z m 2.3298226,0 a 0.72806887,0.23213869 0 1 1 1.456137,0 0.72806887,0.23213869 0 1 1 -1.456137,0 z m 2.328398,0 a 0.72806887,0.23213869 0 1 1 1.456137,0 0.72806887,0.23213869 0 1 1 -1.456137,0 z m 2.329816,0 a 0.72807222,0.23213975 0 1 1 1.456144,0 0.72807222,0.23213975 0 1 1 -1.456144,0 z m -5.8955758,0.89215 v 0.713153 a 0.63691891,0.36395346 0 0 1 -0.127861,0.0085 H 7.2063208 a 0.63691891,0.36395346 0 0 1 -0.6378592,-0.365082 0.63691891,0.36395346 0 0 1 0.6378592,-0.36368 h 2.3653334 a 0.63691891,0.36395346 0 0 1 0.127861,0.0071 z m 1.6010378,0 a 0.63691891,0.36395346 0 0 1 0.127853,-0.0071 h 2.365338 a 0.63691891,0.36395346 0 0 1 0.636439,0.363679 0.63691891,0.36395346 0 0 1 -0.636439,0.3651 h -2.365338 a 0.63691891,0.36395346 0 0 1 -0.127853,-0.0085 z"
     class="st2"
     id="path3"
     style="fill:#000000;fill-opacity:1;stroke:none;stroke-width:0.034095;stroke-linecap:round;stroke-linejoin:round" />
</svg>