<?xml version="1.0" encoding="UTF-8" standalone="no"?>
<svg width="21" height="21" viewBox="0 0 21 21" xmlns="http://www.w3.org/2000/svg">
  <path
     d="m 9.5789672,5.6504202 a 0.48157479,0.48157479 0 0 1 0.8008988,0.360405 v 2.080956 a 0.48157479,0.48157479 0 0 0 0.48192,0.48192 h 5.538627 a 0.48157479,0.48157479 0 0 1 0.480539,0.48192 v 2.8887578 a 0.48157479,0.48157479 0 0 1 -0.480539,0.48192 h -5.538627 a 0.48157479,0.48157479 0 0 0 -0.48192,0.48192 v 2.080956 A 0.48157479,0.48157479 0 0 1 9.5789672,15.349579 L 4.5250205,10.860404 a 0.48157479,0.48157479 0 0 1 0,-0.720809 z M 20.131496,18.687117 V 2.3128812 A 1.4447243,1.4447243 0 0 0 18.687116,0.86850417 H 2.3142643 A 1.4447243,1.4447243 0 0 0 0.86850417,2.3128812 V 18.687117 A 1.4447243,1.4447243 0 0 0 2.3142643,20.131496 H 18.687116 a 1.4447243,1.4447243 0 0 0 1.44438,-1.444379 z"
     class="st2"
     id="up"
     style="fill:#000000;fill-opacity:1;stroke:none;stroke-width:0.0331406;stroke-linecap:round;stroke-linejoin:round" />
</svg>