<?xml version="1.0" encoding="UTF-8" standalone="no"?>
<svg width="21" height="21" viewBox="0 0 21 21" xmlns="http://www.w3.org/2000/svg">
  <style>.st1 {display:none}
		.st2 {fill:#000000;stroke:#000000;stroke-linecap:round;stroke-linejoin:round;stroke-width:0.749999}
		.st3 {fill:none;fill-rule:evenodd;font-size:12px;overflow:visible;stroke-linecap:square;stroke-miterlimit:3}</style>
  <g transform="scale(0.074083)">
<g>
		
		
		<g id="shape1-1" transform="translate(0.000280035,-0.0004331)">
			
			<rect x="0" y="-0.035" width="283.5" height="283.5" class="st1"/>
		</g>
		<g id="group3-3" transform="translate(71.1623,-82.3732)">
			
			<g id="shape4-4" transform="translate(-7.03437E-013,-68.5163)">
				
				<path d="M-0 283.38 A11.25 11.25 -180 0 0 1.41 283.46 L61.87 283.46 A11.25 11.25 -180 0 0 73.12 272.21 A11.25 11.25
							 -180 0 0 61.87 260.96 L1.41 260.96 A11.25 11.25 -180 0 0 0 261.05 A11.25 11.25 0 0 1 9.84 272.21 A11.25
							 11.25 0 0 1 0 283.38 Z" class="st2"/>
			</g>
			<g id="shape5-6" transform="translate(10.125,-34.7663)">
				
				<path d="M-0 283.38 A11.25 11.25 -180 0 0 1.41 283.46 L61.87 283.46 A11.25 11.25 -180 0 0 73.12 272.21 A11.25 11.25
							 -180 0 0 61.87 260.96 L1.41 260.96 A11.25 11.25 -180 0 0 0 261.05 A11.25 11.25 0 0 1 9.84 272.21 A11.25
							 11.25 0 0 1 0 283.38 Z" class="st2"/>
			</g>
			<g id="shape6-8" transform="translate(-7.03437E-013,-1.01636)">
				
				<path d="M-0 283.38 A11.25 11.25 -180 0 0 1.41 283.46 L61.87 283.46 A11.25 11.25 -180 0 0 73.12 272.21 A11.25 11.25
							 -180 0 0 61.87 260.96 L1.41 260.96 A11.25 11.25 -180 0 0 0 261.05 A11.25 11.25 0 0 1 9.84 272.21 A11.25
							 11.25 0 0 1 0 283.38 Z" class="st2"/>
			</g>
			<g id="shape7-10" transform="translate(37.383,9.65883) rotate(-15)">
				
				<path d="M0 278.96 A4.5001 4.5001 -180 0 0 4.5 283.46 L27 283.46 A4.5001 4.5001 -180 0 0 31.5 278.96 L31.5 173.46
							 A4.5001 4.5001 -180 0 0 27 168.96 L4.5 168.96 A4.5001 4.5001 -180 0 0 0 173.46 L0 278.96 Z"
						class="st2"/>
			</g>
		</g>
	</g>
  </g>
</svg>