<?xml version="1.0" encoding="UTF-8" standalone="no"?>
<svg width="21" height="21" viewBox="0 0 21 21" xmlns="http://www.w3.org/2000/svg">
  <path
     id="lighthouse"
     class="st2"
     d="M 10.499999,0.76099444 A 2.4867362,2.4867362 0 0 0 8.0133061,3.23114 H 12.986694 A 2.4867362,2.4867362 0 0 0 10.499999,0.76099444 Z M 2.2286583,2.9436954 A 0.25103897,0.25103897 0 0 0 2.0280391,3.1892598 V 5.9658496 A 0.25103897,0.25103897 0 0 0 2.341838,6.2085535 L 7.6318846,4.8209737 a 0.25103897,0.25103897 0 0 0 0,-0.4868382 L 2.341838,2.9465559 a 0.25103897,0.25103897 0 0 0 -0.1131798,-0.00287 z m 16.5426827,0 a 0.25103897,0.25103897 0 0 0 -0.113175,0.00287 l -5.290052,1.3875699 a 0.25103897,0.25103897 0 0 0 0,0.4868382 l 5.290047,1.3875797 a 0.25103897,0.25103897 0 0 0 0.3138,-0.2427038 V 3.1892598 A 0.25103897,0.25103897 0 0 0 18.771341,2.9436954 Z M 8.6155712,5.9229476 A 0.62759746,0.62759746 0 0 0 7.9894033,6.5239867 L 7.4218682,19.585052 a 0.62759746,0.62759746 0 0 0 0.6275973,0.653953 H 12.95033 a 0.62759746,0.62759746 0 0 0 0.627596,-0.653953 L 13.010187,6.5239867 A 0.62759746,0.62759746 0 0 0 12.38402,5.9229476 Z"
     style="fill:#000000;fill-opacity:1;stroke:none;stroke-width:0.0334719;stroke-linecap:round;stroke-linejoin:round" />
</svg>