<?xml version="1.0" encoding="UTF-8" standalone="no"?>
<svg width="21" height="21" viewBox="0 0 21 21" xmlns="http://www.w3.org/2000/svg">
  <style>.st1 {display:none}
		.st2 {fill:#000000;stroke:#000000;stroke-linecap:round;stroke-linejoin:round;stroke-width:0.749998}
		.st3 {fill:#000000;stroke:none;stroke-width:0.999999}
		.st4 {fill:none}
		.st5 {stroke:#000000;stroke-linecap:round;stroke-linejoin:round;stroke-width:0.24}
		.st6 {fill:none;fill-rule:evenodd;font-size:12px;overflow:visible;stroke-linecap:square;stroke-miterlimit:3}</style>
  <g transform="scale(0.074083)">
<g>
		
		
		<g id="shape1-1" transform="translate(0.000280035,-0.0004331)">
			
			<rect x="0" y="-0.035" width="283.5" height="283.5" class="st1"/>
		</g>
		<g id="group2-3" transform="translate(74.6957,-88.5247)">
			
			<g id="shape3-4" transform="translate(-257.805,215.922) rotate(-90)">
				
				<path d="M0 279.19 A4.27684 4.27684 -180 0 0 4.28 283.46 A4.27684 4.27684 -180 0 0 8.55 279.19 L8.55 262.08 A4.27684
							 4.27684 -180 0 0 4.28 257.8 A4.27684 4.27684 -180 0 0 0 262.08 L0 279.19 Z" class="st2"/>
			</g>
			<g id="shape4-6" transform="translate(-222.538,53.941) rotate(-60)">
				
				<path d="M0 279.19 A4.27684 4.27684 -180 0 0 4.28 283.46 A4.27684 4.27684 -180 0 0 8.55 279.19 L8.55 262.08 A4.27684
							 4.27684 -180 0 0 4.28 257.8 A4.27684 4.27684 -180 0 0 0 262.08 L0 279.19 Z" class="st2"/>
			</g>
			<g id="shape5-8" transform="translate(-222.538,369.349) rotate(60) scale(1,-1)">
				
				<path d="M0 279.19 A4.27684 4.27684 -180 0 0 4.28 283.46 A4.27684 4.27684 -180 0 0 8.55 279.19 L8.55 262.08 A4.27684
							 4.27684 -180 0 0 4.28 257.8 A4.27684 4.27684 -180 0 0 0 262.08 L0 279.19 Z" class="st2"/>
			</g>
			<g id="shape6-10" transform="translate(392.813,215.922) rotate(90) scale(-1,1)">
				
				<path d="M0 279.19 A4.27684 4.27684 -180 0 0 4.28 283.46 A4.27684 4.27684 -180 0 0 8.55 279.19 L8.55 262.08 A4.27684
							 4.27684 -180 0 0 4.28 257.8 A4.27684 4.27684 -180 0 0 0 262.08 L0 279.19 Z" class="st2"/>
			</g>
			<g id="shape7-12" transform="translate(357.546,53.941) rotate(60) scale(-1,1)">
				
				<path d="M0 279.19 A4.27684 4.27684 -180 0 0 4.28 283.46 A4.27684 4.27684 -180 0 0 8.55 279.19 L8.55 262.08 A4.27684
							 4.27684 -180 0 0 4.28 257.8 A4.27684 4.27684 -180 0 0 0 262.08 L0 279.19 Z" class="st2"/>
			</g>
			<g id="shape8-14" transform="translate(357.546,369.349) rotate(120)">
				
				<path d="M0 279.19 A4.27684 4.27684 -180 0 0 4.28 283.46 A4.27684 4.27684 -180 0 0 8.55 279.19 L8.55 262.08 A4.27684
							 4.27684 -180 0 0 4.28 257.8 A4.27684 4.27684 -180 0 0 0 262.08 L0 279.19 Z" class="st2"/>
			</g>
			<g id="group9-16" transform="translate(41.5596,5.68434E-013)">
				
				<g id="shape10-17">
					
					<path d="M42.67 254.74 L42.65 254.73 L42.67 254.74 ZM51.64 238.01 L51.65 238 L51.64 238.01 ZM51.71 237.96 L51.72
								 237.94 L51.71 237.96 ZM42.65 254.73 A28.4066 28.4066 0 0 1 49.4 240.25 A8.99998 8.99998 0 0 1 49.49
								 240.15 A28.4066 28.4066 0 0 1 51.64 238.01 L51.69 237.97 a0.371568 0.371568 -180 0 0 0.0197735 -0.0189102
								 L51.89 237.77 A35.9247 35.9247 -180 1 0 0 237.77 A35.9247 35.9247 -180 0 0 0.17 237.94 L0.24 238.01
								 A26.7718 26.7718 0 0 1 2.41 240.16 A8.99998 8.99998 0 0 1 2.48 240.24 A28.4066 28.4066 0 0 1 9.24
								 254.73 a0.0262828 0.0262828 -180 0 0 -0.0262828 0.0262828 L9.21 271.14 A8.99998 8.99998 -180 0 0
								 11.81 277.47 L15.09 280.79 A8.99998 8.99998 -180 0 0 21.5 283.46 L30.39 283.46 A8.99998 8.99998
								 -180 0 0 36.8 280.79 L40.08 277.47 A8.99998 8.99998 -180 0 0 42.68 271.14 L42.68 254.75 a0.0131414
								 0.0131414 -180 0 0 -0.0131414 -0.0131414 L42.65 254.73 ZM36.63 270.82 A3.82166 3.82166 0 0 1 35.53
								 273.5 L33.83 275.22 A8.99998 8.99998 0 0 1 27.43 277.9 L23.14 277.9 A5.82808 5.82808 0 0 1 18.99
								 276.16 A1.41529 1.41529 0 0 1 19.63 273.8 L35.11 269.65 A1.20441 1.20441 0 0 1 36.63 270.82 ZM15.26
								 264.07 A4.2314 4.2314 0 0 1 19.49 259.84 L35.26 259.84 A1.36809 1.36809 0 0 1 36.63 261.21 A1.78293
								 1.78293 0 0 1 35.31 262.93 L19.35 267.21 A3.24687 3.24687 0 0 1 15.26 264.07 ZM47.69 210.21 A20.3821
								 20.3821 -180 0 0 29.34 191.86 A2.14804 2.14804 0 0 1 27.4 189.72 L27.4 188.62 A2.14804 2.14804 0
								 0 1 29.74 186.48 A25.7765 25.7765 0 0 1 53.07 209.81 A2.14804 2.14804 0 0 1 50.93 212.15 L49.82
								 212.15 A2.14804 2.14804 0 0 1 47.69 210.21 Z" class="st3"/>
				</g>
				<g id="shape11-19">
					
					<path d="M42.67 254.74 L42.65 254.73 L42.67 254.74 ZM51.64 238.01 L51.65 238 L51.64 238.01 ZM51.71 237.96 L51.72
								 237.94 L51.71 237.96 ZM42.65 254.73 A28.4066 28.4066 0 0 1 49.4 240.25 A8.99998 8.99998 0 0 1 49.49
								 240.15 A28.4066 28.4066 0 0 1 51.64 238.01 L51.69 237.97 a0.371568 0.371568 -180 0 0 0.0197735 -0.0189102
								 L51.89 237.77 A35.9247 35.9247 -180 1 0 0 237.77 A35.9247 35.9247 -180 0 0 0.17 237.94 L0.24 238.01
								 A26.7718 26.7718 0 0 1 2.41 240.16 A8.99998 8.99998 0 0 1 2.48 240.24 A28.4066 28.4066 0 0 1 9.24
								 254.73 a0.0262828 0.0262828 -180 0 0 -0.0262828 0.0262828 L9.21 271.14 A8.99998 8.99998 -180 0 0
								 11.81 277.47 L15.09 280.79 A8.99998 8.99998 -180 0 0 21.5 283.46 L30.39 283.46 A8.99998 8.99998
								 -180 0 0 36.8 280.79 L40.08 277.47 A8.99998 8.99998 -180 0 0 42.68 271.14 L42.68 254.75 a0.0131414
								 0.0131414 -180 0 0 -0.0131414 -0.0131414 L42.65 254.73 ZM36.63 270.82 A3.82166 3.82166 0 0 1 35.53
								 273.5 L33.83 275.22 A8.99998 8.99998 0 0 1 27.43 277.9 L23.14 277.9 A5.82808 5.82808 0 0 1 18.99
								 276.16 A1.41529 1.41529 0 0 1 19.63 273.8 L35.11 269.65 A1.20441 1.20441 0 0 1 36.63 270.82 ZM15.26
								 264.07 A4.2314 4.2314 0 0 1 19.49 259.84 L35.26 259.84 A1.36809 1.36809 0 0 1 36.63 261.21 A1.78293
								 1.78293 0 0 1 35.31 262.93 L19.35 267.21 A3.24687 3.24687 0 0 1 15.26 264.07 ZM47.69 210.21 A20.3821
								 20.3821 -180 0 0 29.34 191.86 A2.14804 2.14804 0 0 1 27.4 189.72 L27.4 188.62 A2.14804 2.14804 0
								 0 1 29.74 186.48 A25.7765 25.7765 0 0 1 53.07 209.81 A2.14804 2.14804 0 0 1 50.93 212.15 L49.82
								 212.15 A2.14804 2.14804 0 0 1 47.69 210.21 Z" class="st4"/>
					<path d="M42.67 254.74 L42.65 254.73M51.64 238.01 L51.65 238M51.71 237.96 L51.72 237.94M42.65 254.73 A28.4066
								 28.4066 0 0 1 49.4 240.25 A8.99998 8.99998 0 0 1 49.49 240.15 A28.4066 28.4066 0 0 1 51.64 238.01
								 L51.69 237.97 a0.371568 0.371568 -180 0 0 0.0197735 -0.0189102 L51.89 237.77 A35.9247 35.9247 -180
								 1 0 0 237.77 A35.9247 35.9247 -180 0 0 0.17 237.94 L0.24 238.01 A26.7718 26.7718 0 0 1 2.41 240.16
								 A8.99998 8.99998 0 0 1 2.48 240.24 A28.4066 28.4066 0 0 1 9.24 254.73 a0.0262828 0.0262828 -180
								 0 0 -0.0262828 0.0262828 L9.21 271.14 A8.99998 8.99998 -180 0 0 11.81 277.47 L15.09 280.79 A8.99998
								 8.99998 -180 0 0 21.5 283.46 L30.39 283.46 A8.99998 8.99998 -180 0 0 36.8 280.79 L40.08 277.47 A8.99998
								 8.99998 -180 0 0 42.68 271.14 L42.68 254.75 a0.0131414 0.0131414 -180 0 0 -0.0131414 -0.0131414M36.63
								 270.82 A3.82166 3.82166 0 0 1 35.53 273.5 L33.83 275.22 A8.99998 8.99998 0 0 1 27.43 277.9 L23.14
								 277.9 A5.82808 5.82808 0 0 1 18.99 276.16 A1.41529 1.41529 0 0 1 19.63 273.8 L35.11 269.65 A1.20441
								 1.20441 0 0 1 36.63 270.82M15.26 264.07 A4.2314 4.2314 0 0 1 19.49 259.84 L35.26 259.84 A1.36809
								 1.36809 0 0 1 36.63 261.21 A1.78293 1.78293 0 0 1 35.31 262.93 L19.35 267.21 A3.24687 3.24687 0
								 0 1 15.26 264.07M47.69 210.21 A20.3821 20.3821 -180 0 0 29.34 191.86 A2.14804 2.14804 0 0 1 27.4
								 189.72 L27.4 188.62 A2.14804 2.14804 0 0 1 29.74 186.48 A25.7765 25.7765 0 0 1 53.07 209.81 A2.14804
								 2.14804 0 0 1 50.93 212.15 L49.82 212.15 A2.14804 2.14804 0 0 1 47.69 210.21" class="st5"/>
				</g>
			</g>
		</g>
	</g>
  </g>
</svg>