<?xml version="1.0" encoding="UTF-8" standalone="no"?>
<svg width="21" height="21" viewBox="0 0 21 21" xmlns="http://www.w3.org/2000/svg">
  <style>.st1 {display:none}
		.st2 {fill:#000000;stroke:#000000;stroke-linecap:round;stroke-linejoin:round;stroke-width:2.75}
		.st3 {fill:none;fill-rule:evenodd;font-size:12px;overflow:visible;stroke-linecap:square;stroke-miterlimit:3}</style>
  <g transform="scale(0.074083)">
<g>
		
		
		<v:layer/>
		<g id="shape1-1" transform="translate(0.000280035,-0.0004331)">
			
			<rect x="0" y="-0.035" width="283.5" height="283.5" class="st1"/>
		</g>
		<g id="shape14-3" transform="translate(76.5001,-71.667)">
			
			<path d="M76.19 160.21 A10.4267 10.4267 -180 1 1 97.04 160.21 A10.4267 10.4267 -180 1 1 76.19 160.21 ZM68.89 169.96 L31.65
						 199.16 A4.5 4.5 0 0 1 26.36 199.35 A16.9167 16.9167 -180 1 0 25.13 228.17 A4.5 4.5 0 0 1 30.09 228.56 L68.43
						 258.62 A4.5 4.5 0 0 1 70.05 263.09 A16.9167 16.9167 -180 1 0 77.28 252.44 A4.5 4.5 0 0 1 72.02 252.23 L33.44
						 221.98 A2.25 2.25 0 0 1 32.72 219.41 A16.9167 16.9167 -180 0 0 33.02 218.57 A2.25 2.25 0 0 1 35.16 217.01
						 L93.77 217.01 A4.5 4.5 0 0 1 97.93 219.8 A16.9167 16.9167 -180 1 0 97.93 206.96 A4.5 4.5 0 0 1 93.77 209.76
						 L34.32 209.76 A1.125 1.125 0 0 1 33.24 208.93 A16.9167 16.9167 -180 0 0 33.23 208.89 A2.25 2.25 0 0 1 34.01
						 206.52 L73.6 175.48 A4.5 4.5 0 0 1 78.52 175.07 A16.9167 16.9167 -180 1 0 70.42 165.11 A4.5 4.5 0 0 1 68.89
						 169.96 ZM76.19 266.55 A10.4267 10.4267 -180 1 1 97.04 266.55 A10.4267 10.4267 -180 1 1 76.19 266.55 ZM6.49
						 213.38 A10.4267 10.4267 -180 1 1 27.34 213.38 A10.4267 10.4267 -180 1 1 6.49 213.38 ZM103.16 213.38 A10.4267
						 10.4267 -180 1 1 124.01 213.38 A10.4267 10.4267 -180 1 1 103.16 213.38 Z" class="st2"/>
		</g>
	</g>
  </g>
</svg>