<?xml version="1.0" encoding="UTF-8" standalone="no"?>
<svg width="21" height="21" viewBox="0 0 21 21" xmlns="http://www.w3.org/2000/svg">
  <path
     id="link"
     d="M 12.4,2.6 A 3.5,3.5 0 0 1 17.4,7.6 L 14.4,10.6 13.05,9.25 16.05,6.25 A 1.6,1.6 0 0 0 13.75,3.95 L 10.75,6.95 9.4,5.6 Z M 6.95,9.4 8.3,10.75 5.3,13.75 A 1.6,1.6 0 0 0 7.6,16.05 L 10.6,13.05 11.95,14.4 8.95,17.4 A 3.5,3.5 0 0 1 3.95,12.4 Z M 7.85,11.05 11.05,7.85 13.15,9.95 9.95,13.15 Z"
     style="fill:#000000;fill-rule:evenodd" />
</svg>