<?xml version="1.0" encoding="UTF-8" standalone="no"?>
<svg width="21" height="21" viewBox="0 0 21 21" xmlns="http://www.w3.org/2000/svg">
	<path
	   id="lock"
	   d="M 10.136214,0.84454137 A 5.3037857,5.3037857 0 0 0 5.1976712,6.1814206 V 6.9293154 A 2.2534534,2.2534534 0 0 0 3.0068277,9.1811283 v 8.7308557 a 2.2534534,2.2534534 0 0 0 2.2558778,2.255879 H 15.741359 a 2.2534534,2.2534534 0 0 0 2.251813,-2.255879 V 9.1811283 A 2.2534534,2.2534534 0 0 0 15.802329,6.9293154 V 6.1854845 a 0.00203232,0.00203232 0 0 1 0,-0.00406 5.3037857,5.3037857 0 0 0 -5.666115,-5.33688503 z m 0.134134,2.03232313 a 3.3078074,3.3078074 0 0 1 3.540305,3.2923625 0.00205,0.00205 0 0 0 -0.0041,0 0.00203232,0.00203232 0 0 0 0,0.00406 V 6.925246 H 7.1934118 V 6.1814206 A 3.3078074,3.3078074 0 0 1 7.2218643,5.7302441 3.3078074,3.3078074 0 0 1 10.270348,2.8768645 Z m 0.130068,7.9992195 a 1.463882,1.463882 0 0 1 1.564888,1.459208 1.463862,1.463862 0 0 1 -0.540597,1.134036 0.92931456,0.92931456 0 0 1 0.0041,0.08129 v 1.46327 a 0.92931456,0.92931456 0 0 1 -0.926733,0.92674 0.92931456,0.92931456 0 0 1 -0.9308032,-0.92674 v -1.463271 a 0.92931456,0.92931456 0 0 1 0.00406,-0.08129 1.463862,1.463862 0 0 1 -0.5405977,-1.134036 1.463882,1.463882 0 0 1 1.3657209,-1.459208 z"></path>
</svg>
