<?xml version="1.0" encoding="UTF-8" standalone="no"?>
<svg width="21" height="21" viewBox="0 0 21 21" xmlns="http://www.w3.org/2000/svg">
  <style>.st1 {display:none}
		.st2 {fill:#000000;stroke:#000000;stroke-linecap:round;stroke-linejoin:round;stroke-width:0.24}
		.st3 {fill:none;fill-rule:evenodd;font-size:12px;overflow:visible;stroke-linecap:square;stroke-miterlimit:3}</style>
  <g transform="scale(0.074083)">
<g>
		
		
		<g id="shape1-1" transform="translate(0.000280035,-0.0004331)">
			
			<rect x="0" y="-0.035" width="283.5" height="283.5" class="st1"/>
		</g>
		<g id="group7-3" transform="translate(73.125,-71.9671)">
			
			<g id="shape2-4" transform="translate(18.6102,0)">
				
				<path d="M103.54 212.95 L110.93 212.95 L110.93 220.57 L100.39 220.57 A4.81276 4.81276 0 0 1 100.25 220.59 L99.21
							 220.59 A4.81276 4.81276 0 0 1 95.5 218.1 L95.13 217.23 L89.91 204.81 L89.87 204.81 L89.78 204.6 L89.73
							 204.81 L89.47 204.81 L84 228.54 L79.67 246.44 A6.76345 6.76345 0 0 1 67.2 245.14 L67.18 245.14 L67.11
							 244.83 A6.76345 6.76345 0 0 1 67.01 244.28 L56.15 188.4 L49.52 217.1 A4.81276 4.81276 0 0 1 45.41 220.59
							 L34.26 220.59 L34.26 212.96 L42.64 212.96 L49.47 183.39 L49.52 183.41 A6.76345 6.76345 0 0 1 62.98 183.57
							 L73.75 238.96 L82.33 201.81 L82.36 201.82 A7.75796 7.56831 90 0 1 96.87 201.96 L101.49 212.96 L103.55
							 212.96 L103.54 212.95 ZM0 269.51 L0 273 A10.4682 10.4682 -180 0 0 10.47 283.46 L108.17 283.46 A10.4682
							 10.4682 -180 0 0 118.64 273 L118.64 154.36 A10.4682 10.4682 -180 0 0 108.17 143.89 L10.47 143.89 A10.4682
							 10.4682 -180 0 0 -0 154.36 L0 159.4 L17.45 159.4 A10.4682 10.4682 0 0 1 27.92 169.87 L27.92 173.74 A10.4682
							 10.4682 0 0 1 17.45 184.21 L0 184.21 L0 202.05 L17.45 202.05 A10.4682 10.4682 0 0 1 27.92 212.51 L27.92
							 216.39 A10.4682 10.4682 0 0 1 17.45 226.86 L0 226.86 L0 244.69 L17.45 244.69 A10.4682 10.4682 0 0 1
							 27.92 255.16 L27.92 259.04 A10.4682 10.4682 0 0 1 17.45 269.51 L0 269.51 Z" class="st2"/>
			</g>
			<g id="group6-6" transform="translate(-7.99361E-015,-19.8624)">
				
				<g id="shape3-7">
					
					
					<path d="M0 276.97 A6.49716 6.49714 -180 0 0 6.5 283.46 L30.72 283.46 A6.49716 6.49714 -180 0 0 37.22 276.97
								 A6.49716 6.49714 -180 0 0 30.72 270.47 L6.5 270.47 A6.49716 6.49714 -180 0 0 0 276.97 Z"
							class="st2"/>
				</g>
				<g id="shape4-9" transform="translate(0,-42.6483)">
					
					
					<path d="M0 276.97 A6.49716 6.49714 -180 0 0 6.5 283.46 L30.72 283.46 A6.49716 6.49714 -180 0 0 37.22 276.97
								 A6.49716 6.49714 -180 0 0 30.72 270.47 L6.5 270.47 A6.49716 6.49714 -180 0 0 0 276.97 Z"
							class="st2"/>
				</g>
				<g id="shape5-11" transform="translate(0,-85.2965)">
					
					
					<path d="M0 276.97 A6.49716 6.49714 -180 0 0 6.5 283.46 L30.72 283.46 A6.49716 6.49714 -180 0 0 37.22 276.97
								 A6.49716 6.49714 -180 0 0 30.72 270.47 L6.5 270.47 A6.49716 6.49714 -180 0 0 0 276.97 Z"
							class="st2"/>
				</g>
			</g>
		</g>
	</g>
  </g>
</svg>