<?xml version="1.0" encoding="UTF-8" standalone="no"?>
<svg width="21" height="21" viewBox="0 0 21 21" xmlns="http://www.w3.org/2000/svg">
  <style>.st1 {display:none}
		.st2 {fill:#000000;stroke:#000000;stroke-linecap:round;stroke-linejoin:round;stroke-width:0.75}
		.st3 {fill:none;fill-rule:evenodd;font-size:12px;overflow:visible;stroke-linecap:square;stroke-miterlimit:3}</style>
  <g transform="scale(0.074083)">
<g>
		
		
		<g id="shape1-1" transform="translate(0.000280035,-0.0004331)">
			
			<rect x="0" y="-0.035" width="283.5" height="283.5" class="st1"/>
		</g>
		<g id="group4-3" transform="translate(71.3268,-93.3211)">
			
			<g id="shape5-4" transform="translate(37.8708,-22.0691)">
				
				<path d="M1.22 268.11 A141.762 141.762 0 0 1 45.56 272.58 L63.06 282.35 a0.663768 0.663768 0 0 1 -5.68434E-014 1.11871
							 L37.83 282.14 A120.676 120.676 90.03 0 1 0.41 269.74 a0.894868 0.894868 85.93 0 1 -0.203402 -1.32211
							 A1.25096 1.25096 85.76 0 1 1.22 268.11 Z" class="st2"/>
			</g>
			<g id="shape8-6">
				
				<path d="M24.45 216.87 A3.25443 3.3796 0 1 1 17.94 216.87 A3.25443 3.3796 0 1 1 24.45 216.87 ZM63.5 240.95 A19.9774
							 19.9774 0 0 1 48.04 233.83 A87.0031 87.0031 -180 0 0 30.96 210.24 A10.2208 10.2208 -180 0 0 15.91 210.24
							 A28.273 28.273 0 0 1 1.67 218.38 A2.0743 2.0743 -180 0 0 1.67 222.44 A12.833 12.833 0 0 1 15.09 237.5
							 A30.3495 30.3495 -180 0 0 32.58 264.75 A197.51 197.51 -180 0 0 59.43 275.33 A204.8 204.8 -180 0 0 39.91
							 281.84 a0.819034 0.819034 -180 0 0 2.84217E-014 1.62721 L44.79 281.84 A11.6353 11.6353 0 0 1 54.55 282.24
							 a0.654191 0.654191 -180 1 0 1.22041 -0.406803 A2.65203 2.65203 -180 0 0 54.55 279.4 L55.37 278.58 A37.1123
							 37.1123 0 0 1 69.2 276.55 A1.10388 1.10388 -180 1 0 70.01 274.52 A14.5322 14.5322 0 0 1 59.43 271.26
							 A23.1214 23.1214 -180 0 0 71.64 260.68 A78.8115 78.8115 0 0 1 37.47 249.29 A2.73113 2.73113 177.42 0
							 1 37.47 244.82 A6.89023 6.89023 0 0 1 40.72 244 A150.511 150.511 0 0 1 83.84 248.89 A419.83 419.83 -180
							 0 0 139.98 193.15 A6.61685 6.61685 -180 0 0 140.39 187.46 A1.94376 1.94376 -180 0 0 137.54 187.05 A203.121
							 203.121 0 0 1 93.61 228.14 A68.177 68.177 0 0 1 63.5 240.95 Z" class="st2"/>
			</g>
		</g>
	</g>
  </g>
</svg>