<?xml version="1.0" encoding="UTF-8" standalone="no"?>
<svg width="21" height="21" viewBox="0 0 21 21" xmlns="http://www.w3.org/2000/svg">
  <style>.st1 {display:none}
		.st2 {fill:#000000;stroke:#000000;stroke-linecap:round;stroke-linejoin:round;stroke-width:0.749997}
		.st3 {fill:#000000;stroke:#000000;stroke-linecap:round;stroke-linejoin:round;stroke-width:0.24}
		.st4 {fill:none;fill-rule:evenodd;font-size:12px;overflow:visible;stroke-linecap:square;stroke-miterlimit:3}</style>
  <g transform="scale(0.074083)">
<g>
		
		
		<g id="shape1-1" transform="translate(0.000280035,-0.0004331)">
			
			<rect x="0" y="-0.035" width="283.5" height="283.5" class="st1"/>
		</g>
		<g id="group2-3" transform="translate(87.1748,-75.7253)">
			
			<g id="group3-4">
				
				<g id="shape4-5">
					
					<path d="M71.34 151.4 L9.78 151.4 A9.78259 9.78259 -180 0 0 0 161.18 L0 273.68 A9.78259 9.78259 -180 0 0 9.78
								 283.46 L100.27 283.46 A9.78259 9.78259 -180 0 0 110.05 273.68 L110.05 190.11 A4.89131 4.89131 -180
								 0 0 108.62 186.65 L74.8 152.83 A4.89131 4.89131 -180 0 0 71.34 151.4 ZM73.37 169.74 L73.37 183.19
								 A4.89131 4.89131 -180 0 0 78.26 188.08 L92.93 188.08 A4.89131 4.89131 0 0 1 97.83 192.98 L97.83
								 265.12 A4.89131 4.89131 0 0 1 92.93 270.01 L17.12 270.01 A4.89131 4.89131 0 0 1 12.23 265.12 L12.23
								 169.74 A4.89131 4.89131 0 0 1 17.12 164.85 L68.48 164.85 A4.89131 4.89131 0 0 1 73.37 169.74 Z"
							class="st2"/>
				</g>
			</g>
			<g id="shape5-7" transform="translate(27.5312,-18.6343)">
				
				<path d="M33.04 229.45 L38.48 195.44 A1.24397 1.24397 -180 0 0 36.25 194.52 L0.1 244.72 A1.24397 1.24397 -180 0 0
							 1.11 246.69 L20.73 246.69 A1.24397 1.24397 0 0 1 21.96 248.13 L16.52 282.14 A1.24397 1.24397 -180 0
							 0 18.75 283.06 L54.9 232.86 A1.24397 1.24397 -180 0 0 53.89 230.89 L34.27 230.89 A1.24397 1.24397 0
							 0 1 33.04 229.45 Z" class="st3"/>
			</g>
		</g>
	</g>
  </g>
</svg>