<?xml version="1.0" encoding="UTF-8" standalone="no"?>
<svg width="21" height="21" viewBox="0 0 21 21" xmlns="http://www.w3.org/2000/svg">
  <style>.st1 {display:none}
		.st2 {fill:#000000;stroke:#000000;stroke-linecap:round;stroke-linejoin:round;stroke-width:0.749998}
		.st3 {fill:none;fill-rule:evenodd;font-size:12px;overflow:visible;stroke-linecap:square;stroke-miterlimit:3}</style>
  <g transform="scale(0.074083)">
<g>
		
		
		<g id="shape1-1" transform="translate(-4.44499E-007,-0.0004331)">
			
			<rect x="0" y="-0.035" width="283.5" height="283.5" class="st1"/>
		</g>
		<g id="group2-3" transform="translate(101.744,-71.9254)">
			
			<g id="shape3-4" transform="translate(12.0648,-82.868)">
				
				<ellipse cx="28.3901" cy="255.075" rx="28.3901" ry="28.3901" class="st2"/>
			</g>
			<g id="shape4-6">
				
				<path d="M18.92 210.19 A214.029 214.029 0 0 1 10.12 222.42 A55.1456 55.1456 -180 0 0 4.22 234.7 A130.243 130.243
							 -180 0 0 0.3 259.26 A125.17 125.17 -180 0 0 0.29 276.37 L0.52 276.45 A118.029 117.6 -90 0 0 80.4 276.45
							 L80.63 276.37 A125.17 125.17 -180 0 0 80.62 259.26 A130.243 130.243 -180 0 0 76.69 234.7 A55.1456 55.1456
							 -180 0 0 70.8 222.42 A214.029 214.029 0 0 1 62 210.19 A43.6658 43.6658 0 0 1 18.92 210.19 Z"
						class="st2"/>
			</g>
		</g>
	</g>
  </g>
</svg>