<?xml version="1.0" encoding="UTF-8" standalone="no"?>
<svg width="21" height="21" viewBox="0 0 21 21" xmlns="http://www.w3.org/2000/svg">
  <style>.st1 {display:none}
		.st2 {fill:#000000;stroke:#000000;stroke-linecap:round;stroke-linejoin:round;stroke-width:0.749996}
		.st3 {fill:none;fill-rule:evenodd;font-size:12px;overflow:visible;stroke-linecap:square;stroke-miterlimit:3}</style>
  <g transform="scale(0.074083)">
<g>
		
		
		<g id="shape1-1" transform="translate(0.000280035,-0.0004331)">
			
			<rect x="0" y="-0.035" width="283.5" height="283.5" class="st1"/>
		</g>
		<g id="group2-3">
			
		</g>
		<g id="group3-4" transform="translate(71.3266,-80.5869)">
			
			<g id="group4-5" transform="translate(46.1256,-36.9096)">
				
				<g id="shape5-6" transform="translate(7.37826,-50.6864)">
					
					<ellipse cx="17.3676" cy="266.097" rx="17.3676" ry="17.3676" class="st2"/>
				</g>
				<g id="shape6-8">
					
					<path d="M11.57 238.64 A130.932 130.932 0 0 1 6.19 246.12 A33.7354 33.7354 -180 0 0 2.58 253.63 A79.676 79.676
								 -180 0 0 0.18 268.66 A76.5726 76.5726 -180 0 0 0.18 279.12 L0.32 279.17 A72.2041 71.9416 -90 0 0
								 49.18 279.17 L49.32 279.12 A76.5726 76.5726 -180 0 0 49.32 268.66 A79.676 79.676 -180 0 0 46.91
								 253.63 A33.7354 33.7354 -180 0 0 43.31 246.12 A130.932 130.932 0 0 1 37.93 238.64 A26.7126 26.7126
								 0 0 1 11.57 238.64 Z" class="st2"/>
				</g>
			</g>
			<g id="group7-10">
				
				<g id="shape8-11" transform="translate(7.37826,-50.6864)">
					
					<ellipse cx="17.3676" cy="266.097" rx="17.3676" ry="17.3676" class="st2"/>
				</g>
				<g id="shape9-13">
					
					<path d="M11.57 238.64 A130.932 130.932 0 0 1 6.19 246.12 A33.7354 33.7354 -180 0 0 2.58 253.63 A79.676 79.676
								 -180 0 0 0.18 268.66 A76.5726 76.5726 -180 0 0 0.18 279.12 L0.32 279.17 A72.2041 71.9416 -90 0 0
								 49.18 279.17 L49.32 279.12 A76.5726 76.5726 -180 0 0 49.32 268.66 A79.676 79.676 -180 0 0 46.91
								 253.63 A33.7354 33.7354 -180 0 0 43.31 246.12 A130.932 130.932 0 0 1 37.93 238.64 A26.7126 26.7126
								 0 0 1 11.57 238.64 Z" class="st2"/>
				</g>
			</g>
			<g id="group10-15" transform="translate(92.2511,6.25278E-013)">
				
				<g id="shape11-16" transform="translate(7.37826,-50.6864)">
					
					<ellipse cx="17.3676" cy="266.097" rx="17.3676" ry="17.3676" class="st2"/>
				</g>
				<g id="shape12-18">
					
					<path d="M11.57 238.64 A130.932 130.932 0 0 1 6.19 246.12 A33.7354 33.7354 -180 0 0 2.58 253.63 A79.676 79.676
								 -180 0 0 0.18 268.66 A76.5726 76.5726 -180 0 0 0.18 279.12 L0.32 279.17 A72.2041 71.9416 -90 0 0
								 49.18 279.17 L49.32 279.12 A76.5726 76.5726 -180 0 0 49.32 268.66 A79.676 79.676 -180 0 0 46.91
								 253.63 A33.7354 33.7354 -180 0 0 43.31 246.12 A130.932 130.932 0 0 1 37.93 238.64 A26.7126 26.7126
								 0 0 1 11.57 238.64 Z" class="st2"/>
				</g>
			</g>
		</g>
	</g>
  </g>
</svg>