<?xml version="1.0" encoding="UTF-8" standalone="no"?>
<svg width="21" height="21" viewBox="0 0 21 21" xmlns="http://www.w3.org/2000/svg">
  <style>.st1 {display:none}
		.st2 {fill:#000000;stroke:#000000;stroke-linecap:round;stroke-linejoin:round;stroke-width:0.24}
		.st3 {fill:#000000;stroke:#000000;stroke-linecap:round;stroke-linejoin:round;stroke-width:0.749996}
		.st4 {fill:none;fill-rule:evenodd;font-size:12px;overflow:visible;stroke-linecap:square;stroke-miterlimit:3}</style>
  <g transform="scale(0.074083)">
<g>
		
		
		<g id="shape1-1" transform="translate(0.000280035,-0.0004331)">
			
			<rect x="0" y="-0.035" width="283.5" height="283.5" class="st1"/>
		</g>
		<g id="group29-3" transform="translate(83.2501,-71.5503)">
			
			<g id="shape3-4" transform="translate(307.234,180.115) rotate(90)">
				
				<path d="M42.83 256.6 a0.00600785 0.00600785 0 0 1 0.00849354 -2.80046E-06 L54.28 268.03 A6.93438 6.93438 0 0 1 54.73
							 268.52 A7.8415 7.8415 0 0 1 43.34 279.25 L43.28 279.2 L42.97 278.91 A6.93438 6.93438 0 0 1 42.73 278.69
							 L4.77 240.71 A6.93438 6.93438 0 0 1 4 239.79 A12.1946 12.1946 0 0 1 20.84 222.7 A6.93438 6.93438 0 0
							 1 21.84 223.54 L52.57 254.27 A2.93253 2.93253 -180 0 0 56.72 254.27 A2.93253 2.93253 -180 0 0 56.72
							 250.12 L25.97 219.37 A6.93438 6.93438 -180 0 0 25.5 218.94 A18.023 18.023 -180 0 0 0 244.18 A6.93438
							 6.93438 -180 0 0 0.47 244.7 L39.1 283.34 A6.93438 6.93438 -180 0 0 39.23 283.46 A13.7245 13.7245 -180
							 0 0 58.63 264.06 A6.93438 6.93438 -180 0 0 58.51 263.93 L26.82 232.28 A6.93438 6.93438 -180 0 0 26.75
							 232.22 A9.34693 9.34693 -180 1 0 13.75 245.64 A6.93438 6.93438 0 0 1 13.83 245.72 L31.5 263.38 A2.93335
							 2.93335 -180 0 0 35.64 263.38 A2.93253 2.93253 -180 0 0 35.64 259.24 L18.03 241.63 A6.93438 6.93438
							 -180 0 0 17.87 241.47 A3.45894 3.45894 0 1 1 22.76 236.58 A6.93438 6.93438 -180 0 0 22.92 236.74 L42.82
							 256.6 a0.00601072 0.00601072 -180 0 0 0.0084956 -4.82599E-06 L42.83 256.6 Z" class="st2"/>
			</g>
			<g id="group16-6" transform="translate(7.99361E-15,426.529) scale(1,-1)">
				
				<g id="shape17-7">
					
					<path d="M75.85 143.06 L10.4 143.06 A10.4004 10.4004 -180 0 0 0 153.46 L0 273.07 A10.4004 10.4004 -180 0 0 10.4
								 283.46 L106.6 283.46 A10.4004 10.4004 -180 0 0 117 273.07 L117 184.22 A5.20021 5.20021 -180 0 0
								 115.48 180.54 L79.52 144.59 A5.20021 5.20021 -180 0 0 75.85 143.06 ZM78 162.56 L78 176.86 A5.20021
								 5.20021 -180 0 0 83.2 182.06 L98.8 182.06 A5.20021 5.20021 0 0 1 104.01 187.27 L104.01 263.97 A5.20021
								 5.20021 0 0 1 98.8 269.17 L18.2 269.17 A5.20021 5.20021 0 0 1 13 263.97 L13 162.56 A5.20021 5.20021
								 0 0 1 18.2 157.36 L72.8 157.36 A5.20021 5.20021 0 0 1 78 162.56 Z" class="st3"/>
				</g>
			</g>
		</g>
	</g>
  </g>
</svg>