<?xml version="1.0" encoding="UTF-8" standalone="no"?>
<svg width="21" height="21" viewBox="0 0 21 21" xmlns="http://www.w3.org/2000/svg">
  <style>.st1 {display:none}
		.st2 {fill:#000000;stroke:#000000;stroke-linecap:round;stroke-linejoin:round;stroke-width:0.24}
		.st3 {fill:none;fill-rule:evenodd;font-size:12px;overflow:visible;stroke-linecap:square;stroke-miterlimit:3}</style>
  <g transform="scale(0.074083)">
<g>
		
		
		<g id="shape1-1" transform="translate(0.000280035,-0.0004331)">
			
			<rect x="0" y="-0.035" width="283.5" height="283.5" class="st1"/>
		</g>
		<g id="shape3-3" transform="translate(72.0001,-72.0003)">
			
			<path d="M33.13 224.18 A1.74375 1.74375 0 0 1 31.39 222.43 L31.39 205 A1.74375 1.74375 0 0 1 33.13 203.25 L106.37 203.25
						 A1.74375 1.74375 0 0 1 108.11 205 L108.11 222.43 A1.74375 1.74375 0 0 1 106.37 224.18 L33.13 224.18 ZM10.46
						 283.46 L129.04 283.46 A10.4625 10.4625 -180 0 0 139.5 273 L139.5 154.43 A10.4625 10.4625 -180 0 0 129.04
						 143.96 L10.46 143.96 A10.4625 10.4625 -180 0 0 0 154.43 L0 273 A10.4625 10.4625 -180 0 0 10.46 283.46 Z"
					class="st2"/>
		</g>
	</g>
  </g>
</svg>