<?xml version="1.0" encoding="UTF-8" standalone="no"?>
<svg width="21" height="21" viewBox="0 0 21 21" xmlns="http://www.w3.org/2000/svg">
  <style>.st1 {display:none}
		.st2 {fill:#000000;stroke:#000000;stroke-linecap:round;stroke-linejoin:round;stroke-width:0.749999}
		.st3 {fill:none;fill-rule:evenodd;font-size:12px;overflow:visible;stroke-linecap:square;stroke-miterlimit:3}</style>
  <g transform="scale(0.074083)">
<g>
		
		
		<g id="shape1-1" transform="translate(0.000280035,-0.0004331)">
			
			<rect x="0" y="-0.035" width="283.5" height="283.5" class="st1"/>
		</g>
		<g id="shape2-3" transform="translate(72.4498,-80.2111)">
			
			<path d="M23.59 227.25 L23.59 259.87 L115.91 259.87 L115.91 183.97 L23.59 183.97 L23.59 221.35 L31.51 221.35 L38.26 198.51
						 L38.31 198.52 A6.68509 5.22536 180 0 1 51.62 198.65 L62.26 241.44 L70.74 212.74 L70.77 212.74 A7.48061 5.99371
						 180 0 1 85.11 212.86 L89.68 221.36 L91.72 221.36 L91.7 221.34 L99 221.34 L99 227.24 L88.59 227.24 A4.75701
						 3.71829 180 0 1 88.46 227.25 L87.42 227.25 A4.75701 3.71829 180 0 1 83.75 225.32 L78.23 215.06 L78.19 215.06
						 L78.1 214.89 L78.05 215.06 L77.8 215.06 L72.39 233.39 L68.11 247.22 A6.68509 5.22536 180 0 1 55.78 246.21
						 L55.76 246.22 L55.7 245.97 A6.68509 5.22536 180 0 1 55.6 245.55 L44.86 202.38 L38.31 224.55 A4.75701 3.71829
						 180 0 1 34.25 227.25 L23.59 227.25 ZM8.21 283.46 L131.29 283.46 A8.20587 8.20587 -180 0 0 139.5 275.26 L139.5
						 168.58 A8.20587 8.20587 -180 0 0 131.29 160.38 L8.21 160.38 A8.20587 8.20587 -180 0 0 0 168.58 L0 275.26
						 A8.20587 8.20587 -180 0 0 8.21 283.46 ZM15.39 268.08 L15.39 175.76 L124.11 175.76 L124.11 268.08 L15.39
						 268.08 Z" class="st2"/>
		</g>
	</g>
  </g>
</svg>