<?xml version="1.0" encoding="UTF-8" standalone="no"?>
<svg width="21" height="21" viewBox="0 0 21 21" xmlns="http://www.w3.org/2000/svg">
  <style>.st1 {display:none}
		.st2 {fill:#000000;stroke:#000000;stroke-linecap:round;stroke-linejoin:round;stroke-width:0.749999}
		.st3 {fill:none;fill-rule:evenodd;font-size:12px;overflow:visible;stroke-linecap:square;stroke-miterlimit:3}</style>
  <g transform="scale(0.074083)">
<g>
		
		
		<g id="shape1-1" transform="translate(0.000280035,-0.0004331)">
			
			<rect x="0" y="-0.035" width="283.5" height="283.5" class="st1"/>
		</g>
		<g id="group2-3" transform="translate(72.0067,-86.2811)">
			
			<g id="shape3-4">
				
				<path d="M60.85 238.23 L88.89 275.57 A4.09719 2.77075 -90 0 0 92.8 275.26 A4.09719 2.77075 -90 0 0 92.6 269.48 L44.27
							 205.13 a0.0291096 0.0196856 -90 0 0 -0.0278014 0.00215453 L44.23 205.15 L44.23 205.16 L0.7 276.64 A4.09719
							 2.77075 -90 0 0 0.91 282.42 A4.09719 2.77075 -90 0 0 4.82 282.12 L34.15 233.96 L50.32 255.5 L50.35 255.46
							 L60.85 238.23 Z" class="st2"/>
			</g>
			<g id="shape4-6" transform="translate(94.4365,-4.54278)">
				
				<path d="M2.47 260.02 L3.48 258.34 L12.85 271.03 L12.87 271 L18.95 260.85 L35.2 282.85 A2.41417 1.60538 -90 0 0 37.46
							 282.68 A2.41417 1.60538 -90 0 0 37.34 279.27 L9.34 241.35 a0.0171521 0.0114059 -90 0 0 -0.0161082 0.0012695
							 L9.32 241.37 L0 256.93 L2.47 260.02 Z" class="st2"/>
			</g>
			<g id="shape5-8" transform="translate(56.9225,-20.7706)">
				
				<path d="M5.29 233.57 L7.68 229.66 L28.09 256.83 L28.12 256.78 L41.36 235.04 L76.74 282.15 A5.1686 3.4953 -90 0 0
							 81.67 281.76 A5.1686 3.4953 -90 0 0 81.41 274.47 L20.45 193.3 a0.0367218 0.0248333 -90 0 0 -0.0350715
							 0.00271793 L20.4 193.32 a0.00425426 0.00287697 90 0 1 -0.00406307 0.000314876 a0.00425426 0.00287697
							 -90 0 0 -0.00406307 0.000314876 L0 226.81 L5.29 233.57 Z" class="st2"/>
			</g>
		</g>
	</g>
  </g>
</svg>