<?xml version="1.0" encoding="UTF-8" standalone="no"?>
<svg width="21" height="21" viewBox="0 0 21 21" xmlns="http://www.w3.org/2000/svg">
  <style>.st1 {display:none}
		.st2 {fill:#000000;stroke:#000000;stroke-linecap:round;stroke-linejoin:round;stroke-width:0.24}
		.st3 {fill:none;fill-rule:evenodd;font-size:12px;overflow:visible;stroke-linecap:square;stroke-miterlimit:3}</style>
  <g transform="scale(0.074083)">
<g>
		
		
		<g id="shape1-1" transform="translate(0.000280035,-0.0004331)">
			
			<rect x="0" y="-0.035" width="283.5" height="283.5" class="st1"/>
		</g>
		<g id="shape3-3" transform="translate(99.0001,-72.2815)">
			
			<path d="M35.27 144.53 L25.65 144.53 A25.65 25.65 -180 0 0 0 170.18 L0 193.69 L35.27 193.69 L35.27 144.53 ZM50.23 193.69
						 L85.5 193.69 L85.5 170.18 A25.65 25.65 -180 0 0 59.85 144.53 L50.23 144.53 L50.23 193.69 ZM35.27 208.65
						 L0 208.65 L0 257.81 A25.65 25.65 -180 0 0 25.65 283.46 L59.85 283.46 A25.65 25.65 -180 0 0 85.5 257.81 L85.5
						 208.65 L50.23 208.65 L35.27 208.65 Z" class="st2"/>
		</g>
	</g>
  </g>
</svg>