<?xml version="1.0" encoding="UTF-8" standalone="no"?>
<svg width="21" height="21" viewBox="0 0 21 21" xmlns="http://www.w3.org/2000/svg">
  <style>.st1 {display:none}
		.st2 {fill:#000000;stroke:#000000;stroke-linecap:round;stroke-linejoin:round;stroke-width:0.24}
		.st3 {fill:none;fill-rule:evenodd;font-size:12px;overflow:visible;stroke-linecap:square;stroke-miterlimit:3}</style>
  <g transform="scale(0.074083)">
<g>
		
		
		<g id="shape1-1" transform="translate(0.000280035,-0.0004331)">
			
			<rect x="0" y="-0.035" width="283.5" height="283.5" class="st1"/>
		</g>
		<g id="shape3-3" transform="translate(72.0001,-72.0003)">
			
			<path d="M36.46 195.22 A1.74375 1.74375 0 0 1 36.46 192.75 L48.79 180.42 A1.74375 1.74375 0 0 1 51.25 180.42 L68.52 197.69
						 A1.74375 1.74375 -180 0 0 70.98 197.69 L88.25 180.42 A1.74375 1.74375 0 0 1 90.71 180.42 L103.04 192.75
						 A1.74375 1.74375 0 0 1 103.04 195.22 L85.78 212.48 A1.74375 1.74375 -180 0 0 85.78 214.95 L103.04 232.21
						 A1.74375 1.74375 0 0 1 103.04 234.68 L90.71 247.01 A1.74375 1.74375 0 0 1 88.25 247.01 L70.98 229.74 A1.74375
						 1.74375 -180 0 0 68.52 229.74 L51.25 247.01 A1.74375 1.74375 0 0 1 48.79 247.01 L36.46 234.68 A1.74375 1.74375
						 0 0 1 36.46 232.21 L53.72 214.95 A1.74375 1.74375 -180 0 0 53.72 212.48 L36.46 195.22 ZM10.46 283.46 L129.04
						 283.46 A10.4625 10.4625 -180 0 0 139.5 273 L139.5 154.43 A10.4625 10.4625 -180 0 0 129.04 143.96 L10.46
						 143.96 A10.4625 10.4625 -180 0 0 -0 154.43 L0 273 A10.4625 10.4625 -180 0 0 10.46 283.46 Z" class="st2"/>
		</g>
	</g>
  </g>
</svg>