<?xml version="1.0" encoding="UTF-8" standalone="no"?>
<svg width="21" height="21" viewBox="0 0 21 21" xmlns="http://www.w3.org/2000/svg">
  <style>.st1 {display:none}
		.st2 {fill:#000000;stroke:#000000;stroke-linecap:round;stroke-linejoin:round;stroke-width:0.749999}
		.st3 {fill:none;fill-rule:evenodd;font-size:12px;overflow:visible;stroke-linecap:square;stroke-miterlimit:3}</style>
  <g transform="scale(0.074083)">
<g>
		
		
		<g id="shape1-1" transform="translate(0.000280035,-0.0004331)">
			
			<rect x="0" y="-0.035" width="283.5" height="283.5" class="st1"/>
		</g>
		<g id="shape2-3" transform="translate(72.5698,-78.0273)">
			
			<path d="M113.66 175.57 L112.72 170.31 A7.84342 7.84342 -180 0 0 105 163.85 L39.88 163.85 L39.63 162.47 A7.84342 7.84342
						 -180 0 0 31.91 156.01 L7.72 156.01 A7.84342 7.84342 -180 0 0 -0 165.24 L2.12 177 A7.84342 7.84342 -180 0
						 0 2.28 177.71 L12.36 233.87 A7.84342 7.84342 -180 0 0 12.49 234.48 L26.63 181.39 A7.84342 7.84342 0 0 1
						 34.21 175.57 L113.66 175.57 ZM25.68 247.77 L118.07 247.77 A7.84342 7.84342 -180 0 0 125.65 241.94 L139.12
						 191.36 A7.84342 7.84342 -180 0 0 131.54 181.5 L39.15 181.5 A7.84342 7.84342 -180 0 0 31.57 187.33 L18.1
						 237.91 A7.84342 7.84342 -180 0 0 25.68 247.77 ZM91.44 279.23 L129 279.23 A3.92171 3.92171 -180 0 0 132.93
						 275.31 A3.92171 3.92171 -180 0 0 129 271.39 L91.44 271.39 L91.44 279.23 ZM47.82 271.39 L10.26 271.39 A3.92171
						 3.92171 -180 0 0 6.33 275.31 A3.92171 3.92171 -180 0 0 10.26 279.23 L47.82 279.23 L47.82 271.39 ZM66.26
						 267.78 L56.1 267.78 A3.13737 3.13737 -180 0 0 52.96 270.92 L52.96 280.33 A3.13737 3.13737 -180 0 0 56.1
						 283.46 L83.16 283.46 A3.13737 3.13737 -180 0 0 86.3 280.33 L86.3 270.92 A3.13737 3.13737 -180 0 0 83.16
						 267.78 L74.1 267.78 L74.1 252.09 L66.26 252.09 L66.26 267.78 Z" class="st2"/>
		</g>
	</g>
  </g>
</svg>