<?xml version="1.0" encoding="UTF-8" standalone="no"?>
<svg width="21" height="21" viewBox="0 0 21 21" xmlns="http://www.w3.org/2000/svg">
  <style>.st1 {display:none}
		.st2 {fill:#000000;stroke:#000000;stroke-linecap:round;stroke-linejoin:round;stroke-width:0.749999}
		.st3 {fill:none;fill-rule:evenodd;font-size:12px;overflow:visible;stroke-linecap:square;stroke-miterlimit:3}</style>
  <g transform="scale(0.074083)">
<g>
		
		
		<g id="shape1-1" transform="translate(0.000280035,-0.0004331)">
			
			<rect x="0" y="-0.035" width="283.5" height="283.5" class="st1"/>
		</g>
		<g id="shape2-3" transform="translate(72.4498,-81.4485)">
			
			<path d="M51.25 201.68 L66.39 201.68 L66.39 218.86 L4.3 218.86 A4.29644 4.29644 -180 0 0 -0 223.16 A4.29644 4.29644 -180
						 0 0 4.3 227.45 L32.02 227.45 L32.02 244.64 L16.88 244.64 A6.47074 6.47074 -180 0 0 10.41 251.11 L10.41 276.99
						 A6.47074 6.47074 -180 0 0 16.88 283.46 L53.88 283.46 A6.47074 6.47074 -180 0 0 60.35 276.99 L60.35 251.11
						 A6.47074 6.47074 -180 0 0 53.88 244.64 L38.74 244.64 L38.74 227.45 L100.76 227.45 L100.76 244.64 L85.62
						 244.64 A6.47074 6.47074 -180 0 0 79.15 251.11 L79.15 276.99 A6.47074 6.47074 -180 0 0 85.62 283.46 L122.62
						 283.46 A6.47074 6.47074 -180 0 0 129.09 276.99 L129.09 251.11 A6.47074 6.47074 -180 0 0 122.62 244.64 L107.48
						 244.64 L107.48 227.45 L135.2 227.45 A4.29644 4.29644 -180 0 0 139.5 223.16 A4.29644 4.29644 -180 0 0 135.2
						 218.86 L73.11 218.86 L73.11 201.68 L88.25 201.68 A6.47074 6.47074 -180 0 0 94.72 195.21 L94.72 169.32 A6.47074
						 6.47074 -180 0 0 88.25 162.85 L51.25 162.85 A6.47074 6.47074 -180 0 0 44.78 169.32 L44.78 195.21 A6.47074
						 6.47074 -180 0 0 51.25 201.68 ZM58.43 192.78 A3.23538 3.23538 0 0 1 55.19 189.54 L55.19 174.99 A3.23538
						 3.23538 0 0 1 58.43 171.75 L81.07 171.75 A3.23538 3.23538 0 0 1 84.31 174.99 L84.31 189.54 A3.23538 3.23538
						 0 0 1 81.07 192.78 L58.43 192.78 ZM24.05 274.56 A3.23538 3.23538 0 0 1 20.82 271.33 L20.82 256.78 A3.23538
						 3.23538 0 0 1 24.05 253.54 L46.7 253.54 A3.23538 3.23538 0 0 1 49.94 256.78 L49.94 271.33 A3.23538 3.23538
						 0 0 1 46.7 274.56 L24.05 274.56 ZM92.8 274.56 A3.23538 3.23538 0 0 1 89.56 271.33 L89.56 256.78 A3.23538
						 3.23538 0 0 1 92.8 253.54 L115.45 253.54 A3.23538 3.23538 0 0 1 118.68 256.78 L118.68 271.33 A3.23538 3.23538
						 0 0 1 115.45 274.56 L92.8 274.56 Z" class="st2"/>
		</g>
	</g>
  </g>
</svg>