<?xml version="1.0" encoding="UTF-8" standalone="no"?>
<svg width="21" height="21" viewBox="0 0 21 21" xmlns="http://www.w3.org/2000/svg">
  <style>.st1 {display:none}
		.st2 {fill:#000000;stroke:none;stroke-linecap:round;stroke-linejoin:round;stroke-width:0.24}
		.st3 {fill:none;fill-rule:evenodd;font-size:12px;overflow:visible;stroke-linecap:square;stroke-miterlimit:3}</style>
  <g transform="scale(0.074083)">
<g>
		
		
		<g id="shape1-1" transform="translate(0.000280035,-0.0004331)">
			
			<rect x="0" y="-0.035" width="283.5" height="283.5" class="st1"/>
		</g>
		<g id="shape13-3" transform="translate(72.2305,-72.2306)">
			
			<path d="M24 232.36 L24 196.2 L30.69 196.2 A737.56 737.56 175.58 0 1 46.76 224.32 L46.09 196.2 L50.77 196.2 L50.77 231.69
						 L45.42 231.69 L28.01 200.89 L28.68 232.36 L24 232.36 ZM60.15 196.2 L80.23 196.2 L80.23 200.22 L65.5 200.22
						 L65.5 210.93 L78.22 210.93 L78.22 214.95 L65.5 214.95 L65.5 227.67 L80.23 227.67 L80.23 231.69 L60.15 231.69
						 L60.15 196.2 ZM92.95 195.53 L92.95 219.64 A8.70322 8.70322 -180 0 0 101.65 228.34 A9.67202 8.92802 -180
						 0 0 110.36 220.31 L110.36 195.53 L115.04 195.53 L115.04 221.64 A13.3896 10.7117 0 0 1 101.65 232.36 A13.3896
						 11.3811 0 0 1 88.27 220.97 L88.27 195.53 L92.95 195.53 ZM69.52 144.43 L58.46 158.33 L42.92 149.72 L38.02
						 166.8 L20.36 164.79 L22.37 182.44 L5.29 187.34 L13.9 202.88 L0 213.95 L13.9 225.01 L5.29 240.55 L22.37 245.45
						 L20.36 263.1 L38.02 261.09 L42.92 278.17 L58.46 269.56 L69.52 283.46 L80.58 269.56 L96.12 278.17 L101.02
						 261.09 L118.68 263.1 L116.67 245.45 L133.75 240.55 L125.14 225.01 L139.04 213.95 L125.14 202.88 L133.75
						 187.34 L116.67 182.44 L118.68 164.79 L101.02 166.8 L96.12 149.72 L80.58 158.33 L69.52 144.43 Z"
					class="st2"/>
		</g>
	</g>
  </g>
</svg>