<?xml version="1.0" encoding="UTF-8" standalone="no"?>
<svg width="21" height="21" viewBox="0 0 21 21" xmlns="http://www.w3.org/2000/svg">
  <style>.st1 {display:none}
		.st2 {fill:#000000;stroke:#000000;stroke-linecap:round;stroke-linejoin:round;stroke-width:0.24}
		.st3 {fill:none;fill-rule:evenodd;font-size:12px;overflow:visible;stroke-linecap:square;stroke-miterlimit:3}</style>
  <g transform="scale(0.074083)">
<g>
		
		
		<g id="shape1-1" transform="translate(0.000280035,-0.0004331)">
			
			<rect x="0" y="-0.035" width="283.5" height="283.5" class="st1"/>
		</g>
		<g id="shape3-3" transform="translate(75.3751,-71.7708)">
			
			<path d="M74.87 224.64 A52.9449 52.9449 0 0 1 63 233.7 A8.50394 8.50394 0 0 1 62.52 233.95 A14.2907 14.2907 0 0 1 50.78
						 234.23 A4.25197 4.25197 0 0 1 49.21 233.08 A14.3681 14.3681 0 0 1 46.97 229.53 A8.50394 8.50394 0 0 1 46.49
						 228.1 A28.09 28.09 0 0 1 46.14 216.54 A8.50394 8.50394 -180 0 0 46.22 215.97 A56.9388 56.9388 178.46 0 1
						 50.28 200.24 A8.50394 8.50394 -180 0 0 50.39 199.97 A21.64 21.64 173.83 0 1 61.35 188.08 A8.50394 8.50394
						 0 0 1 63.8 187.34 A12.6573 12.6573 88.9 0 1 73.39 189.91 A8.50394 8.50394 -180 0 0 73.47 189.97 A24.3834
						 24.3834 0 0 1 79.05 195.97 A8.50394 8.50394 0 0 1 80.32 202.09 L77.19 220.13 A8.50394 8.50394 0 0 1 74.87
						 224.64 ZM95.02 268.65 A1.98765 1.98765 -180 0 0 92.4 267.05 A8.50394 8.50394 0 0 1 92.27 267.09 A91.4261
						 91.4261 0 0 1 41.16 268.92 A8.50394 8.50394 -180 0 0 41.05 268.9 A34.0743 34.0743 0.12 0 1 16.83 247.06
						 A8.50394 8.50394 0 0 1 16.64 246.44 A80.7754 80.7754 0.92 0 1 14.3 217.36 A8.50394 8.50394 -180 0 0 14.33
						 217.02 A85.3793 85.3793 178.29 0 1 15.67 206.33 A8.50394 8.50394 0 0 1 15.76 205.89 A179.261 179.261 1.5
						 0 1 20.37 190.16 A8.50394 8.50394 0 0 1 20.47 189.9 A52.8755 52.8755 179.44 0 1 53.08 158.55 A8.50394 8.50394
						 -180 0 0 53.15 158.53 A59.3436 59.3436 1.55 0 1 73.47 155.3 A8.50394 8.50394 -180 0 0 74.13 155.29 A49.2103
						 49.2103 0.13 0 1 83.75 155.65 A8.50394 8.50394 -180 0 0 84.17 155.69 A43.858 43.858 178.82 0 1 107.28 164.75
						 A8.50394 8.50394 0 0 1 107.91 165.29 A40.7649 40.7649 177.32 0 1 113.67 172.07 A8.50394 8.50394 0 0 1 114.37
						 173.31 A52.42 52.42 179.54 0 1 118.39 203.43 A8.50394 8.50394 -180 0 0 118.3 204.34 A44.577 44.577 4.5 0
						 1 117.26 211.78 A8.50394 8.50394 -180 0 0 117.17 212.26 A43.29 43.29 179.7 0 1 111.93 226.85 A8.50394 8.50394
						 -180 0 0 111.79 227.09 A16.1075 16.1075 5.38 0 1 107.2 232.41 A8.50394 8.50394 -180 0 0 106.92 232.63 A12.7309
						 12.7309 0.49 0 1 94.03 234.49 A4.25197 4.25197 0 0 1 93.47 234.2 A10.6912 10.6912 5.67 0 1 92.19 233.3 A4.25197
						 4.25197 0 0 1 91.39 232.43 A16.3985 16.3985 174.11 0 1 91 231.84 A8.50394 8.50394 0 0 1 89.77 228.42 A22.416
						 22.416 1.82 0 1 90.05 220.94 A8.50394 8.50394 -180 0 0 90.07 220.82 L98.08 179.41 A1.95554 1.95554 -1.02
						 0 0 96.32 177.11 A8.50394 8.50394 0 0 1 95.82 177.05 A21.0102 21.0102 -178.52 0 0 90.31 176.98 A8.50394
						 8.50394 0 0 1 89.88 177.02 A4.29116 4.29116 -13.69 0 0 86.65 178.84 A2.12598 2.12598 -180 0 0 86.3 179.71
						 L85.84 182.48 A2.12598 2.12598 0 0 1 82.13 183.52 A22.82 22.82 -0.84 0 0 69.55 176.14 A8.50394 8.50394 -180
						 0 0 69.02 176.05 A28.28 28.28 -179.23 0 0 42.59 186.83 A8.50394 8.50394 -180 0 0 42.25 187.31 A65.821 65.821
						 -176.55 0 0 37.46 195.84 A8.50394 8.50394 -180 0 0 37.37 196.05 A66.3869 66.3869 -177.87 0 0 32.42 213.86
						 A64.2459 64.2459 -176.73 0 0 32.23 229.09 A8.50394 8.50394 0 0 1 32.25 229.29 A20.7643 20.7643 -174.34 0
						 0 34.92 237.91 A8.50394 8.50394 0 0 1 35.09 238.21 A15.7474 15.7474 -176.13 0 0 37.83 241.99 A8.50394 8.50394
						 -180 0 0 38.1 242.25 A17.508 17.508 -3.47 0 0 42.49 245.24 A8.50394 8.50394 -180 0 0 43.37 245.6 A26.999
						 26.999 -177.84 0 0 61.33 245.48 A8.50394 8.50394 -180 0 0 61.51 245.42 A41.9416 41.9416 -179.77 0 0 73.65
						 238.17 A4.25197 4.25197 0 0 1 80.06 239.2 A15.4435 15.4435 -0.07 0 0 86.93 245.29 A8.50394 8.50394 -180
						 0 0 87.58 245.56 A28.8189 28.8189 -0.28 0 0 108.52 244.9 A8.50394 8.50394 -180 0 0 108.54 244.89 A32.9432
						 32.9432 -0.46 0 0 125.42 228.5 A8.50394 8.50394 0 0 1 125.64 228.05 A37.5359 37.5359 -178.2 0 0 128.47 221.29
						 A8.50394 8.50394 0 0 1 128.49 221.21 A90.4857 90.4857 -178.83 0 0 132.54 187.66 A8.50394 8.50394 -180 0
						 0 132.54 187.6 A53.4847 53.4847 -2.35 0 0 129.79 174.21 A8.50394 8.50394 0 0 1 129.75 174.09 A40.9199 40.9199
						 -0.11 0 0 102.27 147.52 A8.50394 8.50394 0 0 1 101.85 147.38 A61.6163 61.6163 -179.21 0 0 90.46 144.6 A8.50394
						 8.50394 0 0 1 90.39 144.59 A94.2359 94.2359 -0.44 0 0 56.38 145.6 A8.50394 8.50394 0 0 1 56.31 145.62 A65.9309
						 65.9309 -0.11 0 0 22.18 164.44 A8.50394 8.50394 -180 0 0 21.98 164.65 A78.8424 78.8424 -179.75 0 0 6.07
						 191.61 A8.50394 8.50394 -180 0 0 5.96 191.97 A146.925 146.925 -180 0 0 0.01 227.69 A8.50394 8.50394 -180
						 0 0 0 227.94 A69.4335 69.4335 -180 0 0 4.62 253.65 A8.50394 8.50394 -180 0 0 4.63 253.69 A43.4122 43.4122
						 -180 0 0 31.81 279.23 A8.50394 8.50394 -180 0 0 31.93 279.27 A96.9863 96.9863 -180 0 0 66.78 283.24 A8.50394
						 8.50394 0 0 1 67.15 283.22 A89.7904 89.7904 -180 0 0 92.21 279.02 A4.25197 4.25197 -180 0 0 92.59 278.88
						 A4.49375 4.49375 -99.84 0 0 93.47 278.38 A4.25197 4.25197 -180 0 0 95.17 275.62 A19.1877 19.1877 -95.86
						 0 0 95.09 269.02 A8.50394 8.50394 0 0 1 95.02 268.65 Z" class="st2"/>
		</g>
	</g>
  </g>
</svg>