<?xml version="1.0" encoding="UTF-8" standalone="no"?>
<svg width="21" height="21" viewBox="0 0 21 21" xmlns="http://www.w3.org/2000/svg">
  <style>.st1 {display:none}
		.st2 {fill:#000000;stroke:#000000;stroke-linecap:round;stroke-linejoin:round;stroke-width:0.24}
		.st3 {fill:none;fill-rule:evenodd;font-size:12px;overflow:visible;stroke-linecap:square;stroke-miterlimit:3}</style>
  <g transform="scale(0.074083)">
<g>
		
		
		<g id="shape1-1" transform="translate(0.000280035,-0.0004331)">
			
			<rect x="0" y="-0.035" width="283.5" height="283.5" class="st1"/>
		</g>
		<g id="shape3-3" transform="translate(73.125,-91.8295)">
			
			
			<path d="M0 276.97 A6.49716 6.49714 -180 0 0 6.5 283.46 L30.72 283.46 A6.49716 6.49714 -180 0 0 37.22 276.97 A6.49716
						 6.49714 -180 0 0 30.72 270.47 L6.5 270.47 A6.49716 6.49714 -180 0 0 0 276.97 Z" class="st2"/>
		</g>
		<g id="shape4-5" transform="translate(73.125,-134.478)">
			
			
			<path d="M0 276.97 A6.49716 6.49714 -180 0 0 6.5 283.46 L30.72 283.46 A6.49716 6.49714 -180 0 0 37.22 276.97 A6.49716
						 6.49714 -180 0 0 30.72 270.47 L6.5 270.47 A6.49716 6.49714 -180 0 0 0 276.97 Z" class="st2"/>
		</g>
		<g id="shape5-7" transform="translate(73.125,-177.126)">
			
			
			<path d="M0 276.97 A6.49716 6.49714 -180 0 0 6.5 283.46 L30.72 283.46 A6.49716 6.49714 -180 0 0 37.22 276.97 A6.49716
						 6.49714 -180 0 0 30.72 270.47 L6.5 270.47 A6.49716 6.49714 -180 0 0 0 276.97 Z" class="st2"/>
		</g>
		<g id="shape2-9" transform="translate(91.7352,-71.9671)">
			
			<path d="M101.18 202.32 A11.4144 11.4144 -180 0 0 78.35 202.32 A11.4144 11.4144 -180 0 0 101.18 202.32 ZM104.09 194.44
						 a0.691782 0.691782 -180 0 0 0.0799393 0.310533 A16.2825 16.2825 0 0 1 105.33 197.56 a0.691782 0.691782 -180
						 0 0 0.18755 0.30131 A1.38356 1.38356 -180 0 0 106.02 198.17 L110.24 199.58 A1.38356 1.38356 0 0 1 111.19
						 200.89 L111.2 203.82 A1.38356 1.38356 0 0 1 110.26 205.14 L106.03 206.56 A1.38356 1.38356 -180 0 0 105.44
						 206.95 a0.691782 0.691782 -180 0 0 -0.144506 0.255191 A16.2825 16.2825 0 0 1 104.19 209.87 a0.691782 0.691782
						 -180 0 0 -0.0768647 0.325906 A1.38356 1.38356 -180 0 0 104.25 210.81 L106.25 214.79 A1.38356 1.38356 0 0
						 1 106 216.38 L103.94 218.47 A1.38356 1.38356 0 0 1 102.34 218.74 L98.34 216.77 A1.38356 1.38356 -180 0 0
						 97.7 216.63 a0.691782 0.691782 -180 0 0 -0.310533 0.0799393 A16.2825 16.2825 0 0 1 94.52 217.89 a0.691782
						 0.691782 -180 0 0 -0.30131 0.18755 A1.38356 1.38356 -180 0 0 93.92 218.59 L92.5 222.81 A1.38356 1.38356
						 0 0 1 91.2 223.75 L88.26 223.76 A1.38356 1.38356 0 0 1 86.94 222.82 L85.52 218.59 A1.38356 1.38356 -180
						 0 0 85.14 218 a0.691782 0.691782 -180 0 0 -0.258265 -0.144506 A16.2825 16.2825 0 0 1 82.16 216.72 a0.691782
						 0.691782 -180 0 0 -0.325906 -0.0799393 A1.38356 1.38356 -180 0 0 81.22 216.79 L77.24 218.77 A1.38356 1.38356
						 0 0 1 75.65 218.51 L73.56 216.45 A1.38356 1.38356 0 0 1 73.3 214.85 L75.28 210.85 A1.38356 1.38356 -180
						 0 0 75.43 210.21 a0.691782 0.691782 -180 0 0 -0.0799393 -0.307459 A16.2825 16.2825 0 0 1 74.22 207.18 a0.691782
						 0.691782 -180 0 0 -0.156804 -0.267489 A1.38356 1.38356 -180 0 0 73.49 206.54 L69.28 205.13 A1.38356 1.38356
						 0 0 1 68.34 203.83 L68.32 200.89 A1.38356 1.38356 0 0 1 69.26 199.57 L73.49 198.15 A1.38356 1.38356 -180
						 0 0 74.02 197.83 a0.691782 0.691782 -180 0 0 0.178326 -0.292086 A16.2825 16.2825 0 0 1 75.33 194.77 a0.691782
						 0.691782 -180 0 0 0.0799393 -0.322832 A1.38356 1.38356 -180 0 0 75.27 193.83 L73.27 189.86 A1.38356 1.38356
						 0 0 1 73.52 188.27 L75.58 186.18 A1.38356 1.38356 0 0 1 77.18 185.91 L81.18 187.88 A1.38356 1.38356 -180
						 0 0 81.82 188.02 a0.691782 0.691782 -180 0 0 0.307459 -0.0830139 A16.2825 16.2825 0 0 1 84.91 186.78 a0.691782
						 0.691782 -180 0 0 0.270564 -0.156804 A1.38356 1.38356 -180 0 0 85.54 186.06 L86.96 181.84 A1.38356 1.38356
						 0 0 1 88.26 180.9 L91.19 180.88 A1.38356 1.38356 0 0 1 92.51 181.83 L93.93 186.06 A1.38356 1.38356 -180
						 0 0 94.26 186.58 a0.691782 0.691782 -180 0 0 0.289011 0.175252 A16.2825 16.2825 0 0 1 97.36 187.93 a0.691782
						 0.691782 -180 0 0 0.322832 0.0799393 A1.38356 1.38356 -180 0 0 98.3 187.86 L102.28 185.88 A1.38356 1.38356
						 0 0 1 103.87 186.14 L105.96 188.2 A1.38356 1.38356 0 0 1 106.22 189.8 L104.24 193.8 A1.38356 1.38356 -180
						 0 0 104.09 194.44 ZM94.01 202.32 A4.24739 4.22658 0 1 1 85.51 202.32 A4.24739 4.22658 0 1 1 94.01 202.32
						 ZM67.12 225.04 A11.4144 11.4144 -180 0 0 44.29 225.04 A11.4144 11.4144 -180 0 0 67.12 225.04 ZM70.04 217.15
						 a0.691782 0.691782 -180 0 0 0.0799393 0.310533 A16.2825 16.2825 0 0 1 71.28 220.27 a0.691782 0.691782 -180
						 0 0 0.18755 0.30131 A1.38356 1.38356 -180 0 0 71.97 220.88 L76.19 222.3 A1.38356 1.38356 0 0 1 77.13 223.6
						 L77.15 226.53 A1.38356 1.38356 0 0 1 76.2 227.85 L71.97 229.28 A1.38356 1.38356 -180 0 0 71.38 229.66 a0.691782
						 0.691782 -180 0 0 -0.144506 0.255191 A16.2825 16.2825 0 0 1 70.13 232.59 a0.691782 0.691782 -180 0 0 -0.0768647
						 0.325906 A1.38356 1.38356 -180 0 0 70.2 233.53 L72.19 237.5 A1.38356 1.38356 0 0 1 71.94 239.09 L69.89 241.18
						 A1.38356 1.38356 0 0 1 68.29 241.45 L64.28 239.48 A1.38356 1.38356 -180 0 0 63.64 239.34 a0.691782 0.691782
						 -180 0 0 -0.310533 0.0799393 A16.2825 16.2825 0 0 1 60.47 240.61 a0.691782 0.691782 -180 0 0 -0.30131 0.18755
						 A1.38356 1.38356 -180 0 0 59.86 241.3 L58.45 245.52 A1.38356 1.38356 0 0 1 57.14 246.46 L54.21 246.48 A1.38356
						 1.38356 0 0 1 52.89 245.53 L51.46 241.3 A1.38356 1.38356 -180 0 0 51.08 240.72 a0.691782 0.691782 -180 0
						 0 -0.258265 -0.144506 A16.2825 16.2825 0 0 1 48.1 239.43 a0.691782 0.691782 -180 0 0 -0.325906 -0.0799393
						 A1.38356 1.38356 -180 0 0 47.17 239.5 L43.18 241.48 A1.38356 1.38356 0 0 1 41.59 241.22 L39.51 239.16 A1.38356
						 1.38356 0 0 1 39.24 237.56 L41.23 233.57 A1.38356 1.38356 -180 0 0 41.37 232.92 a0.691782 0.691782 -180
						 0 0 -0.0799393 -0.307459 A16.2825 16.2825 0 0 1 40.16 229.89 a0.691782 0.691782 -180 0 0 -0.156804 -0.267489
						 A1.38356 1.38356 -180 0 0 39.44 229.26 L35.22 227.84 A1.38356 1.38356 0 0 1 34.28 226.54 L34.26 223.6 A1.38356
						 1.38356 0 0 1 35.21 222.28 L39.44 220.86 A1.38356 1.38356 -180 0 0 39.97 220.54 a0.691782 0.691782 -180
						 0 0 0.178326 -0.292086 A16.2825 16.2825 0 0 1 41.28 217.49 a0.691782 0.691782 -180 0 0 0.0799393 -0.322832
						 A1.38356 1.38356 -180 0 0 41.21 216.55 L39.22 212.57 A1.38356 1.38356 0 0 1 39.47 210.98 L41.52 208.89 A1.38356
						 1.38356 0 0 1 43.12 208.62 L47.13 210.59 A1.38356 1.38356 -180 0 0 47.77 210.73 a0.691782 0.691782 -180
						 0 0 0.307459 -0.0830139 A16.2825 16.2825 0 0 1 50.85 209.49 a0.691782 0.691782 -180 0 0 0.270564 -0.156804
						 A1.38356 1.38356 -180 0 0 51.48 208.77 L52.9 204.56 A1.38356 1.38356 0 0 1 54.2 203.61 L57.14 203.6 A1.38356
						 1.38356 0 0 1 58.46 204.54 L59.88 208.77 A1.38356 1.38356 -180 0 0 60.2 209.3 a0.691782 0.691782 -180 0
						 0 0.289011 0.175252 A16.2825 16.2825 0 0 1 63.31 210.64 a0.691782 0.691782 -180 0 0 0.322832 0.0799393 A1.38356
						 1.38356 -180 0 0 64.24 210.57 L68.23 208.59 A1.38356 1.38356 0 0 1 69.82 208.85 L71.9 210.91 A1.38356 1.38356
						 0 0 1 72.17 212.51 L70.18 216.51 A1.38356 1.38356 -180 0 0 70.04 217.15 ZM59.95 225.04 A4.24739 4.22658
						 0 1 1 51.46 225.04 A4.24739 4.22658 0 1 1 59.95 225.04 ZM0 269.51 L0 273 A10.4682 10.4682 -180 0 0 10.47
						 283.46 L108.17 283.46 A10.4682 10.4682 -180 0 0 118.64 273 L118.64 154.36 A10.4682 10.4682 -180 0 0 108.17
						 143.89 L10.47 143.89 A10.4682 10.4682 -180 0 0 -0 154.36 L0 159.4 L17.45 159.4 A10.4682 10.4682 0 0 1 27.92
						 169.87 L27.92 173.74 A10.4682 10.4682 0 0 1 17.45 184.21 L0 184.21 L0 202.05 L17.45 202.05 A10.4682 10.4682
						 0 0 1 27.92 212.51 L27.92 216.39 A10.4682 10.4682 0 0 1 17.45 226.86 L0 226.86 L0 244.69 L17.45 244.69 A10.4682
						 10.4682 0 0 1 27.92 255.16 L27.92 259.04 A10.4682 10.4682 0 0 1 17.45 269.51 L0 269.51 Z" class="st2"/>
		</g>
	</g>
  </g>
</svg>