<?xml version="1.0" encoding="UTF-8" standalone="no"?>
<svg width="21" height="21" viewBox="0 0 21 21" xmlns="http://www.w3.org/2000/svg">
  <style>.st1 {display:none}
		.st2 {fill:#000000}
		.st3 {stroke:#000000;stroke-linecap:round;stroke-linejoin:round;stroke-width:0.24}
		.st4 {fill:#000000;stroke:#000000;stroke-linecap:round;stroke-linejoin:round;stroke-width:0.24}
		.st5 {fill:none;fill-rule:evenodd;font-size:12px;overflow:visible;stroke-linecap:square;stroke-miterlimit:3}</style>
  <g transform="scale(0.074083)">
<g>
		
		
		<g id="shape1-1" transform="translate(0.000280035,-0.0004331)">
			
			<rect x="0" y="-0.035" width="283.5" height="283.5" class="st1"/>
		</g>
		<g id="group7-3" transform="translate(73.125,-71.9671)">
			
			<g id="shape2-4" transform="translate(18.6102,0)">
				
				<path d="M70.94 231.49 A41.6523 41.6523 0 0 1 53.86 227.84 L42.78 247.02 L34.26 251.94 L34.27 242.11 L45.43 222.79
							 A41.6523 41.6523 0 0 1 42.63 220.43 A3.20402 3.20402 0 0 1 42.03 216.47 L44.51 212.19 A3.20402 3.20402
							 0 0 1 49.53 211.51 A30.4382 30.4382 -180 0 0 51.1 212.95 L59.92 197.68 A13.6171 13.6171 0 0 1 56.82
							 189.04 A13.618 13.618 0 0 1 84.05 189.04 A13.6171 13.6171 0 0 1 80.96 197.68 L88.26 210.33 A30.4382
							 30.4382 0 0 1 84.74 212.95 L84.74 212.95 A30.4382 30.4382 0 0 1 79.88 215.47 L72.4 202.51 A13.6171 13.6171
							 0 0 1 68.48 202.51 L59.5 218.06 A30.4382 30.4382 -180 0 0 65.85 219.85 L65.85 219.84 A30.4382 30.4382
							 -180 0 0 70.94 220.28 A30.4372 30.4372 -180 0 0 76.03 219.84 L76.03 219.85 A30.4382 30.4382 -180 0 0
							 92.35 211.51 A3.20402 3.20402 0 0 1 97.37 212.19 L99.85 216.47 A3.20402 3.20402 0 0 1 99.25 220.43 A41.6523
							 41.6523 0 0 1 70.94 231.49 L70.94 231.49 ZM70.94 231.49 L70.94 231.49 L70.94 231.49 ZM70.94 220.28 L70.94
							 220.28 L70.94 220.28 ZM89.03 231.33 A41.6523 41.6523 -180 0 0 97.63 226.56 L106.61 242.1 L106.61 251.94
							 L98.09 247.02 L89.03 231.33 ZM64.83 189.04 A5.60701 5.60701 -180 1 0 76.04 189.04 A5.60701 5.60701 -180
							 1 0 64.83 189.04 ZM0 269.51 L0 273 A10.4682 10.4682 -180 0 0 10.47 283.46 L108.17 283.46 A10.4682 10.4682
							 -180 0 0 118.64 273 L118.64 154.36 A10.4682 10.4682 -180 0 0 108.17 143.89 L10.47 143.89 A10.4682 10.4682
							 -180 0 0 -0 154.36 L0 159.4 L17.45 159.4 A10.4682 10.4682 0 0 1 27.92 169.87 L27.92 173.74 A10.4682
							 10.4682 0 0 1 17.45 184.21 L0 184.21 L0 202.05 L17.45 202.05 A10.4682 10.4682 0 0 1 27.92 212.51 L27.92
							 216.39 A10.4682 10.4682 0 0 1 17.45 226.86 L0 226.86 L0 244.69 L17.45 244.69 A10.4682 10.4682 0 0 1
							 27.92 255.16 L27.92 259.04 A10.4682 10.4682 0 0 1 17.45 269.51 L0 269.51 Z" class="st2"/>
				<path d="M70.94 231.49 A41.6523 41.6523 0 0 1 53.86 227.84 L42.78 247.02 L34.26 251.94 L34.27 242.11 L45.43 222.79
							 A41.6523 41.6523 0 0 1 42.63 220.43 A3.20402 3.20402 0 0 1 42.03 216.47 L44.51 212.19 A3.20402 3.20402
							 0 0 1 49.53 211.51 A30.4382 30.4382 -180 0 0 51.1 212.95 L59.92 197.68 A13.6171 13.6171 0 0 1 56.82
							 189.04 A13.618 13.618 0 0 1 84.05 189.04 A13.6171 13.6171 0 0 1 80.96 197.68 L88.26 210.33 A30.4382
							 30.4382 0 0 1 84.74 212.95 L84.74 212.95 A30.4382 30.4382 0 0 1 79.88 215.47 L72.4 202.51 A13.6171 13.6171
							 0 0 1 68.48 202.51 L59.5 218.06 A30.4382 30.4382 -180 0 0 65.85 219.85 L65.85 219.84 A30.4382 30.4382
							 -180 0 0 70.94 220.28 A30.4372 30.4372 -180 0 0 76.03 219.84 L76.03 219.85 A30.4382 30.4382 -180 0 0
							 92.35 211.51 A3.20402 3.20402 0 0 1 97.37 212.19 L99.85 216.47 A3.20402 3.20402 0 0 1 99.25 220.43 A41.6523
							 41.6523 0 0 1 70.94 231.49M70.94 231.49 L70.94 231.49M70.94 220.28 L70.94 220.28M89.03 231.33 A41.6523
							 41.6523 -180 0 0 97.63 226.56 L106.61 242.1 L106.61 251.94 L98.09 247.02 L89.03 231.33M64.83 189.04
							 A5.60701 5.60701 -180 1 0 76.04 189.04 A5.60701 5.60701 -180 1 0 64.83 189.04M0 269.51 L0 273 A10.4682
							 10.4682 -180 0 0 10.47 283.46 L108.17 283.46 A10.4682 10.4682 -180 0 0 118.64 273 L118.64 154.36 A10.4682
							 10.4682 -180 0 0 108.17 143.89 L10.47 143.89 A10.4682 10.4682 -180 0 0 -0 154.36 L0 159.4 L17.45 159.4
							 A10.4682 10.4682 0 0 1 27.92 169.87 L27.92 173.74 A10.4682 10.4682 0 0 1 17.45 184.21 L0 184.21 L0 202.05
							 L17.45 202.05 A10.4682 10.4682 0 0 1 27.92 212.51 L27.92 216.39 A10.4682 10.4682 0 0 1 17.45 226.86
							 L0 226.86 L0 244.69 L17.45 244.69 A10.4682 10.4682 0 0 1 27.92 255.16 L27.92 259.04 A10.4682 10.4682
							 0 0 1 17.45 269.51 L0 269.51" class="st3"/>
			</g>
			<g id="group6-7" transform="translate(-7.99361E-015,-19.8624)">
				
				<g id="shape3-8">
					
					
					<path d="M0 276.97 A6.49716 6.49714 -180 0 0 6.5 283.46 L30.72 283.46 A6.49716 6.49714 -180 0 0 37.22 276.97
								 A6.49716 6.49714 -180 0 0 30.72 270.47 L6.5 270.47 A6.49716 6.49714 -180 0 0 0 276.97 Z"
							class="st4"/>
				</g>
				<g id="shape4-10" transform="translate(0,-42.6483)">
					
					
					<path d="M0 276.97 A6.49716 6.49714 -180 0 0 6.5 283.46 L30.72 283.46 A6.49716 6.49714 -180 0 0 37.22 276.97
								 A6.49716 6.49714 -180 0 0 30.72 270.47 L6.5 270.47 A6.49716 6.49714 -180 0 0 0 276.97 Z"
							class="st4"/>
				</g>
				<g id="shape5-12" transform="translate(0,-85.2965)">
					
					
					<path d="M0 276.97 A6.49716 6.49714 -180 0 0 6.5 283.46 L30.72 283.46 A6.49716 6.49714 -180 0 0 37.22 276.97
								 A6.49716 6.49714 -180 0 0 30.72 270.47 L6.5 270.47 A6.49716 6.49714 -180 0 0 0 276.97 Z"
							class="st4"/>
				</g>
			</g>
		</g>
	</g>
  </g>
</svg>