<?xml version="1.0" encoding="UTF-8" standalone="no"?>
<svg width="21" height="21" viewBox="0 0 21 21" xmlns="http://www.w3.org/2000/svg">
  <style>.st1 {display:none}
		.st2 {fill:#000000;stroke:#000000;stroke-linecap:round;stroke-linejoin:round;stroke-width:0.75}
		.st3 {fill:none;fill-rule:evenodd;font-size:12px;overflow:visible;stroke-linecap:square;stroke-miterlimit:3}</style>
  <g transform="scale(0.074083)">
<g>
		
		
		<g id="shape1-1" transform="translate(0.000280035,-0.0004331)">
			
			<rect x="0" y="-0.035" width="283.5" height="283.5" class="st1"/>
		</g>
		<g id="group21-3" transform="translate(74.2501,-100.483)">
			
			<g id="shape3-4" transform="translate(48.8092,-54.3523)">
				
				<rect x="0" y="255.282" width="37.3816" height="28.1827" rx="4.5" ry="4.5" class="st2"/>
			</g>
			<g id="shape8-6">
				
				<rect x="0" y="255.282" width="37.3816" height="28.1827" rx="4.5" ry="4.5" class="st2"/>
			</g>
			<g id="shape9-8" transform="translate(48.8092,0)">
				
				<rect x="0" y="255.282" width="37.3816" height="28.1827" rx="4.5" ry="4.5" class="st2"/>
			</g>
			<g id="shape10-10" transform="translate(97.6184,0)">
				
				<rect x="0" y="255.282" width="37.3816" height="28.1827" rx="4.5" ry="4.5" class="st2"/>
			</g>
			<g id="shape20-12" transform="translate(16.6705,-30.9277)">
				
				<path d="M101.65 282.38 L101.65 275.14 a0.0036102 0.0036102 0 0 1 0.0036102 -0.0036102 L101.66 275.14 a0.0036102
							 0.0036102 -180 0 0 0.0036102 -0.0036102 L101.66 272.19 A1.08 1.08 -180 0 0 100.58 271.11 L53.92 271.11
							 A1.08 1.08 0 0 1 52.84 270.03 L52.84 264.14 A1.08 1.08 -180 0 0 51.76 263.06 L49.9 263.06 A1.08 1.08
							 -180 0 0 48.82 264.14 L48.82 270.03 A1.08 1.08 0 0 1 47.74 271.11 L1.08 271.11 A1.08 1.08 -180 0 0 0
							 272.19 L0 275.13 a0.0036102 0.0036102 -180 0 0 0.0036102 0.0036102 L0 275.14 a0.0036102 0.0036102 0
							 0 1 0.0036102 0.0036102 L0.01 282.38 A1.08 1.08 -180 0 0 1.09 283.46 L2.95 283.46 A1.08 1.08 -180 0
							 0 4.03 282.38 L4.03 276.22 A1.08 1.08 0 0 1 5.11 275.14 L47.74 275.14 A1.08 1.08 0 0 1 48.82 276.22
							 L48.82 282.38 A1.08 1.08 -180 0 0 49.9 283.46 L51.76 283.46 A1.08 1.08 -180 0 0 52.84 282.38 L52.84
							 276.22 A1.08 1.08 0 0 1 53.92 275.14 L96.55 275.14 A1.08 1.08 0 0 1 97.63 276.22 L97.63 282.38 A1.08
							 1.08 -180 0 0 98.71 283.46 L100.57 283.46 A1.08 1.08 -180 0 0 101.65 282.38 Z" class="st2"/>
			</g>
		</g>
	</g>
  </g>
</svg>