<?xml version="1.0" encoding="UTF-8" standalone="no"?>
<svg width="21" height="21" viewBox="0 0 21 21" xmlns="http://www.w3.org/2000/svg">
  <style>.st1 {display:none}
		.st2 {fill:#000000;stroke:#000000;stroke-linecap:round;stroke-linejoin:round;stroke-width:0.24}
		.st3 {fill:#000000;stroke:#000000;stroke-linecap:round;stroke-linejoin:round;stroke-width:0.749999}
		.st4 {fill:none;fill-rule:evenodd;font-size:12px;overflow:visible;stroke-linecap:square;stroke-miterlimit:3}</style>
  <g transform="scale(0.074083)">
<g>
		
		
		<g id="shape1-1" transform="translate(0.000280035,-0.0004331)">
			
			<rect x="0" y="-0.035" width="283.5" height="283.5" class="st1"/>
		</g>
		<g id="group2-3" transform="translate(72,-83.8627)">
			
			<g id="shape3-4">
				
				<path d="M0 222.22 L0 274.96 A8.50393 8.50393 -180 0 0 8.5 283.46 L131 283.46 A8.50393 8.50393 -180 0 0 139.5 274.96
							 L139.5 222.22 A8.50393 8.50393 -180 0 0 131 213.71 L127.08 213.71 A8.50393 8.50393 -180 0 0 118.57 222.22
							 L118.57 254.04 A8.50393 8.50393 0 0 1 110.07 262.54 L29.43 262.54 A8.50393 8.50393 0 0 1 20.93 254.04
							 L20.92 222.22 A8.50393 8.50393 -180 0 0 12.42 213.71 L8.5 213.71 A8.50393 8.50393 -180 0 0 0 222.22
							 Z" class="st2"/>
			</g>
			<g id="shape4-6" transform="translate(41.2569,-43.283)">
				
				<path d="M56.52 241.08 L30.62 211.92 A2.83465 2.83465 -180 0 0 26.38 211.92 L0.47 241.08 A2.83465 2.83465 -180 0
							 0 2.59 245.8 L14.5 245.8 A2.83465 2.83465 0 0 1 17.34 248.63 L17.34 280.63 A2.83465 2.83465 -180 0 0
							 20.17 283.46 L36.82 283.46 A2.83465 2.83465 -180 0 0 39.66 280.63 L39.66 248.63 A2.83465 2.83465 0 0
							 1 42.49 245.8 L54.4 245.8 A2.83465 2.83465 -180 0 0 56.52 241.08 Z" class="st3"/>
			</g>
		</g>
	</g>
  </g>
</svg>