<?xml version="1.0" encoding="UTF-8" standalone="no"?>
<svg width="21" height="21" viewBox="0 0 21 21" xmlns="http://www.w3.org/2000/svg">
  <style>.st1 {display:none}
		.st2 {fill:#000000;stroke:#000000;stroke-linecap:round;stroke-linejoin:round;stroke-width:0.749998}
		.st3 {fill:#000000;stroke:#000000;stroke-linecap:round;stroke-linejoin:round;stroke-width:0.749997}
		.st4 {fill:none;fill-rule:evenodd;font-size:12px;overflow:visible;stroke-linecap:square;stroke-miterlimit:3}</style>
  <g transform="scale(0.074083)">
<g>
		
		
		<g id="shape1-1" transform="translate(0.000280035,-0.0004331)">
			
			<rect x="0" y="-0.035" width="283.5" height="283.5" class="st1"/>
		</g>
		<g id="group2-3" transform="translate(87.1748,-75.7253)">
			
			<g id="group3-4">
				
				<g id="shape4-5">
					
					<path d="M71.34 151.4 L9.78 151.4 A9.7826 9.7826 -180 0 0 0 161.18 L0 273.68 A9.7826 9.7826 -180 0 0 9.78 283.46
								 L100.27 283.46 A9.7826 9.7826 -180 0 0 110.05 273.68 L110.05 190.11 A4.89131 4.89131 -180 0 0 108.62
								 186.65 L74.8 152.83 A4.89131 4.89131 -180 0 0 71.34 151.4 ZM73.37 169.74 L73.37 183.19 A4.89131
								 4.89131 -180 0 0 78.26 188.08 L92.93 188.08 A4.89131 4.89131 0 0 1 97.83 192.98 L97.83 265.12 A4.89131
								 4.89131 0 0 1 92.93 270.01 L17.12 270.01 A4.89131 4.89131 0 0 1 12.23 265.12 L12.23 169.74 A4.89131
								 4.89131 0 0 1 17.12 164.85 L68.48 164.85 A4.89131 4.89131 0 0 1 73.37 169.74 Z" class="st2"/>
				</g>
			</g>
			<g id="shape5-7" transform="translate(21.5213,-65.3202)">
				
				<rect x="0" y="269.26" width="21.0286" height="14.2048" class="st3"/>
			</g>
			<g id="shape6-9" transform="translate(51.5498,-45.4786)">
				
				<rect x="0" y="249.418" width="36.9833" height="34.0467" class="st3"/>
			</g>
			<g id="shape7-11" transform="translate(21.5213,-24.1715)">
				
				<rect x="0" y="269.26" width="67.0117" height="14.2048" class="st3"/>
			</g>
			<g id="shape8-13" transform="translate(21.5213,-44.7459)">
				
				<rect x="0" y="269.26" width="21.0286" height="14.2048" class="st3"/>
			</g>
		</g>
	</g>
  </g>
</svg>