<?xml version="1.0" encoding="UTF-8" standalone="no"?>
<svg width="21" height="21" viewBox="0 0 21 21" xmlns="http://www.w3.org/2000/svg">
  <style>.st1 {display:none}
		.st2 {fill:#000000}
		.st3 {stroke:none;stroke-linecap:round;stroke-linejoin:round;stroke-width:0.75}
		.st4 {fill:none;fill-rule:evenodd;font-size:12px;overflow:visible;stroke-linecap:square;stroke-miterlimit:3}</style>
  <g transform="scale(0.074083)">
<g>
		
		
		<g id="shape1-1" transform="translate(0.000280035,-0.0004331)">
			
			<rect x="0" y="-0.035" width="283.5" height="283.5" class="st1"/>
		</g>
		<g id="shape10-3" transform="translate(72.2284,-72.0851)">
			
			<path d="M24.31 282.72 L24.31 282.72 L24.31 282.72 ZM24.31 282.72 C24.31 283.21 37.1 283.44 65 283.44 C87.37 283.44 105.54
						 283.65 106.73 282.88 C105.19 280.98 94.88 275.59 89.58 273.11 C86.45 271.65 81.46 269.74 78.47 268.86 L73.93
						 267.41 L73.51 258.3 C75.17 226.04 81.37 199.83 91.26 183.3 L94.55 177.24 A17.5354 17.5354 -180 0 0 94.8
						 181.66 C95.37 184.67 95.58 184.93 97.41 184.93 C98.5 184.93 99.4 185.24 99.4 185.62 C99.4 186 98.62 186.31
						 97.68 186.31 C95.85 186.31 95.6 186.76 96.57 188.28 C96.95 188.88 97.74 189.05 98.8 188.75 L99.56 188.59
						 L98.44 189.78 C96.71 191.29 97.43 193.34 99.99 192.81 C101.52 192.48 101.62 192.54 100.6 193.19 C98.62 194.45
						 99.08 196.05 101.29 195.58 C102.87 195.24 102.99 195.31 101.98 195.94 C100.62 196.81 100.53 197.25 101.42
						 198.66 C101.94 199.48 102.23 199.5 103.13 198.75 C103.8 198.2 104.22 198.14 104.22 198.58 C104.22 198.99
						 103.91 199.51 103.53 199.74 C102.37 200.46 102.72 201.18 106.06 204.89 C108.63 207.75 109.39 208.26 109.69
						 206.94 C110.84 205.67 108.57 189.55 106.53 183.77 C106.24 182.97 107.04 183.39 108.77 184.95 C114.63 190.27
						 114.3 190.12 115.57 187.92 L116.21 186.52 L116.31 188.3 C116.09 189.66 116.27 191.05 116.75 191.63 C117.44
						 192.47 117.76 192.38 118.86 191.01 L120.15 189.61 L119.74 191.48 C119.44 193.06 119.66 193.74 120.69 194.38
						 C121.87 195.11 122.12 194.99 122.72 193.35 C123.38 191.52 123.4 191.54 123.45 194.06 C123.52 197.02 124.9
						 197.54 126.17 195.09 C126.91 193.65 126.95 193.7 126.74 195.79 C126.52 197.82 126.79 198.2 129.59 199.76
						 C131.28 200.71 132.8 201.36 132.96 201.2 C133.46 200.7 129.93 191.29 128.02 188.02 C124.2 181.52 118.43
						 176.51 111.32 173.56 L106.59 171.5 L110.89 171.87 C114.03 171.85 114.49 171.66 114.76 170.29 L115.07 168.74
						 L115.58 170.29 C115.86 171.15 116.65 171.84 117.34 171.84 C118.09 171.84 118.71 171.22 118.9 170.29 L119.2
						 168.74 L119.71 170.29 C120.05 171.32 120.78 171.84 121.87 171.84 C123.1 171.84 123.52 171.45 123.56 170.29
						 L123.6 168.74 L124.35 170.29 C125.42 172.51 127.49 172.3 127.81 169.95 L128.25 168.41 L128.9 170.03 C129.56
						 171.6 130.04 171.91 131.27 171.59 C132.12 171.36 134.33 171.17 136.19 171.16 C139.36 171.16 139.5 171.08
						 138.47 169.95 C136.69 167.99 130.02 164.21 125.32 162.5 C117.62 160.19 112.22 159.66 103.17 161.92 C101.25
						 162.4 101.18 162.35 102.15 161.17 C102.94 160.21 102.98 159.84 102.33 159.62 C100.89 159.14 101.36 158.07
						 102.94 158.25 C104.76 158.45 105.45 156.93 103.74 156.48 C103.06 156.3 103.58 156.11 104.91 156.06 C107.18
						 155.96 107.24 155.9 105.98 154.94 C104.96 153.61 104.76 153.93 106.8 153.93 C108.9 154.39 110.83 152.6 108.91
						 152.52 C108.42 152.5 108.98 152.11 110.17 151.66 A21.2843 21.2843 0 0 1 119.25 146.19 L115.86 145.67 C112.67
						 145.67 106.22 147.39 102.72 149.17 C101.17 149.97 98.38 152.03 96.54 153.75 L93.19 156.89 L89.89 153.45
						 C84.53 147.87 72.17 142.91 63.59 142.91 L61.47 142.91 L63.02 145.01 C64.27 146.7 64.92 147.03 66.32 146.69
						 C67.92 146.3 67.96 146.34 66.79 147.21 C65.62 148.08 65.61 148.23 66.65 149.08 C67.5 149.79 67.96 149.82
						 68.57 149.22 C69.95 147.84 70.74 148.35 69.45 149.79 C68.41 150.93 68.36 151.33 69.11 152.24 C69.93 153.23
						 70.08 153.23 70.62 152.25 C70.95 151.66 71.68 151.18 72.24 151.18 C73.12 151.18 73.11 151.39 72.19 152.8
						 C71.24 154.25 71.24 154.52 72.17 155.29 C73.02 156 73.28 155.95 73.63 155.04 C73.87 154.43 74.35 153.93
						 74.7 153.93 C75.05 153.93 74.97 154.62 74.53 155.45 C73.79 156.82 74.04 157.25 77.09 159.91 L80.44 163.63
						 L75.94 163.34 C69.75 163.34 59.8 166.91 52.88 172.61 C49.82 175.14 42.07 183.63 42.47 183.31 C42.91 184.47
						 49.76 181.98 49.45 181.48 C49.25 181.16 49.4 180.7 49.79 180.46 C50.17 180.22 50.49 180.36 50.49 180.76
						 C50.49 181.16 50.95 181.49 51.52 181.49 C52.1 181.49 52.56 180.88 52.56 180.11 C52.56 179.35 52.87 178.73
						 53.25 178.73 C53.62 178.73 53.93 179.2 53.93 179.77 C53.93 180.92 54.53 181.06 55.85 180.22 C56.36 179.9
						 56.55 179.09 56.31 178.33 C56.2 177.45 55.92 177.05 56.93 178.28 C58.53 180.24 60.52 179.49 60.29 177 L60.31
						 175.55 L61.16 176.81 C62.37 178.95 64.27 178.73 64.27 176.46 C64.27 175.11 64.32 175.1 65.17 176.26 C65.95
						 177.33 66.43 177.39 68.79 176.74 C72.75 175.64 72.76 175.66 69.74 179.59 C65.4 185.25 59.27 199.01 61.74
						 197.56 C65.42 195.39 67.02 193.58 67.05 191.57 C67.07 189.54 67.12 189.49 67.91 190.86 C69.24 193.16 70.46
						 192.06 70.52 188.49 L70.57 185.28 L71.38 187.94 C72.18 190.58 72.2 190.59 73.46 189.19 C74.42 188.13 74.61
						 187.22 74.26 185.5 L73.79 183.21 L75 184.93 C75.67 185.88 76.28 186.75 76.37 186.87 C76.46 186.99 78.02
						 186.16 79.85 185.02 C81.68 183.88 83.27 183.04 83.39 183.16 C83.5 183.27 82.15 185.81 80.38 188.8 C73.81
						 199.87 67.49 216.96 64.36 232.16 C63.35 239.56 61.23 251.82 62.12 261.5 L62.07 266.67 L57.7 266.91 C55.55
						 266.91 55.34 266.71 54.94 264.32 C52.23 248.25 44.44 230.92 37.72 218.98 C35.94 216.35 34.89 214.59 35.38
						 215.05 C36.04 215.68 36.51 215.7 37.19 215.13 C37.93 214.52 38.02 214.61 37.65 215.6 C37.26 216.61 37.44
						 216.77 38.6 216.47 C39.66 216.19 40.14 216.48 40.44 217.56 C40.75 218.68 40.99 218.81 41.44 218.11 C41.91
						 217.38 42.12 217.42 42.47 218.33 C42.71 218.95 43.22 219.27 43.6 219.03 C43.98 218.8 44.29 218.97 44.29
						 219.41 C44.29 219.88 44.86 220.07 45.64 219.87 C46.37 219.68 47.07 219.79 47.19 220.13 C47.3 220.46 48.94
						 220.95 50.82 221.2 L54.26 221.67 L53.17 220.01 C52.58 219.09 49.71 216.4 46.79 214.04 L41.5 209.73 L45.03
						 209.73 C48.1 209.73 48.52 209.57 48.15 208.53 C47.75 207.38 47.78 207.38 48.67 208.53 C49.19 209.19 49.96
						 209.73 50.39 209.73 C50.83 209.73 51.2 209.19 51.23 208.53 C51.27 207.81 51.43 207.67 51.64 208.18 C51.83
						 208.65 52.6 209.04 53.34 209.04 C54.23 209.04 54.54 208.74 54.22 208.18 C53.83 207.49 53.92 207.49 54.66
						 208.18 C55.9 209.34 56.69 209.27 56.69 208 C56.69 207.17 56.94 207.12 57.95 207.75 C58.83 208.3 59.84 208.34
						 61.21 207.88 L62.44 207.15 L59.94 205.3 C53.41 201.48 46.36 200.49 39.76 202.48 L36.4 203.49 L38.39 201.9
						 C39.54 200.98 40.17 199.98 39.89 199.52 C39.57 199 39.77 198.87 40.46 199.13 C41.09 199.37 41.7 199.09 41.95
						 198.44 C42.18 197.83 42.52 196.92 42.91 197.67 C43.2 197.86 43.83 197.54 44.3 196.98 C44.76 196.42 44.88
						 195.93 44.55 195.91 C44.22 195.89 44.21 195.52 45.57 195.21 C46.88 194.69 47.04 194.37 46.69 193.79 C46.69
						 193.44 45.83 192.68 46.83 192.93 C48.03 193.22 53.02 189.3 52.33 188.6 C51.65 187.92 43.06 189.92 39.68
						 191.54 C37.67 192.51 34.65 194.85 32.77 196.91 C30.09 199.84 29.27 200.39 28.6 199.67 C28.08 199.11 28.02
						 198.63 28.45 198.36 C28.83 198.13 29.14 197.63 29.14 197.25 C29.14 196.87 28.75 196.79 28.27 197.08 C27.69
						 197.43 27.72 197.22 28.36 196.43 C29.1 195.52 29.11 195.27 28.42 195.27 C27.83 195.27 28.12 194.84 28.79
						 193.89 C29.74 192.83 29.81 192.51 29.07 192.5 C28.43 192.49 28.36 192.32 28.86 191.98 C29.8 191.35 30.75
						 185.62 29.25 186.13 C29 185.62 25.82 190.01 24.3 193.37 C23.56 194.98 22.96 197.54 22.95 199.05 L22.94 201.81
						 L17.6 201.82 C12.01 201.82 7.23 203.45 2.13 207.08 L0 208.59 L1.6 209.19 C2.7 209.59 3.37 209.5 3.76 208.89
						 C4.19 208.21 4.32 208.2 4.33 208.87 C4.33 209.35 4.78 209.73 5.31 209.73 C5.85 209.73 6.44 209.35 6.64 208.87
						 C6.84 208.36 7.01 208.5 7.04 209.22 C7.07 209.88 7.39 210.42 7.75 210.42 C8.11 210.42 8.72 209.88 9.1 209.22
						 C9.74 208.12 9.81 208.11 9.83 209.17 C9.84 210 10.48 210.35 12.09 210.4 C13.32 210.44 15.15 210.5 16.16
						 210.53 L17.99 210.59 L15.11 214.13 C13.52 216.08 11.53 219.29 10.68 221.27 C8.94 225.31 7.32 235.11 8.08
						 237.05 C8.55 238.27 8.61 238.27 9.55 236.98 C10.09 236.25 10.54 235.07 10.54 234.36 C10.54 233.56 10.84
						 233.26 11.33 233.57 C11.88 233.91 12.01 233.58 11.73 232.52 C11.44 231.42 11.58 231.08 12.24 231.33 C13.6
						 231.85 14.09 231.02 13.11 229.82 C12.4 228.94 12.45 228.84 13.44 229.21 C15.02 229.8 15.71 228.55 14.56
						 227.17 C13.76 226.2 13.83 226.13 15.19 226.56 C16.34 226.92 16.74 226.77 16.74 225.97 C16.74 225.37 16.97
						 224.89 17.27 224.89 C17.56 224.89 18.27 224.1 18.86 223.13 C19.9 221.41 19.94 221.48 20.74 226.64 C21.19
						 229.53 22.14 233.19 22.84 234.77 L24.13 237.63 L24.81 235.22 C25.28 233.54 25.26 232.51 24.73 231.82 C24.17
						 231.08 24.18 230.95 24.76 231.3 C25.86 231.96 26.45 230.07 25.46 229 C24.89 228.38 24.88 228.26 25.45 228.57
						 C26.75 229.3 27.19 226.85 25.99 225.53 C24.95 224.38 24.97 224.32 26.19 224.64 C27.3 224.93 27.72 224.3
						 28.78 220.78 C29.48 218.47 30.29 216.82 30.66 216.5 C30.88 217.41 32.33 220.14 33.82 223.17 C38.48 232.65
						 41.87 243.86 44.3 257.87 C46.26 269.09 46.38 268.53 41.59 270.28 C39.35 271.09 37.18 272.02 34.08 273.78
						 C30.73 275.54 24.8 281.3 24.31 282.72 L24.31 282.72 Z" class="st2"/>
			<path d="M24.31 282.72 L24.31 282.72M24.31 282.72 C24.31 283.21 37.1 283.44 65 283.44 C87.37 283.44 105.54 283.65 106.73
						 282.88 C105.19 280.98 94.88 275.59 89.58 273.11 C86.45 271.65 81.46 269.74 78.47 268.86 L73.93 267.41 L73.51
						 258.3 C75.17 226.04 81.37 199.83 91.26 183.3 L94.55 177.24 A17.5354 17.5354 -180 0 0 94.8 181.66 C95.37
						 184.67 95.58 184.93 97.41 184.93 C98.5 184.93 99.4 185.24 99.4 185.62 C99.4 186 98.62 186.31 97.68 186.31
						 C95.85 186.31 95.6 186.76 96.57 188.28 C96.95 188.88 97.74 189.05 98.8 188.75 L99.56 188.59 L98.44 189.78
						 C96.71 191.29 97.43 193.34 99.99 192.81 C101.52 192.48 101.62 192.54 100.6 193.19 C98.62 194.45 99.08 196.05
						 101.29 195.58 C102.87 195.24 102.99 195.31 101.98 195.94 C100.62 196.81 100.53 197.25 101.42 198.66 C101.94
						 199.48 102.23 199.5 103.13 198.75 C103.8 198.2 104.22 198.14 104.22 198.58 C104.22 198.99 103.91 199.51
						 103.53 199.74 C102.37 200.46 102.72 201.18 106.06 204.89 C108.63 207.75 109.39 208.26 109.69 206.94 C110.84
						 205.67 108.57 189.55 106.53 183.77 C106.24 182.97 107.04 183.39 108.77 184.95 C114.63 190.27 114.3 190.12
						 115.57 187.92 L116.21 186.52 L116.31 188.3 C116.09 189.66 116.27 191.05 116.75 191.63 C117.44 192.47 117.76
						 192.38 118.86 191.01 L120.15 189.61 L119.74 191.48 C119.44 193.06 119.66 193.74 120.69 194.38 C121.87 195.11
						 122.12 194.99 122.72 193.35 C123.38 191.52 123.4 191.54 123.45 194.06 C123.52 197.02 124.9 197.54 126.17
						 195.09 C126.91 193.65 126.95 193.7 126.74 195.79 C126.52 197.82 126.79 198.2 129.59 199.76 C131.28 200.71
						 132.8 201.36 132.96 201.2 C133.46 200.7 129.93 191.29 128.02 188.02 C124.2 181.52 118.43 176.51 111.32 173.56
						 L106.59 171.5 L110.89 171.87 C114.03 171.85 114.49 171.66 114.76 170.29 L115.07 168.74 L115.58 170.29 C115.86
						 171.15 116.65 171.84 117.34 171.84 C118.09 171.84 118.71 171.22 118.9 170.29 L119.2 168.74 L119.71 170.29
						 C120.05 171.32 120.78 171.84 121.87 171.84 C123.1 171.84 123.52 171.45 123.56 170.29 L123.6 168.74 L124.35
						 170.29 C125.42 172.51 127.49 172.3 127.81 169.95 L128.25 168.41 L128.9 170.03 C129.56 171.6 130.04 171.91
						 131.27 171.59 C132.12 171.36 134.33 171.17 136.19 171.16 C139.36 171.16 139.5 171.08 138.47 169.95 C136.69
						 167.99 130.02 164.21 125.32 162.5 C117.62 160.19 112.22 159.66 103.17 161.92 C101.25 162.4 101.18 162.35
						 102.15 161.17 C102.94 160.21 102.98 159.84 102.33 159.62 C100.89 159.14 101.36 158.07 102.94 158.25 C104.76
						 158.45 105.45 156.93 103.74 156.48 C103.06 156.3 103.58 156.11 104.91 156.06 C107.18 155.96 107.24 155.9
						 105.98 154.94 C104.96 153.61 104.76 153.93 106.8 153.93 C108.9 154.39 110.83 152.6 108.91 152.52 C108.42
						 152.5 108.98 152.11 110.17 151.66 A21.2843 21.2843 0 0 1 119.25 146.19 L115.86 145.67 C112.67 145.67 106.22
						 147.39 102.72 149.17 C101.17 149.97 98.38 152.03 96.54 153.75 L93.19 156.89 L89.89 153.45 C84.53 147.87
						 72.17 142.91 63.59 142.91 L61.47 142.91 L63.02 145.01 C64.27 146.7 64.92 147.03 66.32 146.69 C67.92 146.3
						 67.96 146.34 66.79 147.21 C65.62 148.08 65.61 148.23 66.65 149.08 C67.5 149.79 67.96 149.82 68.57 149.22
						 C69.95 147.84 70.74 148.35 69.45 149.79 C68.41 150.93 68.36 151.33 69.11 152.24 C69.93 153.23 70.08 153.23
						 70.62 152.25 C70.95 151.66 71.68 151.18 72.24 151.18 C73.12 151.18 73.11 151.39 72.19 152.8 C71.24 154.25
						 71.24 154.52 72.17 155.29 C73.02 156 73.28 155.95 73.63 155.04 C73.87 154.43 74.35 153.93 74.7 153.93 C75.05
						 153.93 74.97 154.62 74.53 155.45 C73.79 156.82 74.04 157.25 77.09 159.91 L80.44 163.63 L75.94 163.34 C69.75
						 163.34 59.8 166.91 52.88 172.61 C49.82 175.14 42.07 183.63 42.47 183.31 C42.91 184.47 49.76 181.98 49.45
						 181.48 C49.25 181.16 49.4 180.7 49.79 180.46 C50.17 180.22 50.49 180.36 50.49 180.76 C50.49 181.16 50.95
						 181.49 51.52 181.49 C52.1 181.49 52.56 180.88 52.56 180.11 C52.56 179.35 52.87 178.73 53.25 178.73 C53.62
						 178.73 53.93 179.2 53.93 179.77 C53.93 180.92 54.53 181.06 55.85 180.22 C56.36 179.9 56.55 179.09 56.31
						 178.33 C56.2 177.45 55.92 177.05 56.93 178.28 C58.53 180.24 60.52 179.49 60.29 177 L60.31 175.55 L61.16
						 176.81 C62.37 178.95 64.27 178.73 64.27 176.46 C64.27 175.11 64.32 175.1 65.17 176.26 C65.95 177.33 66.43
						 177.39 68.79 176.74 C72.75 175.64 72.76 175.66 69.74 179.59 C65.4 185.25 59.27 199.01 61.74 197.56 C65.42
						 195.39 67.02 193.58 67.05 191.57 C67.07 189.54 67.12 189.49 67.91 190.86 C69.24 193.16 70.46 192.06 70.52
						 188.49 L70.57 185.28 L71.38 187.94 C72.18 190.58 72.2 190.59 73.46 189.19 C74.42 188.13 74.61 187.22 74.26
						 185.5 L73.79 183.21 L75 184.93 C75.67 185.88 76.28 186.75 76.37 186.87 C76.46 186.99 78.02 186.16 79.85
						 185.02 C81.68 183.88 83.27 183.04 83.39 183.16 C83.5 183.27 82.15 185.81 80.38 188.8 C73.81 199.87 67.49
						 216.96 64.36 232.16 C63.35 239.56 61.23 251.82 62.12 261.5 L62.07 266.67 L57.7 266.91 C55.55 266.91 55.34
						 266.71 54.94 264.32 C52.23 248.25 44.44 230.92 37.72 218.98 C35.94 216.35 34.89 214.59 35.38 215.05 C36.04
						 215.68 36.51 215.7 37.19 215.13 C37.93 214.52 38.02 214.61 37.65 215.6 C37.26 216.61 37.44 216.77 38.6 216.47
						 C39.66 216.19 40.14 216.48 40.44 217.56 C40.75 218.68 40.99 218.81 41.44 218.11 C41.91 217.38 42.12 217.42
						 42.47 218.33 C42.71 218.95 43.22 219.27 43.6 219.03 C43.98 218.8 44.29 218.97 44.29 219.41 C44.29 219.88
						 44.86 220.07 45.64 219.87 C46.37 219.68 47.07 219.79 47.19 220.13 C47.3 220.46 48.94 220.95 50.82 221.2
						 L54.26 221.67 L53.17 220.01 C52.58 219.09 49.71 216.4 46.79 214.04 L41.5 209.73 L45.03 209.73 C48.1 209.73
						 48.52 209.57 48.15 208.53 C47.75 207.38 47.78 207.38 48.67 208.53 C49.19 209.19 49.96 209.73 50.39 209.73
						 C50.83 209.73 51.2 209.19 51.23 208.53 C51.27 207.81 51.43 207.67 51.64 208.18 C51.83 208.65 52.6 209.04
						 53.34 209.04 C54.23 209.04 54.54 208.74 54.22 208.18 C53.83 207.49 53.92 207.49 54.66 208.18 C55.9 209.34
						 56.69 209.27 56.69 208 C56.69 207.17 56.94 207.12 57.95 207.75 C58.83 208.3 59.84 208.34 61.21 207.88 L62.44
						 207.15 L59.94 205.3 C53.41 201.48 46.36 200.49 39.76 202.48 L36.4 203.49 L38.39 201.9 C39.54 200.98 40.17
						 199.98 39.89 199.52 C39.57 199 39.77 198.87 40.46 199.13 C41.09 199.37 41.7 199.09 41.95 198.44 C42.18 197.83
						 42.52 196.92 42.91 197.67 C43.2 197.86 43.83 197.54 44.3 196.98 C44.76 196.42 44.88 195.93 44.55 195.91
						 C44.22 195.89 44.21 195.52 45.57 195.21 C46.88 194.69 47.04 194.37 46.69 193.79 C46.69 193.44 45.83 192.68
						 46.83 192.93 C48.03 193.22 53.02 189.3 52.33 188.6 C51.65 187.92 43.06 189.92 39.68 191.54 C37.67 192.51
						 34.65 194.85 32.77 196.91 C30.09 199.84 29.27 200.39 28.6 199.67 C28.08 199.11 28.02 198.63 28.45 198.36
						 C28.83 198.13 29.14 197.63 29.14 197.25 C29.14 196.87 28.75 196.79 28.27 197.08 C27.69 197.43 27.72 197.22
						 28.36 196.43 C29.1 195.52 29.11 195.27 28.42 195.27 C27.83 195.27 28.12 194.84 28.79 193.89 C29.74 192.83
						 29.81 192.51 29.07 192.5 C28.43 192.49 28.36 192.32 28.86 191.98 C29.8 191.35 30.75 185.62 29.25 186.13
						 C29 185.62 25.82 190.01 24.3 193.37 C23.56 194.98 22.96 197.54 22.95 199.05 L22.94 201.81 L17.6 201.82 C12.01
						 201.82 7.23 203.45 2.13 207.08 L0 208.59 L1.6 209.19 C2.7 209.59 3.37 209.5 3.76 208.89 C4.19 208.21 4.32
						 208.2 4.33 208.87 C4.33 209.35 4.78 209.73 5.31 209.73 C5.85 209.73 6.44 209.35 6.64 208.87 C6.84 208.36
						 7.01 208.5 7.04 209.22 C7.07 209.88 7.39 210.42 7.75 210.42 C8.11 210.42 8.72 209.88 9.1 209.22 C9.74 208.12
						 9.81 208.11 9.83 209.17 C9.84 210 10.48 210.35 12.09 210.4 C13.32 210.44 15.15 210.5 16.16 210.53 L17.99
						 210.59 L15.11 214.13 C13.52 216.08 11.53 219.29 10.68 221.27 C8.94 225.31 7.32 235.11 8.08 237.05 C8.55
						 238.27 8.61 238.27 9.55 236.98 C10.09 236.25 10.54 235.07 10.54 234.36 C10.54 233.56 10.84 233.26 11.33
						 233.57 C11.88 233.91 12.01 233.58 11.73 232.52 C11.44 231.42 11.58 231.08 12.24 231.33 C13.6 231.85 14.09
						 231.02 13.11 229.82 C12.4 228.94 12.45 228.84 13.44 229.21 C15.02 229.8 15.71 228.55 14.56 227.17 C13.76
						 226.2 13.83 226.13 15.19 226.56 C16.34 226.92 16.74 226.77 16.74 225.97 C16.74 225.37 16.97 224.89 17.27
						 224.89 C17.56 224.89 18.27 224.1 18.86 223.13 C19.9 221.41 19.94 221.48 20.74 226.64 C21.19 229.53 22.14
						 233.19 22.84 234.77 L24.13 237.63 L24.81 235.22 C25.28 233.54 25.26 232.51 24.73 231.82 C24.17 231.08 24.18
						 230.95 24.76 231.3 C25.86 231.96 26.45 230.07 25.46 229 C24.89 228.38 24.88 228.26 25.45 228.57 C26.75 229.3
						 27.19 226.85 25.99 225.53 C24.95 224.38 24.97 224.32 26.19 224.64 C27.3 224.93 27.72 224.3 28.78 220.78
						 C29.48 218.47 30.29 216.82 30.66 216.5 C30.88 217.41 32.33 220.14 33.82 223.17 C38.48 232.65 41.87 243.86
						 44.3 257.87 C46.26 269.09 46.38 268.53 41.59 270.28 C39.35 271.09 37.18 272.02 34.08 273.78 C30.73 275.54
						 24.8 281.3 24.31 282.72" class="st3"/>
		</g>
	</g>
  </g>
</svg>