<?xml version="1.0" encoding="UTF-8" standalone="no"?>
<svg width="21" height="21" viewBox="0 0 21 21" xmlns="http://www.w3.org/2000/svg">
  <path
     d="m 9.0098952,14.124904 v 0 a 0.0015924,0.0015924 0 0 1 8e-7,0.0022 L 5.9806288,17.160978 A 1.8379819,1.8379819 0 0 1 5.851289,17.278063 2.0784172,2.0784172 0 0 1 3.0058207,14.26105 1.8379819,1.8379819 0 0 0 3.0194387,14.24471 l 0.076241,-0.08305 a 1.8379819,1.8379819 0 0 1 0.059904,-0.06263 L 13.222278,4.0364256 a 1.8379819,1.8379819 0 0 1 0.243702,-0.2042203 3.232207,3.232207 0 0 1 4.528244,4.464254 1.8379819,1.8379819 0 0 1 -0.220559,0.2654862 L 9.6280019,16.707609 a 0.77727712,0.77727712 0 0 0 0,1.100066 v 0 a 0.77727712,0.77727712 0 0 0 1.1000661,0 L 18.879177,9.6552044 A 1.8379819,1.8379819 0 0 0 18.992181,9.5326717 4.7770649,4.7770649 0 0 0 12.301927,2.7729827 1.8379819,1.8379819 0 0 0 12.164418,2.8968771 L 1.9220924,13.137839 a 1.8379819,1.8379819 0 0 0 -0.032675,0.03404 3.6377339,3.6377339 0 0 0 5.1422652,5.142265 1.8379819,1.8379819 0 0 0 0.035397,-0.03404 L 15.455085,9.8825696 a 1.8379819,1.8379819 0 0 0 0.0177,-0.019061 2.4774362,2.4774362 0 1 0 -3.558877,-3.4472373 1.8379819,1.8379819 0 0 1 -0.02042,0.021784 L 7.2127573,11.121505 a 0.77749495,0.77749495 0 0 0 0,1.098705 v 0 a 0.77727712,0.77727712 0 0 0 1.098705,0 L 12.978575,7.5530977 a 1.8379819,1.8379819 0 0 0 0.04221,-0.043568 0.91680446,0.91680446 0 1 1 1.296118,1.2961177 1.8379819,1.8379819 0 0 0 -0.04357,0.042206 L 9.0098952,14.122181 a 0.00159316,0.00159316 0 0 0 1.3e-6,0.0023 z"
     class="st2"
     id="paperclip" />
</svg>
