<?xml version="1.0" encoding="UTF-8" standalone="no"?>
<svg width="21" height="21" viewBox="0 0 21 21" xmlns="http://www.w3.org/2000/svg">
  <style>.st1 {display:none}
		.st2 {fill:#000000;stroke:#000000;stroke-linecap:round;stroke-linejoin:round;stroke-width:0.25}
		.st3 {fill:none;fill-rule:evenodd;font-size:12px;overflow:visible;stroke-linecap:square;stroke-miterlimit:3}</style>
  <g transform="scale(0.074083)">
<g>
		
		
		<g id="shape1-1" transform="translate(0.000280035,-0.0004331)">
			
			<rect x="0" y="-0.035" width="283.5" height="283.5" class="st1"/>
		</g>
		<g id="shape2-3" transform="translate(107.076,-72.9804)">
			
			<path d="M39.41 231.94 L39.2 231.85 A40.7401 40.4081 -90 0 0 38.45 231.54 L28.13 227.29 A20.37 20.204 90 0 1 26.25 226.41
						 A32.6217 32.3559 90 0 1 17.17 219.16 A10.185 10.102 90 0 1 14.8 214.2 A18.0197 17.8728 90 0 1 17.47 201.18
						 A10.185 10.102 90 0 1 29.94 197.43 L30.14 197.52 A40.7401 40.4081 -90 0 0 30.89 197.84 L41.22 202.08 A20.37
						 20.204 90 0 1 43.1 202.97 A32.6217 32.3559 90 0 1 52.17 210.21 A10.185 10.102 90 0 1 54.54 215.17 A18.0197
						 17.8728 90 0 1 51.88 228.19 A10.185 10.102 90 0 1 39.41 231.94 ZM69.35 216.25 A24.7357 24.5341 -90 0 0 58.37
						 195.71 A20.37 20.204 -90 0 0 57.12 194.94 A106.196 105.33 -90 0 0 37.51 186.32 A20.37 20.204 90 0 1 36.97
						 186.13 A31.8576 31.598 90 0 1 26.21 179.67 A10.185 10.102 90 0 1 23.81 176.35 A13.2166 13.1089 90 0 1 30.97
						 158.56 A10.185 10.102 90 0 1 32.38 158.12 A31.3488 31.0933 90 0 1 48.3 158.65 A20.37 20.204 90 0 1 52.16
						 160.27 L58.45 163.73 A40.7401 40.4081 90 0 1 60.36 164.86 A2.0231 2.00661 -90 0 0 63.35 163.7 A40.7401 40.4081
						 90 0 1 63.69 162.58 A12.0966 11.998 -90 0 0 63.42 154.43 A8.97589 8.90274 -90 0 0 60.07 151.04 L60.03 151.02
						 A38.6408 38.3259 -90 0 0 41.61 145.94 A40.7401 40.4081 90 0 1 40.59 145.92 A44.8324 44.4671 -90 0 0 24.73
						 148.18 A20.37 20.204 -90 0 0 22.41 149.13 A25.0281 24.8241 -90 0 0 14.59 188.38 L14.84 188.57 A29.2355 28.9972
						 -90 0 0 0.14 210.65 A20.37 20.204 -90 0 0 0 213.12 A24.7357 24.5341 -90 0 0 10.98 233.67 A20.37 20.204 -90
						 0 0 12.23 234.44 A106.196 105.33 -90 0 0 31.83 243.06 A20.37 20.204 90 0 1 32.37 243.24 A31.8576 31.598
						 90 0 1 43.13 249.71 A10.185 10.102 90 0 1 45.54 253.03 A13.2166 13.1089 90 0 1 38.38 270.82 A10.185 10.102
						 90 0 1 36.97 271.25 A31.3488 31.0933 90 0 1 21.05 270.73 A20.37 20.204 90 0 1 17.19 269.1 L10.89 265.64
						 A40.7401 40.4081 90 0 1 8.98 264.52 A2.0231 2.00661 -90 0 0 6 265.68 A40.7401 40.4081 90 0 1 5.66 266.79
						 A12.0966 11.998 -90 0 0 5.93 274.95 A8.97589 8.90274 -90 0 0 9.28 278.33 L9.32 278.36 A38.6408 38.3259 -90
						 0 0 27.74 283.43 A40.7401 40.4081 90 0 1 28.76 283.46 A44.8324 44.4671 -90 0 0 44.62 281.19 A20.37 20.204
						 -90 0 0 46.94 280.25 A25.0281 24.8241 -90 0 0 54.76 241 L54.51 240.81 A29.2355 28.9972 -90 0 0 69.21 218.73
						 A20.37 20.204 -90 0 0 69.35 216.25 Z" class="st2"/>
		</g>
	</g>
  </g>
</svg>