<?xml version="1.0" encoding="UTF-8" standalone="no"?>
<svg width="21" height="21" viewBox="0 0 21 21" xmlns="http://www.w3.org/2000/svg">
  <style>.st1 {display:none}
		.st2 {fill:none;stroke:#000000;stroke-linecap:round;stroke-linejoin:round;stroke-width:0.75}
		.st3 {fill:#000000;stroke:#000000;stroke-linecap:round;stroke-linejoin:round;stroke-width:0.75}
		.st4 {stroke:#000000;stroke-linecap:round;stroke-linejoin:round;stroke-width:1}
		.st5 {fill:none;fill-rule:evenodd;font-size:12px;overflow:visible;stroke-linecap:square;stroke-miterlimit:3}</style>
  <g transform="scale(1.75)">
<g>
		
		
		<g id="group1-1">
			
			<g id="shape2-2">
				
				<path d="M0 1.33 C0 0.6 0.6 0 1.33 0 L10.67 0 C11.4 0 12 0.6 12 1.33 L12 10.67 C12 11.4 11.4 12 10.67 12 L1.33 12
							 A1.3335 1.3335 0 0 1 0 10.67 L0 1.33 Z" class="st1"/>
			</g>
		</g>
		<g id="shape3-4" transform="translate(2.67188,-2.67188)">
			
			<rect x="0" y="5.39063" width="6.60938" height="6.60938" class="st2"/>
		</g>
		<g id="shape22-6" transform="translate(-0.891531,-0.141531) rotate(-45)">
			
			<rect x="0" y="6.45566" width="5.56847" height="5.54434" class="st3"/>
		</g>
		<g id="shape19-8" transform="translate(19.3125,2.15625) rotate(90)">
			
			
			<path d="M4.64 12 L2.32 9.75 L0 12 L4.64 12 Z" class="st2"/>
		</g>
		<g id="shape20-10" transform="translate(15.1543,12.5066) rotate(134.877)">
			
			<path d="M0 11.28 A3.16824 2.06598 -146.49 0 0 3.77 11.28" class="st4"/>
		</g>
	</g>
  </g>
</svg>