<?xml version="1.0" encoding="UTF-8" standalone="no"?>
<svg width="21" height="21" viewBox="0 0 21 21" xmlns="http://www.w3.org/2000/svg">
  <style>.st1 {display:none}
		.st2 {fill:#000000;stroke:#000000;stroke-linecap:round;stroke-linejoin:round;stroke-width:0.24}
		.st3 {fill:none;fill-rule:evenodd;font-size:12px;overflow:visible;stroke-linecap:square;stroke-miterlimit:3}</style>
  <g transform="scale(0.074083)">
<g>
		
		
		<g id="shape1-1" transform="translate(0.000280035,-0.0004331)">
			
			<rect x="0" y="-0.035" width="283.5" height="283.5" class="st1"/>
		</g>
		<g id="shape12-3" transform="translate(72.0001,-72.0003)">
			
			<path d="M105.01 165.69 A12.7637 12.7637 -180 1 1 130.54 165.69 A12.7637 12.7637 -180 1 1 105.01 165.69 ZM90.62 168.65
						 L58.34 180.4 A9 9 0 0 1 49.46 178.82 A21.7254 21.7254 -180 1 0 45.98 214.42 A9 9 0 0 1 54.84 214.5 L73.92
						 225.52 A4.5 4.5 0 0 1 76.05 230.45 A21.7254 21.7254 -180 0 0 75.8 231.63 A9 9 0 0 1 70.02 238.51 L45.46
						 247.45 A9 9 0 0 1 36.33 245.66 A21.7254 21.7254 -180 1 0 43.07 265.78 A9 9 0 0 1 48.84 259 L73.7 249.95
						 A9 9 0 0 1 82.76 251.68 A21.7254 21.7254 -180 1 0 88.28 215.63 A9 9 0 0 1 80.09 215.21 L59.14 203.12 A4.5
						 4.5 0 0 1 56.94 198.57 A21.7254 21.7254 -180 0 0 57.14 196.53 A4.5 4.5 0 0 1 60.1 192.54 L94.2 180.12 A9
						 9 0 0 1 103.28 181.88 A21.7254 21.7254 -180 1 0 96.4 161.8 A9 9 0 0 1 90.62 168.65 ZM22.68 195.42 A12.7637
						 12.7637 -180 1 1 48.21 195.42 A12.7637 12.7637 -180 1 1 22.68 195.42 ZM84.43 235.44 A12.7637 12.7637 -180
						 1 1 109.96 235.44 A12.7637 12.7637 -180 1 1 84.43 235.44 ZM8.96 261.74 A12.7637 12.7637 -180 1 1 34.49 261.74
						 A12.7637 12.7637 -180 1 1 8.96 261.74 Z" class="st2"/>
		</g>
	</g>
  </g>
</svg>