<?xml version="1.0" encoding="UTF-8" standalone="no"?>
<svg width="21" height="21" viewBox="0 0 21 21" xmlns="http://www.w3.org/2000/svg">
  <style>.st1 {display:none}
		.st2 {fill:#000000;stroke:#000000;stroke-linecap:round;stroke-linejoin:round;stroke-width:0.24}
		.st3 {fill:none;fill-rule:evenodd;font-size:12px;overflow:visible;stroke-linecap:square;stroke-miterlimit:3}</style>
  <g transform="scale(0.074083)">
<g>
		
		
		<g id="shape1-1" transform="translate(0.000280035,-0.0004331)">
			
			<rect x="0" y="-0.035" width="283.5" height="283.5" class="st1"/>
		</g>
		<g id="group3-3" transform="translate(72.0001,-91.5531)">
			
			<g id="shape4-4">
				
				<path d="M116.27 276.24 A3.69874 1.64388 0 0 1 120.45 276.24 A1.41732 1.41732 0 0 1 120.45 278.95 A3.69874 1.64388
							 0 0 1 116.27 278.95 A1.41732 1.41732 0 0 1 116.27 276.24 ZM105.47 276.24 A3.69874 1.64388 0 0 1 109.65
							 276.24 A1.41732 1.41732 0 0 1 109.65 278.95 A3.69874 1.64388 0 0 1 105.47 278.95 A1.41732 1.41732 0
							 0 1 105.47 276.24 ZM94.66 276.24 A3.69874 1.64388 0 0 1 98.85 276.24 A1.41732 1.41732 0 0 1 98.85 278.95
							 A3.69874 1.64388 0 0 1 94.66 278.95 A1.41732 1.41732 0 0 1 94.66 276.24 ZM83.86 276.24 A3.69874 1.64388
							 0 0 1 88.05 276.24 A1.41732 1.41732 0 0 1 88.05 278.95 A3.69874 1.64388 0 0 1 83.86 278.95 A1.41732
							 1.41732 0 0 1 83.86 276.24 ZM73.06 276.24 A3.69874 1.64388 0 0 1 77.24 276.24 A1.41732 1.41732 0 0 1
							 77.24 278.95 A3.69874 1.64388 0 0 1 73.06 278.95 A1.41732 1.41732 0 0 1 73.06 276.24 ZM62.26 276.24
							 A3.69874 1.64388 0 0 1 66.44 276.24 A1.41732 1.41732 0 0 1 66.44 278.95 A3.69874 1.64388 0 0 1 62.26
							 278.95 A1.41732 1.41732 0 0 1 62.26 276.24 ZM51.45 276.24 A3.69874 1.64388 0 0 1 55.64 276.24 A1.41732
							 1.41732 0 0 1 55.64 278.95 A3.69874 1.64388 0 0 1 51.45 278.95 A1.41732 1.41732 0 0 1 51.45 276.24 ZM40.65
							 276.24 A3.69874 1.64388 0 0 1 44.84 276.24 A1.41732 1.41732 0 0 1 44.84 278.95 A3.69874 1.64388 0 0
							 1 40.65 278.95 A1.41732 1.41732 0 0 1 40.65 276.24 ZM29.85 276.24 A3.69874 1.64388 0 0 1 34.03 276.24
							 A1.41732 1.41732 0 0 1 34.03 278.95 A3.69874 1.64388 0 0 1 29.85 278.95 A1.41732 1.41732 0 0 1 29.85
							 276.24 ZM19.05 276.24 A3.69874 1.64388 0 0 1 23.23 276.24 A1.41732 1.41732 0 0 1 23.23 278.95 A3.69874
							 1.64388 0 0 1 19.05 278.95 A1.41732 1.41732 0 0 1 19.05 276.24 ZM105.17 268.37 A3.69874 1.64388 0 0
							 1 109.36 268.37 A1.41732 1.41732 0 0 1 109.36 271.08 A3.69874 1.64388 0 0 1 105.17 271.08 A1.41732 1.41732
							 0 0 1 105.17 268.37 ZM94.46 268.37 A3.69874 1.64388 0 0 1 98.64 268.37 A1.41732 1.41732 0 0 1 98.64
							 271.08 A3.69874 1.64388 0 0 1 94.46 271.08 A1.41732 1.41732 0 0 1 94.46 268.37 ZM83.74 268.37 A3.69874
							 1.64388 0 0 1 87.92 268.37 A1.41732 1.41732 0 0 1 87.92 271.08 A3.69874 1.64388 0 0 1 83.74 271.08 A1.41732
							 1.41732 0 0 1 83.74 268.37 ZM73.02 268.37 A3.69874 1.64388 0 0 1 77.2 268.37 A1.41732 1.41732 0 0 1
							 77.2 271.08 A3.69874 1.64388 0 0 1 73.02 271.08 A1.41732 1.41732 0 0 1 73.02 268.37 ZM62.3 268.37 A3.69874
							 1.64388 0 0 1 66.48 268.37 A1.41732 1.41732 0 0 1 66.48 271.08 A3.69874 1.64388 0 0 1 62.3 271.08 A1.41732
							 1.41732 0 0 1 62.3 268.37 ZM51.58 268.37 A3.69874 1.64388 0 0 1 55.76 268.37 A1.41732 1.41732 0 0 1
							 55.76 271.08 A3.69874 1.64388 0 0 1 51.58 271.08 A1.41732 1.41732 0 0 1 51.58 268.37 ZM40.86 268.37
							 A3.69874 1.64388 0 0 1 45.04 268.37 A1.41732 1.41732 0 0 1 45.04 271.08 A3.69874 1.64388 0 0 1 40.86
							 271.08 A1.41732 1.41732 0 0 1 40.86 268.37 ZM30.14 268.37 A3.69874 1.64388 0 0 1 34.33 268.37 A1.41732
							 1.41732 0 0 1 34.33 271.08 A3.69874 1.64388 0 0 1 30.14 271.08 A1.41732 1.41732 0 0 1 30.14 268.37 ZM135.77
							 280.88 L112.07 264.46 a0.0397639 0.0397639 -180 0 0 -0.0452907 -5.68434E-014 L112.01 264.47 a0.00821692
							 0.00821692 0 0 1 -0.0128964 -0.00675427 L112 264.46 a0.0156892 0.0156892 -180 0 0 -0.0156892 -0.0156892
							 L27.9 264.44 A1.41732 1.41732 -180 0 0 27.09 264.69 L3.73 280.88 A1.41732 1.41732 -180 0 0 4.53 283.46
							 L134.97 283.46 A1.41732 1.41732 -180 0 0 135.77 280.88 Z" class="st2"/>
			</g>
			<g id="shape5-6" transform="translate(27.4787,-26.4196)">
				
				<path d="M5.81 264.44 L5.81 215.83 L78.73 215.83 L78.73 264.44 L5.81 264.44 ZM27.48 283.46 L57.07 283.46 L57.07 272.9
							 L78.2 272.9 A6.3407 6.3407 -180 0 0 84.54 266.56 L84.54 215.83 A6.3407 6.3407 -180 0 0 78.2 209.49 L6.34
							 209.49 A6.3407 6.3407 -180 0 0 0 215.83 L0 266.56 A6.3407 6.3407 -180 0 0 6.34 272.9 L27.48 272.9 L27.48
							 283.46 Z" class="st2"/>
			</g>
		</g>
	</g>
  </g>
</svg>