<?xml version="1.0" encoding="UTF-8" standalone="no"?>
<svg width="21" height="21" viewBox="0 0 21 21" xmlns="http://www.w3.org/2000/svg">
  <style>.st1 {display:none}
		.st2 {fill:#000000;stroke:#000000;stroke-linecap:round;stroke-linejoin:round;stroke-width:0.24}
		.st3 {fill:none;fill-rule:evenodd;font-size:12px;overflow:visible;stroke-linecap:square;stroke-miterlimit:3}</style>
  <g transform="scale(0.074083)">
<g>
		
		
		<g id="shape1-1" transform="translate(0.000280035,-0.0004331)">
			
			<rect x="0" y="-0.035" width="283.5" height="283.5" class="st1"/>
		</g>
		<g id="shape9-3" transform="translate(72,-72.0052)">
			
			<path d="M47.66 257.07 A4.5 4.5 0 0 1 40.5 253.44 L40.5 173.99 A4.5 4.5 0 0 1 47.66 170.36 L101.9 210.08 A4.5 4.5 0 0
						 1 101.9 217.35 L47.66 257.07 ZM10.46 283.46 L129.04 283.46 A10.4625 10.4625 -180 0 0 139.5 273 L139.5 154.43
						 A10.4625 10.4625 -180 0 0 129.04 143.96 L10.46 143.96 A10.4625 10.4625 -180 0 0 0 154.43 L0 273 A10.4625
						 10.4625 -180 0 0 10.46 283.46 Z" class="st2"/>
		</g>
	</g>
  </g>
</svg>