<?xml version="1.0" encoding="UTF-8" standalone="no"?>
<svg width="21" height="21" viewBox="0 0 21 21" xmlns="http://www.w3.org/2000/svg">
  <style>.st1 {display:none}
		.st2 {fill:#000000;stroke:#000000;stroke-linecap:round;stroke-linejoin:round;stroke-width:0.24}
		.st3 {fill:none;fill-rule:evenodd;font-size:12px;overflow:visible;stroke-linecap:square;stroke-miterlimit:3}</style>
  <g transform="scale(0.074083)">
<g>
		
		
		<g id="shape1-1" transform="translate(0.000280035,-0.0004331)">
			
			<rect x="0" y="-0.035" width="283.5" height="283.5" class="st1"/>
		</g>
		<g id="group32-3" transform="translate(72.0001,-94.2817)">
			
			<g id="shape31-4" transform="translate(0,-39.2614)">
				
				
				<rect x="0" y="267.05" width="63" height="16.4144" class="st2"/>
			</g>
			<g id="group30-6" transform="translate(4.5,0)">
				
				<g id="shape17-7" transform="translate(40.5025,0)">
					
					<path d="M60.59 261.24 L90.73 261.24 A3.76782 3.76782 -180 0 0 94.5 257.47 L94.5 255.59 A3.76782 3.76782 -180
								 0 0 90.73 251.83 L60.59 251.83 A3.76782 3.76782 -180 0 0 60.29 251.84 L60.29 220.15 A3.76782 3.76782
								 -180 0 0 60.59 220.17 L90.73 220.17 A3.76782 3.76782 -180 0 0 94.5 216.4 L94.5 214.52 A3.76782 3.76782
								 -180 0 0 90.73 210.75 L60.59 210.75 A3.76782 3.76782 -180 0 0 60.29 210.76 L60.29 188.53 L47.48
								 188.53 A47.4686 47.4686 -180 0 0 0 236 A47.4686 47.4686 -180 0 0 47.48 283.46 L60.29 283.46 L60.29
								 261.23 A3.76782 3.76782 -180 0 0 60.59 261.24 Z" class="st2"/>
				</g>
			</g>
		</g>
	</g>
  </g>
</svg>