<?xml version="1.0" encoding="UTF-8" standalone="no"?>
<svg width="21" height="21" viewBox="0 0 21 21" xmlns="http://www.w3.org/2000/svg">
  <style>.st1 {display:none}
		.st2 {fill:#000000;stroke:#000000;stroke-linecap:round;stroke-linejoin:round;stroke-width:0.749997}
		.st3 {fill:none;fill-rule:evenodd;font-size:12px;overflow:visible;stroke-linecap:square;stroke-miterlimit:3}</style>
  <g transform="scale(0.074083)">
<g>
		
		
		<g id="shape1-1" transform="translate(0.000280035,-0.0004331)">
			
			<rect x="0" y="-0.035" width="283.5" height="283.5" class="st1"/>
		</g>
		<g id="shape2-3" transform="translate(71.3265,-67.4417)">
			
			<path d="M33.81 176 A45.8674 31.4645 180 0 1 33.36 175.99 A85.9902 36.2773 90 0 1 36.06 201.92 A15.9111 12.0924 180 0
						 1 24.4 198.3 L24.4 198.33 A14.8503 13.9735 -180 0 0 -0 209.16 A14.8503 13.9735 -0 0 0 24.2 220.14 A15.9111
						 12.0924 180 0 1 24.4 219.99 A15.9111 12.0924 180 0 1 36.07 216.36 A85.9902 36.2773 90 0 1 33.28 243.1 A63.3403
						 31.4645 180 0 1 45.89 244.97 A63.3403 31.4645 -0 0 0 63.42 247.2 A15.9111 12.0924 -90 0 0 63.48 246.68 A45.8674
						 31.4645 -180 0 0 63.94 246.74 A15.9111 12.0924 90 0 1 60.34 259.07 L60.37 259.07 A14.8503 13.9735 -90 1
						 0 81.93 259.27 A15.9111 12.0924 90 0 1 81.78 259.07 A15.9111 12.0924 90 0 1 78.16 247.14 A63.3403 31.4645
						 -0 0 0 94.6 244.97 A63.3403 31.4645 180 0 1 108.06 243.02 A85.9902 36.2773 90 0 1 107.93 242.32 A45.8674
						 31.4645 180 0 1 108.39 242.33 A85.9902 36.2773 90 0 1 105.69 216.4 A15.9111 12.0924 180 0 1 117.35 220.02
						 L117.35 219.99 A14.8503 13.9735 -0 0 0 141.75 209.16 A14.8503 13.9735 -180 0 0 117.55 198.18 A15.9111 12.0924
						 180 0 1 117.35 198.33 A15.9111 12.0924 180 0 1 105.68 201.96 A85.9902 36.2773 90 0 1 108.47 175.22 A63.3403
						 31.4645 180 0 1 95.86 173.35 A63.3403 31.4645 -180 0 0 78.33 171.12 A15.9111 12.0924 -90 0 0 78.27 171.63
						 A45.8674 31.4645 -0 0 0 77.81 171.58 A15.9111 12.0924 90 0 1 81.41 159.25 L81.38 159.25 A14.8503 13.9735
						 -90 1 0 59.82 159.05 A15.9111 12.0924 90 0 1 59.97 159.25 A15.9111 12.0924 90 0 1 63.59 171.18 A63.3403
						 31.4645 -180 0 0 47.15 173.35 A63.3403 31.4645 180 0 1 33.69 175.3 A85.9902 36.2773 90 0 1 33.81 176 ZM67.62
						 209.11 A14.8503 13.9735 90 0 1 74.13 209.21 A14.8503 13.9735 90 0 1 67.62 209.11 Z" class="st2"/>
		</g>
	</g>
  </g>
</svg>