<?xml version="1.0" encoding="UTF-8" standalone="no"?>
<svg width="21" height="21" viewBox="0 0 21 21" xmlns="http://www.w3.org/2000/svg">
  <style>.st1 {display:none}
		.st2 {fill:#000000;stroke:#000000;stroke-linecap:round;stroke-linejoin:round;stroke-width:0.749999}
		.st3 {fill:#000000;stroke:#000000;stroke-linecap:round;stroke-linejoin:round;stroke-width:0.24}
		.st4 {fill:none;fill-rule:evenodd;font-size:12px;overflow:visible;stroke-linecap:square;stroke-miterlimit:3}</style>
  <g transform="scale(0.074083)">
<g>
		
		
		<g id="shape1-1" transform="translate(0.000280035,-0.0004331)">
			
			<rect x="0" y="-0.035" width="283.5" height="283.5" class="st1"/>
		</g>
		<g id="group2-3" transform="translate(79.1998,-73.8862)">
			
			<g id="shape3-4" transform="translate(-1.21902E-013,-118.111)">
				
				<path d="M0 277.26 A6.20612 1.57804 -90 0 0 1.58 283.46 L19.47 283.46 A17.8844 14.7605 -0 0 0 1.58 268.7 A8.00101
							 1.53745 -90 0 0 0 277.26 Z" class="st2"/>
			</g>
			<g id="shape4-6" transform="translate(24.9607,-2.84217E-013)">
				
				<path d="M0 283.46 L76.31 283.46 A22.2129 15.8376 -0 0 0 98.52 267.63 L8.16 267.63 A14.8814 14.7958 180 0 1 -0 283.46
							 Z" class="st2"/>
			</g>
			<g id="shape5-8" transform="translate(2.8503,-4.73105)">
				
				<path d="M48.56 230.04 A4.435 4.41327 180 0 1 39.69 230.04 A4.435 4.41327 180 0 1 48.56 230.04 ZM56.04 230.04 A11.9105
							 11.9105 -180 0 0 32.22 230.04 A11.9105 11.9105 -180 0 0 56.04 230.04 ZM59.08 221.82 a0.72175 0.72175
							 -180 0 0 0.0834022 0.323986 A16.9879 16.9879 0 0 1 60.37 225.08 a0.72175 0.72175 -180 0 0 0.195675 0.314363
							 A1.44351 1.44351 -180 0 0 61.1 225.71 L65.49 227.19 A1.44351 1.44351 0 0 1 66.48 228.55 L66.5 231.6
							 A1.44351 1.44351 0 0 1 65.51 232.98 L61.1 234.47 A1.44351 1.44351 -180 0 0 60.48 234.87 a0.72175 0.72175
							 -180 0 0 -0.150766 0.266246 A16.9879 16.9879 0 0 1 59.18 237.93 a0.72175 0.72175 -180 0 0 -0.0801944
							 0.340025 A1.44351 1.44351 -180 0 0 59.25 238.9 L61.33 243.05 A1.44351 1.44351 0 0 1 61.07 244.71 L58.92
							 246.89 A1.44351 1.44351 0 0 1 57.25 247.17 L53.07 245.11 A1.44351 1.44351 -180 0 0 52.41 244.97 a0.72175
							 0.72175 -180 0 0 -0.323986 0.0834022 A16.9879 16.9879 0 0 1 49.1 246.29 a0.72175 0.72175 -180 0 0 -0.314363
							 0.195675 A1.44351 1.44351 -180 0 0 48.46 247.01 L46.99 251.42 A1.44351 1.44351 0 0 1 45.63 252.4 L42.57
							 252.41 A1.44351 1.44351 0 0 1 41.18 251.43 L39.7 247.01 A1.44351 1.44351 -180 0 0 39.3 246.41 a0.72175
							 0.72175 -180 0 0 -0.269454 -0.150766 A16.9879 16.9879 0 0 1 36.19 245.06 a0.72175 0.72175 -180 0 0 -0.340025
							 -0.0834022 A1.44351 1.44351 -180 0 0 35.22 245.13 L31.06 247.2 A1.44351 1.44351 0 0 1 29.4 246.93 L27.23
							 244.79 A1.44351 1.44351 0 0 1 26.95 243.12 L29.02 238.94 A1.44351 1.44351 -180 0 0 29.17 238.27 a0.72175
							 0.72175 -180 0 0 -0.0834022 -0.320778 A16.9879 16.9879 0 0 1 27.91 235.1 a0.72175 0.72175 -180 0 0 -0.163597
							 -0.279077 A1.44351 1.44351 -180 0 0 27.16 234.45 L22.76 232.97 A1.44351 1.44351 0 0 1 21.78 231.61 L21.76
							 228.55 A1.44351 1.44351 0 0 1 22.74 227.18 L27.16 225.69 A1.44351 1.44351 -180 0 0 27.7 225.36 a0.72175
							 0.72175 -180 0 0 0.186051 -0.30474 A16.9879 16.9879 0 0 1 29.07 222.17 a0.72175 0.72175 -180 0 0 0.0834022
							 -0.336817 A1.44351 1.44351 -180 0 0 29 221.18 L26.93 217.04 A1.44351 1.44351 0 0 1 27.19 215.38 L29.33
							 213.2 A1.44351 1.44351 0 0 1 31 212.91 L35.18 214.97 A1.44351 1.44351 -180 0 0 35.84 215.12 a0.72175
							 0.72175 -180 0 0 0.320778 -0.08661 A16.9879 16.9879 0 0 1 39.07 213.83 a0.72175 0.72175 -180 0 0 0.282285
							 -0.163597 A1.44351 1.44351 -180 0 0 39.72 213.07 L41.2 208.68 A1.44351 1.44351 0 0 1 42.56 207.69 L45.62
							 207.67 A1.44351 1.44351 0 0 1 47 208.66 L48.48 213.07 A1.44351 1.44351 -180 0 0 48.82 213.63 a0.72175
							 0.72175 -180 0 0 0.301531 0.182844 A16.9879 16.9879 0 0 1 52.06 215.02 a0.72175 0.72175 -180 0 0 0.336817
							 0.0834022 A1.44351 1.44351 -180 0 0 53.03 214.96 L57.19 212.89 A1.44351 1.44351 0 0 1 58.85 213.16 L61.03
							 215.31 A1.44351 1.44351 0 0 1 61.31 216.98 L59.23 221.15 A1.44351 1.44351 -180 0 0 59.08 221.82 ZM83.46
							 206.78 A4.435 4.41327 180 0 1 74.59 206.78 A4.435 4.41327 180 1 1 83.46 206.78 ZM90.93 206.78 A11.9105
							 11.9105 -180 0 0 67.11 206.78 A11.9105 11.9105 -180 0 0 90.93 206.78 ZM93.98 198.56 a0.72175 0.72175
							 -180 0 0 0.0834022 0.323986 A16.9879 16.9879 0 0 1 95.27 201.82 a0.72175 0.72175 -180 0 0 0.195675 0.314363
							 A1.44351 1.44351 -180 0 0 95.99 202.44 L100.39 203.92 A1.44351 1.44351 0 0 1 101.37 205.29 L101.39 208.34
							 A1.44351 1.44351 0 0 1 100.41 209.72 L95.99 211.2 A1.44351 1.44351 -180 0 0 95.38 211.61 a0.72175 0.72175
							 -180 0 0 -0.150766 0.266246 A16.9879 16.9879 0 0 1 94.08 214.66 a0.72175 0.72175 -180 0 0 -0.0801944
							 0.340025 A1.44351 1.44351 -180 0 0 94.14 215.64 L96.22 219.78 A1.44351 1.44351 0 0 1 95.96 221.44 L93.82
							 223.63 A1.44351 1.44351 0 0 1 92.15 223.91 L87.97 221.85 A1.44351 1.44351 -180 0 0 87.3 221.71 a0.72175
							 0.72175 -180 0 0 -0.323986 0.0834022 A16.9879 16.9879 0 0 1 83.99 223.02 a0.72175 0.72175 -180 0 0 -0.314363
							 0.195675 A1.44351 1.44351 -180 0 0 83.36 223.75 L81.89 228.15 A1.44351 1.44351 0 0 1 80.52 229.14 L77.46
							 229.15 A1.44351 1.44351 0 0 1 76.08 228.16 L74.6 223.75 A1.44351 1.44351 -180 0 0 74.2 223.14 a0.72175
							 0.72175 -180 0 0 -0.269454 -0.150766 A16.9879 16.9879 0 0 1 71.09 221.8 a0.72175 0.72175 -180 0 0 -0.340025
							 -0.0834022 A1.44351 1.44351 -180 0 0 70.12 221.87 L65.96 223.94 A1.44351 1.44351 0 0 1 64.3 223.67 L62.12
							 221.52 A1.44351 1.44351 0 0 1 61.84 219.85 L63.92 215.68 A1.44351 1.44351 -180 0 0 64.07 215.01 a0.72175
							 0.72175 -180 0 0 -0.0834022 -0.320778 A16.9879 16.9879 0 0 1 62.81 211.84 a0.72175 0.72175 -180 0 0
							 -0.163597 -0.279077 A1.44351 1.44351 -180 0 0 62.05 211.18 L57.66 209.71 A1.44351 1.44351 0 0 1 56.67
							 208.35 L56.65 205.29 A1.44351 1.44351 0 0 1 57.64 203.91 L62.05 202.42 A1.44351 1.44351 -180 0 0 62.6
							 202.09 a0.72175 0.72175 -180 0 0 0.186051 -0.30474 A16.9879 16.9879 0 0 1 63.97 198.9 a0.72175 0.72175
							 -180 0 0 0.0834022 -0.336817 A1.44351 1.44351 -180 0 0 63.9 197.92 L61.82 193.77 A1.44351 1.44351 0
							 0 1 62.08 192.11 L64.23 189.94 A1.44351 1.44351 0 0 1 65.9 189.65 L70.08 191.71 A1.44351 1.44351 -180
							 0 0 70.74 191.85 a0.72175 0.72175 -180 0 0 0.320778 -0.08661 A16.9879 16.9879 0 0 1 73.96 190.56 a0.72175
							 0.72175 -180 0 0 0.282285 -0.163597 A1.44351 1.44351 -180 0 0 74.62 189.81 L76.1 185.41 A1.44351 1.44351
							 0 0 1 77.45 184.43 L80.51 184.41 A1.44351 1.44351 0 0 1 81.9 185.39 L83.38 189.81 A1.44351 1.44351 -180
							 0 0 83.72 190.36 a0.72175 0.72175 -180 0 0 0.301531 0.182844 A16.9879 16.9879 0 0 1 86.96 191.76 a0.72175
							 0.72175 -180 0 0 0.336817 0.0834022 A1.44351 1.44351 -180 0 0 87.93 191.7 L92.09 189.63 A1.44351 1.44351
							 0 0 1 93.75 189.9 L95.92 192.04 A1.44351 1.44351 0 0 1 96.2 193.71 L94.12 197.89 A1.44351 1.44351 -180
							 0 0 93.98 198.56 ZM-0 266.27 A36.2386 15.1199 -70 0 0 2.34 277.57 A13.4217 12.5269 -90 0 0 25.47 268.09
							 L25.59 267.89 L100.58 267.89 A181.51 150.956 180 0 1 111.54 224.21 A181.51 150.956 -0 0 0 121.83 187.5
							 A24.159 4.50745 -80 0 0 122.79 167.94 A126.35 32.4982 -0 0 0 121.97 164.21 A16.9113 16.106 -90 0 0 107.71
							 152.5 L107.63 152.46 L6.93 152.46 L7.01 152.5 A16.9113 16.106 90 0 1 21.27 164.21 A126.35 32.4982 180
							 0 1 22.09 167.94 A24.159 4.50745 100 0 1 21.13 187.5 A181.51 150.956 180 0 1 10.84 224.21 A181.51 150.956
							 -0 0 0 -0 266.27 Z" class="st3"/>
			</g>
		</g>
	</g>
  </g>
</svg>