<?xml version="1.0" encoding="UTF-8" standalone="no"?>
<svg width="21" height="21" viewBox="0 0 21 21" xmlns="http://www.w3.org/2000/svg">
  <style>.st1 {display:none}
		.st2 {fill:#000000;stroke:#000000;stroke-linecap:round;stroke-linejoin:round;stroke-width:0.24}
		.st3 {fill:#000000;stroke:#000000;stroke-linecap:round;stroke-linejoin:round;stroke-width:0.999999}
		.st4 {fill:#000000;stroke:none;stroke-linecap:round;stroke-linejoin:round;stroke-width:0.24}
		.st5 {fill:#000000;stroke:#000000;stroke-linecap:round;stroke-linejoin:round;stroke-width:1.5}
		.st6 {fill:none}
		.st7 {stroke:#000000;stroke-linecap:round;stroke-linejoin:round;stroke-width:3}
		.st8 {fill:none;fill-rule:evenodd;font-size:12px;overflow:visible;stroke-linecap:square;stroke-miterlimit:3}</style>
  <g transform="scale(0.074083)">
<g>
		
		
		<g id="shape1-1" transform="translate(0.000280035,-0.0004331)">
			
			<rect x="0" y="-0.035" width="283.5" height="283.5" class="st1"/>
		</g>
		<g id="group2-3" transform="translate(82.4805,-72.3002)">
			
			<g id="shape3-4" transform="translate(0,-53.1146)">
				
				<path d="M61.3 283.12 L116.38 260.28 A4.5 4.5 -180 0 0 116.38 251.97 L61.3 229.13 A4.5 4.5 -180 0 0 57.85 229.13
							 L2.77 251.97 A4.5 4.5 -180 0 0 2.77 260.28 L57.85 283.12 A4.5 4.5 -180 0 0 61.3 283.12 ZM42.35 246.33
							 L44.27 245.54 A4.5 4.5 0 0 1 47.71 245.54 L79.99 258.92 A3.06677 3.06677 0 0 1 79.99 264.59 L74.89 266.71
							 A4.5 4.5 0 0 1 71.44 266.71 L42.35 254.64 A4.5 4.5 0 0 1 42.35 246.33 Z" class="st2"/>
			</g>
			<g id="shape4-6" transform="translate(42.9569,-72.3783)">
				
				<path d="M35.44 239.52 L31.19 229.48 L0 216.64 L0 268.88 L35.44 283.46 L35.44 239.52 Z" class="st3"/>
			</g>
			<g id="shape5-8" transform="translate(-226.45,283.465) rotate(-90)">
				
				
				<path d="M0 283.46 L48.61 283.46 L72.94 226.5 L24.33 226.5 L0 283.46 Z" class="st4"/>
			</g>
			<g id="shape6-10" transform="translate(346.114,283.465) rotate(90) scale(-1,1)">
				
				
				<path d="M0 283.46 L48.75 283.46 L72.94 226.28 L24.19 226.28 L0 283.46 Z" class="st4"/>
			</g>
			<g id="shape7-12" transform="translate(-216.457,195.319) rotate(-90)">
				
				
				<path d="M0 283.46 L23.84 283.46 L30.5 266.08 L6.66 266.08 L0 283.46 Z" class="st5"/>
			</g>
			<g id="shape8-14" transform="translate(55.5856,-96.7702)">
				
				<path d="M0 272.77 L4.34 283.46 L14.08 271.89 L0 272.77 Z" class="st6"/>
				<path d="M0 272.77 L4.34 283.46 L14.08 271.89" class="st7"/>
			</g>
			<g id="shape9-17" transform="translate(78.3203,441.095) rotate(180)">
				
				<path d="M4.35 283.46 L4.35 275.17 L0 273.42 L4.35 283.46 Z" class="st3"/>
			</g>
		</g>
	</g>
  </g>
</svg>