<?xml version="1.0" encoding="UTF-8" standalone="no"?>
<svg width="21" height="21" viewBox="0 0 21 21" xmlns="http://www.w3.org/2000/svg">
  <style>.st1 {display:none}
		.st2 {fill:#000000;stroke:none;stroke-linecap:round;stroke-linejoin:round;stroke-width:0.749998}
		.st3 {fill:#000000;stroke:none;stroke-linecap:round;stroke-linejoin:round;stroke-width:0.24}
		.st4 {fill:none;fill-rule:evenodd;font-size:12px;overflow:visible;stroke-linecap:square;stroke-miterlimit:3}</style>
  <g transform="scale(0.074083)">
<g>
		
		
		<g id="shape1-1" transform="translate(0.000280035,-0.0004331)">
			
			<rect x="0" y="-0.035" width="283.5" height="283.5" class="st1"/>
		</g>
		<g id="group3-3" transform="translate(87.1725,-75.7274)">
			
			<g id="shape4-4">
				
				<path d="M71.34 151.4 L9.78 151.4 A9.7826 9.7826 -180 0 0 0 161.18 L0 273.68 A9.7826 9.7826 -180 0 0 9.78 283.46
							 L100.27 283.46 A9.7826 9.7826 -180 0 0 110.05 273.68 L110.05 190.11 A4.89131 4.89131 -180 0 0 108.62
							 186.65 L74.8 152.83 A4.89131 4.89131 -180 0 0 71.34 151.4 ZM73.37 169.74 L73.37 183.19 A4.89131 4.89131
							 -180 0 0 78.26 188.08 L92.93 188.08 A4.89131 4.89131 0 0 1 97.83 192.98 L97.83 265.12 A4.89131 4.89131
							 0 0 1 92.93 270.01 L17.12 270.01 A4.89131 4.89131 0 0 1 12.23 265.12 L12.23 169.74 A4.89131 4.89131
							 0 0 1 17.12 164.85 L68.48 164.85 A4.89131 4.89131 0 0 1 73.37 169.74 Z" class="st2"/>
			</g>
		</g>
		<g id="shape5-6" transform="translate(110.019,-103.5)">
			
			<path d="M9.33 252.71 L4.96 252.71 a0.514788 0.514788 -180 0 0 -0.393629 0.18303 L0.12 258.17 a0.514788 0.514788 -180
						 0 0 0.393629 0.846545 L11.08 259.01 A1.8 1.8 0 0 1 12.79 260.25 A33.75 33.75 -180 0 0 56.94 281.23 A1.28697
						 1.28697 -180 0 0 57.76 280.03 L57.76 272.36 A1.28697 1.28697 -180 0 0 55.89 271.21 A24.1636 24.1636 0 0
						 1 23.88 261.71 A1.8 1.8 0 0 1 25.44 259.01 L44.05 259.01 a0.514788 0.514788 -180 0 0 0.393629 -0.18303 L48.89
						 253.56 a0.514788 0.514788 -180 0 0 -0.393629 -0.846545 L22.53 252.71 A1.8 1.8 0 0 1 20.73 251.01 A24.1636
						 24.1636 0 0 1 20.73 248.42 A1.8 1.8 0 0 1 22.53 246.72 L44.05 246.72 a0.514788 0.514788 -180 0 0 0.393629
						 -0.18303 L48.89 241.26 a0.514788 0.514788 -180 0 0 -0.393629 -0.846545 L25.44 240.42 A1.8 1.8 0 0 1 23.88
						 237.72 A24.1636 24.1636 0 0 1 55.89 228.22 A1.28697 1.28697 -180 0 0 57.76 227.07 L57.76 219.4 A1.28697
						 1.28697 -180 0 0 56.94 218.2 A33.75 33.75 -180 0 0 12.79 239.18 A1.8 1.8 0 0 1 11.08 240.42 L4.96 240.42
						 a0.514788 0.514788 -180 0 0 -0.393629 0.18303 L0.12 245.87 a0.514788 0.514788 -180 0 0 0.393629 0.846545
						 L9.33 246.72 A1.8 1.8 0 0 1 11.13 248.58 A33.75 33.75 -180 0 0 11.13 250.85 A1.8 1.8 0 0 1 9.33 252.71 Z"
					class="st3"/>
		</g>
	</g>
  </g>
</svg>