<?xml version="1.0" encoding="UTF-8" standalone="no"?>
<svg width="21" height="21" viewBox="0 0 21 21" xmlns="http://www.w3.org/2000/svg">
  <style>.st1 {display:none}
		.st2 {fill:#000000;stroke:#000000;stroke-linecap:round;stroke-linejoin:round;stroke-width:0.749999}
		.st3 {fill:#000000;stroke:#000000;stroke-linecap:round;stroke-linejoin:round;stroke-width:0.24}
		.st4 {fill:#000000}
		.st5 {stroke:#000000;stroke-linecap:round;stroke-linejoin:round;stroke-width:0.24}
		.st6 {fill:none;fill-rule:evenodd;font-size:12px;overflow:visible;stroke-linecap:square;stroke-miterlimit:3}</style>
  <g transform="scale(0.074083)">
<g>
		
		
		<g id="shape1-1" transform="translate(0.000280035,-0.0004331)">
			
			<rect x="0" y="-0.035" width="283.5" height="283.5" class="st1"/>
		</g>
		<g id="group13-3" transform="translate(71.9381,-84.5471)">
			
			<g id="shape3-4" transform="translate(48.466,-92.1823)">
				
				<path d="M0 274.46 A9.0002 9.0002 -180 0 0 9 283.46 L36.4 283.46 A9.0002 9.0002 -180 0 0 45.4 274.46 L45.4 268.41
							 A9.0002 9.0002 -180 0 0 36.4 259.41 L9 259.41 A9.0002 9.0002 -180 0 0 -0 268.41 L0 274.46 Z"
						class="st2"/>
			</g>
			<g id="shape4-6" transform="translate(48.466,-46.484)">
				
				<path d="M0 274.46 A9.0002 9.0002 -180 0 0 9 283.46 L36.4 283.46 A9.0002 9.0002 -180 0 0 45.4 274.46 L45.4 268.41
							 A9.0002 9.0002 -180 0 0 36.4 259.41 L9 259.41 A9.0002 9.0002 -180 0 0 -0 268.41 L0 274.46 Z"
						class="st2"/>
			</g>
			<g id="shape5-8" transform="translate(48.466,-0.785795)">
				
				<path d="M0 274.46 A9.0002 9.0002 -180 0 0 9 283.46 L36.4 283.46 A9.0002 9.0002 -180 0 0 45.4 274.46 L45.4 268.41
							 A9.0002 9.0002 -180 0 0 36.4 259.41 L9 259.41 A9.0002 9.0002 -180 0 0 -0 268.41 L0 274.46 Z"
						class="st2"/>
			</g>
			<g id="shape9-10" transform="translate(7.99361E-15,-48.1034)">
				
				<path d="M29.91 283.1 L41.46 274.33 A1.8 1.8 -180 0 0 41.46 271.47 L29.91 262.7 A1.8 1.8 -180 0 0 27.02 264.13 L27.02
							 267.51 A1.8 1.8 0 0 1 25.04 269.3 A20.0295 20.0295 0 0 1 26.99 229.35 a0.0120324 0.0120324 -180 0 0
							 0.0120324 0.0120324 L33.77 229.36 A1.8 1.8 -180 0 0 35.57 227.56 L35.57 224.14 A1.8 1.8 -180 0 0 33.77
							 222.34 L26.99 222.34 A27.0366 27.0366 -180 0 0 25.34 276.36 A1.8 1.8 0 0 1 27.02 278.16 L27.02 281.67
							 A1.8 1.8 -180 0 0 29.91 283.1 Z" class="st3"/>
			</g>
			<g id="shape12-12" transform="translate(97.455,0)">
				
				<path d="M15.16 229.36 a0.0120324 0.0120324 -90 0 0 0.0120324 -0.0120324 L15.16 229.36 ZM15.18 229.35 A20.0295 20.0295
							 90 0 1 17.13 269.3 A1.8 1.8 90 0 1 15.15 267.51 L15.15 264.13 A1.8 1.8 -90 0 0 12.26 262.7 L0.71 271.47
							 A1.8 1.8 -90 0 0 0.71 274.33 L12.26 283.1 A1.8 1.8 -90 0 0 15.15 281.67 L15.15 278.16 A1.8 1.8 90 0
							 1 16.83 276.36 A27.0366 27.0366 -90 0 0 15.18 222.34 L8.4 222.34 A1.8 1.8 -90 0 0 6.6 224.14 L6.6 227.56
							 A1.8 1.8 -90 0 0 8.4 229.36 L15.16 229.36 L15.18 229.35 Z" class="st4"/>
				<path d="M15.16 229.36 a0.0120324 0.0120324 -90 0 0 0.0120324 -0.0120324M15.18 229.35 A20.0295 20.0295 90 0 1 17.13
							 269.3 A1.8 1.8 90 0 1 15.15 267.51 L15.15 264.13 A1.8 1.8 -90 0 0 12.26 262.7 L0.71 271.47 A1.8 1.8
							 -90 0 0 0.71 274.33 L12.26 283.1 A1.8 1.8 -90 0 0 15.15 281.67 L15.15 278.16 A1.8 1.8 90 0 1 16.83 276.36
							 A27.0366 27.0366 -90 0 0 15.18 222.34 L8.4 222.34 A1.8 1.8 -90 0 0 6.6 224.14 L6.6 227.56 A1.8 1.8 -90
							 0 0 8.4 229.36 L15.16 229.36" class="st5"/>
			</g>
		</g>
	</g>
  </g>
</svg>