<?xml version="1.0" encoding="UTF-8" standalone="no"?>
<svg width="21" height="21" viewBox="0 0 21 21" xmlns="http://www.w3.org/2000/svg">
  <style>.st1 {display:none}
		.st2 {fill:#000000;stroke:#000000;stroke-linecap:round;stroke-linejoin:round;stroke-width:0.24}
		.st3 {fill:none;fill-rule:evenodd;font-size:12px;overflow:visible;stroke-linecap:square;stroke-miterlimit:3}</style>
  <g transform="scale(0.074083)">
<g>
		
		
		<g id="shape1-1" transform="translate(0.000280035,-0.0004331)">
			
			<rect x="0" y="-0.035" width="283.5" height="283.5" class="st1"/>
		</g>
		<g id="shape3-3" transform="translate(71.466,-99.3227)">
			
			<path d="M123.43 274.04 A3.42849 3.42849 0 0 1 120 270.61 L120 265.47 A3.42849 3.42849 0 0 1 123.43 262.04 L128.57 262.04
						 A3.42849 3.42849 0 0 1 132 265.47 L132 270.61 A3.42849 3.42849 0 0 1 128.57 274.04 L123.43 274.04 ZM27.92
						 274.04 A3.42849 3.42849 0 0 1 24.49 270.61 L24.49 265.47 A3.42849 3.42849 0 0 1 27.92 262.04 L33.06 262.04
						 A3.42849 3.42849 0 0 1 36.49 265.47 L36.49 270.61 A3.42849 3.42849 0 0 1 33.06 274.04 L27.92 274.04 ZM107.51
						 253.89 A3.42849 3.42849 0 0 1 104.08 250.47 L104.08 245.32 A3.42849 3.42849 0 0 1 107.51 241.89 L112.65
						 241.89 A3.42849 3.42849 0 0 1 116.08 245.32 L116.08 250.47 A3.42849 3.42849 0 0 1 112.65 253.89 L107.51
						 253.89 ZM91.59 253.89 A3.42849 3.42849 0 0 1 88.16 250.47 L88.16 245.32 A3.42849 3.42849 0 0 1 91.59 241.89
						 L96.73 241.89 A3.42849 3.42849 0 0 1 100.16 245.32 L100.16 250.47 A3.42849 3.42849 0 0 1 96.73 253.89 L91.59
						 253.89 ZM27.92 253.89 A3.42849 3.42849 0 0 1 24.49 250.47 L24.49 245.32 A3.42849 3.42849 0 0 1 27.92 241.89
						 L33.06 241.89 A3.42849 3.42849 0 0 1 36.49 245.32 L36.49 250.47 A3.42849 3.42849 0 0 1 33.06 253.89 L27.92
						 253.89 ZM91.59 233.75 A3.42849 3.42849 0 0 1 88.16 230.32 L88.16 225.18 A3.42849 3.42849 0 0 1 91.59 221.75
						 L96.73 221.75 A3.42849 3.42849 0 0 1 100.16 225.18 L100.16 230.32 A3.42849 3.42849 0 0 1 96.73 233.75 L91.59
						 233.75 ZM59.75 233.75 A3.42849 3.42849 0 0 1 56.33 230.32 L56.33 225.18 A3.42849 3.42849 0 0 1 59.75 221.75
						 L64.9 221.75 A3.42849 3.42849 0 0 1 68.32 225.18 L68.32 230.32 A3.42849 3.42849 0 0 1 64.9 233.75 L59.75
						 233.75 ZM27.92 233.75 A3.42849 3.42849 0 0 1 24.49 230.32 L24.49 225.18 A3.42849 3.42849 0 0 1 27.92 221.75
						 L33.06 221.75 A3.42849 3.42849 0 0 1 36.49 225.18 L36.49 230.32 A3.42849 3.42849 0 0 1 33.06 233.75 L27.92
						 233.75 ZM0 221.71 L0 278.32 A5.14274 5.14274 -180 0 0 5.14 283.46 L135.43 283.46 A5.14274 5.14274 -180 0
						 0 140.57 278.32 L140.57 203.75 A5.14274 5.14274 -180 0 0 135.43 198.61 L23.1 198.61 A5.14274 5.14274 -180
						 0 0 19.46 200.12 L1.51 218.07 A5.14274 5.14274 -180 0 0 0 221.71 Z" class="st2"/>
		</g>
	</g>
  </g>
</svg>