<?xml version="1.0" encoding="UTF-8" standalone="no"?>
<svg width="21" height="21" viewBox="0 0 21 21" xmlns="http://www.w3.org/2000/svg">
  <style>.st1 {display:none}
		.st2 {fill:#000000;stroke:none;stroke-linecap:butt;stroke-width:0.75}
		.st3 {fill:none;fill-rule:evenodd;font-size:12px;overflow:visible;stroke-linecap:square;stroke-miterlimit:3}</style>
  <g transform="scale(0.074083)">
<g>
		
		
		<g id="shape1-1" transform="translate(0.000280035,-0.0004331)">
			
			<rect x="0" y="-0.035" width="283.5" height="283.5" class="st1"/>
		</g>
		<g id="shape18-3" transform="translate(109.848,-138.496)">
			
			<path d="M64.82 246.1 L41.45 222.73 A13.5 13.5 -180 0 0 22.36 222.73 L0 245.08 A42.4873 21.1057 -135 0 0 5.43 249 A42.4925
						 21.1083 45 0 1 11.81 253.71 A14.2552 10.8339 -45 0 0 12.54 250.71 A14.2552 10.8339 -45 0 0 12.57 250.49
						 A13.3048 12.5192 135 0 1 32.15 240.06 A9.96248 9.37427 135 0 1 36.6 244.38 A13.3048 12.5192 135 0 1 26.1
						 264.28 L26.13 264.3 A11.2005 8.51238 -45 0 0 23.18 264.93 A42.4925 21.1083 45 0 1 28.54 272.11 A23.9626
						 11.9035 -133.91 0 0 32.83 278.02 A51.548 25.6067 135.99 0 1 37.88 274.52 A42.4925 21.1083 -45 0 0 47.25
						 267.27 A8.38684 6.37397 45 0 1 51.43 274.35 L51.44 274.34 A9.96248 9.37427 -135 1 0 61.76 264.21 A10.6741
						 8.11231 45 0 1 61.59 264.18 A10.6741 8.11231 45 0 1 54.22 260.25 A42.4925 21.1083 -45 0 0 60.99 251.41 A42.4925
						 21.1083 135 0 1 64.82 246.1 Z" class="st2"/>
		</g>
		<g id="shape19-5" transform="translate(138.495,-103.139)">
			
			<path d="M37.48 277.66 L60.74 254.4 A13.5 13.5 -180 0 0 60.74 235.31 L38.29 212.86 A42.4873 21.1057 -45 0 0 34.46 218.17
						 A42.4925 21.1083 135 0 1 29.76 224.56 A14.2552 10.8339 -135 0 0 32.75 225.29 A14.2552 10.8339 -135 0 0 32.98
						 225.32 A13.3048 12.5192 45 0 1 43.41 244.9 A9.96248 9.37427 45 0 1 39.09 249.34 A13.3048 12.5192 45 0 1
						 19.19 238.85 L19.17 238.87 A11.2005 8.51238 -135 0 0 18.54 235.92 A42.4925 21.1083 135 0 1 11.35 241.28
						 A23.9626 11.9035 -43.91 0 0 5.45 245.57 A51.548 25.6067 45.99 0 1 8.94 250.62 A42.4925 21.1083 -135 0 0
						 16.2 260 A8.38684 6.37397 135 0 1 9.11 264.17 L9.13 264.19 A9.96248 9.37427 -45 1 0 19.26 274.5 A10.6741
						 8.11231 135 0 1 19.28 274.34 A10.6741 8.11231 135 0 1 23.22 266.96 A42.4925 21.1083 -135 0 0 32.05 273.73
						 A42.4925 21.1083 45 0 1 37.48 277.66 Z" class="st2"/>
		</g>
		<g id="shape20-7" transform="translate(80.3138,-109.758)">
			
			<path d="M26.4 283.46 A42.4873 21.1057 -45 0 0 30.23 278.15 A42.4925 21.1083 135 0 1 34.93 271.77 A14.2552 10.8339 -135
						 0 0 31.94 271.04 A14.2552 10.8339 -135 0 0 31.71 271.01 A13.3048 12.5192 45 0 1 21.28 251.43 A9.96248 9.37427
						 45 0 1 25.61 246.98 A13.3048 12.5192 45 0 1 45.5 257.48 L45.52 257.45 A11.2005 8.51238 -135 0 0 46.15 260.4
						 A42.4925 21.1083 135 0 1 53.34 255.04 A23.9626 11.9035 -43.91 0 0 59.24 250.75 A51.548 25.6067 45.99 0 1
						 55.75 245.7 A42.4925 21.1083 -135 0 0 48.49 236.33 A8.38684 6.37397 135 0 1 55.58 232.15 L55.57 232.14 A9.96248
						 9.37427 -45 1 0 45.43 221.82 A10.6741 8.11231 135 0 1 45.41 221.99 A10.6741 8.11231 135 0 1 41.47 229.36
						 A42.4925 21.1083 -135 0 0 32.64 222.59 A42.4925 21.1083 45 0 1 27.21 218.67 L3.95 241.93 A13.5 13.5 -180
						 0 0 3.95 261.02 L26.4 283.46 Z" class="st2"/>
		</g>
		<g id="shape22-9" transform="translate(102.934,-80.3141)">
			
			<path d="M5.9 256.14 L29.27 279.51 A13.5 13.5 -180 0 0 48.36 279.51 L70.72 257.15 A42.4873 21.1057 -135 0 0 65.29 253.24
						 A42.4925 21.1083 45 0 1 58.91 248.53 A14.2552 10.8339 -45 0 0 58.18 251.52 A14.2552 10.8339 -45 0 0 58.15
						 251.75 A13.3048 12.5192 135 0 1 38.57 262.18 A9.96248 9.37427 135 0 1 34.12 257.86 A13.3048 12.5192 135
						 0 1 44.61 237.96 L44.59 237.94 A11.2005 8.51238 -45 0 0 47.54 237.31 A42.4925 21.1083 45 0 1 42.18 230.13
						 A23.9626 11.9035 -133.91 0 0 37.89 224.22 A51.548 25.6067 135.99 0 1 32.84 227.72 A42.4925 21.1083 -45 0
						 0 23.47 234.97 A8.38684 6.37397 45 0 1 19.29 227.89 L19.28 227.9 A9.96248 9.37427 -135 1 0 8.96 238.03 A10.6741
						 8.11231 45 0 1 9.13 238.05 A10.6741 8.11231 45 0 1 16.5 241.99 A42.4925 21.1083 -45 0 0 9.73 250.82 A42.4925
						 21.1083 135 0 1 5.9 256.14 Z" class="st2"/>
		</g>
	</g>
  </g>
</svg>