<?xml version="1.0" encoding="UTF-8" standalone="no"?>
<svg width="21" height="21" viewBox="0 0 21 21" xmlns="http://www.w3.org/2000/svg">
  <style>.st1 {display:none}
		.st2 {fill:#000000;stroke:#000000;stroke-linecap:round;stroke-linejoin:round;stroke-width:0.24}
		.st3 {fill:none;fill-rule:evenodd;font-size:12px;overflow:visible;stroke-linecap:square;stroke-miterlimit:3}</style>
  <g transform="scale(0.074083)">
<g>
		
		
		<g id="shape1-1" transform="translate(0.000280035,-0.0004331)">
			
			<rect x="0" y="-0.035" width="283.5" height="283.5" class="st1"/>
		</g>
		<g id="shape4-3" transform="translate(75.2357,-72)">
			
			<path d="M99.71 235.78 A38.25 38.25 -180 0 0 106.45 214.09 A38.25 38.25 -180 1 0 29.95 214.09 A38.25 38.25 -180 0 0 88.3
						 246.64 L76.7 235.03 L87.83 223.9 L99.71 235.78 ZM99.25 257.59 A53.4375 53.4375 0 0 1 14.76 214.09 A53.4375
						 53.4375 0 0 1 31.39 175.36 A51.9599 51.9599 98.95 0 1 80 161.97 A53.4375 53.4375 0 0 1 121.64 214.09 A53.4375
						 53.4375 0 0 1 110.58 246.64 L129.18 265.24 L118.04 276.38 L99.25 257.59 ZM122.33 251.39 A7.42336 7.42336
						 -81.07 0 0 126.82 241.85 A11.0239 11.0239 98.96 0 1 131.75 228.49 A7.42336 7.42336 -81.07 0 0 133.56 217.02
						 A11.0239 11.0239 98.96 0 1 133 202.79 A7.42336 7.42336 -81.07 0 0 130.29 191.48 A11.0239 11.0239 98.95 0
						 1 124.33 178.55 A7.42336 7.42336 -81.07 0 0 117.5 169.15 A11.0239 11.0239 98.95 0 1 107.04 159.48 A7.42336
						 7.42336 -81.07 0 0 97.13 153.42 A11.0239 11.0239 98.95 0 1 83.77 148.49 A7.42336 7.42336 -81.07 0 0 72.29
						 146.67 A11.0239 11.0239 98.96 0 1 58.06 147.23 A7.42336 7.42336 -81.07 0 0 46.77 149.94 A11.0239 11.0239
						 98.96 0 1 33.83 155.9 A7.42336 7.42336 -81.07 0 0 24.43 162.73 A11.0239 11.0239 98.94 0 1 14.77 173.19 A7.42336
						 7.42336 -81.07 0 0 8.69 183.1 A11.0239 11.0239 98.96 0 1 3.76 196.46 A7.42336 7.42336 -81.07 0 0 1.95 207.93
						 A11.0239 11.0239 98.96 0 1 2.51 222.16 A7.42336 7.42336 -81.07 0 0 5.22 233.47 A11.0239 11.0239 98.94 0
						 1 11.18 246.4 A7.42336 7.42336 -81.1 0 0 18 255.8 A11.0239 11.0239 98.94 0 1 28.47 265.47 A7.42336 7.42336
						 -81.07 0 0 38.37 271.53 A11.0239 11.0239 98.93 0 1 51.74 276.46 A7.42336 7.42336 -81.07 0 0 63.21 278.28
						 A11.0239 11.0239 98.96 0 1 77.45 277.72 A7.42336 7.42336 -81.07 0 0 88.74 275.01 A11.0239 11.0239 98.95
						 0 1 101.68 269.05 A7.42336 7.42336 -81.06 0 0 104.11 269.31 L118.26 283.46 L136.34 265.39 L122.33 251.39
						 ZM44.75 215.12 L49.61 209.12 L64.98 221.56 L86.3 195.23 L92.3 200.09 L66.21 232.31 L66.17 232.28 L66.08
						 232.39 L44.75 215.12 Z" class="st2"/>
		</g>
	</g>
  </g>
</svg>