<?xml version="1.0" encoding="UTF-8" standalone="no"?>
<svg width="21" height="21" viewBox="0 0 21 21" xmlns="http://www.w3.org/2000/svg">
  <style>.st1 {display:none}
		.st2 {fill:#000000;stroke:#000000;stroke-linecap:round;stroke-linejoin:round;stroke-width:0.750001}
		.st3 {fill:#000000;stroke:#000000;stroke-linecap:round;stroke-linejoin:round;stroke-width:0.24}
		.st4 {fill:none;fill-rule:evenodd;font-size:12px;overflow:visible;stroke-linecap:square;stroke-miterlimit:3}</style>
  <g transform="scale(0.074083)">
<g>
		
		
		<g id="shape1-1" transform="translate(0.000280035,-0.0004331)">
			
			<rect x="0" y="-0.035" width="283.5" height="283.5" class="st1"/>
		</g>
		<g id="group20-3" transform="translate(72.0001,-72.0003)">
			
			<g id="shape8-4">
				
				<path d="M129.33 237.24 L129.33 263.18 A10.1075 10.1075 0 0 1 119.22 273.29 L20.28 273.29 A10.1075 10.1075 0 0 1
							 10.17 263.18 L10.17 164.24 A10.1075 10.1075 0 0 1 20.28 154.14 L46.94 154.14 L57.11 143.96 L10.11 143.96
							 A10.1075 10.1075 -180 0 0 -0 154.07 L0 273.36 A10.1075 10.1075 -180 0 0 10.11 283.46 L129.39 283.46
							 A10.1075 10.1075 -180 0 0 139.5 273.36 L139.5 227.07 L129.33 237.24 Z" class="st2"/>
			</g>
			<g id="shape19-6" transform="translate(21.5625,-30.1398)">
				
				<path d="M70.24 209.05 A70.0208 79.8707 -180 0 0 0.19 271.41 A10.1075 10.1075 -180 0 0 10.11 283.46 L14.74 283.46
							 A10.1075 10.1075 -180 0 0 24.59 275.64 A45.4355 51.8269 0 0 1 69.66 237.09 A10.1075 10.1075 -180 0 0
							 72.26 236.83 L72.26 268.3 L117.94 221.2 L72.26 174.1 L72.26 209.31 A10.1075 10.1075 -180 0 0 70.24 209.05
							 Z" class="st3"/>
			</g>
		</g>
	</g>
  </g>
</svg>