<?xml version="1.0" encoding="UTF-8" standalone="no"?>
<svg width="21" height="21" viewBox="0 0 21 21" xmlns="http://www.w3.org/2000/svg">
  <style>.st1 {display:none}
		.st2 {fill:#000000;stroke:#000000;stroke-linecap:round;stroke-linejoin:round;stroke-width:0.5}
		.st3 {fill:none;fill-rule:evenodd;font-size:12px;overflow:visible;stroke-linecap:square;stroke-miterlimit:3}</style>
  <g transform="scale(0.074083)">
<g>
		
		
		<g id="shape1-1" transform="translate(0.000280035,-0.0004331)">
			
			<rect x="0" y="-0.035" width="283.5" height="283.5" class="st1"/>
		</g>
		<g id="group13-3" transform="translate(74.2175,-72.2169)">
			
			<g id="shape9-4">
				
				<path d="M106.25 282.29 A100.838 100.838 0 0 1 107.58 264.2 A4.5 4.5 -180 0 0 107.59 264.12 A6.74613 6.74613 135
							 0 1 109.73 260.1 A4.5 4.5 0 0 1 109.81 260.03 A577.446 577.446 -89.98 0 0 127.84 243.74 A4.5 4.5 0 0
							 1 128 243.6 A25.0617 25.0617 -180 0 0 136.71 223.38 A4.5 4.5 0 0 1 136.71 222.97 A599.432 599.432 -180
							 0 0 136.71 170.55 A4.5 4.5 0 0 1 136.73 169.95 A9.68785 9.68785 -180 0 0 127.51 159.4 A4.5 4.5 -180
							 0 0 127.15 159.4 A8.90375 8.90375 -180 0 0 118.56 168.12 A4.5 4.5 -180 0 0 118.56 168.21 L118.56 197.66
							 A4.5 4.5 0 0 1 115.43 201.94 A8.86401 8.86401 -180 0 0 111.57 204.42 A4.5 4.5 0 0 1 111.49 204.5 A428.044
							 428.044 0 0 1 89.33 226.08 A4.5 4.5 0 0 1 89.26 226.14 L80.76 233.51 A4.5 4.5 -180 0 0 80.28 233.99
							 A31.3288 31.3288 -180 0 0 73.54 247.57 A4.5 4.5 -180 0 0 73.47 247.96 A38.0681 38.0681 -180 0 0 74.25
							 261.91 A4.5 4.5 0 0 1 74.38 262.92 L74.65 281.74 A1.125 1.125 -180 0 0 75.64 282.84 A3.97914 3.97914
							 -180 0 0 76.58 282.84 A1.125 1.125 -180 0 0 77.58 281.71 L77.37 263.26 A4.5 4.5 -180 0 0 77.33 262.71
							 L76.23 254.42 A4.5 4.5 0 0 1 76.19 253.97 A29.7514 29.7514 0 0 1 77.58 243.98 A4.5 4.5 0 0 1 77.6 243.94
							 A21.6614 21.6614 0 0 1 83.99 234.33 A4.5 4.5 0 0 1 84.06 234.28 A320.681 320.681 -180 0 0 113.17 206.7
							 A4.5 4.5 -180 0 0 113.37 206.48 A6.10961 6.10961 0 0 1 118.36 204.24 A4.5 4.5 0 0 1 121.07 205.3 A5.61139
							 5.61139 91.67 0 1 122.82 207.97 A4.5 4.5 0 0 1 122.95 210.01 A13.4823 13.4823 0 0 1 119.82 216.65 A4.5
							 4.5 -180 0 0 119.63 216.87 A374.468 374.468 0 0 1 99.32 241.24 A1.125 1.125 -180 0 0 99.11 241.59 A1.33282
							 1.33282 -92.43 0 0 101.05 243.21 A1.125 1.125 -180 0 0 101.28 243.02 A335.375 335.375 -90.2 0 0 124.19
							 215.87 A4.5 4.5 -180 0 0 124.62 215.17 A12.2282 12.2282 -180 0 0 125.82 208.11 A4.5 4.5 -180 0 0 125.77
							 207.81 A8.21473 8.21473 -91.04 0 0 123.02 203.15 A4.5 4.5 0 0 1 121.43 199.8 A786.632 786.632 0 0 1
							 121.48 168.24 A4.5 4.5 0 0 1 121.49 168.05 A6.12593 6.12593 0 0 1 127.31 162.32 A4.5 4.5 -180 0 0 127.36
							 162.32 A5.97532 5.97532 0 0 1 133.26 166.06 A4.5 4.5 0 0 1 133.58 167.5 A541.74 541.74 0 0 1 134.36
							 196.22 A4.5 4.5 -180 0 0 134.36 196.31 A395.977 395.977 0 0 1 133.78 226.6 A4.5 4.5 0 0 1 133.76 226.81
							 A22.1727 22.1727 0 0 1 126.2 241.3 A4.5 4.5 -180 0 0 126.12 241.36 L108.04 257.7 A4.5 4.5 0 0 1 108.01
							 257.73 A9.6407 9.6407 -180 0 0 105.18 262.1 A4.5 4.5 -180 0 0 105.05 262.63 A92.7341 92.7341 -180 0
							 0 103.61 282.34 A1.125 1.125 -180 0 0 104.37 283.37 A1.77396 1.77396 -180 0 0 105.44 283.39 A1.125 1.125
							 -180 0 0 106.25 282.29 ZM31.84 283.39 A1.77396 1.77396 -180 0 0 32.91 283.37 A1.125 1.125 -180 0 0 33.67
							 282.34 A92.7341 92.7341 -180 0 0 32.23 262.63 A4.5 4.5 -180 0 0 32.1 262.1 A9.6407 9.6407 -90 0 0 29.28
							 257.73 A4.5 4.5 0 0 1 29.24 257.7 L11.16 241.36 A4.5 4.5 -180 0 0 11.08 241.3 A22.1727 22.1727 90 0
							 1 3.52 226.81 A4.5 4.5 0 0 1 3.51 226.6 A395.977 395.977 90 0 1 2.93 196.31 A4.5 4.5 -180 0 0 2.93 196.22
							 A541.74 541.74 90 0 1 3.7 167.5 A4.5 4.5 0 0 1 4.02 166.06 A5.97532 5.97532 90 0 1 9.92 162.32 A4.5
							 4.5 -180 0 0 9.97 162.32 A6.12593 6.12593 90 0 1 15.79 168.05 A4.5 4.5 0 0 1 15.8 168.24 A786.632 786.632
							 90 0 1 15.85 199.8 A4.5 4.5 0 0 1 14.26 203.15 A8.21473 8.21473 -88.96 0 0 11.52 207.81 A4.5 4.5 -180
							 0 0 11.47 208.11 A12.2282 12.2282 -90 0 0 12.66 215.17 A4.5 4.5 -180 0 0 13.1 215.87 A335.375 335.375
							 -89.8 0 0 36.01 243.02 A1.125 1.125 -180 0 0 36.24 243.21 A1.33282 1.33282 -87.57 0 0 38.18 241.59 A1.125
							 1.125 -180 0 0 37.96 241.24 A374.468 374.468 90 0 1 17.65 216.87 A4.5 4.5 -180 0 0 17.47 216.65 A13.4823
							 13.4823 0 0 1 14.33 210.01 A4.5 4.5 0 0 1 14.46 207.97 A5.61139 5.61139 88.33 0 1 16.21 205.3 A4.5 4.5
							 0 0 1 18.92 204.24 A6.10961 6.10961 90 0 1 23.92 206.48 A4.5 4.5 -180 0 0 24.11 206.7 A320.681 320.681
							 -90 0 0 53.23 234.28 A4.5 4.5 0 0 1 53.29 234.33 A21.6614 21.6614 90 0 1 59.69 243.94 A4.5 4.5 0 0 1
							 59.7 243.98 A29.7514 29.7514 90 0 1 61.09 253.97 A4.5 4.5 0 0 1 61.05 254.42 L59.95 262.71 A4.5 4.5
							 -180 0 0 59.91 263.26 L59.7 281.71 A1.125 1.125 -180 0 0 60.7 282.84 A3.97914 3.97914 -90 0 0 61.64
							 282.84 A1.125 1.125 -180 0 0 62.63 281.74 L62.9 262.92 A4.5 4.5 0 0 1 63.03 261.91 A38.0681 38.0681
							 -90 0 0 63.82 247.96 A4.5 4.5 -180 0 0 63.75 247.57 A31.3288 31.3288 -90 0 0 57 233.99 A4.5 4.5 -180
							 0 0 56.52 233.51 L48.03 226.14 A4.5 4.5 0 0 1 47.95 226.08 A428.044 428.044 0 0 1 25.79 204.5 A4.5 4.5
							 0 0 1 25.72 204.42 A8.86401 8.86401 -90 0 0 21.86 201.94 A4.5 4.5 0 0 1 18.73 197.66 L18.73 168.21 A4.5
							 4.5 -180 0 0 18.73 168.12 A8.90375 8.90375 -90 0 0 10.13 159.4 A4.5 4.5 -180 0 0 9.78 159.4 A9.68785
							 9.68785 -90 0 0 0.56 169.95 A4.5 4.5 0 0 1 0.57 170.55 A599.432 599.432 -90 0 0 0.58 222.97 A4.5 4.5
							 0 0 1 0.57 223.38 A25.0617 25.0617 -90 0 0 9.29 243.6 A4.5 4.5 0 0 1 9.44 243.74 A577.446 577.446 -90.02
							 0 0 27.48 260.03 A4.5 4.5 0 0 1 27.56 260.1 A6.74613 6.74613 45 0 1 29.7 264.12 A4.5 4.5 -180 0 0 29.71
							 264.2 A100.838 100.838 0 0 1 31.03 282.29 A1.125 1.125 -180 0 0 31.84 283.39 Z" class="st2"/>
			</g>
			<g id="shape10-6" transform="translate(32.3574,-66.7155)">
				
				<path d="M12.64 245.19 A2.59832 2.59832 0 0 1 16.3 245.16 L30.45 256.81 A1.92374 1.92374 -180 0 0 33.06 256.72 A7905.6
							 7905.6 0 0 1 55.78 228.5 A2.48025 2.48025 0 0 1 59.06 227.99 L61.94 230.32 A2.49725 2.49725 0 0 1 61.98
							 233.77 L36.82 265.07 A6.80617 6.80617 0 0 1 27.72 265.01 A449.027 449.027 0 0 1 10.74 251.12 A2.32636
							 2.32636 0 0 1 10.31 248.04 L12.64 245.19 ZM0 247.18 A36.2838 36.2838 -180 0 0 72.57 247.18 A36.2838
							 36.2838 -180 0 0 0 247.18 Z" class="st2"/>
			</g>
		</g>
	</g>
  </g>
</svg>