<?xml version="1.0" encoding="UTF-8" standalone="no"?>
<svg width="21" height="21" viewBox="0 0 21 21" xmlns="http://www.w3.org/2000/svg">
  <style>.st1 {display:none}
		.st2 {fill:none}
		.st3 {stroke:#000000;stroke-linecap:round;stroke-linejoin:round;stroke-width:8.74999}
		.st4 {fill:#000000;stroke:#000000;stroke-linecap:round;stroke-linejoin:round;stroke-width:0.24}
		.st5 {fill:none;fill-rule:evenodd;font-size:12px;overflow:visible;stroke-linecap:square;stroke-miterlimit:3}</style>
  <g transform="scale(0.074083)">
<g>
		
		
		<g id="shape1-1" transform="translate(-4.44499E-007,-0.0004331)">
			
			<rect x="0" y="-0.035" width="283.5" height="283.5" class="st1"/>
		</g>
		<g id="group2-3" transform="translate(72.2687,-74.7667)">
			
			<g id="shape3-4" transform="translate(4.23126,-12.9979)">
				
				<path d="M23.03 175.99 L4.47 186.82 A8.99999 8.99999 -180 0 0 -0 194.6 L0 264.86 A8.99999 8.99999 -180 0 0 4.47 272.64
							 L23.03 283.46 L23.03 175.99 Z" class="st2"/>
				<path d="M23.03 175.99 L4.47 186.82 A8.99999 8.99999 -180 0 0 -0 194.6 L0 264.86 A8.99999 8.99999 -180 0 0 4.47 272.64
							 L23.03 283.46" class="st3"/>
			</g>
			<g id="shape4-7" transform="translate(134.731,-12.9979) scale(-1,1)">
				
				<path d="M23.03 175.99 L4.47 186.82 A8.99999 8.99999 -180 0 0 -0 194.6 L0 264.86 A8.99999 8.99999 -180 0 0 4.47 272.64
							 L23.03 283.46 L23.03 175.99 Z" class="st2"/>
				<path d="M23.03 175.99 L4.47 186.82 A8.99999 8.99999 -180 0 0 -0 194.6 L0 264.86 A8.99999 8.99999 -180 0 0 4.47 272.64
							 L23.03 283.46" class="st3"/>
			</g>
			<g id="group5-10">
				
				<g id="shape6-11" transform="translate(26.1122,-71.0912)">
					
					
					<path d="M43.37 283.46 L86.74 258.52 L43.37 233.57 L0 258.52 L43.37 283.46 Z" class="st4"/>
				</g>
				<g id="group7-13">
					
					<g id="shape8-14" transform="translate(245.488,66.6134) rotate(60)">
						
						
						<path d="M43.37 283.46 L86.74 258.52 L43.37 233.57 L0 258.52 L43.37 283.46 Z" class="st4"/>
					</g>
					<g id="shape9-16"
							transform="translate(297.878,400.252) rotate(-60) scale(1,-1)">
						
						
						<path d="M43.37 283.46 L86.74 258.52 L43.37 233.57 L0 258.52 L43.37 283.46 Z" class="st4"/>
					</g>
				</g>
			</g>
		</g>
	</g>
  </g>
</svg>