<?xml version="1.0" encoding="UTF-8" standalone="no"?>
<svg width="21" height="21" viewBox="0 0 21 21" xmlns="http://www.w3.org/2000/svg">
  <path
     d="m 11.421033,15.34958 a 0.48157479,0.48157479 0 0 1 -0.800899,-0.360405 v -2.080956 a 0.48157479,0.48157479 0 0 0 -0.48192,-0.48192 H 4.5995872 a 0.48157479,0.48157479 0 0 1 -0.480539,-0.48192 V 9.0556209 a 0.48157479,0.48157479 0 0 1 0.480539,-0.48192 h 5.5386268 a 0.48157479,0.48157479 0 0 0 0.48192,-0.4819201 V 6.0108254 a 0.48157479,0.48157479 0 0 1 0.800899,-0.3604043 l 5.053947,4.4891749 a 0.48157479,0.48157479 0 0 1 0,0.720809 z M 0.86850417,2.3128833 V 18.687119 A 1.4447243,1.4447243 0 0 0 2.3128842,20.131496 H 18.685736 a 1.4447243,1.4447243 0 0 0 1.44576,-1.444377 V 2.3128833 A 1.4447243,1.4447243 0 0 0 18.685736,0.86850417 H 2.3128842 A 1.4447243,1.4447243 0 0 0 0.86850417,2.3128833 Z"
     class="st2"
     id="up"
     style="fill:#000000;fill-opacity:1;stroke:none;stroke-width:0.0331406;stroke-linecap:round;stroke-linejoin:round" />
</svg>