<?xml version="1.0" encoding="UTF-8" standalone="no"?>
<svg width="21" height="21" viewBox="0 0 21 21" xmlns="http://www.w3.org/2000/svg">
  <style>.st1 {display:none}
		.st2 {fill:#000000;stroke:none;stroke-linecap:round;stroke-linejoin:round;stroke-width:0.24}
		.st3 {fill:none;fill-rule:evenodd;font-size:12px;overflow:visible;stroke-linecap:square;stroke-miterlimit:3}</style>
  <g transform="scale(0.074083)">
<g>
		
		
		<g id="shape1-1" transform="translate(0.000280035,-0.0004331)">
			
			<rect x="0" y="-0.035" width="283.5" height="283.5" class="st1"/>
		</g>
		<g id="shape3-3" transform="translate(72.0001,-72.0003)">
			
			<path d="M61.38 222.13 L59.93 185.49 A4.00801 4.00801 -180 0 0 59.93 185.34 A11.4584 9.86219 90 0 1 59.89 184.37 L59.89
						 184.35 A11.4584 9.86219 90 0 1 79.61 184.35 L79.61 184.37 A11.4584 9.86219 90 0 1 79.57 185.34 A4.00801
						 4.00801 -180 0 0 79.57 185.49 L78.11 222.13 A4.00801 4.00801 -180 0 0 78.11 222.32 A9.72221 8.36783 90 0
						 1 61.38 222.32 A4.00801 4.00801 -180 0 0 61.38 222.13 ZM60.87 245.4 A8.87996 8.87996 0 0 1 78.63 245.4 A8.87996
						 8.87996 0 1 1 60.87 245.4 ZM1.17 216.55 L66.92 282.29 A4.00801 4.00801 -180 0 0 72.58 282.29 L138.33 216.55
						 A4.00801 4.00801 -180 0 0 138.33 210.88 L72.58 145.14 A4.00801 4.00801 -180 0 0 66.92 145.14 L1.17 210.88
						 A4.00801 4.00801 -180 0 0 1.17 216.55 Z" class="st2"/>
		</g>
	</g>
  </g>
</svg>