<?xml version="1.0" encoding="UTF-8"?>
<svg width="21" height="21" version="1.1" viewBox="0 0 21 21" xmlns="http://www.w3.org/2000/svg">
 <style>.st1 {display:none}
		.st2 {fill:#000000;stroke:none;stroke-linecap:round;stroke-linejoin:round;stroke-width:0.24}
		.st3 {fill:none;fill-rule:evenodd;font-size:12px;overflow:visible;stroke-linecap:square;stroke-miterlimit:3}</style>
 <g transform="matrix(.14023 0 0 .14023 -9.3775 -9.3804)">
  <g transform="translate(85.5 -73.256)">
   <g transform="translate(27.279 -59.521)">
    <path class="st2" d="m6.74 279.13v-7.75h7.76v7.75zm-6.06-10.15a10.591 10.591-180 0 0-0.68 3.73 10.591 10.591-180 1 0 21.18 0 10.591 10.591-180 0 0-0.68-3.73z"/>
   </g>
   <g transform="translate(64.158 -59.521)">
    <path class="st2" d="m6.74 279.13v-7.75h7.76v7.75zm-6.06-10.15a10.591 10.591-180 0 0-0.68 3.73 10.591 10.591-180 1 0 21.18 0 10.591 10.591-180 0 0-0.68-3.73z"/>
   </g>
   <path class="st2" d="m2.98 231.24h5.99v43.27a8.9522 8.9522-180 0 0 8.95 8.95h76.84a8.9522 8.9522-180 0 0 8.95-8.95v-43.27h5.81a2.9841 2.9841-180 0 0 2.98-2.98v-11.94a2.9841 2.9841-180 0 0-2.98-2.98h-5.81v-3.01a8.9522 8.9522-180 0 0-2.62-6.33l-22.36-22.36a8.9522 8.9522-180 0 0-6.33-2.62h-13.48l-0.19-17.89a7.6071 7.6071-180 0 0 2.54-1.68 7.6071 7.6071-180 0 0-10.76-10.75 7.6071 7.6071-180 0 0 2.56 12.44l0.19 17.88h-12.23a8.9522 8.9522-180 0 0-6.33 2.62l-23.11 23.11a8.9522 8.9522-180 0 0-2.62 6.33v2.26h-5.99a2.9841 2.9841-180 0 0-2.98 2.98v11.94a2.9841 2.9841-180 0 0 2.98 2.98zm83.2 7.46a11.936 8.9522 90 0 1 8.95 11.94 11.936 8.9522 90 0 1-9.59 11.91h-58.39a11.936 8.9522 90 0 1-9.6-11.91 11.936 8.9522 90 0 1 8.95-11.94zm-4.12 3.93v16h0.67a8.0914 8.0078 0 0 0 8.67-7.99 8.0914 8.0078 0 0 0-8.09-8.01zm-12.42 0v16h9.44v-16zm-12.42 0v16h9.44v-16zm-12.42 0v16h9.44v-16zm-15.41 16.02v-16.02h-0.02a8.0914 8.0078 0 0 0-8.09 8.01 8.0914 8.0078 0 0 0 8.11 8.01zm2.99-16.02v16h9.43v-16zm28.06-29.29a14.365 14.365 0 1 1 28.73 0 14.365 14.365 0 1 1-28.73 0zm-36.92 0a14.361 14.361 0 0 1 28.72 0 14.361 14.361 0 1 1-28.72 0z"/>
  </g>
 </g>
</svg>
