<?xml version="1.0" encoding="UTF-8"?>
<svg width="21" height="21" version="1.1" viewBox="0 0 21 21" xmlns="http://www.w3.org/2000/svg">
 <style>.st1 {display:none}
		.st2 {fill:#000000;stroke:#000000;stroke-linecap:round;stroke-linejoin:round;stroke-width:0.24}
		.st3 {fill:#000000;stroke:#000000;stroke-linecap:round;stroke-linejoin:round;stroke-width:0.749998}
		.st4 {fill:none;fill-rule:evenodd;font-size:12px;overflow:visible;stroke-linecap:square;stroke-miterlimit:3}</style>
 <g transform="matrix(.13108 0 0 .13108 -8.1539 -8.0722)">
  <g transform="rotate(45 161.67 289.31)">
   <g transform="translate(29.713)">
    <path class="st2" d="m27.76 270.44-5.83-11.66a9 9-180 0 0-16.1 0l-5.83 11.66a9 9-180 0 0 8.05 13.02h11.66a9 9-180 0 0 8.05-13.02z"/>
   </g>
   <g transform="translate(0 -27.064)">
    <path class="st3" d="m34.83 155.38a8.7678 8.7678 0 1 1 17.53 0 8.7678 8.7678 0 0 1-17.53 0zm0 29.35a8.7678 8.7678 0 1 1 17.53 0 8.7678 8.7678 0 0 1-17.53 0zm0 29.35a8.7678 8.7678 0 0 1 17.53 0 8.7678 8.7678 0 0 1-17.53 0zm-13.17 30.17a43.624 43.624-180 0 0-21.65 35.79l-0.01 0.2a3.28 3.28-180 0 0 2.5 3.22h22.22l9.12-18.23a73.383 36.901-90 0 0 9.64 7.08v0.1l0.11-0.05 0.11 0.05v-0.1a73.383 36.901-90 0 0 9.65-7.08l9.11 18.23h22.24a3.28 3.28-180 0 0 2.49-3.22l-0.01-0.2a43.627 43.627-180 0 0-21.66-35.79 73.383 36.901-90 0 0-21.82-115.35v-0.09l-0.11 0.05-0.11-0.05v0.09a73.383 36.901-90 0 0-21.82 115.35z"/>
   </g>
  </g>
 </g>
</svg>
