<?xml version="1.0" encoding="UTF-8" standalone="no"?>
<svg width="21" height="21" viewBox="0 0 21 21" xmlns="http://www.w3.org/2000/svg">
  <style>.st1 {display:none}
		.st2 {fill:#000000;stroke:#000000;stroke-linecap:round;stroke-linejoin:round;stroke-width:0.749998}
		.st3 {fill:none;fill-rule:evenodd;font-size:12px;overflow:visible;stroke-linecap:square;stroke-miterlimit:3}</style>
  <g transform="scale(0.074083)">
<g>
		
		
		<g id="shape1-1" transform="translate(0.000280035,-0.0004331)">
			
			<rect x="0" y="-0.035" width="283.5" height="283.5" class="st1"/>
		</g>
		<g id="group2-3" transform="translate(72.2433,-99.6923)">
			
			<g id="shape3-4">
				
				<path d="M105.05 264.36 L39.89 199.19 a0.00804796 0.00804796 -180 0 0 -0.0113816 -2.46416E-011 L39.87 199.19 a0.00804796
							 0.00804796 0 0 1 -0.0113816 3.98188E-011 L39.86 199.19 a0.00804796 0.00804796 -180 0 0 -0.0113816 -8.58336E-012
							 L0.21 238.83 a0.719998 0.719998 -180 0 0 -0.210883 0.509115 L0 256.93 a0.719998 0.719998 -180 0 0 1.22912
							 0.509115 L39.36 219.31 a0.719998 0.719998 0 0 1 1.01823 -1.13687E-013 L104.42 283.35 a0.396922 0.396922
							 -180 0 0 0.561331 5.68434E-013 L105.05 283.28 a0.719998 0.719998 -180 0 0 0.210883 -0.509115 L105.26
							 264.86 a0.719998 0.719998 -180 0 0 -0.210883 -0.509115 L105.05 264.36 Z" class="st2"/>
			</g>
			<g id="shape4-6" transform="translate(71.8067,-12.8065)">
				
				<path d="M67.48 264.69 L50.55 247.76 a0.719998 0.719998 0 0 1 -0.210883 -0.509115 L50.34 230.97 a0.719998 0.719998
							 -180 0 0 -0.719998 -0.719998 L40.65 230.25 a0.719998 0.719998 -180 0 0 -0.719998 0.719998 L39.93 235.41
							 a0.719998 0.719998 0 0 1 -1.22912 0.509115 L15.04 212.25 a0.00804796 0.00804796 -180 0 0 -0.0113816
							 -2.79385E-011 L15.03 212.25 a0.00804796 0.00804796 0 0 1 -0.0113816 -8.52651E-014 L15.02 212.25 a0.00804796
							 0.00804796 -180 0 0 -0.0113816 4.66116E-012 L0.21 227.05 a0.719998 0.719998 -180 0 0 -8.49321E-014 1.01823
							 L9.01 236.87 a0.719998 0.719998 -180 0 0 1.01823 2.84217E-014 L14.51 232.37 a0.719998 0.719998 0 0 1
							 1.01823 8.52651E-014 L66.46 283.31 a0.719998 0.719998 -180 0 0 1.22912 -0.509115 L67.69 265.2 a0.719998
							 0.719998 -180 0 0 -0.210883 -0.509115 L67.48 264.69 Z" class="st2"/>
			</g>
		</g>
	</g>
  </g>
</svg>