<?xml version="1.0" encoding="UTF-8" standalone="no"?>
<svg width="21" height="21" viewBox="0 0 21 21" xmlns="http://www.w3.org/2000/svg">
  <style>.st1 {display:none}
		.st2 {fill:#000000;stroke:none;stroke-linecap:round;stroke-linejoin:round;stroke-width:0.24}
		.st3 {fill:none;fill-rule:evenodd;font-size:12px;overflow:visible;stroke-linecap:square;stroke-miterlimit:3}</style>
  <g transform="scale(0.074083)">
<g>
		
		
		<g id="shape1-1" transform="translate(0.000280035,-0.0004331)">
			
			<rect x="0" y="-0.035" width="283.5" height="283.5" class="st1"/>
		</g>
		<g id="shape12-3" transform="translate(72.3772,-71.9849)">
			
			<path d="M0.14 262.21 A21.2582 21.2582 -180 1 0 42.66 262.21 A21.2582 21.2582 -180 0 0 0.14 262.21 ZM93.98 279.88 A96.6018
						 96.6018 -180 0 0 3.59 188.72 A3.37474 3.37474 -180 0 0 0 192.08 L0 209.84 A3.37474 3.37474 -180 0 0 3.11
						 213.21 A72.135 72.135 0 0 1 69.49 280.29 A3.37474 3.37474 -180 0 0 72.86 283.44 L90.61 283.44 A3.37474 3.37474
						 -180 0 0 93.98 279.88 ZM138.74 279.94 A141.317 141.317 -180 0 0 3.52 143.94 A3.37474 3.37474 -180 0 0 -0
						 147.31 L0 164.94 A3.37474 3.37474 -180 0 0 3.21 168.31 A116.952 116.952 90 0 1 114.37 280.21 A3.37474 3.37474
						 -180 0 0 117.74 283.44 L135.37 283.44 A3.37474 3.37474 -180 0 0 138.74 279.94 Z" class="st2"/>
		</g>
	</g>
  </g>
</svg>