<?xml version="1.0" encoding="UTF-8" standalone="no"?>
<svg width="21" height="21" viewBox="0 0 21 21" xmlns="http://www.w3.org/2000/svg">
  <style>.st1 {display:none}
		.st2 {fill:#000000;stroke:none;stroke-linecap:round;stroke-linejoin:round;stroke-width:0.24}
		.st3 {fill:none;fill-rule:evenodd;font-size:12px;overflow:visible;stroke-linecap:square;stroke-miterlimit:3}</style>
  <g transform="scale(0.074083)">
<g>
		
		
		<g id="shape1-1" transform="translate(0.000280035,-0.0004331)">
			
			<rect x="0" y="-0.035" width="283.5" height="283.5" class="st1"/>
		</g>
		<g id="group139-3" transform="translate(71.4375,-74.6807)">
			
			<g id="group112-4">
				
				<g id="group103-5" transform="translate(47.9595,0)">
					
					<g id="shape5-6" transform="translate(-262.409,224.996) rotate(-90)">
						
						
						<path d="M0.26 283.46 L25.59 283.46 a0.18 0.18 -180 0 0 0.168335 -0.116257 L33.6 262.65 a0.18 0.18 -180 0
									 0 -0.168335 -0.243743 L8.1 262.41 a0.18 0.18 -180 0 0 -0.168335 0.116257 L0.09 283.22 a0.18
									 0.18 -180 0 0 0.168335 0.243743 Z" class="st2"/>
					</g>
					<g id="shape101-8" transform="translate(-262.409,254.23) rotate(-90)">
						
						
						<path d="M0.26 283.46 L25.59 283.46 a0.18 0.18 -180 0 0 0.168335 -0.116257 L33.6 262.65 a0.18 0.18 -180 0
									 0 -0.168335 -0.243743 L8.1 262.41 a0.18 0.18 -180 0 0 -0.168335 0.116257 L0.09 283.22 a0.18
									 0.18 -180 0 0 0.168335 0.243743 Z" class="st2"/>
					</g>
					<g id="shape102-10" transform="translate(-262.409,283.465) rotate(-90)">
						
						
						<path d="M0.26 283.46 L25.59 283.46 a0.18 0.18 -180 0 0 0.168335 -0.116257 L33.6 262.65 a0.18 0.18 -180 0
									 0 -0.168335 -0.243743 L8.1 262.41 a0.18 0.18 -180 0 0 -0.168335 0.116257 L0.09 283.22 a0.18
									 0.18 -180 0 0 0.168335 0.243743 Z" class="st2"/>
					</g>
				</g>
				<g id="group104-12" transform="translate(23.9798,-8.90877)">
					
					<g id="shape105-13" transform="translate(-262.409,224.996) rotate(-90)">
						
						
						<path d="M0.26 283.46 L25.59 283.46 a0.18 0.18 -180 0 0 0.168335 -0.116257 L33.6 262.65 a0.18 0.18 -180 0
									 0 -0.168335 -0.243743 L8.1 262.41 a0.18 0.18 -180 0 0 -0.168335 0.116257 L0.09 283.22 a0.18
									 0.18 -180 0 0 0.168335 0.243743 Z" class="st2"/>
					</g>
					<g id="shape106-15" transform="translate(-262.409,254.23) rotate(-90)">
						
						
						<path d="M0.26 283.46 L25.59 283.46 a0.18 0.18 -180 0 0 0.168335 -0.116257 L33.6 262.65 a0.18 0.18 -180 0
									 0 -0.168335 -0.243743 L8.1 262.41 a0.18 0.18 -180 0 0 -0.168335 0.116257 L0.09 283.22 a0.18
									 0.18 -180 0 0 0.168335 0.243743 Z" class="st2"/>
					</g>
					<g id="shape107-17" transform="translate(-262.409,283.465) rotate(-90)">
						
						
						<path d="M0.26 283.46 L25.59 283.46 a0.18 0.18 -180 0 0 0.168335 -0.116257 L33.6 262.65 a0.18 0.18 -180 0
									 0 -0.168335 -0.243743 L8.1 262.41 a0.18 0.18 -180 0 0 -0.168335 0.116257 L0.09 283.22 a0.18
									 0.18 -180 0 0 0.168335 0.243743 Z" class="st2"/>
					</g>
				</g>
				<g id="group108-19" transform="translate(0,-17.5555)">
					
					<g id="shape109-20" transform="translate(-262.409,224.996) rotate(-90)">
						
						
						<path d="M0.26 283.46 L25.59 283.46 a0.18 0.18 -180 0 0 0.168335 -0.116257 L33.6 262.65 a0.18 0.18 -180 0
									 0 -0.168335 -0.243743 L8.1 262.41 a0.18 0.18 -180 0 0 -0.168335 0.116257 L0.09 283.22 a0.18
									 0.18 -180 0 0 0.168335 0.243743 Z" class="st2"/>
					</g>
					<g id="shape110-22" transform="translate(-262.409,254.23) rotate(-90)">
						
						
						<path d="M0.26 283.46 L25.59 283.46 a0.18 0.18 -180 0 0 0.168335 -0.116257 L33.6 262.65 a0.18 0.18 -180 0
									 0 -0.168335 -0.243743 L8.1 262.41 a0.18 0.18 -180 0 0 -0.168335 0.116257 L0.09 283.22 a0.18
									 0.18 -180 0 0 0.168335 0.243743 Z" class="st2"/>
					</g>
					<g id="shape111-24" transform="translate(-262.409,283.465) rotate(-90)">
						
						
						<path d="M0.26 283.46 L25.59 283.46 a0.18 0.18 -180 0 0 0.168335 -0.116257 L33.6 262.65 a0.18 0.18 -180 0
									 0 -0.168335 -0.243743 L8.1 262.41 a0.18 0.18 -180 0 0 -0.168335 0.116257 L0.09 283.22 a0.18
									 0.18 -180 0 0 0.168335 0.243743 Z" class="st2"/>
					</g>
				</g>
			</g>
			<g id="group113-26" transform="translate(141.539,0) scale(-1,1)">
				
				<g id="group114-27" transform="translate(47.9595,0)">
					
					<g id="shape115-28" transform="translate(-262.409,224.996) rotate(-90)">
						
						
						<path d="M0.26 283.46 L25.59 283.46 a0.18 0.18 -180 0 0 0.168335 -0.116257 L33.6 262.65 a0.18 0.18 -180 0
									 0 -0.168335 -0.243743 L8.1 262.41 a0.18 0.18 -180 0 0 -0.168335 0.116257 L0.09 283.22 a0.18
									 0.18 -180 0 0 0.168335 0.243743 Z" class="st2"/>
					</g>
					<g id="shape116-30" transform="translate(-262.409,254.23) rotate(-90)">
						
						
						<path d="M0.26 283.46 L25.59 283.46 a0.18 0.18 -180 0 0 0.168335 -0.116257 L33.6 262.65 a0.18 0.18 -180 0
									 0 -0.168335 -0.243743 L8.1 262.41 a0.18 0.18 -180 0 0 -0.168335 0.116257 L0.09 283.22 a0.18
									 0.18 -180 0 0 0.168335 0.243743 Z" class="st2"/>
					</g>
					<g id="shape117-32" transform="translate(-262.409,283.465) rotate(-90)">
						
						
						<path d="M0.26 283.46 L25.59 283.46 a0.18 0.18 -180 0 0 0.168335 -0.116257 L33.6 262.65 a0.18 0.18 -180 0
									 0 -0.168335 -0.243743 L8.1 262.41 a0.18 0.18 -180 0 0 -0.168335 0.116257 L0.09 283.22 a0.18
									 0.18 -180 0 0 0.168335 0.243743 Z" class="st2"/>
					</g>
				</g>
				<g id="group118-34" transform="translate(23.9798,-8.90877)">
					
					<g id="shape119-35" transform="translate(-262.409,224.996) rotate(-90)">
						
						
						<path d="M0.26 283.46 L25.59 283.46 a0.18 0.18 -180 0 0 0.168335 -0.116257 L33.6 262.65 a0.18 0.18 -180 0
									 0 -0.168335 -0.243743 L8.1 262.41 a0.18 0.18 -180 0 0 -0.168335 0.116257 L0.09 283.22 a0.18
									 0.18 -180 0 0 0.168335 0.243743 Z" class="st2"/>
					</g>
					<g id="shape120-37" transform="translate(-262.409,254.23) rotate(-90)">
						
						
						<path d="M0.26 283.46 L25.59 283.46 a0.18 0.18 -180 0 0 0.168335 -0.116257 L33.6 262.65 a0.18 0.18 -180 0
									 0 -0.168335 -0.243743 L8.1 262.41 a0.18 0.18 -180 0 0 -0.168335 0.116257 L0.09 283.22 a0.18
									 0.18 -180 0 0 0.168335 0.243743 Z" class="st2"/>
					</g>
					<g id="shape121-39" transform="translate(-262.409,283.465) rotate(-90)">
						
						
						<path d="M0.26 283.46 L25.59 283.46 a0.18 0.18 -180 0 0 0.168335 -0.116257 L33.6 262.65 a0.18 0.18 -180 0
									 0 -0.168335 -0.243743 L8.1 262.41 a0.18 0.18 -180 0 0 -0.168335 0.116257 L0.09 283.22 a0.18
									 0.18 -180 0 0 0.168335 0.243743 Z" class="st2"/>
					</g>
				</g>
				<g id="group122-41" transform="translate(0,-17.5555)">
					
					<g id="shape123-42" transform="translate(-262.409,224.996) rotate(-90)">
						
						
						<path d="M0.26 283.46 L25.59 283.46 a0.18 0.18 -180 0 0 0.168335 -0.116257 L33.6 262.65 a0.18 0.18 -180 0
									 0 -0.168335 -0.243743 L8.1 262.41 a0.18 0.18 -180 0 0 -0.168335 0.116257 L0.09 283.22 a0.18
									 0.18 -180 0 0 0.168335 0.243743 Z" class="st2"/>
					</g>
					<g id="shape124-44" transform="translate(-262.409,254.23) rotate(-90)">
						
						
						<path d="M0.26 283.46 L25.59 283.46 a0.18 0.18 -180 0 0 0.168335 -0.116257 L33.6 262.65 a0.18 0.18 -180 0
									 0 -0.168335 -0.243743 L8.1 262.41 a0.18 0.18 -180 0 0 -0.168335 0.116257 L0.09 283.22 a0.18
									 0.18 -180 0 0 0.168335 0.243743 Z" class="st2"/>
					</g>
					<g id="shape125-46" transform="translate(-262.409,283.465) rotate(-90)">
						
						
						<path d="M0.26 283.46 L25.59 283.46 a0.18 0.18 -180 0 0 0.168335 -0.116257 L33.6 262.65 a0.18 0.18 -180 0
									 0 -0.168335 -0.243743 L8.1 262.41 a0.18 0.18 -180 0 0 -0.168335 0.116257 L0.09 283.22 a0.18
									 0.18 -180 0 0 0.168335 0.243743 Z" class="st2"/>
					</g>
				</g>
			</g>
			<g id="group138-48" transform="translate(1.16974,-86.8418)">
				
				<g id="group129-49">
					
					<g id="shape126-50" transform="translate(48.7004,0)">
						
						
						<path d="M21.23 283.44 L41.88 275.88 a0.18 0.18 -180 0 0 -7.10543E-15 -0.338058 L21.23 267.99 a0.18 0.18
									 -180 0 0 -0.123761 0 L0.46 275.54 a0.18 0.18 -180 0 0 3.66374E-15 0.338058 L21.11 283.44 a0.18
									 0.18 -180 0 0 0.123761 0 Z" class="st2"/>
					</g>
					<g id="shape127-52" transform="translate(24.3307,-8.60932)">
						
						
						<path d="M21.23 283.44 L41.88 275.88 a0.18 0.18 -180 0 0 -7.10543E-15 -0.338058 L21.23 267.99 a0.18 0.18
									 -180 0 0 -0.123761 0 L0.46 275.54 a0.18 0.18 -180 0 0 3.66374E-15 0.338058 L21.11 283.44 a0.18
									 0.18 -180 0 0 0.123761 0 Z" class="st2"/>
					</g>
					<g id="shape128-54" transform="translate(0,-17.4379)">
						
						
						<path d="M21.23 283.44 L41.88 275.88 a0.18 0.18 -180 0 0 -7.10543E-15 -0.338058 L21.23 267.99 a0.18 0.18
									 -180 0 0 -0.123761 0 L0.46 275.54 a0.18 0.18 -180 0 0 3.66374E-15 0.338058 L21.11 283.44 a0.18
									 0.18 -180 0 0 0.123761 0 Z" class="st2"/>
					</g>
				</g>
				<g id="group130-56" transform="translate(24.3307,-9.35795)">
					
					<g id="shape131-57" transform="translate(48.7004,0)">
						
						
						<path d="M21.23 283.44 L41.88 275.88 a0.18 0.18 -180 0 0 -7.10543E-15 -0.338058 L21.23 267.99 a0.18 0.18
									 -180 0 0 -0.123761 0 L0.46 275.54 a0.18 0.18 -180 0 0 3.66374E-15 0.338058 L21.11 283.44 a0.18
									 0.18 -180 0 0 0.123761 0 Z" class="st2"/>
					</g>
					<g id="shape132-59" transform="translate(24.3307,-8.60932)">
						
						
						<path d="M21.23 283.44 L41.88 275.88 a0.18 0.18 -180 0 0 -7.10543E-15 -0.338058 L21.23 267.99 a0.18 0.18
									 -180 0 0 -0.123761 0 L0.46 275.54 a0.18 0.18 -180 0 0 3.66374E-15 0.338058 L21.11 283.44 a0.18
									 0.18 -180 0 0 0.123761 0 Z" class="st2"/>
					</g>
					<g id="shape133-61" transform="translate(0,-17.4379)">
						
						
						<path d="M21.23 283.44 L41.88 275.88 a0.18 0.18 -180 0 0 -7.10543E-15 -0.338058 L21.23 267.99 a0.18 0.18
									 -180 0 0 -0.123761 0 L0.46 275.54 a0.18 0.18 -180 0 0 3.66374E-15 0.338058 L21.11 283.44 a0.18
									 0.18 -180 0 0 0.123761 0 Z" class="st2"/>
					</g>
				</g>
				<g id="group134-63" transform="translate(48.6614,-17.9673)">
					
					<g id="shape135-64" transform="translate(48.7004,0)">
						
						
						<path d="M21.23 283.44 L41.88 275.88 a0.18 0.18 -180 0 0 -7.10543E-15 -0.338058 L21.23 267.99 a0.18 0.18
									 -180 0 0 -0.123761 0 L0.46 275.54 a0.18 0.18 -180 0 0 3.66374E-15 0.338058 L21.11 283.44 a0.18
									 0.18 -180 0 0 0.123761 0 Z" class="st2"/>
					</g>
					<g id="shape136-66" transform="translate(24.3307,-8.60932)">
						
						
						<path d="M21.23 283.44 L41.88 275.88 a0.18 0.18 -180 0 0 -7.10543E-15 -0.338058 L21.23 267.99 a0.18 0.18
									 -180 0 0 -0.123761 0 L0.46 275.54 a0.18 0.18 -180 0 0 3.66374E-15 0.338058 L21.11 283.44 a0.18
									 0.18 -180 0 0 0.123761 0 Z" class="st2"/>
					</g>
					<g id="shape137-68" transform="translate(0,-17.4379)">
						
						
						<path d="M21.23 283.44 L41.88 275.88 a0.18 0.18 -180 0 0 -7.10543E-15 -0.338058 L21.23 267.99 a0.18 0.18
									 -180 0 0 -0.123761 0 L0.46 275.54 a0.18 0.18 -180 0 0 3.66374E-15 0.338058 L21.11 283.44 a0.18
									 0.18 -180 0 0 0.123761 0 Z" class="st2"/>
					</g>
				</g>
			</g>
		</g>
	</g>
  </g>
</svg>