<?xml version="1.0" encoding="UTF-8" standalone="no"?>
<svg width="21" height="21" viewBox="0 0 21 21" xmlns="http://www.w3.org/2000/svg">
  <style>.st1 {display:none}
		.st2 {stroke:#000000;stroke-linecap:round;stroke-linejoin:round;stroke-width:13}
		.st3 {stroke:#000000;stroke-width:18}
		.st4 {fill:#000000;stroke:none;stroke-linecap:round;stroke-linejoin:round;stroke-width:0.75}
		.st5 {fill:none;fill-rule:evenodd;font-size:12px;overflow:visible;stroke-linecap:square;stroke-miterlimit:3}</style>
  <g transform="scale(0.074083)">
<g>
		
		
		<g id="shape36-1">
			
			<rect x="0" y="-0.03528" width="283.5" height="283.5" class="st1"/>
		</g>
		<g id="group37-3" transform="translate(79.7624,-73.6309)">
			
			<g id="shape4-4" transform="translate(-43.7197,-93.3648) rotate(-17.7609)">
				
				<path d="M0 283.46 L75.6 283.46" class="st2"/>
			</g>
			<g id="shape5-7" transform="translate(36.45,-9.00036)">
				
				<path d="M0 283.46 L51.75 283.46" class="st3"/>
			</g>
			<g id="shape11-10" transform="translate(0,-78.7504)">
				
				<path d="M13.5 283.46 L115.88 283.46 L124.87 283.46 L124.87 274.46 L124.87 274.39 A9.00047 9.00047 -180 0 0 115.87
							 265.46 L37.74 265.46 A6.23864 6.23864 0 0 1 31.5 259.23 A6.23864 6.23864 -180 0 0 25.26 252.99 L13.5
							 252.99 A13.5 13.5 -180 0 0 0 266.31 L0 266.31 L0 266.49 L0 269.96 L0 283.46 L0.56 283.46 L3.73 283.46
							 L13.5 283.46 Z" class="st4"/>
			</g>
			<g id="shape35-12">
				
				<path d="M113.34 283.46 a0.241368 0.241368 90 0 1 0.0562954 -0.00210421 L113.51 283.46 L113.62 283.46 A11.475 11.475
							 -180 0 0 124.87 272.21 A11.475 11.475 -180 0 0 124.88 271.99 L124.87 213.01 L0 213.01 L0 271.99 A11.475
							 11.475 -90 0 0 0 272.21 A11.475 11.475 -90 0 0 11.25 283.46 L11.36 283.46 L11.47 283.46 L11.53 283.46
							 a0.268257 0.268257 -90 0 0 0.0592105 0.00351617 L22.5 283.46 L22.5 265.46 A18 18 0 0 1 40.5 247.46 L84.37
							 247.46 A18 18 90 0 1 102.37 265.46 L102.37 283.46 L113.28 283.46 L113.34 283.46 ZM20.81 228.62 A5.90625
							 5.90625 0 1 1 9 228.62 A5.90625 5.90625 0 1 1 20.81 228.62 ZM40.5 228.62 A5.90625 5.90625 0 1 1 28.69
							 228.62 A5.90625 5.90625 0 1 1 40.5 228.62 Z" class="st4"/>
			</g>
		</g>
	</g>
  </g>
</svg>