<?xml version="1.0" encoding="UTF-8" standalone="no"?>
<svg width="21" height="21" viewBox="0 0 21 21" xmlns="http://www.w3.org/2000/svg">
  <path
     id="scissors"
     d="M 5,2 A 3,3 0 0 0 5,8 3,3 0 0 0 7.85,5.95 L 10.5,8.5 16,3 H 17.5 V 4 L 11.5,9.5 17.5,15 V 16 H 16 L 10.5,11 7.85,13.55 A 3,3 0 0 0 5,11.5 3,3 0 0 0 5,17.5 3,3 0 0 0 7.95,15.05 L 9.4,13.6 10.85,15.05 11.5,14.4 10.05,12.95 11.45,11.55 12.9,12.95 13.55,12.3 12.15,10.9 13.55,9.5 12.15,8.1 10.85,9.4 9.45,8 10.85,6.6 9.4,5.2 7.95,6.65 A 3,3 0 0 0 5,2 Z M 5,3.5 A 1.5,1.5 0 1 1 5,6.5 1.5,1.5 0 1 1 5,3.5 Z M 5,13 A 1.5,1.5 0 1 1 5,16 1.5,1.5 0 1 1 5,13 Z"
     style="fill:#000000;fill-rule:evenodd" />
</svg>