<?xml version="1.0" encoding="UTF-8" standalone="no"?>
<svg width="21" height="21" viewBox="0 0 21 21" xmlns="http://www.w3.org/2000/svg">
  <style>.st1 {display:none}
		.st2 {fill:#000000;stroke:none;stroke-linecap:round;stroke-linejoin:round;stroke-width:0.749999}
		.st3 {fill:#000000;stroke:#000000;stroke-linecap:round;stroke-linejoin:round;stroke-width:0.24}
		.st4 {fill:none;fill-rule:evenodd;font-size:12px;overflow:visible;stroke-linecap:square;stroke-miterlimit:3}</style>
  <g transform="scale(0.074083)">
<g>
		
		
		<g id="shape1-1" transform="translate(-4.44499E-007,-0.450433)">
			
			<rect x="0" y="-0.035" width="283.5" height="283.5" class="st1"/>
		</g>
		<g id="shape4-3" transform="translate(78.0315,-67.5052)">
			
			<path d="M65.64 161.96 L9 161.96 A8.99999 8.99999 -180 0 0 0 170.96 L0 274.46 A8.99999 8.99999 -180 0 0 9 283.46 L92.25
						 283.46 A8.99999 8.99999 -180 0 0 101.25 274.46 L101.25 197.58 A4.5 4.5 -180 0 0 99.93 194.4 L68.82 163.28
						 A4.5 4.5 -180 0 0 65.64 161.96 ZM67.5 178.84 L67.5 191.21 A4.5 4.5 -180 0 0 72 195.71 L85.5 195.71 A4.5
						 4.5 0 0 1 90 200.21 L90 266.59 A4.5 4.5 0 0 1 85.5 271.09 L15.75 271.09 A4.5 4.5 0 0 1 11.25 266.59 L11.25
						 178.84 A4.5 4.5 0 0 1 15.75 174.34 L63 174.34 A4.5 4.5 0 0 1 67.5 178.84 Z" class="st2"/>
		</g>
		<g id="shape6-5" transform="translate(106.243,-94.5052)">
			
			<path d="M69.66 283.46 L92.25 283.46 A8.99999 8.99999 -180 0 0 101.25 274.46 L101.25 197.58 A4.5 4.5 -180 0 0 99.93 194.4
						 L68.82 163.28 A4.5 4.5 -180 0 0 65.64 161.96 L9 161.96 A8.99999 8.99999 -180 0 0 -0 170.96 L0 193.46 L11.25
						 193.46 L11.25 178.84 A4.5 4.5 0 0 1 15.75 174.34 L63 174.34 A4.5 4.5 0 0 1 67.5 178.84 L67.5 191.21 A4.5
						 4.5 -180 0 0 72 195.71 L85.5 195.71 A4.5 4.5 0 0 1 90 200.21 L90 266.59 A4.5 4.5 0 0 1 85.5 271.09 L69.66
						 271.09 L69.66 283.46 Z" class="st2"/>
		</g>
		<g id="group5-7" transform="translate(100.875,-92.198)">
			
			<g id="shape7-8">
				
				<path d="M15.19 224.99 A7.92497 6.09612 -0 0 0 10.05 227.48 A10.4708 8.05445 -0 0 0 8.36 231.3 A62.2411 47.8778 -0
							 0 0 7.9 237.69 A147.624 113.556 180 0 1 7.96 240.48 L7.9 244.01 A16.6142 12.7802 180 0 1 7.31 246.89
							 A6.59285 5.07145 180 0 1 1.37 251.31 A1.32753 1.02117 -0 0 0 0.14 252.26 A6.97605 5.36617 -0 0 0 0.08
							 254.16 A6.97605 5.36617 -0 0 0 0.14 256.07 A1.32753 1.02117 -0 0 0 1.37 257.02 A6.59285 5.07145 180
							 0 1 7.31 261.44 A16.6142 12.7802 180 0 1 7.9 264.32 L7.96 267.85 A147.624 113.556 180 0 1 7.9 270.64
							 A62.2411 47.8778 -0 0 0 8.36 277.03 A10.4708 8.05445 -0 0 0 10.05 280.85 A7.92497 6.09612 -0 0 0 15.19
							 283.34 A8.97455 6.9035 -0 0 0 15.99 283.46 L17.84 283.46 L19.18 283.46 A4.66815 3.59088 -0 0 0 20.24
							 283.36 A1.65292 1.27147 -0 0 0 20.75 283.29 L20.78 283.28 A1.95655 1.50504 -0 0 0 20.83 283.26 A1.65292
							 1.27147 -0 0 0 21.84 281.97 L21.84 281.96 L21.84 281.94 A7.25344 5.57956 -0 0 0 21.78 280.3 A15.4929
							 11.9176 -0 0 0 21.74 280.05 A1.32237 1.01721 -0 0 0 20.74 279.21 L20.66 279.2 A1.46929 1.13022 -0 0
							 0 20.56 279.18 L20.38 279.17 A12.4769 9.59768 -0 0 0 19.64 279.14 L18.97 279.14 A179.361 137.97 -0 0
							 0 18.14 279.12 A10.757 8.27462 180 0 1 17.19 279.02 A2.8836 2.21815 180 0 1 16.24 278.59 A2.57125 1.97789
							 180 0 1 15.85 278.23 A8.36652 6.4358 180 0 1 15.25 277.17 A17.9059 13.7738 180 0 1 14.87 275.77 A8.36652
							 6.4358 180 0 1 14.85 275.49 A19.0821 14.6785 180 0 1 14.76 274.68 A394.61 303.546 180 0 1 14.66 273.24
							 L14.66 273.08 A268.901 206.848 180 0 1 14.62 267.83 A104.041 80.0314 -0 0 0 14.48 261.75 A16.9837 13.0644
							 -0 0 0 12.84 256.94 A16.8325 12.9481 -0 0 0 11.42 255.32 A11.0289 8.48373 -0 0 0 7.96 254.16 A11.0289
							 8.48373 -0 0 0 11.42 253.01 A16.8325 12.9481 -0 0 0 12.84 251.39 A16.9837 13.0644 -0 0 0 14.48 246.58
							 A104.041 80.0314 -0 0 0 14.62 240.5 A268.901 206.848 180 0 1 14.66 235.25 L14.66 235.09 A394.61 303.546
							 180 0 1 14.76 233.64 A19.0821 14.6785 180 0 1 14.85 232.84 A8.36652 6.4358 180 0 1 14.87 232.55 A17.9059
							 13.7738 180 0 1 15.25 231.16 A8.36652 6.4358 180 0 1 15.85 230.1 A2.57125 1.97789 180 0 1 16.24 229.74
							 A2.8836 2.21815 180 0 1 17.19 229.31 A10.757 8.27462 180 0 1 18.14 229.21 A179.361 137.97 -0 0 0 18.97
							 229.19 L19.64 229.19 A12.4769 9.59768 -0 0 0 20.38 229.15 L20.56 229.15 A1.46929 1.13022 -0 0 0 20.66
							 229.13 L20.74 229.12 A1.32237 1.01721 -0 0 0 21.74 228.28 A15.4929 11.9176 -0 0 0 21.78 228.02 A7.25344
							 5.57956 -0 0 0 21.84 226.39 L21.84 226.37 L21.84 226.36 A1.65292 1.27147 -0 0 0 20.83 225.06 L20.78
							 225.05 L20.75 225.04 A1.65292 1.27147 -0 0 0 20.24 224.97 A4.66815 3.59088 -0 0 0 19.18 224.86 L17.84
							 224.86 L15.99 224.86 A8.97455 6.9035 -0 0 0 15.19 224.99 Z" class="st3"/>
			</g>
			<g id="shape8-10" transform="translate(55.5622,0) scale(-1,1)">
				
				<path d="M15.19 224.99 A7.92497 6.09612 -0 0 0 10.05 227.48 A10.4708 8.05445 -0 0 0 8.36 231.3 A62.2411 47.8778 -0
							 0 0 7.9 237.69 A147.624 113.556 180 0 1 7.96 240.48 L7.9 244.01 A16.6142 12.7802 180 0 1 7.31 246.89
							 A6.59285 5.07145 180 0 1 1.37 251.31 A1.32753 1.02117 -0 0 0 0.14 252.26 A6.97605 5.36617 -0 0 0 0.08
							 254.16 A6.97605 5.36617 -0 0 0 0.14 256.07 A1.32753 1.02117 -0 0 0 1.37 257.02 A6.59285 5.07145 180
							 0 1 7.31 261.44 A16.6142 12.7802 180 0 1 7.9 264.32 L7.96 267.85 A147.624 113.556 180 0 1 7.9 270.64
							 A62.2411 47.8778 -0 0 0 8.36 277.03 A10.4708 8.05445 -0 0 0 10.05 280.85 A7.92497 6.09612 -0 0 0 15.19
							 283.34 A8.97455 6.9035 -0 0 0 15.99 283.46 L17.84 283.46 L19.18 283.46 A4.66815 3.59088 -0 0 0 20.24
							 283.36 A1.65292 1.27147 -0 0 0 20.75 283.29 L20.78 283.28 A1.95655 1.50504 -0 0 0 20.83 283.26 A1.65292
							 1.27147 -0 0 0 21.84 281.97 L21.84 281.96 L21.84 281.94 A7.25344 5.57956 -0 0 0 21.78 280.3 A15.4929
							 11.9176 -0 0 0 21.74 280.05 A1.32237 1.01721 -0 0 0 20.74 279.21 L20.66 279.2 A1.46929 1.13022 -0 0
							 0 20.56 279.18 L20.38 279.17 A12.4769 9.59768 -0 0 0 19.64 279.14 L18.97 279.14 A179.361 137.97 -0 0
							 0 18.14 279.12 A10.757 8.27462 180 0 1 17.19 279.02 A2.8836 2.21815 180 0 1 16.24 278.59 A2.57125 1.97789
							 180 0 1 15.85 278.23 A8.36652 6.4358 180 0 1 15.25 277.17 A17.9059 13.7738 180 0 1 14.87 275.77 A8.36652
							 6.4358 180 0 1 14.85 275.49 A19.0821 14.6785 180 0 1 14.76 274.68 A394.61 303.546 180 0 1 14.66 273.24
							 L14.66 273.08 A268.901 206.848 180 0 1 14.62 267.83 A104.041 80.0314 -0 0 0 14.48 261.75 A16.9837 13.0644
							 -0 0 0 12.84 256.94 A16.8325 12.9481 -0 0 0 11.42 255.32 A11.0289 8.48373 -0 0 0 7.96 254.16 A11.0289
							 8.48373 -0 0 0 11.42 253.01 A16.8325 12.9481 -0 0 0 12.84 251.39 A16.9837 13.0644 -0 0 0 14.48 246.58
							 A104.041 80.0314 -0 0 0 14.62 240.5 A268.901 206.848 180 0 1 14.66 235.25 L14.66 235.09 A394.61 303.546
							 180 0 1 14.76 233.64 A19.0821 14.6785 180 0 1 14.85 232.84 A8.36652 6.4358 180 0 1 14.87 232.55 A17.9059
							 13.7738 180 0 1 15.25 231.16 A8.36652 6.4358 180 0 1 15.85 230.1 A2.57125 1.97789 180 0 1 16.24 229.74
							 A2.8836 2.21815 180 0 1 17.19 229.31 A10.757 8.27462 180 0 1 18.14 229.21 A179.361 137.97 -0 0 0 18.97
							 229.19 L19.64 229.19 A12.4769 9.59768 -0 0 0 20.38 229.15 L20.56 229.15 A1.46929 1.13022 -0 0 0 20.66
							 229.13 L20.74 229.12 A1.32237 1.01721 -0 0 0 21.74 228.28 A15.4929 11.9176 -0 0 0 21.78 228.02 A7.25344
							 5.57956 -0 0 0 21.84 226.39 L21.84 226.37 L21.84 226.36 A1.65292 1.27147 -0 0 0 20.83 225.06 L20.78
							 225.05 L20.75 225.04 A1.65292 1.27147 -0 0 0 20.24 224.97 A4.66815 3.59088 -0 0 0 19.18 224.86 L17.84
							 224.86 L15.99 224.86 A8.97455 6.9035 -0 0 0 15.19 224.99 Z" class="st3"/>
			</g>
		</g>
	</g>
  </g>
</svg>