<?xml version="1.0" encoding="UTF-8" standalone="no"?>
<svg width="21" height="21" viewBox="0 0 21 21" xmlns="http://www.w3.org/2000/svg">
  <style>.st1 {display:none}
		.st2 {fill:#000000;stroke:#000000;stroke-linecap:round;stroke-linejoin:round;stroke-width:0.749998}
		.st3 {fill:none;fill-rule:evenodd;font-size:12px;overflow:visible;stroke-linecap:square;stroke-miterlimit:3}</style>
  <g transform="scale(0.074083)">
<g>
		
		
		<g id="shape1-1" transform="translate(-4.44499E-007,-0.0004331)">
			
			<rect x="0" y="-0.035" width="283.5" height="283.5" class="st1"/>
		</g>
		<g id="group2-3" transform="translate(78.2996,-74.7654)">
			
			<g id="shape3-4" transform="translate(0,-92.9968)">
				
				<path d="M94.64 276.23 A1.80849 1.80849 0 0 1 92.84 274.42 A1.80849 1.80849 0 0 1 94.64 272.61 L119.96 272.61 A1.80849
							 1.80849 0 0 1 121.77 274.42 A1.80849 1.80849 0 0 1 119.96 276.23 L94.64 276.23 ZM94.64 270.2 A1.80849
							 1.80849 0 0 1 92.84 268.39 A1.80849 1.80849 0 0 1 94.64 266.59 L119.96 266.59 A1.80849 1.80849 0 0 1
							 121.77 268.39 A1.80849 1.80849 0 0 1 119.96 270.2 L94.64 270.2 ZM94.64 264.17 A1.80849 1.80849 0 0 1
							 92.84 262.37 A1.80849 1.80849 0 0 1 94.64 260.56 L119.96 260.56 A1.80849 1.80849 0 0 1 121.77 262.37
							 A1.80849 1.80849 0 0 1 119.96 264.17 L94.64 264.17 ZM4.82 283.46 L122.98 283.46 A4.82265 4.82265 -180
							 0 0 127.8 278.64 L127.8 247.29 A4.82265 4.82265 -180 0 0 122.98 242.47 L4.82 242.47 A4.82265 4.82265
							 -180 0 0 0 247.29 L0 278.64 A4.82265 4.82265 -180 0 0 4.82 283.46 ZM16.88 271.41 A4.825 4.825 0 1 1
							 7.23 271.41 A4.825 4.825 0 1 1 16.88 271.41 Z" class="st2"/>
			</g>
			<g id="shape4-6" transform="translate(0,-46.4985)">
				
				<path d="M94.64 276.23 A1.80849 1.80849 0 0 1 92.84 274.42 A1.80849 1.80849 0 0 1 94.64 272.61 L119.96 272.61 A1.80849
							 1.80849 0 0 1 121.77 274.42 A1.80849 1.80849 0 0 1 119.96 276.23 L94.64 276.23 ZM94.64 270.2 A1.80849
							 1.80849 0 0 1 92.84 268.39 A1.80849 1.80849 0 0 1 94.64 266.59 L119.96 266.59 A1.80849 1.80849 0 0 1
							 121.77 268.39 A1.80849 1.80849 0 0 1 119.96 270.2 L94.64 270.2 ZM94.64 264.17 A1.80849 1.80849 0 0 1
							 92.84 262.37 A1.80849 1.80849 0 0 1 94.64 260.56 L119.96 260.56 A1.80849 1.80849 0 0 1 121.77 262.37
							 A1.80849 1.80849 0 0 1 119.96 264.17 L94.64 264.17 ZM4.82 283.46 L122.98 283.46 A4.82265 4.82265 -180
							 0 0 127.8 278.64 L127.8 247.29 A4.82265 4.82265 -180 0 0 122.98 242.47 L4.82 242.47 A4.82265 4.82265
							 -180 0 0 0 247.29 L0 278.64 A4.82265 4.82265 -180 0 0 4.82 283.46 ZM16.88 271.41 A4.825 4.825 0 1 1
							 7.23 271.41 A4.825 4.825 0 1 1 16.88 271.41 Z" class="st2"/>
			</g>
			<g id="shape5-8">
				
				<path d="M94.64 276.23 A1.80849 1.80849 0 0 1 92.84 274.42 A1.80849 1.80849 0 0 1 94.64 272.61 L119.96 272.61 A1.80849
							 1.80849 0 0 1 121.77 274.42 A1.80849 1.80849 0 0 1 119.96 276.23 L94.64 276.23 ZM94.64 270.2 A1.80849
							 1.80849 0 0 1 92.84 268.39 A1.80849 1.80849 0 0 1 94.64 266.59 L119.96 266.59 A1.80849 1.80849 0 0 1
							 121.77 268.39 A1.80849 1.80849 0 0 1 119.96 270.2 L94.64 270.2 ZM94.64 264.17 A1.80849 1.80849 0 0 1
							 92.84 262.37 A1.80849 1.80849 0 0 1 94.64 260.56 L119.96 260.56 A1.80849 1.80849 0 0 1 121.77 262.37
							 A1.80849 1.80849 0 0 1 119.96 264.17 L94.64 264.17 ZM4.82 283.46 L122.98 283.46 A4.82265 4.82265 -180
							 0 0 127.8 278.64 L127.8 247.29 A4.82265 4.82265 -180 0 0 122.98 242.47 L4.82 242.47 A4.82265 4.82265
							 -180 0 0 0 247.29 L0 278.64 A4.82265 4.82265 -180 0 0 4.82 283.46 ZM16.88 271.41 A4.825 4.825 0 1 1
							 7.23 271.41 A4.825 4.825 0 1 1 16.88 271.41 Z" class="st2"/>
			</g>
		</g>
	</g>
  </g>
</svg>