<?xml version="1.0" encoding="UTF-8" standalone="no"?>
<svg width="21" height="21" viewBox="0 0 21 21" xmlns="http://www.w3.org/2000/svg">
  <style>.st1 {display:none}
		.st2 {fill:#000000;stroke:#000000;stroke-linecap:round;stroke-linejoin:round;stroke-width:0.749998}
		.st3 {fill:#000000;stroke:#000000;stroke-linecap:round;stroke-linejoin:round;stroke-width:0.749996}
		.st4 {fill:none;fill-rule:evenodd;font-size:12px;overflow:visible;stroke-linecap:square;stroke-miterlimit:3}</style>
  <g transform="scale(0.074083)">
<g>
		
		
		<g id="shape1-1" transform="translate(0.000280035,-0.0004331)">
			
			<rect x="0" y="-0.035" width="283.5" height="283.5" class="st1"/>
		</g>
		<g id="group2-3">
			
		</g>
		<g id="shape3-4" transform="translate(96.8599,-140.65)">
			
			<path d="M85.25 251.9 L87.72 251.9 A2.25 2.25 -180 0 0 89.92 250.13 A45.6081 45.4785 -90 0 0 90.29 232.77 A2.25 2.25
						 -180 0 0 88.07 230.9 L87.41 230.9 A2.25 2.25 0 0 1 85.25 229.27 A41.4844 41.347 -90 0 0 5.69 229.27 A2.25
						 2.25 0 0 1 3.53 230.9 L2.86 230.9 A2.25 2.25 -180 0 0 0.65 232.77 A45.6081 45.4785 -90 0 0 1.02 250.13 A2.25
						 2.25 -180 0 0 3.22 251.9 L4.02 251.9 A2.25 2.25 0 0 1 6.16 253.46 A41.4844 41.347 -90 0 0 36.39 281.06 A4.5
						 4.5 0 0 1 39.44 283.46 A10.125 10.125 -180 1 0 40.23 273.16 A4.5 4.5 0 0 1 35.28 274.89 A35.9529 35.7632
						 0 0 1 11.36 251.9 L11.39 251.9 A35.9529 35.7632 0 0 1 9.52 240.55 L9.52 240.53 A35.9529 35.7632 0 0 1 81.42
						 240.53 L81.42 240.55 L81.42 240.59 A35.9529 35.7632 0 0 1 80 250.46 A1.125 1.125 -180 0 0 81.08 251.9 L85.25
						 251.9 Z" class="st2"/>
		</g>
		<g id="shape4-6" transform="translate(133.649,-156.123)">
			
			<path d="M21.19 281.82 A28.3901 28.3901 -180 1 0 -0 283.46 A16.3125 16.3125 0 0 1 21.19 281.82 Z" class="st3"/>
		</g>
		<g id="shape5-8" transform="translate(101.748,-71.9242)">
			
			<path d="M27.44 213.89 A43.6658 43.6658 0 0 1 18.92 210.19 A214.029 214.029 0 0 1 10.12 222.42 A55.1454 55.1454 -180
						 0 0 4.22 234.7 A130.243 130.243 -180 0 0 0.3 259.26 A125.17 125.17 -180 0 0 0.29 276.37 L0.52 276.45 A118.029
						 117.6 -90 0 0 80.4 276.45 L80.63 276.37 A125.17 125.17 -180 0 0 80.62 259.26 A130.243 130.243 -180 0 0 76.69
						 234.7 A55.1454 55.1454 -180 0 0 70.8 222.42 A214.029 214.029 0 0 1 62 210.19 A43.6658 43.6658 0 0 1 59.76
						 211.37 A16.3125 16.3125 0 0 1 27.44 213.89 Z" class="st3"/>
		</g>
	</g>
  </g>
</svg>