<?xml version="1.0" encoding="UTF-8" standalone="no"?>
<svg width="21" height="21" viewBox="0 0 21 21" xmlns="http://www.w3.org/2000/svg">
  <path
     id="share-nodes"
     d="M 16,2 A 2.5,2.5 0 0 0 13.5,4.5 2.5,2.5 0 0 0 13.65,5.35 L 7.4,9.1 A 2.5,2.5 0 0 0 5,8 2.5,2.5 0 1 0 5,13 2.5,2.5 0 0 0 7.4,11.9 L 13.65,15.65 A 2.5,2.5 0 0 0 13.5,16.5 2.5,2.5 0 1 0 16,14 2.5,2.5 0 0 0 14.05,14.95 L 7.85,11.2 A 2.5,2.5 0 0 0 7.85,9.8 L 14.05,6.05 A 2.5,2.5 0 0 0 16,7 2.5,2.5 0 1 0 16,2 Z"
     style="fill:#000000;fill-rule:evenodd" />
</svg>