<?xml version="1.0" encoding="UTF-8" standalone="no"?>
<svg width="21" height="21" viewBox="0 0 21 21" xmlns="http://www.w3.org/2000/svg">
  <path
     id="text1"
     style="font-size:63.3471px;font-family:'Segoe MDL2 Assets';text-anchor:middle;stroke-width:0.378428"
     d="M 6.5102075,0.45142354 5.3246693,3.7686508 H 3.8997435 v 6.2537142 l -2.4007148,1.114861 v 2.058733 l 1.4249257,3.996632 H 1.4990287 v 1.677992 l 2.0062954,-0.03876 0.018239,0.03876 c 0.081251,0.218506 0.1735775,0.428222 0.2735857,0.629247 0.1062534,0.201026 0.2215329,0.380729 0.346542,0.538053 0.1312589,0.157325 0.2746367,0.284596 0.4308975,0.38074 0.1562603,0.08742 0.3306092,0.129953 0.5243727,0.129953 0.256268,0 0.4782123,-0.03761 0.6657253,-0.116274 0.1875138,-0.08741 0.3532537,-0.192261 0.4970141,-0.314624 0.1500039,-0.12236 0.2819117,-0.254576 0.3944194,-0.394419 0.1187622,-0.14859 0.2340343,-0.283455 0.3465419,-0.405819 0.1187622,-0.122359 0.2420519,-0.222281 0.367061,-0.300944 0.1250139,-0.08742 0.2683859,-0.132233 0.4308975,-0.132233 0.1625117,0 0.3058884,0.04485 0.4308976,0.132233 0.1250138,0.07866 0.2431536,0.178583 0.3556614,0.300944 0.1125102,0.113624 0.2249146,0.243555 0.3374224,0.39214 0.118762,0.139841 0.2506607,0.272056 0.3944195,0.39442 0.1437526,0.113625 0.3095005,0.213542 0.4970141,0.300943 0.1937628,0.07867 0.4214468,0.118555 0.6839648,0.118555 0.262518,0 0.487333,-0.03989 0.674844,-0.118555 0.193764,-0.08741 0.362375,-0.18732 0.506134,-0.300943 0.143768,-0.122359 0.272794,-0.254578 0.3853,-0.39442 0.118763,-0.148589 0.234036,-0.278514 0.346542,-0.39214 0.112504,-0.122359 0.230652,-0.222281 0.355661,-0.300944 0.125014,-0.08742 0.268389,-0.132233 0.430898,-0.132233 0.162512,0 0.305888,0.04485 0.430898,0.132233 0.125014,0.07866 0.245434,0.178583 0.35794,0.300944 0.118765,0.122359 0.234034,0.257236 0.346542,0.405819 0.118765,0.139842 0.25066,0.272055 0.39442,0.394419 0.150004,0.12236 0.318621,0.227224 0.506134,0.314624 0.187513,0.07867 0.409456,0.116274 0.665725,0.116274 0.187515,0 0.358991,-0.0475 0.515253,-0.143633 0.156254,-0.09614 0.299638,-0.223416 0.430898,-0.38074 0.131265,-0.157324 0.249404,-0.334745 0.355662,-0.535772 0.106258,-0.201024 0.198582,-0.408082 0.273584,-0.617848 h 2.024536 v -1.677992 h -1.424927 l 1.424927,-3.996632 V 11.137226 L 17.100256,10.022365 V 3.7686508 H 15.67533 L 14.489792,0.45142354 Z M 5.0989611,5.4466433 H 15.901038 v 4.012591 L 10.5,6.9422454 5.0989611,9.4592343 Z" />
</svg>