<?xml version="1.0" encoding="UTF-8" standalone="no"?>
<svg width="21" height="21" viewBox="0 0 21 21" xmlns="http://www.w3.org/2000/svg">
  <path
     d="m 10.498533,7.0473941 6.393371,6.3852229 1.127123,-1.127123 a 0.23694855,0.23694855 0 0 1 0.392456,0.09234 l 1.745006,5.23773 a 0.23694855,0.23694855 0 0 1 -0.298756,0.300114 l -5.239089,-1.746363 a 0.23694855,0.23694855 0 0 1 -0.09234,-0.392456 l 1.108114,-1.108112 -5.431921,-5.4332789 a 0.59237276,0.59237276 0 0 0 -0.7156602,-0.0937 L 7.46752,10.328274 a 0.59237276,0.59237276 0 0 1 -0.7156556,-0.0937 L 1.0048916,4.4835281 a 0.59237276,0.59237276 0 0 1 0,-0.837874 l 0.4182579,-0.419617 a 0.59237276,0.59237276 0 0 1 0.8378738,0 l 4.7868807,4.78688 a 0.59237276,0.59237276 0 0 0 0.7129398,0.09642 l 2.024749,-1.156998 a 0.59237276,0.59237276 0 0 1 0.7129402,0.09506 z"
     class="st2"
     id="path3"
     style="fill:#000000;fill-opacity:1;stroke:none;stroke-width:0.0325916;stroke-linecap:round;stroke-linejoin:round" />
</svg>