<?xml version="1.0" encoding="UTF-8" standalone="no"?>
<svg width="21" height="21" viewBox="0 0 21 21" xmlns="http://www.w3.org/2000/svg">
  <path
     id="path2"
     d="M 3.5,2 C 2.1236486,2 1,3.1236486 1,4.5 v 12 C 1,17.876351 2.1236486,19 3.5,19 h 14 C 18.876351,19 20,17.876351 20,16.5 V 4.5 C 20,3.1236486 18.876351,2 17.5,2 Z m 0,1 H 7 V 18 H 3.5 C 2.6603514,18 2,17.339649 2,16.5 V 4.5 C 2,3.6603514 2.6603514,3 3.5,3 Z M 8,3 h 9.5 C 18.339649,3 19,3.6603514 19,4.5 v 12 C 19,17.339649 18.339649,18 17.5,18 H 8 Z" />
</svg>