<?xml version="1.0" encoding="UTF-8" standalone="no"?>
<svg width="21" height="21" viewBox="0 0 21 21" xmlns="http://www.w3.org/2000/svg">
  <path
     d="M 6.3002763,16.601674 11.944534,9.8305815 a 0.63704929,0.55836399 0 0 0 -0.01273,-0.672519 L 6.9500723,3.5669775 a 0.63704929,0.55836399 0 0 1 0.502561,-0.902067 h 6.9466687 a 0.63704929,0.55836399 0 0 1 0.223673,0.03598 3.1771914,2.7847598 0 0 1 2.025818,2.181341 0.15926231,0.139591 0 0 0 0.157138,0.117877 v 0 a 0.33081969,0.28995842 0 0 0 0.328437,-0.318887 L 16.861137,2.3137625 A 0.63704929,0.55836399 0 0 0 16.226919,1.8112345 H 3.4675303 a 0.26953271,0.23624131 0 0 0 -0.268977,0.24692 l 0.0043,0.06949 a 0.63704929,0.55836399 0 0 0 0.133064,0.318888 l 6.7739577,7.6049185 a 0.63704929,0.55836399 0 0 1 0.0085,0.678721 l -6.7682917,7.927531 a 0.63704929,0.55836399 0 0 0 -0.125988,0.333769 v 0 a 0.22522663,0.19740772 0 0 0 0.225091,0.197294 h 2.041389 11.1327897 a 0.63704929,0.55836399 0 0 0 0.629972,-0.475226 l 0.54503,-3.198816 a 0.30873957,0.27060553 0 0 0 -0.216595,-0.299036 l -0.09485,-0.0248 a 0.15926231,0.139591 0 0 0 -0.199608,0.09682 3.4426851,3.0174612 0 0 1 -2.720907,2.193749 0.63704929,0.55836399 0 0 1 -0.111831,0.0081 H 6.8142303 a 0.63704929,0.55836399 0 0 1 -0.513887,-0.888351 z"
     class="st2"
     id="path3"
     style="fill:#000000;fill-opacity:1;stroke:none;stroke-width:0.0994014;stroke-linecap:round;stroke-linejoin:round" />
</svg>