<?xml version="1.0" encoding="UTF-8" standalone="no"?>
<svg width="21" height="21" viewBox="0 0 21 21" xmlns="http://www.w3.org/2000/svg">
  <path
     id="path9"
     style="fill:#000000;fill-opacity:1;stroke:#ffffff;stroke-width:0.0331313;stroke-linecap:round;stroke-linejoin:round"
     d="m 10.500064,0.86258468 c -1.0462088,0 -1.8907124,0.85633742 -1.8761784,1.90245512 1.009e-4,0.7499163 0.4478455,1.4259357 1.1360589,1.7218798 V 20.121595 a 0.01656732,0.01656732 0 0 0 0.016628,0.01584 h 1.4468695 a 0.01656732,0.01656732 0 0 0 0.01643,-0.01584 V 4.4869196 c 0.688216,-0.2959441 1.13616,-0.9719635 1.136261,-1.7218798 v -1.979e-4 c 0.01445,-1.045999 -0.829857,-1.90227702 -1.875972,-1.90227702 z m 0,0.0332566 c 0.01881,0 0.03684,0.00198 0.05541,0.00198 a 1.8596749,1.8596749 0 0 0 -0.110815,0 c 0.01861,-5.5428e-4 0.0367,-0.00198 0.05541,-0.00198 z m 0.467122,0.0621581 c 0.04355,0.0118774 0.08659,0.0237547 0.12881,0.0382055 a 1.8596749,1.8596749 0 0 0 -0.12881,-0.0382055 z m -0.936066,6.137e-4 a 1.8596749,1.8596749 0 0 0 -0.1263945,0.0374137 c 0.041452,-0.0138569 0.083676,-0.0261302 0.1263945,-0.0374137 z m 1.422602,0.20545842 c 0.03878,0.023557 0.07702,0.047707 0.113844,0.074035 a 1.8596749,1.8596749 0 0 0 -0.113844,-0.074035 z m -1.9093396,9.897e-4 a 1.8596749,1.8596749 0 0 0 -0.1108157,0.072254 c 0.035929,-0.025536 0.073046,-0.049291 0.1108157,-0.072254 z m 2.3214576,0.339732 c 0.02932,0.032465 0.05816,0.065128 0.08514,0.09977 a 1.8596749,1.8596749 0 0 0 -0.08514,-0.09977 z m -2.7337799,0.00198 a 1.8596749,1.8596749 0 0 0 -0.082092,0.096009 c 0.026051,-0.033257 0.053864,-0.064732 0.082092,-0.096009 z M 12.15198,1.9249744 c 0.02336,0.047311 0.04519,0.095217 0.06451,0.1447058 A 1.8596749,1.8596749 0 0 0 12.15198,1.9249744 Z m -3.3066649,0.00594 a 1.8596749,1.8596749 0 0 0 -0.062079,0.1393609 c 0.018608,-0.047707 0.039749,-0.093831 0.062079,-0.1393609 z M 8.6855647,2.4194682 a 1.8596749,1.8596749 0 0 0 -0.02225,0.1704401 c 0.00455,-0.057605 0.012471,-0.1144185 0.02225,-0.1704401 z m 3.6296063,0.00792 c 0.0091,0.053052 0.01683,0.1066982 0.02124,0.1611361 a 1.8596749,1.8596749 0 0 0 -0.02124,-0.1611361 z m -8.7649246,3.421529 c -3.57e-5,0 -0.00317,0.0015 -0.00594,0.00198 a 0.01656732,0.01656732 0 0 0 -0.00182,8.314e-4 c -2.059e-4,1.385e-4 -0.00121,1.385e-4 -0.00121,1.385e-4 l -1.5736597,1.243834 c -0.2053753,0.1631156 -0.2053753,0.4759453 0,0.6390214 L 3.5400596,8.977351 a 0.01656732,0.01656732 0 0 0 8.195e-4,0.00141 c 0,0 7.958e-4,1.188e-4 10e-4,1.386e-4 l 8.176e-4,5.543e-4 c 8.31e-5,3.95e-5 3.207e-4,-3.96e-5 4.038e-4,0 0.00257,9.699e-4 0.00673,0.00198 0.00673,0.00198 4.95e-5,1.98e-5 0.00812,-0.0015 0.00871,-0.0016 -0.00106,1.187e-4 -0.00554,0.00141 -0.00554,0.00141 h 4.980827 C 8.758937,8.9808153 8.9413059,8.7977258 8.9408902,8.572551 V 6.2561504 C 8.9413059,6.0310349 8.7589291,5.8480841 8.5338275,5.8476684 l -4.9806237,4.157e-4 c -0.0013,-2.772e-4 -0.00297,-5.543e-4 -0.00297,-5.543e-4 z m 0.011679,0.00396 c 6.948e-4,5.345e-4 0.00164,9.502e-4 0.00162,9.502e-4 -1.38e-5,0 4.652e-4,5.543e-4 6.097e-4,8.314e-4 -8.591e-4,-8.314e-4 -0.00119,-8.314e-4 -0.00218,-0.00182 z m 0.00475,0.00594 c 1.346e-4,2.771e-4 4.137e-4,8.314e-4 4.038e-4,8.314e-4 -1.38e-5,-3.96e-5 3.722e-4,0.00123 6.097e-4,0.00198 -4.85e-4,-0.0016 -6.73e-4,-0.00198 -10e-4,-0.00396 z m 8.8996016,2.5721993 c -0.225109,4.157e-4 -0.40749,0.1833071 -0.407064,0.4084819 v 2.3164006 c -4.14e-4,0.225116 0.181961,0.408324 0.407064,0.40868 h 4.980826 c 6.9e-5,0 -0.0044,-0.0012 -0.0055,-0.0014 5.48e-4,9.9e-5 0.0087,0.0016 0.0087,0.0016 3.8e-5,0 0.0042,-0.0016 0.0067,-0.002 8.5e-5,-4e-5 2.79e-4,1.9e-5 4.13e-4,0 l 8.3e-4,-5.55e-4 c 1.34e-4,-7.9e-5 9.62e-4,-1.38e-4 9.62e-4,-1.38e-4 a 0.01656732,0.01656732 0 0 0 8.29e-4,-0.0014 l 1.572447,-1.242629 c 0.205375,-0.163116 0.205375,-0.4759456 0,-0.6390018 L 17.458825,8.4351894 c -4e-6,0 -9.62e-4,-5.94e-5 -0.0012,-1.385e-4 a 0.01656732,0.01656732 0 0 0 -0.0018,-8.117e-4 c -0.0026,-0.00111 -0.0057,-0.00198 -0.0059,-0.00198 -1.6e-5,0 -0.0017,1.188e-4 -0.003,4.157e-4 z m 4.971928,0.00396 c -9.64e-4,9.502e-4 -0.0014,0.00123 -0.0022,0.00198 1.35e-4,-2.771e-4 5.49e-4,-9.502e-4 5.49e-4,-9.502e-4 -1.6e-5,0 9.64e-4,-4.157e-4 0.0016,-9.699e-4 z m -0.0048,0.00594 c -2.79e-4,0.00111 -4.14e-4,0.0016 -9.62e-4,0.00396 2.79e-4,-0.00125 5.48e-4,-0.00198 5.48e-4,-0.00198 -4e-6,1.98e-5 2.79e-4,-5.543e-4 4.14e-4,-8.314e-4 z m -13.8945835,0.5156553 4.039e-4,4.157e-4 a 0.01656732,0.01656732 0 0 0 -0.00182,0.00182 c 6.93e-5,-2.772e-4 2.079e-4,-0.00125 2.079e-4,-0.00125 -5.9e-6,0 9.007e-4,-6.928e-4 0.00121,-9.7e-4 z m 0.030129,0.011877 c 0,-7.92e-5 -0.00124,0.00594 -0.00121,0.00594 2.78e-5,-5.94e-5 -0.00356,0.00594 -0.00337,0.00594 3.96e-5,-3.96e-5 -0.00238,0.00146 -0.00376,0.00198 a 0.01656732,0.01656732 0 0 0 0.00122,-0.00182 c 0.00183,-0.0016 0.00356,-0.00396 0.00356,-0.00396 1.78e-5,-1.98e-5 8.175e-4,-0.00198 0.00162,-0.00594 a 0.01656732,0.01656732 0 0 0 0.00122,-0.00182 0.01656732,0.01656732 0 0 0 8.176e-4,-9.502e-4 z m -0.018806,2.0456372 c -3.56e-5,0 -0.00317,0.0014 -0.00594,0.002 a 0.01656732,0.01656732 0 0 0 -0.00182,8.32e-4 c -2.059e-4,1.38e-4 -0.00121,1.38e-4 -0.00121,1.38e-4 l -1.5736602,1.243836 c -0.2053733,0.163116 -0.2053733,0.475946 0,0.639002 l 1.5724468,1.242628 a 0.01656732,0.01656732 0 0 0 8.175e-4,0.0014 c 0,0 7.958e-4,9.9e-5 0.001,1.18e-4 l 8.175e-4,5.55e-4 c 8.32e-5,3.9e-5 3.207e-4,-4e-5 4.038e-4,0 0.00257,9.7e-4 0.00673,0.002 0.00673,0.002 4.94e-5,0 0.00812,-0.0012 0.00871,-0.0014 -0.00106,1.39e-4 -0.00554,0.0012 -0.00554,0.0012 h 4.9808256 c 0.2251095,-4.16e-4 0.4074784,-0.183505 0.4070647,-0.40868 v -2.3164 C 8.9412544,11.196199 8.7588796,11.013248 8.533776,11.012833 l -4.9806236,5.54e-4 c -0.0013,-2.77e-4 -0.00297,-5.54e-4 -0.00297,-5.54e-4 z m 0.011679,0.004 c 6.928e-4,5.34e-4 0.00163,0.0012 0.00162,0.0012 -1.39e-5,0 4.652e-4,5.54e-4 6.117e-4,8.32e-4 -8.591e-4,-8.32e-4 -0.00119,-0.0011 -0.00218,-0.002 z m 0.00455,0.0059 c 1.346e-4,2.78e-4 4.137e-4,8.32e-4 4.038e-4,8.32e-4 -1.38e-5,-4e-5 3.722e-4,0.0012 6.117e-4,0.002 -4.87e-4,-0.0016 -6.731e-4,-0.002 -0.00101,-0.004 z m 13.8945805,0.515656 c 2.79e-4,2.77e-4 0.0012,9.5e-4 0.0012,9.5e-4 -2e-6,0 1.35e-4,9.7e-4 1.35e-4,0.0012 a 0.01656732,0.01656732 0 0 0 -0.0018,-0.0018 z m -0.02993,0.01188 a 0.01656732,0.01656732 0 0 0 5.49e-4,5.35e-4 0.01656732,0.01656732 0 0 0 0.0012,0.0018 c 8.27e-4,0.002 0.0016,0.0059 0.0016,0.0059 1.6e-5,1.9e-5 0.002,0.0016 0.0038,0.004 a 0.01656732,0.01656732 0 0 0 9.64e-4,0.002 c -0.0015,-9.5e-4 -0.004,-0.002 -0.0038,-0.002 5.2e-5,5.9e-5 -0.0036,-0.0059 -0.0034,-0.0059 2.8e-5,5.9e-5 -8.28e-4,-0.0059 -9.62e-4,-0.0059 z M 3.5386666,14.1219 l 4.038e-4,4.16e-4 a 0.01656732,0.01656732 0 0 0 -0.00182,0.0018 c 6.93e-5,-2.77e-4 2.079e-4,-9.7e-4 2.079e-4,-9.7e-4 -6e-6,2e-5 8.69e-4,-9.5e-4 0.00121,-0.0012 z m 0.030129,0.01188 c 0,-8e-5 -0.00124,0.0059 -0.00122,0.0059 2.97e-5,-7.9e-5 -0.00356,0.0059 -0.00337,0.0059 3.76e-5,-4e-5 -0.00238,0.0015 -0.00376,0.002 a 0.01656732,0.01656732 0 0 0 0.00121,-0.002 c 0.00184,-0.0016 0.00356,-0.004 0.00356,-0.004 1.78e-5,-2e-5 8.176e-4,-0.004 0.00162,-0.0059 a 0.01656732,0.01656732 0 0 0 0.00121,-0.0018 0.01656732,0.01656732 0 0 0 8.176e-4,-9.7e-4 z" />
</svg>