<?xml version="1.0" encoding="UTF-8" standalone="no"?>
<svg width="21" height="21" viewBox="0 0 21 21" xmlns="http://www.w3.org/2000/svg">
  <path
     id="split-cell"
     style="fill:#000000;stroke-width:0"
     d="M 0 0 L 0 5 L 5 5 L 5 0 L 0 0 z M 6 0 L 6 5 L 12 5 L 12 0 L 6 0 z M 13 0 L 13 5 L 18 5 L 18 0 L 13 0 z M 0 6 L 0 12 L 7 12 L 7 6 L 0 6 z M 8 6 L 8 12 L 10 12 L 10 6 L 8 6 z M 11 6 L 11 12 L 18 12 L 18 6 L 11 6 z M 0 13 L 0 18 L 5 18 L 5 13 L 0 13 z M 6 13 L 6 18 L 12 18 L 12 13 L 6 13 z M 13 13 L 13 18 L 18 18 L 18 13 L 13 13 z " />
</svg>