<?xml version="1.0" encoding="UTF-8" standalone="no"?>
<svg width="21" height="21" viewBox="0 0 21 21" xmlns="http://www.w3.org/2000/svg">
  <style>.st1 {display:none}
		.st2 {fill:#000000;stroke:none;stroke-linecap:round;stroke-linejoin:round;stroke-width:0.24}
		.st3 {fill:none;fill-rule:evenodd;font-size:12px;overflow:visible;stroke-linecap:square;stroke-miterlimit:3}</style>
  <g transform="scale(0.074083)">
<g>
		
		
		<g id="shape1-1" transform="translate(0.000280035,-0.0004331)">
			
			<rect x="0" y="-0.035" width="283.5" height="283.5" class="st1"/>
		</g>
		<g id="shape3-3" transform="translate(71.305,-120.56)">
			
			<path d="M78.12 270.33 L100.47 270.34 L100.47 270.42 L101.74 270.41 L101.8 281.76 A1.71563 1.71563 -180 0 0 104.29 283.28
						 L139.96 265.21 A1.71563 1.71563 -180 0 0 139.93 262.14 L104.09 244.45 A1.71563 1.71563 -180 0 0 101.62 246
						 L101.68 257.52 A4.42461 4.42461 -180 0 0 101.53 257.52 L83.44 257.52 A4.42461 4.42461 0 0 1 80.31 256.23
						 L66.47 242.38 A4.42461 4.42461 -180 0 0 60.21 242.38 L55.57 247.02 L55.56 247.03 L40.45 262.03 A4.42461
						 4.42461 0 0 1 34.2 262.01 L25.77 253.56 A4.42461 4.42461 -180 0 0 22.64 252.26 L4.42 252.26 A4.42461 4.42461
						 -180 0 0 -0 256.68 L0 260.66 A4.42461 4.42461 -180 0 0 4.42 265.08 L17.3 265.08 A4.42461 4.42461 0 0 1 20.42
						 266.38 L28.21 274.17 a0.0109343 0.0109343 0 0 1 -2.70357E-05 0.0154903 a0.0109725 0.0109725 -180 0 0 -5.4166E-05
						 0.0155173 L34.12 280.15 A4.42461 4.42461 -180 0 0 40.38 280.17 L60.2 260.49 A4.42461 4.42461 0 0 1 66.45
						 260.5 L74.99 269.04 A4.42461 4.42461 -180 0 0 78.12 270.33 Z" class="st2"/>
		</g>
	</g>
  </g>
</svg>