<?xml version="1.0" encoding="UTF-8" standalone="no"?>
<svg width="21" height="21" viewBox="0 0 21 21" xmlns="http://www.w3.org/2000/svg">
  <style>.st1 {display:none}
		.st2 {fill:#000000;stroke:none;stroke-linecap:round;stroke-linejoin:round;stroke-width:0.24}
		.st3 {fill:none;fill-rule:evenodd;font-size:12px;overflow:visible;stroke-linecap:square;stroke-miterlimit:3}</style>
  <g transform="scale(0.074083)">
<g>
		
		
		<g id="shape1-1" transform="translate(0.000280035,-0.0004331)">
			
			<rect x="0" y="-0.035" width="283.5" height="283.5" class="st1"/>
		</g>
		<g id="shape10-3" transform="translate(72.0001,-72.0003)">
			
			<path d="M24.3 209.89 A4.99487 4.99487 0 0 1 31.33 209.83 L58.53 232.23 A3.69809 3.69809 -180 0 0 63.56 232.04 A15197.3
						 15197.3 0.01 0 1 107.22 177.79 A4.7679 4.7679 1.32 0 1 113.54 176.81 L119.07 181.29 A4.80058 4.80058 0 0
						 1 119.15 187.93 L70.79 248.1 A13.0838 13.0838 0.23 0 1 53.29 247.99 A863.185 863.185 0 0 1 20.64 221.28
						 A4.47207 4.47207 0 0 1 19.81 215.37 L24.3 209.89 ZM0 213.71 A69.75 69.75 -180 1 0 139.5 213.71 A69.75 69.75
						 -180 0 0 0 213.71 Z" class="st2"/>
		</g>
	</g>
  </g>
</svg>