<?xml version="1.0" encoding="UTF-8" standalone="no"?>
<svg width="21" height="21" viewBox="0 0 21 21" xmlns="http://www.w3.org/2000/svg">
  <path
     d="M 6.0384592,12.017457 V 7.5612803 A 5.15899,6.3693339 0 0 0 14.99383,7.467685 v 4.549772 z m -0.7272115,1.143942 v 3.258504 a 0.36393707,0.44931986 0 0 0 0.3636057,0.44891 0.36393707,0.44931986 0 0 0 0.3636058,-0.44891 V 13.161399 H 14.99383 v 3.258504 a 0.36393707,0.44931986 0 0 0 0.36501,0.44891 0.36393707,0.44931986 0 0 0 0.363606,-0.44891 v -3.258504 h 4.559812 V 12.017457 H 15.722446 V 8.1661833 a 5.15899,6.3693339 0 0 0 4.569639,3.3105007 V 10.752187 A 4.5726862,5.6454782 0 0 1 15.722446,5.9198959 V 4.5800965 A 0.36393707,0.44931986 0 0 0 15.35884,4.1311857 0.36393707,0.44931986 0 0 0 14.99383,4.5800965 V 5.3583241 A 4.5726862,5.6454782 0 0 1 6.0384592,5.6165778 V 4.5800965 A 0.36393707,0.44931986 0 0 0 5.6748534,4.1311857 0.36393707,0.44931986 0 0 0 5.3421331,4.3998389 h -0.00562 v 0.015599 a 0.36393707,0.44931986 0 0 0 -0.02527,0.1646584 V 5.8193677 A 4.5726862,5.6454782 0 0 1 0.7233574,10.752187 v 0.724497 A 5.15899,6.3693339 0 0 0 5.3112477,8.1419178 V 12.017457 H 0.70791468 v 1.143942 z"
     class="st2"
     id="suspension-bridge"
     style="fill:#000000;fill-opacity:1;stroke:#000000;stroke-width:0.467969;stroke-linecap:round;stroke-linejoin:round;stroke-opacity:1" />
</svg>