<?xml version="1.0" encoding="UTF-8" standalone="no"?>
<svg width="21" height="21" viewBox="0 0 21 21" xmlns="http://www.w3.org/2000/svg">
  <style>.st1 {display:none}
		.st2 {fill:#000000;stroke:#000000;stroke-linecap:round;stroke-linejoin:round;stroke-width:0.75}
		.st3 {fill:none;fill-rule:evenodd;font-size:12px;overflow:visible;stroke-linecap:square;stroke-miterlimit:3}</style>
  <g transform="scale(0.074083)">
<g>
		
		
		<v:layer/>
		<g id="shape1-1" transform="translate(0.000280035,-0.0004331)">
			
			<rect x="0" y="-0.035" width="283.5" height="283.5" class="st1"/>
		</g>
		<g id="shape19-3" transform="translate(72.1408,-99.5973)">
			
			<path d="M57.04 251.18 L44.7 238.85 A4.5 4.5 0 0 1 43.61 234.26 A13.7823 13.9568 -180 1 0 32.92 243.61 A4.5 4.5 0 0 1
						 36.9 244.86 L48.98 256.94 A4.5 4.5 0 0 1 45.8 264.62 L29.52 264.62 A4.5 4.5 0 0 1 25.64 262.4 A13.7823 13.9568
						 -180 1 0 25.64 276.62 A4.5 4.5 0 0 1 29.52 274.39 L109.69 274.39 A4.5 4.5 0 0 1 113.58 276.62 A13.7823 13.9568
						 -180 1 0 113.58 262.4 A4.5 4.5 0 0 1 109.69 264.62 L91.88 264.62 A4.5 4.5 0 0 1 88.69 256.94 L101.12 244.51
						 A4.5 4.5 0 0 1 105.48 243.35 A13.7823 13.9568 -180 1 0 95.64 233.14 A4.5 4.5 0 0 1 94.45 237.37 L82.18 249.64
						 A4.5 4.5 0 0 1 74.49 246.46 L74.49 228.96 A4.5 4.5 0 0 1 76.67 225.1 A13.7823 13.9568 -180 1 0 62.55 225.1
						 A4.5 4.5 0 0 1 64.72 228.96 L64.72 248 A4.5 4.5 0 0 1 57.04 251.18 Z" class="st2"/>
		</g>
	</g>
  </g>
</svg>