<?xml version="1.0" encoding="UTF-8" standalone="no"?>
<svg width="21" height="21" viewBox="0 0 21 21" xmlns="http://www.w3.org/2000/svg">
  <style>.st1 {display:none}
		.st2 {fill:#000000;stroke:#000000;stroke-linecap:round;stroke-linejoin:round;stroke-width:0.999999}
		.st3 {fill:none;fill-rule:evenodd;font-size:12px;overflow:visible;stroke-linecap:square;stroke-miterlimit:3}</style>
  <g transform="scale(0.074083)">
<g>
		
		
		<g id="shape1-1" transform="translate(0.000280035,-0.0004331)">
			
			<rect x="0" y="-0.035" width="283.5" height="283.5" class="st1"/>
		</g>
		<g id="group2-3" transform="translate(72.4669,-72.0223)">
			
			<g id="shape3-4" transform="translate(55.9182,-55.9812)">
				
				<ellipse cx="13.8145" cy="269.718" rx="13.8145" ry="13.7468" class="st2"/>
			</g>
			<g id="shape4-6">
				
				<path d="M116.35 188.08 A4.5 4.5 0 0 1 116.82 186 L123.28 172.99 A4.5 4.5 -180 0 0 122.41 167.79 L115.63 161.08 A4.5
							 4.5 -180 0 0 110.46 160.25 L97.5 166.69 A4.5 4.5 0 0 1 95.51 167.16 A2.25 2.25 0 0 1 94.46 166.9 A52.9581
							 52.9581 -180 0 0 85.3 163.11 A2.25 2.25 0 0 1 84.36 162.54 A4.5 4.5 0 0 1 83.31 160.83 L78.68 147.06
							 A4.5 4.5 -180 0 0 74.39 144 L64.85 144.05 A4.5 4.5 -180 0 0 60.61 147.12 L56 160.83 A4.5 4.5 0 0 1 54.83
							 162.67 A2.25 2.25 0 0 1 53.95 163.18 A52.9581 52.9581 -180 0 0 44.92 166.94 A2.25 2.25 0 0 1 43.92 167.21
							 A4.5 4.5 0 0 1 41.83 166.74 L28.81 160.33 A4.5 4.5 -180 0 0 23.61 161.21 L16.92 168.02 A4.5 4.5 -180
							 0 0 16.11 173.19 L22.59 186.12 A4.5 4.5 0 0 1 23.07 188.12 A2.25 2.25 0 0 1 22.81 189.17 A52.9581 52.9581
							 -180 0 0 19.12 198.16 A2.25 2.25 0 0 1 18.54 199.11 A4.5 4.5 0 0 1 16.83 200.15 L3.07 204.78 A4.5 4.5
							 -180 0 0 0 209.07 L0.05 218.62 A4.5 4.5 -180 0 0 3.12 222.86 L16.83 227.46 A4.5 4.5 0 0 1 18.67 228.64
							 A2.25 2.25 0 0 1 19.18 229.51 A52.9581 52.9581 -180 0 0 22.86 238.38 A2.25 2.25 0 0 1 23.12 239.38 A4.5
							 4.5 0 0 1 22.65 241.47 L16.19 254.47 A4.5 4.5 -180 0 0 17.05 259.67 L23.84 266.38 A4.5 4.5 -180 0 0
							 29.01 267.21 L41.96 260.77 A4.5 4.5 0 0 1 43.95 260.3 A2.25 2.25 0 0 1 45.01 260.56 A52.9581 52.9581
							 -180 0 0 53.86 264.26 A2.25 2.25 0 0 1 54.7 264.73 A4.5 4.5 0 0 1 55.94 266.64 L60.57 280.4 A4.5 4.5
							 -180 0 0 64.86 283.46 L74.41 283.41 A4.5 4.5 -180 0 0 78.65 280.35 L83.25 266.63 A4.5 4.5 0 0 1 84.24
							 264.98 A2.25 2.25 0 0 1 85.22 264.37 A52.9581 52.9581 -180 0 0 94.54 260.52 A2.25 2.25 0 0 1 95.55 260.26
							 A4.5 4.5 0 0 1 97.63 260.72 L110.66 267.13 A4.5 4.5 -180 0 0 115.86 266.25 L122.54 259.44 A4.5 4.5 -180
							 0 0 123.36 254.27 L116.87 241.34 A4.5 4.5 0 0 1 116.4 239.35 A2.25 2.25 0 0 1 116.65 238.29 A52.9581
							 52.9581 -180 0 0 120.26 229.6 A2.25 2.25 0 0 1 120.73 228.77 A4.5 4.5 0 0 1 122.64 227.52 L136.4 222.89
							 A4.5 4.5 -180 0 0 139.47 218.6 L139.42 209.06 A4.5 4.5 -180 0 0 136.35 204.82 L122.63 200.21 A4.5 4.5
							 0 0 1 120.99 199.22 A2.25 2.25 0 0 1 120.38 198.24 A52.9581 52.9581 -180 0 0 116.61 189.09 A2.25 2.25
							 0 0 1 116.35 188.08 ZM106.86 213.73 A37.125 37.125 0 0 1 32.61 213.73 A37.125 37.125 0 0 1 106.86 213.73
							 Z" class="st2"/>
			</g>
		</g>
	</g>
  </g>
</svg>