<?xml version="1.0" encoding="UTF-8" standalone="no"?>
<svg width="21" height="21" viewBox="0 0 21 21" xmlns="http://www.w3.org/2000/svg">
  <style>.st1 {display:none}
		.st2 {fill:#000000;stroke:none;stroke-linecap:round;stroke-linejoin:round;stroke-width:0.25}
		.st3 {fill:#000000;stroke:none;stroke-linecap:round;stroke-linejoin:round;stroke-width:0.24}
		.st4 {fill:none;fill-rule:evenodd;font-size:12px;overflow:visible;stroke-linecap:square;stroke-miterlimit:3}</style>
  <g transform="scale(0.074083)">
<g>
		
		
		<v:layer/>
		<g id="shape1-1" transform="translate(0.000280035,-0.0004331)">
			
			<rect x="0" y="-0.035" width="283.5" height="283.5" class="st1"/>
		</g>
		<g id="group36-3" transform="translate(70.8751,-81.9166)">
			
			<g id="shape18-4" transform="translate(41.9009,-99.2126)">
				
				<path d="M0 265.4 L24.52 265.4 A6.86228 10.2388 0 0 1 31.39 275.64 L31.39 283.46 L33.99 283.46 L33.99 274.53 A7.54718
							 11.52 -180 0 0 26.45 263.01 L0 263.01 L0 265.4 Z" class="st2"/>
			</g>
			<g id="shape19-6" transform="translate(69.3573,-99.2126)">
				
				<path d="M0 265.4 L24.52 265.4 A6.86228 10.2388 0 0 1 31.39 275.64 L31.39 283.46 L33.99 283.46 L33.99 274.53 A7.54718
							 11.52 -180 0 0 26.45 263.01 L0 263.01 L0 265.4 Z" class="st2"/>
			</g>
			<g id="shape20-8" transform="translate(95.67,-99.2126)">
				
				<path d="M0 265.4 L24.52 265.4 A6.86228 10.2388 0 0 1 31.39 275.64 L31.39 283.46 L33.99 283.46 L33.99 274.53 A7.54718
							 11.52 -180 0 0 26.45 263.01 L0 263.01 L0 265.4 Z" class="st2"/>
			</g>
			<g id="shape26-10" transform="translate(108.936,-102.546)">
				
				<path d="M7.36 279.61 L11.21 279.61 L11.21 276.1 L7.36 276.1 L7.36 272.25 L3.85 272.25 L3.85 276.1 L0 276.1 L0 279.61
							 L3.85 279.61 L3.85 283.46 L7.36 283.46 L7.36 279.61 Z" class="st3"/>
			</g>
			<g id="shape29-12">
				
				<path d="M8.96 274.82 L8.96 191.3 L132.8 191.3 L132.8 274.82 L8.96 274.82 ZM0 176.9 L0 277.7 A5.76 5.76 -180 0 0
							 5.76 283.46 L135.99 283.46 A5.76 5.76 -180 0 0 141.75 277.7 L141.75 188.72 A5.76 5.76 -180 0 0 135.99
							 182.96 L49.59 182.96 L49.59 175.32 A6.51496 11.52 -180 0 0 43.08 163.8 L6.51 163.8 A6.51496 11.52 -180
							 0 0 -0 175.32 L0 176.9 Z" class="st3"/>
			</g>
			<g id="group35-14" transform="translate(19.6561,-17.28)">
				
				<g id="shape31-15" transform="translate(3.19744E-14,-52.8548)">
					
					
					<rect x="0" y="273.974" width="104.814" height="9.49039" class="st3"/>
				</g>
				<g id="shape32-17" transform="translate(7.99361E-15,-35.2365)">
					
					
					<rect x="0" y="273.974" width="87.5339" height="9.49039" class="st3"/>
				</g>
				<g id="shape33-19" transform="translate(7.99361E-15,-17.6183)">
					
					
					<rect x="0" y="273.974" width="104.814" height="9.49039" class="st3"/>
				</g>
				<g id="shape34-21">
					
					
					<rect x="0" y="273.974" width="99.0539" height="9.49039" class="st3"/>
				</g>
			</g>
		</g>
	</g>
  </g>
</svg>