<?xml version="1.0" encoding="UTF-8" standalone="no"?>
<svg width="21" height="21" viewBox="0 0 21 21" xmlns="http://www.w3.org/2000/svg">
  <style>.st1 {display:none}
		.st2 {fill:#000000;stroke:none;stroke-linecap:round;stroke-linejoin:round;stroke-width:0.24}
		.st3 {fill:none;fill-rule:evenodd;font-size:12px;overflow:visible;stroke-linecap:square;stroke-miterlimit:3}</style>
  <g transform="scale(0.074083)">
<g>
		
		
		<v:layer/>
		<g id="shape1-1" transform="translate(0.000280035,-0.0004331)">
			
			<rect x="0" y="-0.035" width="283.5" height="283.5" class="st1"/>
		</g>
		<g id="shape18-3" transform="translate(73.1251,-71.8987)">
			
			<path d="M136.36 164.42 A3.02221 3.02221 -180 0 0 134.01 159.27 L129.52 159.59 L133.02 155.98 A3.02221 3.02221 -180 0
						 0 132.95 151.71 L128.77 147.66 A3.02221 3.02221 -180 0 0 124.49 147.72 L120.82 151.51 L121.14 147 A3.02221
						 3.02221 -180 0 0 115.99 144.65 L101.35 159.28 A3.02221 3.02221 -180 0 0 100.47 161.21 L99.71 172.03 A3.02221
						 3.02221 -180 0 0 99.84 173.16 L66.86 207.19 A3.02221 3.02221 -180 0 0 66.3 208.01 L62.56 215.94 A3.02221
						 3.02221 -180 0 0 66.55 219.97 L74.03 216.54 A3.02221 3.02221 -180 0 0 74.93 215.9 L109.06 180.69 L119.81
						 179.93 A3.02221 3.02221 -180 0 0 121.73 179.06 L136.36 164.42 ZM105.49 200.07 A46.7204 46.7204 0 1 1 82.19
						 177.42 A3.02221 3.02221 -180 0 0 85.58 176.75 L93.31 168.77 A3.02221 3.02221 -180 0 0 92.54 163.99 A63.3117
						 63.3117 -180 1 0 118.6 189.31 A3.02221 3.02221 -180 0 0 113.79 188.68 L106.05 196.66 A3.02221 3.02221 -180
						 0 0 105.49 200.07 ZM79.46 224.63 A16.7578 16.7578 90 1 1 58.55 204.09 A3.02221 3.02221 -180 0 0 59.86 203.29
						 L68.33 194.55 A3.02221 3.02221 -180 0 0 66.47 189.45 A30.8697 30.8697 -180 1 0 93.93 216.22 A3.02221 3.02221
						 -180 0 0 88.76 214.5 L80.2 223.34 A3.02221 3.02221 -180 0 0 79.46 224.63 Z" class="st2"/>
		</g>
	</g>
  </g>
</svg>