<?xml version="1.0" encoding="UTF-8" standalone="no"?>
<svg width="21" height="21" viewBox="0 0 21 21" xmlns="http://www.w3.org/2000/svg">
  <style>.st1 {display:none}
		.st2 {fill:#000000;stroke:#000000;stroke-linecap:round;stroke-linejoin:round;stroke-width:0.749999}
		.st3 {fill:#000000;stroke:none;stroke-linecap:round;stroke-linejoin:round;stroke-width:0.749999}
		.st4 {fill:none;fill-rule:evenodd;font-size:12px;overflow:visible;stroke-linecap:square;stroke-miterlimit:3}</style>
  <g transform="scale(0.074083)">
<g>
		
		
		<v:layer/>
		<g id="shape1-1" transform="translate(-4.44499E-007,-0.0004331)">
			
			<rect x="0" y="-0.035" width="283.5" height="283.5" class="st1"/>
		</g>
		<g id="group6-3" transform="translate(66.5044,-68.625)">
			
			<g id="group10-4" transform="translate(73.1426,-81.3222)">
				
				<g id="shape12-5" transform="translate(-250.185,283.465) rotate(-90)">
					
					<path d="M14.59 267.15 L14.59 267.28 L14.55 267.28 a0.492512 0.492512 0 0 1 -0.445696 0.282934 a0.492512 0.492512
								 0 0 1 -0.445696 -0.282934 L13.64 267.28 L13.64 267.23 a0.492512 0.492512 0 0 1 -0.026472 -0.159295
								 L13.62 254.27 A2.14412 2.14412 -180 0 0 11.5 252.47 A2.14412 2.14412 -180 0 0 9.35 254.61 L9.35
								 271.67 L4.81 266.26 A2.72967 2.72967 -180 0 0 0.97 265.92 A2.72967 2.72967 -180 0 0 0.63 269.77
								 L5.54 275.62 L5.56 275.6 L12.15 283.46 L27.61 283.46 L29.37 273.5 L29.37 259.47 A2.14412 2.14412
								 -180 0 0 27.22 257.33 A2.14412 2.14412 -180 0 0 25.09 259.27 L25.09 267.38 a0.492512 0.492512 0
								 0 1 -0.492512 0.492512 a0.492512 0.492512 0 0 1 -0.492512 -0.492512 L24.1 253.44 A2.14412 2.14412
								 -180 0 0 21.98 251.61 A2.14412 2.14412 -180 0 0 19.84 253.75 L19.84 267.28 L19.78 267.28 a0.492512
								 0.492512 0 0 1 -0.445696 0.282934 a0.492512 0.492512 0 0 1 -0.445696 -0.282934 L18.88 267.28 L18.88
								 267.27 a0.492512 0.492512 0 0 1 -0.039032 -0.192156 L18.84 251.92 A2.14412 2.14412 -180 0 0 16.74
								 250.18 A2.14412 2.14412 -180 0 0 14.6 252.17 L14.6 267.07 a0.492512 0.492512 0 0 1 -0.00560962 0.0741225
								 L14.59 267.15 Z" class="st2"/>
				</g>
				<g id="shape9-7" transform="translate(35.2905,-8.08834)">
					
					<path d="M7.53 264.45 A2.85883 2.85883 -90 1 1 7.53 270.17 A2.85883 2.85883 -90 1 1 7.53 264.45 ZM38.1 283.46
								 A4.5001 4.5001 -90 0 0 42.6 278.96 L42.6 265.09 A4.5001 4.5001 -90 0 0 38.1 260.59 L4.5 260.59 A4.5001
								 4.5001 -90 0 0 -0 265.09 L0 278.96 A4.5001 4.5001 -90 0 0 4.5 283.46 L38.1 283.46 Z" class="st3"/>
				</g>
			</g>
			<g id="group7-9" transform="translate(34.2424,-68.2763)">
				
				<g id="shape8-10" transform="translate(30.9589,533.649) rotate(180)">
					
					<path d="M14.59 267.15 L14.59 267.28 L14.55 267.28 a0.492512 0.492512 0 0 1 -0.445696 0.282934 a0.492512 0.492512
								 0 0 1 -0.445696 -0.282934 L13.64 267.28 L13.64 267.23 a0.492512 0.492512 0 0 1 -0.026472 -0.159295
								 L13.62 254.27 A2.14412 2.14412 -180 0 0 11.5 252.47 A2.14412 2.14412 -180 0 0 9.35 254.61 L9.35
								 271.67 L4.81 266.26 A2.72967 2.72967 -180 0 0 0.97 265.92 A2.72967 2.72967 -180 0 0 0.63 269.77
								 L5.54 275.62 L5.56 275.6 L12.15 283.46 L27.61 283.46 L29.37 273.5 L29.37 259.47 A2.14412 2.14412
								 -180 0 0 27.22 257.33 A2.14412 2.14412 -180 0 0 25.09 259.27 L25.09 267.38 a0.492512 0.492512 0
								 0 1 -0.492512 0.492512 a0.492512 0.492512 0 0 1 -0.492512 -0.492512 L24.1 253.44 A2.14412 2.14412
								 -180 0 0 21.98 251.61 A2.14412 2.14412 -180 0 0 19.84 253.75 L19.84 267.28 L19.78 267.28 a0.492512
								 0.492512 0 0 1 -0.445696 0.282934 a0.492512 0.492512 0 0 1 -0.445696 -0.282934 L18.88 267.28 L18.88
								 267.27 a0.492512 0.492512 0 0 1 -0.039032 -0.192156 L18.84 251.92 A2.14412 2.14412 -180 0 0 16.74
								 250.18 A2.14412 2.14412 -180 0 0 14.6 252.17 L14.6 267.07 a0.492512 0.492512 0 0 1 -0.00560962 0.0741225
								 L14.59 267.15 Z" class="st2"/>
				</g>
				<g id="shape2-12" transform="translate(0,-35.2237)">
					
					<path d="M3.86 275.94 A2.85883 2.85883 -180 1 1 9.58 275.94 A2.85883 2.85883 -180 1 1 3.86 275.94 ZM22.87 245.37
								 A4.5001 4.5001 -180 0 0 18.37 240.87 L4.5 240.87 A4.5001 4.5001 -180 0 0 0 245.37 L0 278.96 A4.5001
								 4.5001 -180 0 0 4.5 283.46 L18.37 283.46 A4.5001 4.5001 -180 0 0 22.87 278.96 L22.87 245.37 Z"
							class="st3"/>
				</g>
			</g>
			<g id="group13-14" transform="translate(86.1893,0)">
				
				<g id="shape16-15" transform="translate(-5.9952E-015,-44.6947)">
					
					<path d="M14.59 267.15 L14.59 267.28 L14.55 267.28 a0.492512 0.492512 0 0 1 -0.445696 0.282934 a0.492512 0.492512
								 0 0 1 -0.445696 -0.282934 L13.64 267.28 L13.64 267.23 a0.492512 0.492512 0 0 1 -0.026472 -0.159295
								 L13.62 254.27 A2.14412 2.14412 -180 0 0 11.5 252.47 A2.14412 2.14412 -180 0 0 9.35 254.61 L9.35
								 271.67 L4.81 266.26 A2.72967 2.72967 -180 0 0 0.97 265.92 A2.72967 2.72967 -180 0 0 0.63 269.77
								 L5.54 275.62 L5.56 275.6 L12.15 283.46 L27.61 283.46 L29.37 273.5 L29.37 259.47 A2.14412 2.14412
								 -180 0 0 27.22 257.33 A2.14412 2.14412 -180 0 0 25.09 259.27 L25.09 267.38 a0.492512 0.492512 0
								 0 1 -0.492512 0.492512 a0.492512 0.492512 0 0 1 -0.492512 -0.492512 L24.1 253.44 A2.14412 2.14412
								 -180 0 0 21.98 251.61 A2.14412 2.14412 -180 0 0 19.84 253.75 L19.84 267.28 L19.78 267.28 a0.492512
								 0.492512 0 0 1 -0.445696 0.282934 a0.492512 0.492512 0 0 1 -0.445696 -0.282934 L18.88 267.28 L18.88
								 267.27 a0.492512 0.492512 0 0 1 -0.039032 -0.192156 L18.84 251.92 A2.14412 2.14412 -180 0 0 16.74
								 250.18 A2.14412 2.14412 -180 0 0 14.6 252.17 L14.6 267.07 a0.492512 0.492512 0 0 1 -0.00560962 0.0741225
								 L14.59 267.15 Z" class="st2"/>
				</g>
				<g id="shape11-17" transform="translate(8.08834,0)">
					
					<path d="M19.01 248.4 A2.85883 2.85883 0 1 1 13.29 248.4 A2.85883 2.85883 0 1 1 19.01 248.4 ZM0 278.96 A4.5001
								 4.5001 -180 0 0 4.5 283.46 L18.37 283.46 A4.5001 4.5001 -180 0 0 22.87 278.96 L22.87 245.37 A4.5001
								 4.5001 -180 0 0 18.37 240.87 L4.5 240.87 A4.5001 4.5001 -180 0 0 -0 245.37 L0 278.96 Z"
							class="st3"/>
				</g>
			</g>
			<g id="group5-19" transform="translate(0,-33.9415)">
				
				<g id="shape4-20" transform="translate(328.503,252.476) rotate(90)">
					
					<path d="M14.59 267.15 L14.59 267.28 L14.55 267.28 a0.492512 0.492512 0 0 1 -0.445696 0.282934 a0.492512 0.492512
								 0 0 1 -0.445696 -0.282934 L13.64 267.28 L13.64 267.23 a0.492512 0.492512 0 0 1 -0.026472 -0.159295
								 L13.62 254.27 A2.14412 2.14412 -180 0 0 11.5 252.47 A2.14412 2.14412 -180 0 0 9.35 254.61 L9.35
								 271.67 L4.81 266.26 A2.72967 2.72967 -180 0 0 0.97 265.92 A2.72967 2.72967 -180 0 0 0.63 269.77
								 L5.54 275.62 L5.56 275.6 L12.15 283.46 L27.61 283.46 L29.37 273.5 L29.37 259.47 A2.14412 2.14412
								 -180 0 0 27.22 257.33 A2.14412 2.14412 -180 0 0 25.09 259.27 L25.09 267.38 a0.492512 0.492512 0
								 0 1 -0.492512 0.492512 a0.492512 0.492512 0 0 1 -0.492512 -0.492512 L24.1 253.44 A2.14412 2.14412
								 -180 0 0 21.98 251.61 A2.14412 2.14412 -180 0 0 19.84 253.75 L19.84 267.28 L19.78 267.28 a0.492512
								 0.492512 0 0 1 -0.445696 0.282934 a0.492512 0.492512 0 0 1 -0.445696 -0.282934 L18.88 267.28 L18.88
								 267.27 a0.492512 0.492512 0 0 1 -0.039032 -0.192156 L18.84 251.92 A2.14412 2.14412 -180 0 0 16.74
								 250.18 A2.14412 2.14412 -180 0 0 14.6 252.17 L14.6 267.07 a0.492512 0.492512 0 0 1 -0.00560962 0.0741225
								 L14.59 267.15 Z" class="st2"/>
				</g>
				<g id="shape3-22">
					
					<path d="M35.08 279.58 A2.85883 2.85883 90 1 1 35.08 273.86 A2.85883 2.85883 90 1 1 35.08 279.58 ZM4.53 260.54
								 A4.5001 4.5001 -89.9 0 0 0.02 265.03 L0 278.9 A4.5001 4.5001 -89.9 0 0 4.49 283.41 L38.09 283.46
								 A4.5001 4.5001 -89.9 0 0 42.6 278.97 L42.62 265.1 A4.5001 4.5001 -89.9 0 0 38.13 260.59 L4.53 260.54
								 Z" class="st3"/>
				</g>
			</g>
		</g>
	</g>
  </g>
</svg>