<?xml version="1.0" encoding="UTF-8" standalone="no"?>
<svg width="21" height="21" viewBox="0 0 21 21" xmlns="http://www.w3.org/2000/svg">
  <style>.st1 {display:none}
		.st2 {fill:#000000;stroke:#000000;stroke-linecap:round;stroke-linejoin:round;stroke-width:0.24}
		.st3 {fill:#000000;stroke:#000000;stroke-linecap:round;stroke-linejoin:round;stroke-width:0.999998}
		.st4 {fill:none;fill-rule:evenodd;font-size:12px;overflow:visible;stroke-linecap:square;stroke-miterlimit:3}</style>
  <g transform="scale(0.074083)">
<g>
		
		
		<g id="shape1-1" transform="translate(0.000280035,-0.0004331)">
			
			<rect x="0" y="-0.035" width="283.5" height="283.5" class="st1"/>
		</g>
		<g id="group2-3" transform="translate(73.5748,-76.4138)">
			
			<g id="shape3-4" transform="translate(23.3496,-70.2833)">
				
				
				<path d="M43.02 261.78 A21.5107 21.5107 -180 1 0 0 261.78 A21.5107 21.5107 -180 1 0 43.02 261.78 ZM5.69 261.78 A15.82
							 15.82 -180 1 0 37.33 261.78 A15.82 15.82 -180 1 0 5.69 261.78 Z" class="st2"/>
			</g>
			<g id="group4-6" transform="translate(71.7073,0)">
				
				<g id="shape5-7" transform="translate(26.2783,-26.3027)">
					
					<ellipse cx="6.49199" cy="277.005" rx="6.49199" ry="6.46017" class="st3"/>
				</g>
				<g id="shape6-9">
					
					<path d="M54.68 238.64 A2.11473 2.11473 0 0 1 54.9 237.66 L57.93 231.55 A2.11473 2.11473 -180 0 0 57.53 229.11
								 L54.34 225.95 A2.11473 2.11473 -180 0 0 51.91 225.56 L45.82 228.59 A2.11473 2.11473 0 0 1 44.88
								 228.81 A1.05737 1.05737 0 0 1 44.39 228.69 A24.8872 24.8872 -180 0 0 40.09 226.91 A1.05737 1.05737
								 0 0 1 39.64 226.64 A2.11473 2.11473 0 0 1 39.15 225.84 L36.97 219.36 A2.11473 2.11473 -180 0 0 34.96
								 217.93 L30.48 217.95 A2.11473 2.11473 -180 0 0 28.48 219.39 L26.32 225.84 A2.11473 2.11473 0 0 1
								 25.77 226.7 A1.05737 1.05737 0 0 1 25.35 226.94 A24.8872 24.8872 -180 0 0 21.11 228.71 A1.05737
								 1.05737 0 0 1 20.64 228.83 A2.11473 2.11473 0 0 1 19.66 228.61 L13.54 225.6 A2.11473 2.11473 -180
								 0 0 11.1 226.01 L7.95 229.21 A2.11473 2.11473 -180 0 0 7.57 231.64 L10.62 237.72 A2.11473 2.11473
								 0 0 1 10.84 238.66 A1.05737 1.05737 0 0 1 10.72 239.15 A24.8872 24.8872 -180 0 0 8.99 243.38 A1.05737
								 1.05737 0 0 1 8.71 243.83 A2.11473 2.11473 0 0 1 7.91 244.31 L1.44 246.49 A2.11473 2.11473 -180
								 0 0 -0 248.51 L0.02 252.99 A2.11473 2.11473 -180 0 0 1.47 254.99 L7.91 257.15 A2.11473 2.11473 0
								 0 1 8.77 257.7 A1.05737 1.05737 0 0 1 9.01 258.11 A24.8872 24.8872 -180 0 0 10.74 262.28 A1.05737
								 1.05737 0 0 1 10.87 262.75 A2.11473 2.11473 0 0 1 10.64 263.73 L7.61 269.84 A2.11473 2.11473 -180
								 0 0 8.01 272.28 L11.2 275.44 A2.11473 2.11473 -180 0 0 13.63 275.83 L19.72 272.8 A2.11473 2.11473
								 0 0 1 20.65 272.58 A1.05737 1.05737 0 0 1 21.15 272.7 A24.8872 24.8872 -180 0 0 25.31 274.44 A1.05737
								 1.05737 0 0 1 25.71 274.66 A2.11473 2.11473 0 0 1 26.29 275.56 L28.46 282.03 A2.11473 2.11473 -180
								 0 0 30.48 283.46 L34.97 283.44 A2.11473 2.11473 -180 0 0 36.96 282 L39.12 275.56 A2.11473 2.11473
								 0 0 1 39.59 274.78 A1.05737 1.05737 0 0 1 40.05 274.49 A24.8872 24.8872 -180 0 0 44.43 272.68 A1.05737
								 1.05737 0 0 1 44.9 272.56 A2.11473 2.11473 0 0 1 45.88 272.78 L52 275.79 A2.11473 2.11473 -180 0
								 0 54.45 275.38 L57.59 272.18 A2.11473 2.11473 -180 0 0 57.97 269.75 L54.92 263.67 A2.11473 2.11473
								 0 0 1 54.7 262.74 A1.05737 1.05737 0 0 1 54.82 262.24 A24.8872 24.8872 -180 0 0 56.52 258.15 A1.05737
								 1.05737 0 0 1 56.74 257.76 A2.11473 2.11473 0 0 1 57.63 257.18 L64.1 255 A2.11473 2.11473 -180 0
								 0 65.54 252.98 L65.52 248.5 A2.11473 2.11473 -180 0 0 64.08 246.51 L57.63 244.34 A2.11473 2.11473
								 0 0 1 56.86 243.88 A1.05737 1.05737 0 0 1 56.57 243.42 A24.8872 24.8872 -180 0 0 54.8 239.12 A1.05737
								 1.05737 0 0 1 54.68 238.64 ZM50.22 250.7 A17.45 17.45 0 0 1 15.32 250.7 A17.45 17.45 0 0 1 50.22
								 250.7 Z" class="st3"/>
				</g>
			</g>
			<g id="shape7-11" transform="translate(-6.95444E-013,-11.2569)">
				
				<path d="M16.39 202.75 A28.4712 28.4712 0 1 1 73.33 202.75 A28.4712 28.4712 0 1 1 16.39 202.75 ZM74.93 248 L66.73
							 234.7 A38.7144 38.7144 -180 1 0 21.34 233.5 L0 274.25 L19.46 270.15 L31.37 283.46 L42.93 241.42 A38.7144
							 38.7144 -180 0 0 43.94 241.46 L58.16 281.91 L68.05 269.16 L63.38 267.59 A2.77639 2.77639 0 0 1 61.48
							 264.97 L61.45 259.08 A2.77639 2.77639 0 0 1 63.35 256.43 L71.84 253.58 A2.77639 2.77639 -180 0 0 72.89
							 252.93 A1.3882 1.3882 -180 0 0 73.25 252.35 A32.6739 32.6739 0 0 1 74.93 248 Z" class="st2"/>
			</g>
		</g>
	</g>
  </g>
</svg>