<?xml version="1.0" encoding="UTF-8" standalone="no"?>
<svg width="21" height="21" viewBox="0 0 21 21" xmlns="http://www.w3.org/2000/svg">
  <style>.st1 {display:none}
		.st2 {fill:#000000;stroke:#000000;stroke-linecap:round;stroke-linejoin:round;stroke-width:0.749998}
		.st3 {fill:#000000;stroke:#000000;stroke-linecap:round;stroke-linejoin:round;stroke-width:0.24}
		.st4 {fill:none;fill-rule:evenodd;font-size:12px;overflow:visible;stroke-linecap:square;stroke-miterlimit:3}</style>
  <g transform="scale(0.074083)">
<g>
		
		
		<g id="shape1-1" transform="translate(0.000280035,-0.0004331)">
			
			<rect x="0" y="-0.035" width="283.5" height="283.5" class="st1"/>
		</g>
		<g id="group2-3" transform="translate(69.6307,-64.6606)">
			
			<g id="shape3-4" transform="translate(-97.4759,87.3405) rotate(-49.5)">
				
				<path d="M5.86 261.52 A2.01432 2.01432 0 0 1 3.85 259.51 A2.01432 2.01432 0 0 1 5.86 257.49 L22.32 257.49 A2.01432
							 2.01432 0 0 1 24.33 259.51 A2.01432 2.01432 0 0 1 22.32 261.52 L5.86 261.52 ZM5.86 235.07 A2.01432 2.01432
							 0 0 1 3.85 233.05 A2.01432 2.01432 0 0 1 5.86 231.04 L22.32 231.04 A2.01432 2.01432 0 0 1 24.33 233.05
							 A2.01432 2.01432 0 0 1 22.32 235.07 L5.86 235.07 ZM5.86 208.61 A2.01432 2.01432 0 0 1 3.85 206.6 A2.01432
							 2.01432 0 0 1 5.86 204.59 L22.32 204.59 A2.01432 2.01432 0 0 1 24.33 206.6 A2.01432 2.01432 0 0 1 22.32
							 208.61 L5.86 208.61 ZM5.86 182.16 A2.01432 2.01432 0 0 1 3.85 180.15 A2.01432 2.01432 0 0 1 5.86 178.13
							 L22.32 178.13 A2.01432 2.01432 0 0 1 24.33 180.15 A2.01432 2.01432 0 0 1 22.32 182.16 L5.86 182.16 ZM5.86
							 155.71 A2.01432 2.01432 0 0 1 3.85 153.69 A2.01432 2.01432 0 0 1 5.86 151.68 L22.32 151.68 A2.01432
							 2.01432 0 0 1 24.33 153.69 A2.01432 2.01432 0 0 1 22.32 155.71 L5.86 155.71 ZM6.49 170.08 A2.64533 2.64533
							 0 0 1 3.85 167.44 L3.85 166.4 A2.64533 2.64533 0 0 1 6.49 163.76 L33.35 163.76 A2.64533 2.64533 0 0
							 1 35.99 166.4 L35.99 167.44 A2.64533 2.64533 0 0 1 33.35 170.08 L6.49 170.08 ZM6.49 196.53 A2.64533
							 2.64533 0 0 1 3.85 193.89 L3.85 192.86 A2.64533 2.64533 0 0 1 6.49 190.21 L33.35 190.21 A2.64533 2.64533
							 0 0 1 35.99 192.86 L35.99 193.89 A2.64533 2.64533 0 0 1 33.35 196.53 L6.49 196.53 ZM6.49 222.99 A2.64533
							 2.64533 0 0 1 3.85 220.34 L3.85 219.31 A2.64533 2.64533 0 0 1 6.49 216.66 L33.35 216.66 A2.64533 2.64533
							 0 0 1 35.99 219.31 L35.99 220.34 A2.64533 2.64533 0 0 1 33.35 222.99 L6.49 222.99 ZM6.49 249.44 A2.64533
							 2.64533 0 0 1 3.85 246.8 L3.85 245.76 A2.64533 2.64533 0 0 1 6.49 243.12 L33.35 243.12 A2.64533 2.64533
							 0 0 1 35.99 245.76 L35.99 246.8 A2.64533 2.64533 0 0 1 33.35 249.44 L6.49 249.44 ZM6.49 275.89 A2.64533
							 2.64533 0 0 1 3.85 273.25 L3.85 272.22 A2.64533 2.64533 0 0 1 6.49 269.57 L33.35 269.57 A2.64533 2.64533
							 0 0 1 35.99 272.22 L35.99 273.25 A2.64533 2.64533 0 0 1 33.35 275.89 L6.49 275.89 ZM6.49 143.63 A2.64533
							 2.64533 0 0 1 3.85 140.98 L3.85 139.95 A2.64533 2.64533 0 0 1 6.49 137.3 L33.35 137.3 A2.64533 2.64533
							 0 0 1 35.99 139.95 L35.99 140.98 A2.64533 2.64533 0 0 1 33.35 143.63 L6.49 143.63 ZM2.65 283.46 L37.2
							 283.46 A2.64533 2.64533 -180 0 0 39.84 280.82 L39.84 132.38 A2.64533 2.64533 -180 0 0 37.2 129.73 L2.65
							 129.73 A2.64533 2.64533 -180 0 0 0 132.38 L0 280.82 A2.64533 2.64533 -180 0 0 2.65 283.46 Z"
						class="st2"/>
			</g>
			<g id="group4-6" transform="translate(186.343,43.5488) rotate(41.1)">
				
				<g id="shape5-7" transform="translate(0.162312,-47.7785)">
					
					<rect x="0" y="204.105" width="39.8564" height="79.3598" class="st2"/>
				</g>
				<g id="shape6-9" transform="translate(40.0046,527.089) rotate(180)">
					
					
					<path d="M39.84 283.46 L19.92 243.62 L0 283.46 L39.84 283.46 Z" class="st3"/>
				</g>
				<g id="shape7-11" transform="translate(1.9984E-013,-135.078)">
					
					<path d="M0 273.77 L0 283.46 L39.84 283.46 L39.84 273.77 L39.84 267.44 A2.64533 2.64533 -180 0 0 37.2 264.8 L2.65
								 264.8 A2.64533 2.64533 -180 0 0 0 267.44 L0 273.77 Z" class="st2"/>
				</g>
			</g>
		</g>
	</g>
  </g>
</svg>