<?xml version="1.0" encoding="UTF-8" standalone="no"?>
<svg width="21" height="21" viewBox="0 0 21 21" xmlns="http://www.w3.org/2000/svg">
  <path
     id="path4"
     class="st2"
     d="m 9.4060664,0.31908195 a 0.09511535,0.09511535 0 0 0 -0.095165,0.0952604 L 9.3104535,4.1857257 a 0.09511549,0.09511549 0 0 1 -0.066516,0.027387 L 8.5637786,4.2126605 a 0.09511549,0.09511549 0 0 1 -0.095165,-0.09526 l 0.00105,-1.5027328 a 0.09511549,0.09511549 0 0 0 -0.095165,-0.09526 l -0.5351134,0.0011 a 0.09511549,0.09511549 0 0 0 -0.095165,0.095022 l -4.501e-4,1.5014231 a 0.09511549,0.09511549 0 0 1 -0.095165,0.09526 l -0.6799402,4.286e-4 a 0.09511549,0.09511549 0 0 1 -0.095165,-0.09526 l -4.553e-4,-1.502738 a 0.09511549,0.09511549 0 0 0 -0.095165,-0.09526 l -0.5112697,0.00107 a 0.09511549,0.09511549 0 0 0 -0.094951,0.095022 l -5.93e-4,1.9540767 H 14.828934 V 2.6146196 a 0.09511549,0.09511549 0 0 0 -0.09516,-0.09526 l -0.512799,0.00107 a 0.09511549,0.09511549 0 0 0 -0.09516,0.095022 l -4.5e-4,1.501423 a 0.09511549,0.09511549 0 0 1 -0.09517,0.09526 l -0.67994,4.525e-4 a 0.09511549,0.09511549 0 0 1 -0.09517,-0.09526 l 0.001,-1.5027567 a 0.09511549,0.09511549 0 0 0 -0.09517,-0.09526 l -0.535113,0.0011 a 0.09511549,0.09511549 0 0 0 -0.09516,0.095022 l -4.48e-4,1.5014231 a 0.09511549,0.09511549 0 0 1 -0.09495,0.09526 l -0.680112,4.26e-4 a 0.09511549,0.09511549 0 0 1 -0.06652,-0.027149 l -5.93e-4,-3.77074035 a 0.09511566,0.09511566 0 0 0 -0.09516,-0.0952604 z M 10.820421,2.3486288 a 0.09511566,0.09511566 0 0 1 0.09516,0.09526 l 4.48e-4,1.6449328 a 0.09511549,0.09511549 0 0 1 -0.09516,0.095022 l -0.641222,4.293e-4 a 0.09511549,0.09511549 0 0 1 -0.09516,-0.095022 L 10.08404,2.444318 A 0.09511549,0.09511549 0 0 1 10.1792,2.349296 Z m -4.6493241,2.667458 v 0.2778508 a 0.09511549,0.09511549 0 0 0 0.095165,0.095022 l 0.4917985,-9.049e-4 a 0.09511549,0.09511549 0 0 1 0.095165,0.095022 l 4.477e-4,0.9429113 a 0.09511549,0.09511549 0 0 0 0.095165,0.09526 l 0.3961952,4.287e-4 a 0.09511549,0.09511549 0 0 1 0.095165,0.09526 l 4.478e-4,13.9689613 a 0.09511549,0.09511549 0 0 0 0.095165,0.09502 l 5.9280429,-9.05e-4 a 0.09511549,0.09511549 0 0 0 0.09516,-0.09526 l -10e-4,-13.9674373 a 0.09511549,0.09511549 0 0 1 0.09516,-0.09526 l 0.397727,-4.525e-4 a 0.09511549,0.09511549 0 0 0 0.09516,-0.09526 l 4.5e-4,-0.9426731 a 0.09511549,0.09511549 0 0 1 0.09495,-0.09526 l 0.492015,-4.525e-4 a 0.09511549,0.09511549 0 0 0 0.09495,-0.09526 l 4.48e-4,-0.2767553 z m 4.0883951,1.6795124 a 1.3851996,1.3851996 0 0 1 1.625691,1.3642719 1.3851996,1.3851996 0 0 1 -2.7703015,0 1.3851996,1.3851996 0 0 1 1.1446105,-1.3642719 z M 9.81998,7.4389876 a 0.15390276,0.15390276 0 0 0 -0.1091685,0.045249 0.15390276,0.15390276 0 0 0 0,0.2164793 l 0.3285935,0.3286008 0.339096,0.3406274 0.0031,-0.00238 v 0.00476 h 0.480854 0.279153 A 0.15390276,0.15390276 0 0 0 11.295406,8.2184796 0.15390276,0.15390276 0 0 0 11.141608,8.0646341 H 10.508484 L 9.9289579,7.4851174 A 0.15390276,0.15390276 0 0 0 9.8200038,7.4398687 Z"
     style="fill:#000000;fill-opacity:1;stroke:none;stroke-width:0.112011;stroke-linecap:round;stroke-linejoin:round" />
</svg>