<?xml version="1.0" encoding="UTF-8" standalone="no"?>
<svg width="21" height="21" viewBox="0 0 21 21" xmlns="http://www.w3.org/2000/svg">
  <path
     id="path4"
     class="st2"
     d="M 2.0725469,0.45355608 A 0.66405612,0.66405612 0 0 0 1.4085049,1.1175981 V 8.545914 a 0.66405612,0.66405612 0 0 0 0.664042,0.66405 H 9.5304811 A 0.66405612,0.66405612 0 0 0 10.194524,8.545914 V 1.1175981 A 0.66405612,0.66405612 0 0 0 9.5304811,0.45355608 Z M 12.688572,1.1063571 a 0.56686407,0.56686407 0 0 0 -0.622539,0.565258 v 0.510568 a 0.56686407,0.56686407 0 0 0 0.504517,0.563744 4.2804991,4.2804991 0 0 1 3.792517,3.854337 0.56686407,0.56686407 0 0 0 0.0147,0.0886 H 15.40094 A 0.22674652,0.22674652 0 0 0 15.222393,7.054824 l 1.758889,2.24006 a 0.22674652,0.22674652 0 0 0 0.357096,0 L 19.09597,7.054824 A 0.22674652,0.22674652 0 0 0 18.917423,6.6888641 h -0.931215 a 0.56686407,0.56686407 0 0 0 0.01621,-0.19044 5.9230718,5.9230718 0 0 0 -5.31385,-5.392097 z M 4.1829119,11.488064 a 0.22674652,0.22674652 0 0 0 -0.111106,0.0767 l -1.757593,2.24006 a 0.22674652,0.22674652 0 0 0 0.178548,0.36596 h 0.931215 a 0.56686407,0.56686407 0 0 0 -0.01621,0.19043 5.9230718,5.9230718 0 0 0 5.3138482,5.39189 0.56686407,0.56686407 0 0 0 0.622756,-0.56504 v -0.51057 a 0.56686407,0.56686407 0 0 0 -0.504732,-0.56375 4.2804991,4.2804991 0 0 1 -3.7925192,-3.85434 0.56686407,0.56686407 0 0 0 -0.0147,-0.0886 h 0.976825 a 0.22674652,0.22674652 0 0 0 0.178548,-0.36596 l -1.758892,-2.24006 a 0.22674652,0.22674652 0 0 0 -0.245989,-0.0767 z m 11.3215701,1.10155 a 0.66404135,0.66404135 0 0 0 -0.489385,0.35883 l -3.318697,6.63739 a 0.66404135,0.66404135 0 0 0 0.593142,0.96061 h 6.637393 a 0.66404135,0.66404135 0 0 0 0.594655,-0.96061 l -3.318697,-6.63739 a 0.66404135,0.66404135 0 0 0 -0.698411,-0.35883 z"
     style="fill:#000000;fill-opacity:1;stroke:none;stroke-width:0.0354156;stroke-linecap:round;stroke-linejoin:round" />
</svg>