<?xml version="1.0" encoding="UTF-8"?>
<svg width="21" height="21" version="1.1" viewBox="0 0 21 21" xmlns="http://www.w3.org/2000/svg">
 <g transform="translate(.13013)">
  <path class="st2" d="m12.405 1.1747a0.56686 0.56686 0 0 0-0.54297 0.56641v0.51172a0.56686 0.56686 0 0 0 0.50391 0.5625 4.2805 4.2805 0 0 1 3.793 3.8555 0.56686 0.56686 0 0 0 0.01563 0.087891h-0.97852a0.22675 0.22675 0 0 0-0.17774 0.36523l1.7598 2.2402a0.22675 0.22675 0 0 0 0.35547 0l1.7578-2.2402a0.22675 0.22675 0 0 0-0.17773-0.36523h-0.93164a0.56686 0.56686 0 0 0 0.01563-0.18945 5.9231 5.9231 0 0 0-5.3125-5.3926 0.56686 0.56686 0 0 0-0.08008-0.00195zm-8.3652 10.373a0.22675 0.22675 0 0 0-0.060547 0.0098 0.22675 0.22675 0 0 0-0.11133 0.07813l-1.7578 2.2383a0.22675 0.22675 0 0 0 0.17969 0.36719h0.92969a0.56686 0.56686 0 0 0-0.015626 0.18945 5.9231 5.9231 0 0 0 5.3145 5.3926 0.56686 0.56686 0 0 0 0.62305-0.56445v-0.51172a0.56686 0.56686 0 0 0-0.50586-0.5625 4.2805 4.2805 0 0 1-3.793-3.8555 0.56686 0.56686 0 0 0-0.013672-0.08789h0.97656a0.22675 0.22675 0 0 0 0.17773-0.36719l-1.7578-2.2383a0.22675 0.22675 0 0 0-0.18555-0.08789z"/>
  <path d="m2.0297 1.4052 7.2862-0.026022-0.078067 7.2602-7.2342 0.05204z" fill="none" stroke="#000" stroke-linecap="round" stroke-linejoin="round" stroke-width="1.25"/>
  <path d="m12.309 19.621 3.2007-6.5316 3.2268 6.5056z" fill="none" stroke="#000" stroke-linecap="round" stroke-linejoin="round" stroke-width="1.25"/>
 </g>
</svg>
