<?xml version="1.0" encoding="UTF-8" standalone="no"?>
<svg width="21" height="21" viewBox="0 0 21 21" xmlns="http://www.w3.org/2000/svg">
  <path
     id="turtle"
     style="fill:#000000;fill-opacity:1;stroke:none;stroke-width:0.0339054;stroke-linecap:round;stroke-linejoin:round"
     class="st2"
     d="M 10.244141 0.73046875 A 2.5079683 3.0039195 0 0 0 8 4.4042969 A 7.1012035 7.1012035 0 0 1 12.878906 4.4414062 A 2.5079683 3.0039195 0 0 0 10.244141 0.73046875 z M 10.535156 5.4023438 A 5.6922363 5.6922363 0 0 0 8.1132812 5.875 L 9.6777344 8.5839844 L 11.4375 8.5839844 L 12.929688 6 A 5.6922363 5.6922363 0 0 0 10.535156 5.4023438 z M 4.6875 5.7988281 A 2.2543418 2.2543418 0 0 0 2.5527344 8.0488281 A 2.2543418 2.2543418 0 0 0 3.4023438 9.8105469 A 7.1012035 7.1012035 0 0 1 5.5292969 5.9140625 A 2.2543418 2.2543418 0 0 0 4.6875 5.7988281 z M 16.166016 5.9082031 A 2.2543418 2.2543418 0 0 0 15.392578 6.0546875 A 7.1012035 7.1012035 0 0 1 17.412109 10.056641 A 2.2543418 2.2543418 0 0 0 18.447266 8.1621094 A 2.2543418 2.2543418 0 0 0 16.166016 5.9082031 z M 7.1289062 6.4238281 A 5.6922363 5.6922363 0 0 0 4.7109375 10.669922 L 7.8242188 10.669922 L 8.7011719 9.1484375 L 7.1289062 6.4238281 z M 13.884766 6.6015625 L 12.414062 9.1484375 L 13.291016 10.669922 L 16.064453 10.669922 A 5.6922363 5.6922363 0 0 0 13.884766 6.6015625 z M 9.6992188 9.75 L 8.8398438 11.242188 L 9.6972656 12.726562 L 11.417969 12.726562 L 12.28125 11.234375 L 11.423828 9.75 L 9.6992188 9.75 z M 4.7402344 11.796875 A 5.6922363 5.6922363 0 0 0 7.2480469 15.839844 L 8.703125 13.322266 L 7.8222656 11.796875 L 4.7402344 11.796875 z M 13.302734 11.796875 L 12.417969 13.330078 L 13.769531 15.671875 A 5.6922363 5.6922363 0 0 0 16.035156 11.796875 L 13.302734 11.796875 z M 17.28125 12.792969 A 7.1012035 7.1012035 0 0 1 14.869141 16.601562 A 2.2543418 2.2543418 0 0 0 18.333984 14.699219 A 2.2543418 2.2543418 0 0 0 17.28125 12.792969 z M 3.5078125 12.857422 A 2.2543418 2.2543418 0 0 0 2.5527344 14.701172 A 2.2543418 2.2543418 0 0 0 5.9550781 16.640625 A 7.1012035 7.1012035 0 0 1 3.5078125 12.857422 z M 9.6738281 13.894531 L 8.2460938 16.365234 A 5.6922363 5.6922363 0 0 0 12.800781 16.248047 L 11.441406 13.894531 L 9.6738281 13.894531 z M 11.8125 18.048828 A 7.1012035 7.1012035 0 0 1 9.0722656 18.070312 A 0.33815268 0.33815268 0 0 0 9.109375 18.306641 L 10.150391 20.109375 A 0.33815268 0.33815268 0 0 0 10.738281 20.109375 L 11.779297 18.306641 A 0.33815268 0.33815268 0 0 0 11.8125 18.048828 z " />
</svg>