<?xml version="1.0" encoding="UTF-8" standalone="no"?>
<svg width="21" height="21" viewBox="0 0 21 21" xmlns="http://www.w3.org/2000/svg">
  <path
     id="path4"
     class="st2"
     d="M 10.5,0.36523504 A 5.0063816,5.0063816 0 0 0 5.4937467,5.4151897 V 8.1462031 A 2.1270933,2.1270933 0 0 0 3.4280588,10.265825 v 8.24271 a 2.1270933,2.1270933 0 0 0 2.1275083,2.12623 h 9.8901459 a 2.1270933,2.1270933 0 0 0 2.126228,-2.12623 v -8.24271 A 2.1270933,2.1270933 0 0 0 15.445713,8.138103 H 7.3784456 V 5.4122064 a 3.1223218,3.1223218 0 1 1 6.2446004,0.00299 h 1.883207 A 5.0063816,5.0063816 0 0 0 10.5,0.36523504 Z m 0,11.49622196 a 1.3817964,1.3817964 0 0 1 1.381816,1.381814 1.3817775,1.3817775 0 0 1 -0.508003,1.069723 0.87720425,0.87720425 0 0 1 0.003,0.07696 v 1.379683 a 0.87720425,0.87720425 0 0 1 -0.876164,0.877649 0.87720425,0.87720425 0 0 1 -0.8774389,-0.877651 v -1.379683 a 0.87720425,0.87720425 0 0 1 0.00299,-0.07696 1.3817775,1.3817775 0 0 1 -0.5080019,-1.069723 1.3817964,1.3817964 0 0 1 1.3818168,-1.381814 z"
     style="fill:#000000;fill-opacity:1;stroke:none;stroke-width:0.0349269;stroke-linecap:round;stroke-linejoin:round" />
</svg>