<?xml version="1.0" encoding="UTF-8" standalone="no"?>
<svg width="21" height="21" viewBox="0 0 21 21" xmlns="http://www.w3.org/2000/svg">
  <path
     d="m 15.34958,9.5789671 a 0.48157479,0.48157479 0 0 1 -0.360405,0.8008989 h -2.080956 a 0.48157479,0.48157479 0 0 0 -0.48192,0.48192 v 5.538627 a 0.48157479,0.48157479 0 0 1 -0.48192,0.480539 H 9.055621 A 0.48157479,0.48157479 0 0 1 8.573701,16.400413 V 10.861786 A 0.48157479,0.48157479 0 0 0 8.0917809,10.379866 H 6.0108255 A 0.48157479,0.48157479 0 0 1 5.6504212,9.5789671 L 10.139596,4.5250204 a 0.48157479,0.48157479 0 0 1 0.720809,0 z M 2.3128834,20.131496 H 18.687119 a 1.4447243,1.4447243 0 0 0 1.444377,-1.44438 V 2.3142642 A 1.4447243,1.4447243 0 0 0 18.687119,0.86850408 H 2.3128834 A 1.4447243,1.4447243 0 0 0 0.86850426,2.3142642 V 18.687116 a 1.4447243,1.4447243 0 0 0 1.44437914,1.44438 z"
     class="st2"
     id="up"
     style="fill:#000000;fill-opacity:1;stroke:none;stroke-width:0.0331406;stroke-linecap:round;stroke-linejoin:round" />
</svg>