<?xml version="1.0" encoding="UTF-8" standalone="no"?>
<svg width="21" height="21" viewBox="0 0 21 21" xmlns="http://www.w3.org/2000/svg">
  <path
     id="path4"
     class="st2"
     d="M 15.280547,2.1663127 A 5.2819368,2.4032736 0 0 0 9.9987509,4.547326 5.2819368,2.4032736 0 0 0 10.123043,5.0658395 L 7.0990142,10.303904 a 0.53623303,0.53623303 0 0 0 -0.067171,0.139986 0.58785878,0.58785878 0 0 0 0.067171,0.419958 l 2.9825978,5.165246 a 5.2819368,2.4032736 0 0 0 -0.082866,0.424351 5.2819368,2.4032736 0 0 0 10.5633878,0 5.2819368,2.4032736 0 0 0 -10.157659,-0.924241 L 7.6947344,10.83539 H 10.050221 A 5.2819368,2.4032736 0 0 0 20.562135,10.499549 5.2819368,2.4032736 0 0 0 10.015909,10.303904 H 7.7104316 L 10.464323,5.5343423 A 5.2819368,2.4032736 0 0 0 20.562135,4.547326 5.2819368,2.4032736 0 0 0 15.280547,2.1663127 Z M 3.2325592,5.8318902 A 1.7234296,1.7234296 0 0 0 1.5092066,7.5552428 1.723401,1.723401 0 0 0 2.8889772,9.2438616 V 10.227947 H 0.65359827 A 0.21542513,0.21542513 0 0 0 0.437865,10.442216 v 0.258628 a 0.21542513,0.21542513 0 0 0 0.21573327,0.215734 H 2.8889772 v 2.103971 l -0.00414,0.0044 -1.769806,2.109831 a 0.21542513,0.21542513 0 0 0 0.025531,0.302779 l 0.1985751,0.165724 a 0.21542513,0.21542513 0 0 0 0.3029894,-0.02574 l 1.5913181,-1.895562 1.5898542,1.895562 a 0.21542513,0.21542513 0 0 0 0.3042452,0.02574 l 0.1971091,-0.165724 a 0.21542513,0.21542513 0 0 0 0.026991,-0.302779 l -1.7712719,-2.109831 -0.00276,-0.0044 V 10.916578 H 5.8129851 A 0.21542513,0.21542513 0 0 0 6.0272534,10.700844 V 10.442216 A 0.21542513,0.21542513 0 0 0 5.8129851,10.227947 H 3.5776071 V 9.2438616 A 1.723401,1.723401 0 0 0 4.9561219,7.5552428 1.7234296,1.7234296 0 0 0 3.2325592,5.8318902 Z"
     style="fill:#000000;fill-opacity:1;stroke:none;stroke-width:0.0342829;stroke-linecap:round;stroke-linejoin:round" />
</svg>