<?xml version="1.0" encoding="UTF-8" standalone="no"?>
<svg width="21" height="21" viewBox="0 0 21 21" xmlns="http://www.w3.org/2000/svg">
  <path
     id="path11"
     class="st2"
     d="m 15.435052,0.39500237 a 2.654435,2.654435 0 0 0 -2.65452,2.65430953 2.654435,2.654435 0 0 0 2.65452,2.6545138 2.654435,2.654435 0 0 0 2.654303,-2.6545138 2.654435,2.654435 0 0 0 -2.654303,-2.65430953 z M 5.5648597,3.1229387 A 2.654435,2.654435 0 0 0 2.9103412,5.7772482 2.654435,2.654435 0 0 0 5.5648597,8.431762 2.654435,2.654435 0 0 0 8.2191645,5.7772482 2.654435,2.654435 0 0 0 5.5648597,3.1229387 Z m 7.8557973,3.4777538 a 20.011464,20.011464 0 0 1 -0.822158,1.1443674 5.1560548,5.1560548 0 0 0 -0.082,0.1305075 3.1555824,3.1555824 0 0 1 -0.501237,5.0293336 10.995453,11.035563 0 0 0 7.15428,-0.108356 l 0.0219,-0.0072 A 11.703241,11.703241 0 0 0 19.190042,11.18903 12.177557,12.177557 0 0 0 18.822325,8.8927868 5.1560548,5.1560548 0 0 0 18.272789,7.7452 20.011464,20.011464 0 0 1 17.449127,6.6008326 a 4.082701,4.082701 0 0 1 -4.02836,0 z M 10.38597,7.5475687 A 2.654435,2.654435 0 0 0 7.7316653,10.202083 2.654435,2.654435 0 0 0 10.38597,12.856393 2.654435,2.654435 0 0 0 13.040489,10.202083 2.654435,2.654435 0 0 0 10.38597,7.5475687 Z M 3.5508947,9.3275478 a 20.011464,20.011464 0 0 1 -0.8221589,1.1443682 5.1560548,5.1560548 0 0 0 -0.5525415,1.147586 12.177557,12.177557 0 0 0 -0.3662151,2.296243 11.703241,11.703241 0 0 0 -0.00144,1.600315 l 0.021899,0.0072 a 10.995453,11.035563 0 0 0 4.5882006,0.622741 12.177557,12.177557 0 0 1 0.1672224,-0.739943 5.1560548,5.1560548 0 0 1 0.5508236,-1.14737 20.011464,20.011464 0 0 0 0.8236618,-1.144584 4.082701,4.082701 0 0 0 1.3349871,0.474832 A 12.177557,12.177557 0 0 0 9.2470301,13.143295 3.1555824,3.1555824 0 0 1 7.3169976,9.4637614 4.082701,4.082701 0 0 1 3.5509548,9.3274517 Z m 4.8211091,4.4256992 a 20.011464,20.011464 0 0 1 -0.8219426,1.144584 5.1560548,5.1560548 0 0 0 -0.5525427,1.147371 12.177557,12.177557 0 0 0 -0.3664289,2.296254 11.703241,11.703241 0 0 0 -0.00156,1.600303 l 0.022116,0.0072 a 10.995453,11.035563 0 0 0 7.4691884,0 l 0.02061,-0.0072 a 11.703241,11.703241 0 0 0 0,-1.600303 12.177557,12.177557 0 0 0 -0.367933,-2.296254 5.1560548,5.1560548 0 0 0 -0.550823,-1.147371 20.011464,20.011464 0 0 1 -0.822159,-1.144584 4.082701,4.082701 0 0 1 -4.0285751,0 z"
     style="fill:#000000;fill-opacity:1;stroke:none;stroke-width:0.109907;stroke-linecap:round;stroke-linejoin:round" />
</svg>