<?xml version="1.0" encoding="UTF-8"?>
<svg width="21" height="21" version="1.1" viewBox="0 0 21 21" xmlns="http://www.w3.org/2000/svg">
 <g transform="translate(-.11238 -.0040148)" fill="none" stroke="#000" stroke-linecap="round" stroke-linejoin="round" stroke-width="1.25">
  <circle cx="6.2048" cy="4.4457" r="2.5607"/>
  <path d="m6.2754 8.8496a4.2679 4.2679 0 0 0-4.3379 4.2676h5.0039a4.6059 4.1375 0 0 1-1.0469-2.6172 4.6059 4.1375 0 0 1 0.38086-1.6504z"/>
  <path d="m14.949 8.8492a4.2679 4.2679 0 0 1 4.3379 4.2676h-5.0039a4.6059 4.1375 0 0 0 1.0469-2.6172 4.6059 4.1375 0 0 0-0.38086-1.6504z"/>
  <circle cx="10.577" cy="10.556" r="2.5607"/>
  <path d="m6.3089 19.123a4.2679 4.2679 0 0 1 8.5358 0"/>
  <circle cx="15.21" cy="4.4457" r="2.5607"/>
 </g>
</svg>
