<?xml version="1.0" encoding="UTF-8" standalone="no"?>
<svg width="21" height="21" viewBox="0 0 21 21" xmlns="http://www.w3.org/2000/svg">
  <path
     d="M 9.4161224,12.419057 A 1.5801479,1.5801479 0 0 1 11.651508,14.652995 1.5801479,1.5801479 0 1 1 9.4161224,12.419057 Z M 6.34625,9.3477395 A 1.5801479,1.5801479 0 1 1 8.5801945,11.583123 1.5801479,1.5801479 0 1 1 6.34625,9.3477395 Z m 6.072005,0.069199 A 1.5801479,1.5801479 0 0 1 14.653641,11.650886 1.5801479,1.5801479 0 1 1 12.418255,9.4169386 Z M 9.3483839,6.3470666 A 1.5799318,1.5799318 0 0 1 11.582328,8.5810133 1.5799318,1.5799318 0 0 1 9.3483839,6.3470666 Z M 3.8341445,10.134686 3.1495487,10.132086 A 0.25942578,0.25942578 0 0 1 2.891564,9.8712067 L 2.893044,9.4128824 A 0.42454307,0.42454307 0 0 0 2.4693155,8.9862765 H 2.405896 A 0.42454307,0.42454307 0 0 0 1.9807255,9.4085564 l -0.00722,2.1229676 a 0.42454307,0.42454307 0 0 0 0.4237283,0.425178 l 0.063419,0.0017 a 0.42454307,0.42454307 0 0 0 0.4251655,-0.423683 l 0.00148,-0.459761 a 0.25942578,0.25942578 0 0 1 0.2594261,-0.257986 l 0.6860372,0.0026 a 0.25942578,0.25942578 0 0 1 0.2579844,0.236376 6.4339321,6.4339321 0 0 0 0.2579838,1.330276 0.25942578,0.25942578 0 0 1 -0.148449,0.315635 L 2.1392872,13.568058 A 0.25942578,0.25942578 0 0 1 1.8005928,13.429694 L 1.5656684,12.871932 A 0.5106926,0.5106926 0 0 0 0.89548527,12.598095 l -0.0691817,0.02881 a 0.5106926,0.5106926 0 0 0 -0.2709558,0.668741 l 0.98870093,2.35357 a 0.5106926,0.5106926 0 0 0 0.6687418,0.273837 l 0.069182,-0.03029 A 0.5106926,0.5106926 0 0 0 2.5543694,15.225459 L 2.3208865,14.66626 a 0.25942578,0.25942578 0 0 1 0.1383599,-0.340137 l 2.059553,-0.866199 a 0.25942578,0.25942578 0 0 1 0.3300466,0.115306 6.4339321,6.4339321 0 0 0 0.7105389,1.046351 0.25942578,0.25942578 0 0 1 -0.01585,0.350217 L 5.060715,15.456061 a 0.25942578,0.25942578 0 0 1 -0.3675203,0 L 4.3689124,15.130338 a 0.42454307,0.42454307 0 0 0 -0.6010032,0 l -0.044679,0.04613 a 0.42454307,0.42454307 0 0 0 0,0.59956 l 1.500346,1.50035 a 0.42454307,0.42454307 0 0 0 0.6010024,0 l 0.044679,-0.04465 a 0.42454307,0.42454307 0 0 0 0,-0.599569 L 5.5435344,16.306436 a 0.25942578,0.25942578 0 0 1 0.00148,-0.366077 l 0.4828208,-0.484263 a 0.25942578,0.25942578 0 0 1 0.3502248,-0.01584 6.4339321,6.4339321 0 0 0 1.1256195,0.753773 0.25942578,0.25942578 0 0 1 0.1196239,0.325724 L 6.7859341,18.592278 A 0.25942578,0.25942578 0 0 1 6.4472398,18.736403 L 5.8865913,18.508682 a 0.5106926,0.5106926 0 0 0 -0.6644175,0.283925 l -0.028829,0.0692 a 0.5106926,0.5106926 0 0 0 0.2824855,0.664424 l 2.3679809,0.956993 a 0.5106926,0.5106926 0 0 0 0.6644183,-0.282489 l 0.027384,-0.0692 A 0.5106926,0.5106926 0 0 0 8.2545687,19.465675 L 7.6924797,19.239398 A 0.25942578,0.25942578 0 0 1 7.5483541,18.900705 l 0.8373691,-2.072526 a 0.25942578,0.25942578 0 0 1 0.3127521,-0.151332 6.4339321,6.4339321 0 0 0 1.2005654,0.229166 0.25942578,0.25942578 0 0 1 0.2349243,0.257978 l -0.0015,0.686037 a 0.25942578,0.25942578 0 0 1 -0.2608673,0.257987 l -0.4597605,-0.0017 A 0.42454307,0.42454307 0 0 0 8.985226,18.530039 v 0.06198 a 0.42454307,0.42454307 0 0 0 0.4237292,0.426615 l 2.1229678,0.007 a 0.42454307,0.42454307 0 0 0 0.426611,-0.423733 v -0.06198 a 0.42454307,0.42454307 0 0 0 -0.423728,-0.42517 l -0.461201,-0.0026 a 0.25942578,0.25942578 0 0 1 -0.257984,-0.260868 l 0.0029,-0.684592 a 0.25942578,0.25942578 0 0 1 0.237806,-0.25655 6.4339321,6.4339321 0 0 0 1.328837,-0.257978 0.25942578,0.25942578 0 0 1 0.315635,0.145562 l 0.866193,2.060993 a 0.25942578,0.25942578 0 0 1 -0.13836,0.340137 l -0.559206,0.234929 a 0.5106926,0.5106926 0 0 0 -0.272398,0.668742 l 0.02883,0.0692 a 0.5106926,0.5106926 0 0 0 0.668742,0.273846 l 2.355009,-0.990148 a 0.5106926,0.5106926 0 0 0 0.272398,-0.668742 l -0.02883,-0.0692 a 0.5106926,0.5106926 0 0 0 -0.668742,-0.273837 l -0.559207,0.236365 a 0.25942578,0.25942578 0 0 1 -0.338701,-0.138444 l -0.867636,-2.062437 a 0.25942578,0.25942578 0 0 1 0.115301,-0.327168 6.4339321,6.4339321 0 0 0 1.047792,-0.711976 0.25942578,0.25942578 0 0 1 0.350224,0.01584 l 0.48282,0.484264 a 0.25942578,0.25942578 0 0 1 0.0015,0.366076 l -0.325724,0.325723 a 0.42454307,0.42454307 0 0 0 0,0.601005 l 0.04468,0.04326 a 0.42454307,0.42454307 0 0 0 0.599562,0 l 1.501787,-1.500349 a 0.42454307,0.42454307 0 0 0 0,-0.601005 l -0.04468,-0.04326 a 0.42454307,0.42454307 0 0 0 -0.601003,-0.0017 l -0.324282,0.327168 a 0.25942578,0.25942578 0 0 1 -0.36752,-0.0017 l -0.484261,-0.484255 a 0.25942578,0.25942578 0 0 1 -0.01585,-0.350225 6.4339321,6.4339321 0 0 0 0.755217,-1.125621 0.25942578,0.25942578 0 0 1 0.325723,-0.119623 l 2.072524,0.837369 a 0.25942578,0.25942578 0 0 1 0.144125,0.337248 l -0.226276,0.562088 a 0.5106926,0.5106926 0 0 0 0.281044,0.665861 l 0.07063,0.02742 a 0.5106926,0.5106926 0 0 0 0.664418,-0.28248 l 0.956993,-2.366539 a 0.5106926,0.5106926 0 0 0 -0.282486,-0.665861 l -0.07062,-0.02881 a 0.5106926,0.5106926 0 0 0 -0.664418,0.283925 l -0.226277,0.560652 a 0.25942578,0.25942578 0 0 1 -0.338695,0.144126 l -2.072523,-0.83737 a 0.25942578,0.25942578 0 0 1 -0.151332,-0.31419 6.4339321,6.4339321 0 0 0 0.227718,-1.199129 0.25942578,0.25942578 0 0 1 0.260867,-0.23492 l 0.683155,0.0026 a 0.25942578,0.25942578 0 0 1 0.259425,0.259423 l -0.0029,0.45976 a 0.42454307,0.42454307 0 0 0 0.423729,0.42517 h 0.06197 a 0.42454307,0.42454307 0 0 0 0.428053,-0.422289 l 0.0072,-2.1215225 a 0.42454307,0.42454307 0 0 0 -0.42373,-0.4266146 h -0.06342 A 0.42454307,0.42454307 0 0 0 18.112775,9.4637155 V 9.923476 a 0.25942578,0.25942578 0 0 1 -0.260868,0.259423 l -0.684595,-0.0026 a 0.25942578,0.25942578 0 0 1 -0.257985,-0.2363656 6.4339321,6.4339321 0 0 0 -0.257984,-1.3317216 0.25942578,0.25942578 0 0 1 0.147008,-0.31419 l 2.062435,-0.8661896 a 0.25942578,0.25942578 0 0 1 0.338694,0.1383546 l 0.233484,0.5577708 a 0.5106926,0.5106926 0 0 0 0.668742,0.2738367 l 0.07062,-0.028811 A 0.5106926,0.5106926 0 0 0 20.444721,7.7027944 L 19.45602,5.3492244 A 0.5106926,0.5106926 0 0 0 18.787278,5.0768236 l -0.06918,0.028811 a 0.5106926,0.5106926 0 0 0 -0.27384,0.668742 l 0.234924,0.5577621 a 0.25942578,0.25942578 0 0 1 -0.13836,0.3401375 L 16.478387,7.5384748 A 0.25942578,0.25942578 0 0 1 16.151223,7.4231691 6.4339321,6.4339321 0 0 0 15.439243,6.3768179 0.25942578,0.25942578 0 0 1 15.455093,6.028037 l 0.484261,-0.4856993 a 0.25942578,0.25942578 0 0 1 0.366079,0.00174 l 0.325723,0.3257231 a 0.42454307,0.42454307 0 0 0 0.599562,0 l 0.04468,-0.044653 a 0.42454307,0.42454307 0 0 0 0.0015,-0.601005 L 15.77509,3.722358 a 0.42454307,0.42454307 0 0 0 -0.601002,0 l -0.04323,0.044653 a 0.42454307,0.42454307 0 0 0 0,0.601005 l 0.324281,0.3257232 a 0.25942578,0.25942578 0 0 1 0,0.3660763 L 14.972315,5.5440786 A 0.25942578,0.25942578 0 0 1 14.622091,5.5599204 6.4339321,6.4339321 0 0 0 13.49503,4.8061464 0.25942578,0.25942578 0 0 1 13.375406,4.478987 l 0.837368,-2.0725268 a 0.25942578,0.25942578 0 0 1 0.337254,-0.1441256 l 0.56353,0.2277181 a 0.5106926,0.5106926 0 0 0 0.664419,-0.2824855 l 0.02738,-0.070618 A 0.5106926,0.5106926 0 0 0 15.524316,1.4739715 L 13.156335,0.51697936 a 0.5106926,0.5106926 0 0 0 -0.664418,0.28104407 l -0.02883,0.0706179 a 0.5106926,0.5106926 0 0 0 0.282486,0.66441837 l 0.560648,0.2277181 a 0.25942578,0.25942578 0 0 1 0.144126,0.3372538 L 12.612979,4.1705592 A 0.25942578,0.25942578 0 0 1 12.298785,4.3218833 6.4339321,6.4339321 0 0 0 11.099662,4.0927255 0.25942578,0.25942578 0 0 1 10.866179,3.8347391 l 0.0015,-0.6845923 a 0.25942578,0.25942578 0 0 1 0.259426,-0.2594226 l 0.461202,0.00174 a 0.42454307,0.42454307 0 0 0 0.425169,-0.4222859 l 0.0015,-0.061975 A 0.42454307,0.42454307 0 0 0 11.591207,1.9815934 L 9.4682384,1.9743689 A 0.42454307,0.42454307 0 0 0 9.0416273,2.3966557 v 0.063419 a 0.42454307,0.42454307 0 0 0 0.4237292,0.4251654 l 0.458319,0.00261 a 0.25942578,0.25942578 0 0 1 0.2594255,0.2594314 l -0.0015,0.6845923 A 0.25942578,0.25942578 0 0 1 9.9438147,4.0884169 6.4339321,6.4339321 0 0 0 8.6135362,4.3492844 0.25942578,0.25942578 0 0 1 8.2993427,4.2022777 L 7.4331493,2.1398478 A 0.25942578,0.25942578 0 0 1 7.5700686,1.7997112 L 8.1292748,1.5647868 A 0.5106926,0.5106926 0 0 0 8.401672,0.89604503 L 8.3728434,0.82686335 A 0.5106926,0.5106926 0 0 0 7.7041016,0.55446612 L 5.3490919,1.5446077 A 0.5106926,0.5106926 0 0 0 5.0781361,2.2133495 l 0.027384,0.069182 A 0.5106926,0.5106926 0 0 0 5.775703,2.5563689 L 6.3334686,2.320004 A 0.25942578,0.25942578 0 0 1 6.6736044,2.4583639 L 7.5397986,4.5193575 A 0.25942578,0.25942578 0 0 1 7.4244981,4.8479618 6.4339321,6.4339321 0 0 0 6.3781478,5.5599378 0.25942578,0.25942578 0 0 1 6.0279229,5.544096 L 5.5436615,5.0598329 a 0.25942578,0.25942578 0 0 1 0,-0.3675212 L 5.8693847,4.3665885 a 0.42454307,0.42454307 0 0 0 0,-0.5995601 l -0.044679,-0.044653 a 0.42454307,0.42454307 0 0 0 -0.5995619,0 L 3.7233571,5.2241611 a 0.42454307,0.42454307 0 0 0 0,0.5995688 l 0.043234,0.044653 a 0.42454307,0.42454307 0 0 0 0.6024439,0 L 4.6918764,5.5441047 a 0.25942578,0.25942578 0 0 1 0.3675203,-0.00174 L 5.5450995,6.0280631 A 0.25942578,0.25942578 0 0 1 5.5595138,6.3782889 6.4339321,6.4339321 0 0 0 4.8057372,7.5024652 0.25942578,0.25942578 0 0 1 4.4785726,7.6235331 L 2.4060492,6.7861631 A 0.25942578,0.25942578 0 0 1 2.263365,6.4474706 L 2.4896417,5.8868186 A 0.5106926,0.5106926 0 0 0 2.2085968,5.220958 L 2.1379789,5.1921468 A 0.5106926,0.5106926 0 0 0 1.47212,5.476072 L 0.51656844,7.8426113 a 0.5106926,0.5106926 0 0 0 0.28104407,0.6658605 l 0.0706179,0.027419 A 0.5106926,0.5106926 0 0 0 1.5340902,8.2534013 L 1.7603668,7.6913134 A 0.25942578,0.25942578 0 0 1 2.0976206,7.5486327 l 2.0725233,0.837361 A 0.25942578,0.25942578 0 0 1 4.3229172,8.6987475 6.4339321,6.4339321 0 0 0 4.0937577,9.8993129 0.25942578,0.25942578 0 0 1 3.8343316,10.134242 Z"
     class="st2"
     id="path3"
     style="fill:#000000;fill-opacity:1;stroke:none;stroke-width:0.0345901;stroke-linecap:round;stroke-linejoin:round" />
</svg>