<?xml version="1.0" encoding="UTF-8" standalone="no"?>
<svg width="21" height="21" viewBox="0 0 21 21" xmlns="http://www.w3.org/2000/svg">
  <path
     d="m 9.0833242,15.575602 a 1.4166764,1.4166764 0 0 1 2.8333528,0 1.4166764,1.4166764 0 0 1 -2.8333528,0 z m 0.080992,-3.7115 -0.2301917,-5.8457406 a 0.63942254,0.63942254 0 0 0 -0.00138,-0.024154 1.5733773,1.8280379 0 0 1 -0.00564,-0.1548818 0.63942253,0.63942253 0 0 1 0,-0.00288 1.5733773,1.8280379 0 0 1 3.1459585,0 0.63942253,0.63942253 0 0 1 0,0.00288 1.5733773,1.8280379 0 0 1 -0.0056,0.1548818 0.63942254,0.63942254 0 0 0 -0.0014,0.024154 l -0.231612,5.8457406 a 0.63942254,0.63942254 0 0 0 0,0.02982 1.3349724,1.5510456 0 1 1 -2.6699446,0 0.63942254,0.63942254 0 0 0 0,-0.02982 z M 14.340797,0.58895277 H 6.6592005 A 0.63942254,0.63942254 0 0 0 6.2073422,0.77651661 L 0.77651396,6.2087666 A 0.63942254,0.63942254 0 0 0 0.58895012,6.6606248 v 7.6801782 a 0.63942254,0.63942254 0 0 0 0.18756384,0.451859 L 6.2073422,20.22491 a 0.63942254,0.63942254 0 0 0 0.4518583,0.186137 h 7.6815965 a 0.63942254,0.63942254 0 0 0 0.451858,-0.186137 l 5.430832,-5.432248 A 0.63942254,0.63942254 0 0 0 20.41105,14.340803 V 6.6606248 A 0.63942254,0.63942254 0 0 0 20.223487,6.2087666 L 14.792655,0.77651661 A 0.63942254,0.63942254 0 0 0 14.340797,0.58895277 Z"
     class="st2"
     id="path3"
     style="fill:#000000;fill-opacity:1;stroke:none;stroke-width:0.0341026;stroke-linecap:round;stroke-linejoin:round" />
</svg>