<?xml version="1.0" encoding="UTF-8" standalone="no"?>
<svg width="21" height="21" viewBox="0 0 21 21" xmlns="http://www.w3.org/2000/svg">
  <path
     d="m 7.1537673,19.120204 0.9298265,-5.016023 a 0.91626723,0.91626723 0 0 0 -1.0880652,-1.06426 l -4.9950181,1.034853 a 0.91626723,0.91626723 0 0 0 -0.455111,1.551578 l 4.0665918,3.982571 a 0.91626723,0.91626723 0 0 0 1.541776,-0.488719 z M 17.411269,6.4653179 a 2.8060743,2.8060743 0 1 1 -5.611169,0 2.8060743,2.8060743 0 1 1 5.611169,0 z m -4.26544,0 a 1.4603041,1.4603041 0 1 0 2.919712,0 1.4603041,1.4603041 0 1 0 -2.919712,0 z M 9.4979391,17.824888 12.098373,20.363707 a 0.15753842,0.15753842 0 0 0 0.219854,0 8.0099537,8.0099537 0 0 0 0.268866,-0.275867 0.63015368,0.63015368 0 0 1 0.03501,-0.03501 6.8006185,6.8006185 0 0 0 2.006689,-6.608211 0.63015368,0.63015368 0 0 1 -0.0112,-0.05041 8.0099537,8.0099537 0 0 0 -0.007,-0.04341 0.31507684,0.31507684 0 0 1 0.145636,-0.319278 11.800285,11.800285 0 0 0 2.83009,-2.440795 11.800285,11.800285 0 0 0 2.607436,-9.5825368 0.15753842,0.15753842 0 0 0 -0.04481,-0.0854208 l -0.0266,-0.0266033 a 0.15753842,0.15753842 0 0 0 -0.07561,-0.0420142 10.579776,10.579776 0 0 0 -9.576936,2.59763336 0.63015368,0.63015368 0 0 1 -0.02381,0.021007 11.800285,11.800285 0 0 0 -2.4842057,2.908509 0.15753842,0.15753842 0 0 1 -0.1624396,0.074222 8.0099537,8.0099537 0 0 0 -0.1442352,-0.025202 0.63015368,0.63015368 0 0 1 -0.050412,-0.0098 6.8006185,6.8006185 0 0 0 -6.60821146,2.0052886 0.63015368,0.63015368 0 0 1 -0.0364089,0.03641 8.0099537,8.0099537 0 0 0 -0.27586728,0.2674649 0.15753842,0.15753842 0 0 0 0,0.2212541 L 3.2538162,11.582166 a 4.4110757,4.424645 0 1 1 6.2441229,6.242722 z"
     class="st2"
     id="webexpress"
     style="fill:#000000;fill-opacity:1;stroke:none;stroke-width:0.0336082;stroke-linecap:round;stroke-linejoin:round" />
</svg>