<?xml version="1.0" encoding="UTF-8" standalone="no"?>
<svg width="21" height="21" viewBox="0 0 21 21" xmlns="http://www.w3.org/2000/svg">
  <path
     id="rect9"
     class="st4"
     d="M 10.399163,0.55820362 9.8299044,2.3167537 a 38.639139,38.639139 0 0 1 -1.8289343,0 L 9.4606494,3.3819975 8.7646594,5.3531422 10.399163,4.1822215 12.033665,5.3531422 11.393817,3.3960329 A 48.657982,48.657982 0 0 1 12.797355,2.3167537 H 10.966976 Z M 16.451094,3.1109913 16.01703,4.4497195 a 29.417672,29.417672 0 0 1 -1.392186,0 L 15.736735,5.2612944 15.206899,6.761841 16.451094,5.8699755 17.69529,6.761841 17.207767,5.2724398 A 37.045514,37.045514 0 0 1 18.275694,4.4497195 H 16.883508 Z M 13.677456,5.5692476 A 0.46956284,0.46956284 0 0 0 13.236787,5.729416 l -1.835953,2.1882791 1.594874,1.3399673 1.837397,-2.1882818 A 0.46956284,0.46956284 0 0 0 14.775314,6.4072415 L 13.897484,5.6716227 A 0.46956284,0.46956284 0 0 0 13.677458,5.5692476 Z m 3.764372,3.0716827 -0.345105,1.0695793 a 23.506463,23.506463 0 0 1 -1.113337,0 l 0.887738,0.6481034 -0.422712,1.1992 0.993416,-0.713122 0.99486,0.713122 -0.388862,-1.190737 a 29.601552,29.601552 0 0 1 0.853681,-0.6565664 h -1.11313 z m -6.75267,0.123635 -8.4810851,10.1083637 a 0.46956284,0.46956284 0 0 0 0.057791,0.660901 l 0.8765918,0.736858 a 0.46956284,0.46956284 0 0 0 0.6621392,-0.05923 L 12.28568,10.104536 Z m 2.465893,2.7073837 -0.76658,0.914364 h 2.512333 a 0.3322335,0.3322335 0 0 1 0.332515,0.332515 v 0.913124 a 0.3322335,0.3322335 0 0 0 0.332514,0.332516 h 0.996306 a 0.3322335,0.3322335 0 0 1 0.332515,0.332514 v 4.899174 A 0.3322335,0.3322335 0 0 1 16.562139,19.52867 H 11.41198 a 0.3322335,0.3322335 0 0 1 -0.33107,-0.332514 v -5.251503 l -0.831389,0.990526 v 4.843033 a 0.66446559,0.66446559 0 0 0 0.663791,0.663584 h 6.147496 a 0.66446559,0.66446559 0 0 0 0.663791,-0.663584 v -5.675661 a 0.3322335,0.3322335 0 0 0 -0.09722,-0.235298 L 15.33053,11.569165 a 0.3322335,0.3322335 0 0 0 -0.235299,-0.09722 z m -1.443787,3.469422 v 0.964727 h 4.551591 v -0.964727 z m 0,1.44709 v 0.964932 h 4.551591 v -0.964932 z m 0,1.447294 v 0.964932 h 4.551591 v -0.964932 z"
     style="fill:#000000;fill-opacity:1;stroke:none;stroke-width:0.105678;stroke-linecap:round;stroke-linejoin:round" />
</svg>