<?xml version="1.0" encoding="UTF-8" standalone="no"?>
<svg width="21" height="21" viewBox="0 0 21 21" xmlns="http://www.w3.org/2000/svg">
  <path
     d="M 11.4544,0.47292647 A 9.9921597,10.073404 0 0 0 10.934885,0.43624093 V 5.1148077 A 9.0798397,4.7751176 0 0 0 14.804828,4.5644744 5.1953374,10.175678 0 0 0 11.4544,0.47292971 Z M 15.023494,5.213131 a 10.079054,5.4305278 0 0 1 -4.088609,0.5562037 v 4.6521513 a 10.079054,4.75171 0 0 0 4.83266,-0.679478 5.1953374,10.175678 0 0 0 -0.744051,-4.528877 z m 0.758726,5.253849 a 11.121709,5.4305278 0 0 1 -4.847335,0.632513 v 4.426154 a 10.116536,4.6668559 0 0 0 4.317548,-0.542998 5.1953374,10.175678 0 0 0 0.529787,-4.515669 z m -0.766064,5.358043 a 11.121709,5.4305278 0 0 1 -4.081271,0.463751 v 4.274988 a 9.9921597,10.073404 0 0 0 0.565009,-0.04109 5.1953374,10.175678 0 0 0 3.516262,-4.697645 z m -5.2802648,4.719663 a 9.9921597,10.073404 0 0 0 0.3301998,0.01904 V 16.288742 A 11.121709,5.4305278 0 0 1 6.1697315,15.864618 5.1953374,10.175678 0 0 0 9.7358912,20.544654 Z M 5.931987,15.026677 a 10.116536,4.6668559 0 0 0 4.134104,0.49897 V 11.098026 A 11.121709,5.4305278 0 0 1 5.3919268,10.480188 5.1953374,10.175678 0 0 0 5.931987,15.026677 Z M 5.405135,9.7552154 a 10.079054,4.75171 0 0 0 4.660956,0.6633356 V 5.7663995 A 10.079054,5.4305278 0 0 1 6.1462502,5.2248717 5.1953374,10.175678 0 0 0 5.405135,9.7552154 Z M 6.3649161,4.5776794 A 9.0798397,4.7751176 0 0 0 10.066091,5.1104017 V 0.43623769 A 9.9921597,10.073404 0 0 0 9.7828531,0.45384707 5.1953374,10.175678 0 0 0 6.3649161,4.5776794 Z M 7.4802585,0.89851765 A 9.9921597,10.073404 0 0 0 3.4811693,3.3317244 9.0798397,4.7751176 0 0 0 5.6326056,4.3531432 5.9084226,11.295496 0 0 1 7.4802585,0.89851765 Z M 5.4242128,5.0150112 A 10.079054,5.4305278 0 0 1 2.9499145,3.9026039 9.9921597,10.073404 0 0 0 1.046495,7.2383578 10.079054,4.75171 0 0 0 4.7007086,9.5380171 5.9084226,11.295496 0 0 1 5.4242128,5.0150112 Z M 4.6801625,10.2806 A 11.121709,5.4305278 0 0 1 0.763257,8.2406982 9.9921597,10.073404 0 0 0 0.59155295,11.805391 10.116536,4.6668559 0 0 0 5.126299,14.816815 5.9084226,11.295496 0 0 1 4.6801625,10.2806 Z m 0.651595,5.390331 A 11.121709,5.4305278 0 0 1 1.0274164,13.708809 9.9921597,10.073404 0 0 0 7.4670502,20.098544 5.9084226,11.295496 0 0 1 5.3317575,15.670931 Z m 8.4413795,4.3469 a 9.9921597,10.073404 0 0 0 6.198955,-6.309022 11.121709,5.4305278 0 0 1 -4.117961,1.913694 5.9084226,11.295496 0 0 1 -2.080994,4.395328 z m 2.286452,-5.256786 a 10.116536,4.6668559 0 0 0 4.348367,-2.955654 9.9921597,10.073404 0 0 0 -0.149691,-3.4722366 11.121709,5.4305278 0 0 1 -3.76428,1.9327706 5.9084226,11.295496 0 0 1 -0.434396,4.49512 z m 0.41385,-5.2391705 A 10.079054,4.75171 0 0 0 19.99117,7.3513593 9.9921597,10.073404 0 0 0 18.093621,3.9525009 10.079054,5.4305278 0 0 1 15.745532,5.0003354 5.9084226,11.295496 0 0 1 16.473439,9.5218745 Z m -0.9363,-5.1834064 a 9.0798397,4.7751176 0 0 0 2.031097,-0.9583143 9.9921597,10.073404 0 0 0 -3.808307,-2.40092067 5.9084226,11.295496 0 0 1 1.77721,3.35923497 z"
     class="st2"
     id="path3"
     style="fill:#000000;fill-opacity:1;stroke:none;stroke-width:0.110066;stroke-linecap:round;stroke-linejoin:round" />
</svg>