<?xml version="1.0" encoding="UTF-8" standalone="no"?>
<svg width="21" height="21" viewBox="0 0 21 21" xmlns="http://www.w3.org/2000/svg">
  <path
     d="m 5.9351421,2.1547073 h 0.00145 z M 11.591828,9.0186396 9.5291449,6.9559561 A 0.65690548,0.65690548 0 0 1 9.3656484,6.2990507 4.4751614,4.4751614 0 0 0 5.0928428,0.51390289 0.32845274,0.32845274 0 0 0 4.8592762,1.0730028 L 5.9351421,2.1547073 6.740946,2.9605113 A 0.65690548,0.65690548 0 0 1 6.9336377,3.424724 V 4.9472854 A 0.65690548,0.65690548 0 0 1 6.740946,5.4114981 L 5.6650802,6.4888231 A 0.65690548,0.65690548 0 0 1 5.1994073,6.6815158 H 3.6403516 A 0.56895606,0.56895606 0 0 1 3.2374501,6.5150992 L 3.0724937,6.3501438 a 0.00155977,0.00155977 0 0 0 -0.00218,-2.1e-6 0.00244181,0.00244181 0 0 1 -0.00291,-3.1e-6 L 1.7689343,5.0465511 A 0.65690549,0.65690549 0 0 0 0.65365476,5.5998113 4.4751614,4.4751614 0 0 0 6.3015825,9.2960004 0.65690548,0.65690548 0 0 1 6.4723776,9.2711793 0.65690548,0.65690548 0 0 1 6.9438902,9.463872 l 2.0466252,2.046625 a 0.00117634,0.00117634 0 0 1 -3.064e-4,0.0019 0.00117634,0.00117634 0 0 0 -3.064e-4,0.0019 l 2.6515914,2.651592 a 0.65690548,0.65690548 0 0 1 0.166417,0.646686 4.3578965,4.3781583 0 0 0 2.436389,5.227508 0.65690548,0.65690548 0 0 1 0.02482,0.01168 4.2082971,4.2082971 0 0 0 6.068347,-3.646556 0.65690548,0.65690548 0 0 1 0.0015,-0.03211 4.3578965,4.3781583 0 0 0 -5.493189,-4.566223 0.65690548,0.65690548 0 0 1 -0.343051,0.0015 0.65690548,0.65690548 0 0 1 -0.296337,-0.169336 L 11.591864,9.0215299 Z m 0,0.00291 a 0.00103248,0.00103248 0 0 1 0,-0.00145 z m 0,-0.00145 a 0.00103223,0.00103223 0 0 0 0,-0.00145 z M 3.0710335,6.3501375 h -0.00145 z m 14.0898935,7.4566065 1.075865,1.077324 a 0.65690548,0.65690548 0 0 1 0.192692,0.464214 v 1.522561 a 0.65690548,0.65690548 0 0 1 -0.192692,0.465672 l -1.075865,1.077325 a 0.65690548,0.65690548 0 0 1 -0.465674,0.191234 h -1.52256 A 0.65690548,0.65690548 0 0 1 14.708479,18.41384 l -1.077325,-1.077325 a 0.65690548,0.65690548 0 0 1 -0.192692,-0.465672 v -1.522561 a 0.65690548,0.65690548 0 0 1 0.192692,-0.464214 l 1.077325,-1.077324 a 0.65690548,0.65690548 0 0 1 0.464214,-0.192692 h 1.52256 a 0.65690548,0.65690548 0 0 1 0.465674,0.192692 z"
     class="st2"
     id="path3"
     style="fill:#000000;fill-opacity:1;stroke:none;stroke-width:0.145979" />
</svg>