<?xml version="1.0" encoding="UTF-8" standalone="no"?>
<svg
   width="150"
   height="150"
   viewBox="0 0 150 150"
   version="1.1"
   id="svg2"
   xml:space="preserve"
   xmlns="http://www.w3.org/2000/svg"
   xmlns:svg="http://www.w3.org/2000/svg">
	<rect
     style="fill:#007F46;stroke-width:0;fill-opacity:1;stroke:none"
     id="rect5"
     width="150"
     height="150"
     x="0"
     y="0"/>
	<path
     id="ufo"
     style="fill:#ffffff;fill-opacity:1;stroke-width:0"
     d="M 75.140625 33 A 29.243882 27.851316 0 0 0 46.183594 58.066406 L 104.2207 58.066406 A 29.243882 27.851316 0 0 0 75.140625 33 z M 27.792969 60.851562 L 12.751953 73.384766 L 21.283203 73.384766 L 30.644531 60.851562 L 27.792969 60.851562 z M 32.644531 60.851562 L 23.283203 73.384766 L 30.158203 73.384766 L 36.710938 60.851562 L 32.644531 60.851562 z M 38.710938 60.851562 L 32.158203 73.384766 L 38.074219 73.384766 L 42.755859 60.851562 L 38.710938 60.851562 z M 44.755859 60.851562 L 40.074219 73.384766 L 45.03125 73.384766 L 48.777344 60.851562 L 45.896484 60.851562 L 44.755859 60.851562 z M 50.777344 60.851562 L 47.03125 73.384766 L 51.990234 73.384766 L 54.798828 60.851562 L 50.777344 60.851562 z M 56.798828 60.851562 L 53.990234 73.384766 L 58.949219 73.384766 L 60.820312 60.851562 L 56.798828 60.851562 z M 62.820312 60.851562 L 60.949219 73.384766 L 65.90625 73.384766 L 66.84375 60.851562 L 62.820312 60.851562 z M 68.84375 60.851562 L 67.90625 73.384766 L 72.865234 73.384766 L 72.865234 60.851562 L 68.84375 60.851562 z M 74.865234 60.851562 L 74.865234 73.384766 L 79.824219 73.384766 L 78.886719 60.851562 L 74.865234 60.851562 z M 80.886719 60.851562 L 81.824219 73.384766 L 86.78125 73.384766 L 84.910156 60.851562 L 80.886719 60.851562 z M 86.910156 60.851562 L 88.78125 73.384766 L 93.740234 73.384766 L 90.931641 60.851562 L 86.910156 60.851562 z M 92.931641 60.851562 L 95.740234 73.384766 L 100.69922 73.384766 L 96.953125 60.851562 L 92.931641 60.851562 z M 98.953125 60.851562 L 102.69922 73.384766 L 107.65625 73.384766 L 102.97461 60.851562 L 98.953125 60.851562 z M 104.97461 60.851562 L 109.65625 73.384766 L 115.57227 73.384766 L 109.01953 60.851562 L 104.97461 60.851562 z M 111.01953 60.851562 L 117.57227 73.384766 L 124.44727 73.384766 L 115.08594 60.851562 L 111.34766 60.851562 L 111.01953 60.851562 z M 117.08594 60.851562 L 126.44727 73.384766 L 137.24805 73.384766 L 119.70312 60.851562 L 117.08594 60.851562 z M 13.195312 76.074219 L 39.714844 92.347656 L 28.664062 111.49023 A 8.3553947 2.7851316 0 0 0 21.951172 114.21484 A 8.3553947 2.7851316 0 0 0 30.306641 117 A 8.3553947 2.7851316 0 0 0 38.662109 114.21484 A 8.3553947 2.7851316 0 0 0 34.865234 111.88477 L 44.462891 95.259766 L 72.355469 112.37695 L 100.94336 96.296875 L 109.94531 111.89258 A 8.3553947 2.7851316 0 0 0 106.14844 114.21484 A 8.3553947 2.7851316 0 0 0 114.50391 117 A 8.3553947 2.7851316 0 0 0 122.85938 114.21484 A 8.3553947 2.7851316 0 0 0 116.14453 111.48438 L 105.79883 93.5625 L 136.89258 76.074219 L 13.195312 76.074219 z " />
</svg>
